<svg xmlns="http://www.w3.org/2000/svg" width="100%" height="100%" viewBox="0 0 100 100" preserveAspectRatio="xMidYMid" class="uil-pie"><rect x="0" y="0" width="100" height="100" fill="none" class="bk"/><path d="M0 50A50 50 0 0 1 50 0L50 50 0 50" fill="#78c700" opacity="0.5"><animateTransform attributeName="transform" type="rotate" from="0 50 50" to="360 50 50" dur="1.4s" repeatCount="indefinite"/></path><path d="M50 0A50 50 0 0 1 100 50L50 50 50 0" fill="#29a600" opacity="0.5"><animateTransform attributeName="transform" type="rotate" from="0 50 50" to="360 50 50" dur="2.0s" repeatCount="indefinite"/></path><path d="M100 50A50 50 0 0 1 50 100L50 50 100 50" fill="#2cde00" opacity="0.5"><animateTransform attributeName="transform" type="rotate" from="0 50 50" to="360 50 50" dur="2.6s" repeatCount="indefinite"/></path><path d="M50 100A50 50 0 0 1 0 50L50 50 50 100" fill="#0c7d00" opacity="0.5"><animateTransform attributeName="transform" type="rotate" from="0 50 50" to="360 50 50" dur="3.2s" repeatCount="indefinite"/></path>
<circle fill="#FFFFFF" cx="50" cy="50" r="25"/></svg>