<svg xmlns="http://www.w3.org/2000/svg" version="1.1" x="0" y="0" width="60" height="40" viewBox="0 0 60 40" enable-background="new 0 0 60 40" xml:space="preserve"><circle fill="#010202" cx="8.2" cy="5.2" r="2.9"/><circle fill="#010202" cx="24.7" cy="4.4" r="3"/><path fill="#010202" d="M27.8 8.3h-5.9c-1.9 0-2.7 1-3.4 3.2l-2.4 5.9 -2.3-5.8c-0.3-0.9-1.5-2.6-3.6-2.7H6.2C4.1 9 2.9 10.6 2.6 11.6L0.1 19.9c-0.5 1.8 1.8 2.5 2.3 0.8l2.2-7.7h0.6L1.4 26.5h3.6v10.1c0 1.8 2.8 1.8 2.8 0v-10.1h0.8v10.1c0 1.8 2.7 1.8 2.7 0v-10.1h3.7l-3.9-13.5h0.7l3.1 8c0 0 0 0 0 0 0.2 1.2 2 1.5 2.5 0.1l3.4-8.2h0.3v23.3c0 2.5 3.4 2.4 3.4 0V22.7h0.5v13.5c0.1 2.4 3.5 2.5 3.5 0V12.9h0.6v8.5c0 1.8 2.6 1.8 2.6 0v-9.2C31.6 10.3 30.1 8.3 27.8 8.3z"/><circle fill="#010202" cx="41.6" cy="13.2" r="2.2"/><path fill="#010202" d="M45.9 18.1c-0.3-0.7-1.2-2-2.7-2h-3c-1.6 0-2.5 1.3-2.7 2l-1.9 6.3c-0.4 1.4 1.3 1.9 1.8 0.6l1.7-5.8h0.5l-2.9 10.2h2.7v7.6c0 1.4 2.1 1.4 2.1 0v-7.6h0.6v7.6c0 1.4 2 1.4 2 0v-7.6h2.8l-3-10.2h0.5l2.3 6c0.4 1.3 2.1 0.8 1.8-0.6L45.9 18.1zM59.8 18.8c-0.1-0.6-0.3-0.9-0.7-1.3 -0.4-0.4-0.9-0.7-1.4-0.8 -0.5-0.1-5.3-0.1-5.8 0 -1 0.2-1.8 1-2.1 2 -0.1 0.4-0.1 7.6 0 7.9 0.2 0.4 0.7 0.6 1.1 0.5 0.3-0.1 0.5-0.2 0.6-0.4 0.1-0.2 0.1-0.3 0.1-3.4v-3.2h0.2 0.2v8.5c0 5.7 0 8.5 0.1 8.7 0.1 0.3 0.4 0.6 0.8 0.8 0.2 0.1 0.8 0 1-0.1 0.2-0.1 0.5-0.4 0.6-0.6 0.1-0.1 0.1-1.1 0.1-5.2v-5h0.2 0.2v5c0 5.5 0 5.2 0.3 5.5 0.3 0.3 0.5 0.4 1 0.4 0.4 0 0.7-0.1 1-0.4 0.3-0.3 0.3 0.3 0.3-9.1v-8.5h0.2 0.2l0 3.3 0 3.3 0.1 0.2c0.2 0.3 0.8 0.5 1.2 0.3 0.3-0.1 0.4-0.2 0.5-0.5 0.1-0.2 0.1-0.7 0.1-3.8C59.9 19.4 59.9 19.2 59.8 18.8zM54.2 16.2c0.2 0.1 0.4 0.1 0.8 0.1 0.4 0 0.5 0 0.9-0.2 0.5-0.2 0.8-0.6 1-1 0.1-0.3 0.1-0.4 0.1-0.9 0-0.6 0-0.6-0.2-1 -0.8-1.6-3.1-1.6-4 0 -0.2 0.3-0.2 0.4-0.2 0.9 0 0.5 0 0.6 0.2 0.9C53.1 15.6 53.5 15.9 54.2 16.2z"/></svg>