<svg xmlns="http://www.w3.org/2000/svg" version="1.1" x="0" y="0" width="24" height="28" viewBox="0 0 24 28" enable-background="new 0 0 24 28" xml:space="preserve"><path opacity="0.4" clip-rule="evenodd" d="M22.9 13.3c-0.4-0.4-0.8-0.6-1.4-0.6h-0.6V8.9c0-2.4-0.9-4.5-2.6-6.3 -1.8-1.8-3.8-2.6-6.3-2.6 -2.4 0-4.5 0.9-6.3 2.6 -1.8 1.8-2.6 3.8-2.6 6.3v3.8H2.5c-0.5 0-1 0.2-1.4 0.6 -0.4 0.4-0.6 0.8-0.6 1.4v11.5c0 0.5 0.2 1 0.6 1.4 0.4 0.4 0.8 0.6 1.4 0.6h19.1c0.5 0 1-0.2 1.4-0.6s0.6-0.8 0.6-1.4V14.6C23.5 14.1 23.3 13.7 22.9 13.3zM6.9 8.9c0-1.4 0.5-2.6 1.5-3.6 1-1 2.2-1.5 3.6-1.5s2.6 0.5 3.6 1.5c1 1 1.5 2.2 1.5 3.6v3.8H6.9V8.9z"/></svg>