<svg xmlns="http://www.w3.org/2000/svg" version="1.1" x="0" y="0" width="18" height="18" viewBox="0 0 18 18" enable-background="new 0 0 18 18" xml:space="preserve"><path opacity="0.3" clip-rule="evenodd" fill="#010202" d="M18 16.6c0-0.4-0.2-0.7-0.4-1l-3.8-3.9c0.9-1.2 1.4-2.7 1.4-4.1C15.2 3.5 11.6 0 7.6 0 3.6 0 0 3.5 0 7.6c0 4 3.6 7.6 7.6 7.6 1.5 0 2.9-0.5 4.1-1.4l3.9 3.8c0.3 0.3 0.6 0.4 1 0.4C17.3 18 18 17.3 18 16.6zM12.2 7.6c0 2.6-2.1 4.7-4.7 4.7 -2.6 0-4.7-2.1-4.7-4.7 0-2.6 2.1-4.7 4.7-4.7C10.1 2.9 12.2 5 12.2 7.6z"/></svg>