<svg xmlns="http://www.w3.org/2000/svg" version="1.1" id="Layer_1" x="0" y="0" width="16" height="16" viewBox="0 0 16 16" enable-background="new 0 0 16 16" xml:space="preserve"><path opacity="0.4" clip-rule="evenodd" d="M6 6.34c0 0-0.06 1.74 2 1.74 2 0 2-1.71 2-1.71V5.77l2.23 2.23c0.69 0.69 0.05 1.39 0.05 1.39l-5.74 5.75c0 0-1.32 1.47-3.07-0.28l-2.65-2.64c-1.77-1.77-0.16-3.44-0.16-3.44L6 3.42V6.34z"/><path opacity="0.7" clip-rule="evenodd" d="M10.64 5.22l2.42 2.39c0 0 0.56 0.5 0.43 2.05l-0.46 5.4 2.96-2.88c0 0 0.22-4.13-1.21-5.37C13.4 5.62 10.64 5.22 10.64 5.22z"/><g opacity="0.4"><path clip-rule="evenodd" d="M7 1c0-0.55 0.45-1 1-1s1 0.45 1 1v5c0 0.55-0.45 1-1 1S7 6.55 7 6V1z"/></g></svg>