<svg xmlns="http://www.w3.org/2000/svg" version="1.1" x="0" y="0" width="32" height="96" viewBox="0 0 32 96" enable-background="new 0 0 32 96" xml:space="preserve"><path opacity="0.7" clip-rule="evenodd" d="M10 79.5c0 4.31 6.5 11.5 6.5 11.5s6.51-7.19 6.51-11.5c0-3.59-2.92-6.51-6.51-6.51S10 75.91 10 79.5zM13 79.5c0-1.94 1.57-3.5 3.5-3.5 1.94 0 3.5 1.56 3.5 3.5 0 1.93-1.56 3.5-3.5 3.5C14.57 83 13 81.43 13 79.5z"/><path opacity="0.4" d="M23.01 35.99c-2.21 0-4.01 1.79-4.01 4 0 0.67 0.18 1.29 0.48 1.85L14.17 44.9c0.19 0.27 0.36 0.56 0.49 0.88l5.39-3.11c0.73 0.81 1.78 1.33 2.96 1.33 2.2 0 4-1.79 4-4C27.01 37.78 25.21 35.99 23.01 35.99z"/><path opacity="0.4" clip-rule="evenodd" d="M13.28 11.98c1.33 0.19 4.64 1.23 5.68 2h5.05v11H9v-7.75c-0.58-0.5-1.59-0.96-2-1.05V26.98h19.01v-15H13.28z"/><path opacity="0.7" clip-rule="evenodd" d="M19.23 17.75c-1.44-1.52-5.26-4.32-14.04-4.77 7.83 1.81 10.6 5.42 11.54 7.27L14 22.98h8.01v-8L19.23 17.75z"/><path opacity="0.4" d="M23.01 50.99c-1.3 0-2.45 0.63-3.18 1.6L14.5 49.51c-0.15 0.3-0.34 0.58-0.55 0.84l5.36 3.1C19.11 53.92 19 54.44 19 54.99c0 2.21 1.8 4 4.01 4 2.2 0 4-1.79 4-4C27.01 52.78 25.21 50.99 23.01 50.99z"/><path opacity="0.7" clip-rule="evenodd" d="M6 47.49c0-2.49 2.02-4.5 4.5-4.5 2.49 0 4.5 2.01 4.5 4.5 0 2.48-2.01 4.5-4.5 4.5C8.02 51.99 6 49.97 6 47.49z"/></svg>