<svg xmlns="http://www.w3.org/2000/svg" version="1.1" x="0" y="0" width="16" height="16" viewBox="0 0 16 16" enable-background="new 0 0 16 16" xml:space="preserve"><path clip-rule="evenodd" fill="#010202" d="M9.15 1.6C8.95 1.24 8.42 1 8 1S7.05 1.24 6.85 1.6L0.25 13.5c-0.31 0.61-0.15 1.23 0.15 1.69C0.65 15.58 1.43 16 1.83 16h12.31c0.4 0 1.11-0.33 1.42-0.8 0.29-0.42 0.46-1.15 0.13-1.73L9.15 1.6z"/><path clip-rule="evenodd" fill="#F1C429" d="M8.87 2.53C8.7 2.2 8.37 2 8 2S7.3 2.2 7.12 2.53l-6 11.09c-0.17 0.28-0.16 0.63 0.02 0.92C1.32 14.82 1.65 15 2 15h12c0.35 0 0.68-0.18 0.86-0.46 0.18-0.29 0.19-0.64 0.02-0.92L8.87 2.53zM8.98 9.85c0 0.1-0.12 0.18-0.26 0.18H7.27c-0.15 0-0.26-0.08-0.26-0.18L6.87 6.27c0-0.05 0.03-0.13 0.08-0.17C7 6.06 7.07 6.01 7.14 6.01h1.72C8.93 6.01 9 6.06 9.05 6.1s0.07 0.1 0.07 0.15L8.98 9.85zM9 12.84c0 0.16-0.11 0.28-0.25 0.28h-1.5C7.11 13.12 7 13 7 12.84V11.23c0-0.15 0.11-0.28 0.25-0.28h1.5c0.14 0 0.25 0.13 0.25 0.28V12.84z"/></svg>