<svg xmlns="http://www.w3.org/2000/svg" version="1.1" x="0" y="0" width="32" height="32" viewBox="0 0 32 32" enable-background="new 0 0 32 32" xml:space="preserve"><path clip-rule="evenodd" fill="#010202" d="M18.4 3C18.01 2.28 16.84 1.78 16 1.78S13.95 2.28 13.56 3L0.96 25.98c-0.48 0.87-0.23 2.33 0.36 2.99C1.83 29.54 2.48 30 3.28 30h25.43c0.81 0 1.49-0.44 1.97-1.03 0.55-0.68 0.8-2.3 0.31-3.11L18.4 3z"/><path clip-rule="evenodd" fill="#F1C429" d="M17.75 4.05C17.41 3.41 16.73 3 16 3c-0.74 0-1.41 0.41-1.75 1.05l-12 22.18C1.9 26.8 1.92 27.51 2.28 28.08 2.64 28.65 3.3 29 4 29h24c0.7 0 1.36-0.35 1.72-0.92 0.36-0.57 0.38-1.28 0.03-1.85L17.75 4.05zM17.97 18.7c-0.02 0.2-0.25 0.36-0.53 0.36h-2.89c-0.3 0-0.54-0.16-0.54-0.36l-0.26-7.17c0-0.09 0.05-0.25 0.16-0.33 0.09-0.08 0.23-0.17 0.37-0.17h3.44c0.14 0 0.28 0.09 0.37 0.17 0.11 0.08 0.16 0.21 0.16 0.3L17.97 18.7zM18 24.69c0 0.3-0.22 0.56-0.5 0.56h-3c-0.28 0-0.5-0.26-0.5-0.56V21.46c0-0.3 0.22-0.56 0.5-0.56h3c0.28 0 0.5 0.26 0.5 0.56V24.69z"/></svg>