<svg xmlns="http://www.w3.org/2000/svg" xmlns:xlink="http://www.w3.org/1999/xlink" version="1.1" id="Layer_1" x="0px" y="0px" width="245px" height="36px" viewBox="0 0 245 36" enable-background="new 0 0 245 36" xml:space="preserve">
<rect x="201" y="1" opacity="0.15" clip-rule="evenodd" fill="#231F20" width="5" height="34"/>
<rect x="208" y="1" opacity="0.15" clip-rule="evenodd" fill="#231F20" width="6" height="34"/>
<rect x="216" y="1" opacity="0.15" clip-rule="evenodd" fill="#231F20" width="5" height="34"/>
<rect x="223" y="1" opacity="0.15" clip-rule="evenodd" fill="#231F20" width="6" height="34"/>
<rect x="239" y="1" opacity="0.15" clip-rule="evenodd" fill="#231F20" width="5" height="34"/>
<rect x="231" y="1" opacity="0.15" clip-rule="evenodd" fill="#231F20" width="6" height="34"/>
<rect x="151" y="1" opacity="0.15" clip-rule="evenodd" fill="#231F20" width="7" height="34"/>
<rect x="160" y="1" opacity="0.15" clip-rule="evenodd" fill="#231F20" width="7" height="34"/>
<rect x="169" y="1" opacity="0.15" clip-rule="evenodd" fill="#231F20" width="7" height="34"/>
<rect x="178" y="1" opacity="0.15" clip-rule="evenodd" fill="#231F20" width="7" height="34"/>
<rect x="187" y="1" opacity="0.15" clip-rule="evenodd" fill="#231F20" width="7" height="34"/>
<rect x="112" y="1" opacity="0.15" clip-rule="evenodd" fill="#231F20" width="10" height="34"/>
<rect x="101" y="1" opacity="0.15" clip-rule="evenodd" fill="#231F20" width="9" height="34"/>
<rect x="124" y="1" opacity="0.15" clip-rule="evenodd" fill="#231F20" width="9" height="34"/>
<rect x="135" y="1" opacity="0.15" clip-rule="evenodd" fill="#231F20" width="9" height="34"/>
<rect x="51" y="1" opacity="0.15" clip-rule="evenodd" fill="#231F20" width="13" height="34"/>
<rect x="66" y="1" opacity="0.15" clip-rule="evenodd" fill="#231F20" width="13" height="34"/>
<rect x="81" y="1" opacity="0.15" clip-rule="evenodd" fill="#231F20" width="13" height="34"/>
<rect x="1" y="1" opacity="0.14" clip-rule="evenodd" fill="#231F20" width="21" height="34"/>
<rect x="24" y="1" opacity="0.14" clip-rule="evenodd" fill="#231F20" width="20" height="34"/>
<path clip-rule="evenodd" fill="#FFFFFF" d="M0 0v36h45V0H0z M22 35H1V1h21V35z M44 35H24V1h20V35z"/>
<path clip-rule="evenodd" fill="#FFFFFF" d="M50 0v36h45V0H50z M64 35H51V1h13V35z M79 35H66V1h13V35z M94 35 H81V1h13V35z"/>
<path clip-rule="evenodd" fill="#FFFFFF" d="M200 0v36h45V0H200z M206 35h-5V1h5V35z M214 35h-6V1h6V35z M221 35h-5V1h5V35z M229 35h-6V1h6V35z M237 35h-6V1h6V35z M244 35h-5V1h5V35z"/>
<path clip-rule="evenodd" fill="#FFFFFF" d="M150 0v36h45V0H150z M158 35h-7V1h7V35z M167 35h-7V1h7V35z M176 35h-7V1h7V35z M185 35h-7V1h7V35z M194 35h-7V1h7V35z"/>
<path clip-rule="evenodd" fill="#FFFFFF" d="M100 0v36h45V0H100z M110 35h-9V1h9V35z M122 35h-10V1h10V35z M133 35h-9V1h9V35z M144 35h-9V1h9V35z"/>
<path opacity="0.6" clip-rule="evenodd" fill="#FFFFFF" d="M13 18.5c0-5.25 4.25-9.5 9.5-9.5s9.5 4.2 9.5 9.5 S27.75 28 22.5 28S13 23.8 13 18.5z"/>
<path opacity="0.6" clip-rule="evenodd" fill="#FFFFFF" d="M63 18.5c0-5.25 4.25-9.5 9.5-9.5s9.5 4.2 9.5 9.5 S77.75 28 72.5 28S63 23.8 63 18.5z"/>
<path opacity="0.6" clip-rule="evenodd" fill="#FFFFFF" d="M113 18.5c0-5.25 4.25-9.5 9.5-9.5s9.5 4.2 9.5 9.5 s-4.25 9.5-9.5 9.5S113 23.8 113 18.5z"/>
<path opacity="0.6" clip-rule="evenodd" fill="#FFFFFF" d="M163 18.5c0-5.25 4.25-9.5 9.5-9.5s9.5 4.2 9.5 9.5 s-4.25 9.5-9.5 9.5S163 23.8 163 18.5z"/>
<path opacity="0.6" clip-rule="evenodd" fill="#FFFFFF" d="M213 18.5c0-5.25 4.25-9.5 9.5-9.5s9.5 4.2 9.5 9.5 s-4.25 9.5-9.5 9.5S213 23.8 213 18.5z"/>
<g opacity="0.5">
	<rect x="15.2" y="13" clip-rule="evenodd" fill="none" width="14.6" height="17.4"/>
	<path d="M19.567 20.865c0.303-0.625 0.895-1.192 1.774-1.703l1.312-0.758c0.588-0.342 1-0.634 1.237-0.876 c0.374-0.379 0.561-0.812 0.561-1.301c0-0.571-0.171-1.024-0.513-1.359s-0.797-0.503-1.367-0.503c-0.843 0-1.426 0.32-1.75 1 c-0.173 0.343-0.269 0.818-0.287 1.426h-1.251c0.014-0.852 0.171-1.547 0.472-2.085c0.533-0.948 1.474-1.422 2.823-1.422 c1.121 0 1.9 0.3 2.5 0.909s0.776 1.3 0.8 2.023c0 0.784-0.276 1.454-0.827 2.01c-0.319 0.324-0.891 0.715-1.716 1.2 l-0.937 0.52c-0.447 0.246-0.797 0.48-1.053 0.703c-0.456 0.396-0.743 0.837-0.861 1.32h5.346v1.162h-6.72 C19.09 22.2 19.3 21.5 19.6 20.865z"/>
</g>
<g opacity="0.5">
	<rect x="65.2" y="13" clip-rule="evenodd" fill="none" width="14.6" height="17.4"/>
	<path d="M69.725 22.379c-0.522-0.636-0.783-1.409-0.783-2.32h1.285c0.055 0.6 0.2 1.1 0.4 1.4 c0.319 0.5 0.9 0.8 1.7 0.771c0.647 0 1.167-0.173 1.559-0.52c0.392-0.346 0.588-0.793 0.588-1.34 c0-0.674-0.206-1.146-0.619-1.415s-0.985-0.403-1.719-0.403c-0.082 0-0.165 0.001-0.25 0.003s-0.17 0.006-0.256 0.01V17.46 c0.127 0 0.2 0 0.3 0.027s0.18 0 0.3 0.007c0.46 0 0.838-0.073 1.135-0.219c0.52-0.255 0.779-0.711 0.779-1.367 c0-0.488-0.173-0.864-0.52-1.128s-0.75-0.396-1.21-0.396c-0.82 0-1.388 0.273-1.702 0.82c-0.173 0.301-0.271 0.729-0.294 1.3 h-1.217c0-0.729 0.146-1.349 0.438-1.859c0.501-0.912 1.383-1.367 2.646-1.367c0.998 0 1.8 0.2 2.3 0.7 s0.82 1.1 0.8 1.931c0 0.602-0.162 1.089-0.485 1.463c-0.201 0.232-0.46 0.415-0.779 0.547c0.515 0.1 0.9 0.4 1.2 0.8 s0.434 0.9 0.4 1.48c0 0.934-0.308 1.695-0.923 2.283s-1.488 0.881-2.618 0.881C71.086 23.3 70.2 23 69.7 22.379z"/>
</g>
<g opacity="0.5">
	<rect x="115.2" y="13" clip-rule="evenodd" fill="none" width="14.6" height="17.4"/>
	<path d="M123.256 23.066v-2.393h-4.293v-1.203l4.484-6.221h1.039v6.35h1.442v1.074h-1.442v2.393H123.256z M123.235 19.6v-4.446 l-3.138 4.446H123.235z"/>
</g>
<g opacity="0.5">
	<rect x="165.2" y="13" clip-rule="evenodd" fill="none" width="14.6" height="17.4"/>
	<path d="M170.336 20.57c0.082 0.7 0.4 1.2 1 1.457c0.292 0.1 0.6 0.2 1 0.205c0.729 0 1.269-0.232 1.62-0.697 s0.526-0.98 0.526-1.545c0-0.684-0.208-1.213-0.626-1.586c-0.416-0.374-0.916-0.561-1.5-0.561c-0.424 0-0.787 0.082-1.09 0.2 c-0.304 0.164-0.562 0.392-0.776 0.684l-1.066-0.062l0.745-5.271h5.086v1.189h-4.163l-0.417 2.7 c0.229-0.173 0.444-0.303 0.649-0.39c0.364-0.15 0.786-0.226 1.265-0.226c0.898 0 1.7 0.3 2.3 0.868s0.937 1.3 0.9 2.2 c0 0.926-0.286 1.741-0.858 2.447c-0.571 0.707-1.484 1.061-2.737 1.061c-0.798 0-1.503-0.225-2.116-0.674 c-0.612-0.449-0.955-1.139-1.028-2.068H170.336z"/>
</g>
<g opacity="0.5">
	<rect x="215.2" y="13" clip-rule="evenodd" fill="none" width="14.6" height="17.4"/>
	<path d="M224.988 14.087c0.43 0.6 0.6 1.2 0.6 1.753h-1.217c-0.073-0.387-0.188-0.69-0.349-0.909 c-0.297-0.41-0.745-0.615-1.347-0.615c-0.688 0-1.235 0.318-1.641 0.954s-0.632 1.546-0.677 2.7 c0.283-0.415 0.639-0.725 1.066-0.93c0.393-0.182 0.83-0.273 1.312-0.273c0.82 0 1.5 0.3 2.1 0.786s0.916 1.3 0.9 2.3 c0 0.889-0.289 1.676-0.868 2.362s-1.403 1.028-2.475 1.028c-0.916 0-1.706-0.348-2.372-1.042s-0.998-1.865-0.998-3.51 c0-1.217 0.148-2.249 0.444-3.097c0.569-1.623 1.61-2.434 3.124-2.434C223.795 13.2 224.6 13.5 225 14.087z M224.064 21.572c0.322-0.436 0.482-0.949 0.482-1.541c0-0.502-0.144-0.979-0.431-1.433c-0.287-0.454-0.81-0.68-1.565-0.68 c-0.529 0-0.992 0.175-1.391 0.526c-0.399 0.351-0.599 0.879-0.599 1.586c0 0.6 0.2 1.1 0.5 1.6 c0.361 0.4 0.9 0.6 1.5 0.632C223.26 22.2 223.7 22 224.1 21.572z"/>
</g>
</svg>
