<svg xmlns="http://www.w3.org/2000/svg" version="1.1" x="0" y="0" width="245" height="36" viewBox="0 0 245 36" enable-background="new 0 0 245 36" xml:space="preserve"><path clip-rule="evenodd" fill="#FFFFFF" d="M0 0v36h45V0H0zM22 35H1V1h21V35zM44 35H24V1h20V35z"/><path clip-rule="evenodd" fill="#FFFFFF" d="M50 0v36h45V0H50zM64 35H51V1h13V35zM79 35H66V1h13V35zM94 35H81V1h13V35z"/><path clip-rule="evenodd" fill="#FFFFFF" d="M200 0v36h45V0H200zM206 35h-5V1h5V35zM214 35h-6V1h6V35zM221 35h-5V1h5V35zM229 35h-6V1h6V35zM237 35h-6V1h6V35zM244 35h-5V1h5V35z"/><path clip-rule="evenodd" fill="#FFFFFF" d="M150 0v36h45V0H150zM158 35h-7V1h7V35zM167 35h-7V1h7V35zM176 35h-7V1h7V35zM185 35h-7V1h7V35zM194 35h-7V1h7V35z"/><path clip-rule="evenodd" fill="#FFFFFF" d="M100 0v36h45V0H100zM110 35h-9V1h9V35zM122 35h-10V1h10V35zM133 35h-9V1h9V35zM144 35h-9V1h9V35z"/><rect x="201" y="1" opacity="0.15" clip-rule="evenodd" width="5" height="34"/><rect x="208" y="1" opacity="0.15" clip-rule="evenodd" width="6" height="34"/><rect x="216" y="1" opacity="0.15" clip-rule="evenodd" width="5" height="34"/><rect x="223" y="1" opacity="0.15" clip-rule="evenodd" width="6" height="34"/><rect x="239" y="1" opacity="0.15" clip-rule="evenodd" width="5" height="34"/><rect x="231" y="1" opacity="0.15" clip-rule="evenodd" width="6" height="34"/><rect x="151" y="1" opacity="0.15" clip-rule="evenodd" width="7" height="34"/><rect x="160" y="1" opacity="0.15" clip-rule="evenodd" width="7" height="34"/><rect x="169" y="1" opacity="0.15" clip-rule="evenodd" width="7" height="34"/><rect x="178" y="1" opacity="0.15" clip-rule="evenodd" width="7" height="34"/><rect x="187" y="1" opacity="0.15" clip-rule="evenodd" width="7" height="34"/><rect x="112" y="1" opacity="0.15" clip-rule="evenodd" width="10" height="34"/><rect x="101" y="1" opacity="0.15" clip-rule="evenodd" width="9" height="34"/><rect x="124" y="1" opacity="0.15" clip-rule="evenodd" width="9" height="34"/><rect x="135" y="1" opacity="0.15" clip-rule="evenodd" width="9" height="34"/><rect x="51" y="1" opacity="0.15" clip-rule="evenodd" width="13" height="34"/><rect x="66" y="1" opacity="0.15" clip-rule="evenodd" width="13" height="34"/><rect x="81" y="1" opacity="0.15" clip-rule="evenodd" width="13" height="34"/><rect x="1" y="1" opacity="0.15" clip-rule="evenodd" width="21" height="34"/><rect x="24" y="1" opacity="0.15" clip-rule="evenodd" width="20" height="34"/></svg>