<svg xmlns="http://www.w3.org/2000/svg" xmlns:xlink="http://www.w3.org/1999/xlink" version="1.1" x="0px" y="0px" width="145px" height="36px" viewBox="0 0 145 36" enable-background="new 0 0 145 36" xml:space="preserve"><path clip-rule="evenodd" fill="#FFFFFF" d="M0 0v36h45V0H0z M44 35H1V25h43V35z M44 23H1V13h43V23z M44 11H1V1 h43V11z"/><path clip-rule="evenodd" fill="#FFFFFF" d="M50 0v36h45V0H50z M61 35H51V25h10V35z M61 23H51V13h10V23z M61 11 H51V1h10V11z M72 35H62V25h10V35z M72 23H62V13h10V23z M72 11H62V1h10V11z M83 35H73V25h10V35z M83 23H73V13h10V23z M83 11H73V1h10 V11z M94 35H84V25h10V35z M94 23H84V13h10V23z M94 11H84V1h10V11z"/><path clip-rule="evenodd" fill="#FFFFFF" d="M100 0v36h45V0H100z M101 13h21v10h-21V13z M114 35h-13V25h13V35z M129 35h-13V25h13V35z M144 35h-13V25h13V35z M144 23h-20V13h20V23z M144 11h-43V1h43V11z"/><rect x="1" y="1" opacity="0.25" clip-rule="evenodd" width="43" height="10"/><rect x="1" y="13" opacity="0.15" clip-rule="evenodd" width="43" height="10"/><rect x="1" y="25" opacity="0.25" clip-rule="evenodd" width="43" height="10"/><rect x="51" y="1" opacity="0.25" clip-rule="evenodd" width="10" height="10"/><rect x="62" y="1" opacity="0.15" clip-rule="evenodd" width="10" height="10"/><rect x="73" y="1" opacity="0.25" clip-rule="evenodd" width="10" height="10"/><rect x="84" y="1" opacity="0.15" clip-rule="evenodd" width="10" height="10"/><rect x="51" y="13" opacity="0.15" clip-rule="evenodd" width="10" height="10"/><rect x="62" y="13" opacity="0.25" clip-rule="evenodd" width="10" height="10"/><rect x="73" y="13" opacity="0.15" clip-rule="evenodd" width="10" height="10"/><rect x="84" y="13" opacity="0.25" clip-rule="evenodd" width="10" height="10"/><rect x="51" y="25" opacity="0.25" clip-rule="evenodd" width="10" height="10"/><rect x="62" y="25" opacity="0.15" clip-rule="evenodd" width="10" height="10"/><rect x="73" y="25" opacity="0.25" clip-rule="evenodd" width="10" height="10"/><rect x="84" y="25" opacity="0.15" clip-rule="evenodd" width="10" height="10"/><rect x="101" y="1" opacity="0.25" clip-rule="evenodd" width="43" height="10"/><rect x="101" y="13" opacity="0.15" clip-rule="evenodd" width="21" height="10"/><rect x="124" y="13" opacity="0.25" clip-rule="evenodd" width="20" height="10"/><rect x="101" y="25" opacity="0.15" clip-rule="evenodd" width="13" height="10"/><rect x="116" y="25" opacity="0.25" clip-rule="evenodd" width="13" height="10"/><rect x="131" y="25" opacity="0.15" clip-rule="evenodd" width="13" height="10"/></svg>