<svg xmlns="http://www.w3.org/2000/svg" xmlns:xlink="http://www.w3.org/1999/xlink" version="1.1" x="0px" y="0px" width="70px" height="32px" viewBox="0 0 70 32" enable-background="new 0 0 70 32" xml:space="preserve"><path opacity="0.12" clip-rule="evenodd" d="M20 16c0-8.28 6.72-15 15-15s15 6.7 15 15c0 8.279-6.72 15-15 15 S20 24.3 20 16z"/><path opacity="0.13" clip-rule="evenodd" d="M20 17c0-8.28 6.72-15 15-15s15 6.7 15 15c0 8.279-6.72 15-15 15 S20 25.3 20 17z"/><circle clip-rule="evenodd" fill="#FFFFFF" cx="35" cy="16" r="14"/><rect x="11" y="11" clip-rule="evenodd" fill="#FFFFFF" width="1" height="10"/><circle opacity="0.3" clip-rule="evenodd" cx="58" cy="16" r="5"/><circle clip-rule="evenodd" fill="#FFFFFF" cx="58" cy="16" r="4"/></svg>