<svg xmlns="http://www.w3.org/2000/svg" xmlns:xlink="http://www.w3.org/1999/xlink" version="1.1" x="0px" y="0px" width="145px" height="36px" viewBox="0 0 145 36" enable-background="new 0 0 145 36" xml:space="preserve"><path clip-rule="evenodd" fill="#FFFFFF" d="M0 0v36h45V0H0z M44 35H1V1h43V35z"/><path clip-rule="evenodd" fill="#FFFFFF" d="M50 0v36h45V0H50z M78 35H51V1h27V35z M94 35H80V1h14V35z"/><path clip-rule="evenodd" fill="#FFFFFF" d="M100 0v36h45V0H100z M115 35h-14V1h14V35z M144 35h-27V1h27V35z"/><rect x="1" y="1" opacity="0.15" clip-rule="evenodd" width="43" height="34"/><rect x="51" y="1" opacity="0.15" clip-rule="evenodd" width="27" height="34"/><rect x="80" y="1" opacity="0.25" clip-rule="evenodd" width="14" height="34"/><rect x="117" y="1" opacity="0.15" clip-rule="evenodd" width="27" height="34"/><rect x="101" y="1" opacity="0.25" clip-rule="evenodd" width="14" height="34"/></svg>