<svg xmlns="http://www.w3.org/2000/svg" version="1.1" x="0" y="0" width="145" height="36" viewBox="0 0 145 36" enable-background="new 0 0 145 36" xml:space="preserve"><path clip-rule="evenodd" fill="#FFFFFF" d="M50 0v36h45V0H50zM78 35H51V1h27V35zM94 35H80V1h14V35zM0 0v36h45V0H0zM7 35H1V1h6V35zM36 35H9V1h27V35zM44 35h-6V1h6V35zM100 0v36h45V0H100zM115 35h-14V1h14V35zM144 35h-27V1h27V35z"/><rect x="9" y="1" opacity="0.3" clip-rule="evenodd" width="27" height="34"/><rect x="38" y="1" opacity="0.2" clip-rule="evenodd" width="6" height="34"/><rect x="1" y="1" opacity="0.2" clip-rule="evenodd" width="6" height="34"/><rect x="51" y="1" opacity="0.3" clip-rule="evenodd" width="27" height="34"/><rect x="80" y="1" opacity="0.2" clip-rule="evenodd" width="14" height="34"/><rect x="117" y="1" opacity="0.3" clip-rule="evenodd" width="27" height="34"/><rect x="101" y="1" opacity="0.2" clip-rule="evenodd" width="14" height="34"/></svg>