<?xml version="1.0" encoding="utf-8"?>
<!-- Generator: Adobe Illustrator 15.1.0, SVG Export Plug-In . SVG Version: 6.00 Build 0)  -->
<!DOCTYPE svg PUBLIC "-//W3C//DTD SVG 1.0//EN" "http://www.w3.org/TR/2001/REC-SVG-20010904/DTD/svg10.dtd">
<svg version="1.0" id="Layer_1" xmlns="http://www.w3.org/2000/svg" xmlns:xlink="http://www.w3.org/1999/xlink" x="0px" y="0px"
	 width="48px" height="48px" viewBox="0 0 600 600" enable-background="new 0 0 600 600" xml:space="preserve">
<g>
	<path fill="#FFBE00" d="M300,580.32c0,0,192-260.75,192-367.446c0-106.697-85.961-193.193-192-193.193s-192,86.496-192,193.193
		C108,319.57,300,580.32,300,580.32z"/>
	<circle fill="#FFFFFF" cx="300" cy="211.681" r="153.602"/>
</g>
<g>
	<defs>
		<path id="SVGID_1_" d="M216.83,277.572c0,0-25.999-41.385-17.666-75.586s43.667-57.201,69-69.535
			c25.333-12.332,46.666-12.332,47.666-7c1,5.334-10.334,8.334-12,18.334s19.334,14.666,27.334,13s9.332-3.666,10.666-28.334
			c1.334-24.666,2-16.666,2-16.666s6,4,11.332,13.666c5.334,9.668,5.668,19.197,11.668,28.6c6,9.4,32.334,28.576,35.334,57.988
			s-16.002,57.018-21.668,69.049s-13,21.701-12.666,28.365c0,0-11.334-9.73-22.334-28.365c-11-18.637-30-43.303-65.666-40.969
			C244.163,242.451,216.83,277.572,216.83,277.572z"/>
	</defs>
	<clipPath id="SVGID_2_">
		<use xlink:href="#SVGID_1_"  overflow="visible"/>
	</clipPath>
	<g clip-path="url(#SVGID_2_)">
		<g>
			<path fill-rule="evenodd" clip-rule="evenodd" d="M236.56,126.844c0.297,3.385-2.207,6.369-5.595,6.666l-17.164,1.502
				c-3.387,0.297-6.372-2.209-6.668-5.594l-1.502-17.165c-0.296-3.386,2.209-6.371,5.594-6.667l17.167-1.502
				c3.386-0.296,6.371,2.208,6.667,5.595L236.56,126.844z"/>
			<path fill-rule="evenodd" clip-rule="evenodd" d="M205.747,129.539c0.297,3.385-2.208,6.371-5.595,6.666l-17.165,1.502
				c-3.386,0.297-6.371-2.207-6.667-5.594l-1.502-17.165c-0.296-3.386,2.208-6.37,5.594-6.666l17.166-1.503
				c3.386-0.296,6.371,2.209,6.667,5.595L205.747,129.539z"/>
			<path fill-rule="evenodd" clip-rule="evenodd" d="M299.18,121.365c0.296,3.385-2.208,6.369-5.595,6.666l-17.165,1.502
				c-3.386,0.297-6.371-2.209-6.668-5.594l-1.501-17.165c-0.297-3.386,2.208-6.371,5.594-6.667l17.166-1.502
				c3.386-0.296,6.371,2.208,6.668,5.595L299.18,121.365z"/>
			<path fill-rule="evenodd" clip-rule="evenodd" d="M267.87,124.104c0.296,3.387-2.208,6.371-5.595,6.668l-17.165,1.502
				c-3.386,0.295-6.371-2.209-6.668-5.596l-1.501-17.164c-0.297-3.386,2.208-6.371,5.594-6.667l17.166-1.502
				c3.386-0.296,6.371,2.209,6.667,5.594L267.87,124.104z"/>
			<path fill-rule="evenodd" clip-rule="evenodd" d="M362.295,115.843c0.297,3.386-2.207,6.37-5.594,6.667l-17.164,1.502
				c-3.387,0.295-6.373-2.208-6.668-5.595l-1.502-17.165c-0.297-3.386,2.209-6.37,5.594-6.667l17.166-1.502
				c3.387-0.296,6.371,2.209,6.668,5.595L362.295,115.843z"/>
			<path fill-rule="evenodd" clip-rule="evenodd" d="M393.605,113.104c0.297,3.386-2.207,6.371-5.594,6.667l-17.166,1.502
				c-3.385,0.297-6.371-2.208-6.668-5.594l-1.5-17.166c-0.297-3.386,2.207-6.37,5.594-6.666l17.166-1.503
				c3.385-0.296,6.371,2.209,6.668,5.595L393.605,113.104z"/>
			<path fill-rule="evenodd" clip-rule="evenodd" d="M330.488,118.626c0.297,3.386-2.207,6.37-5.594,6.667l-17.166,1.502
				c-3.385,0.295-6.37-2.209-6.666-5.595l-1.502-17.166c-0.296-3.385,2.209-6.369,5.594-6.666l17.166-1.502
				c3.387-0.297,6.371,2.209,6.668,5.594L330.488,118.626z"/>
		</g>
		<g>
			<path fill-rule="evenodd" clip-rule="evenodd" d="M239.343,158.65c0.296,3.385-2.208,6.369-5.595,6.666l-17.165,1.502
				c-3.386,0.297-6.371-2.207-6.668-5.594l-1.501-17.166c-0.297-3.385,2.208-6.371,5.594-6.666l17.166-1.502
				c3.386-0.297,6.371,2.209,6.668,5.594L239.343,158.65z"/>
			<path fill-rule="evenodd" clip-rule="evenodd" d="M208.53,161.346c0.296,3.387-2.208,6.371-5.595,6.666l-17.165,1.502
				c-3.386,0.297-6.372-2.207-6.668-5.594l-1.501-17.166c-0.297-3.385,2.208-6.369,5.594-6.666l17.166-1.502
				c3.386-0.297,6.371,2.209,6.667,5.594L208.53,161.346z"/>
			<path fill-rule="evenodd" clip-rule="evenodd" d="M301.962,153.172c0.296,3.385-2.207,6.371-5.594,6.666l-17.165,1.502
				c-3.387,0.297-6.372-2.207-6.668-5.594l-1.502-17.166c-0.296-3.385,2.209-6.371,5.594-6.666l17.167-1.502
				c3.386-0.297,6.371,2.209,6.667,5.594L301.962,153.172z"/>
			<path fill-rule="evenodd" clip-rule="evenodd" d="M270.652,155.91c0.297,3.387-2.208,6.371-5.594,6.668l-17.165,1.502
				c-3.387,0.295-6.372-2.209-6.669-5.596l-1.501-17.164c-0.296-3.387,2.208-6.371,5.594-6.668l17.166-1.502
				c3.387-0.295,6.371,2.209,6.668,5.596L270.652,155.91z"/>
			<path fill-rule="evenodd" clip-rule="evenodd" d="M365.078,147.648c0.297,3.387-2.207,6.371-5.594,6.668l-17.166,1.502
				c-3.385,0.295-6.371-2.209-6.668-5.594l-1.5-17.166c-0.297-3.387,2.207-6.371,5.594-6.666l17.166-1.504
				c3.385-0.295,6.371,2.209,6.668,5.596L365.078,147.648z"/>
			<path fill-rule="evenodd" clip-rule="evenodd" d="M396.389,144.91c0.297,3.387-2.209,6.371-5.594,6.666l-17.166,1.502
				c-3.387,0.297-6.371-2.207-6.668-5.594l-1.502-17.166c-0.295-3.385,2.209-6.369,5.594-6.666l17.166-1.502
				c3.387-0.296,6.371,2.209,6.668,5.594L396.389,144.91z"/>
			<path fill-rule="evenodd" clip-rule="evenodd" d="M333.271,150.432c0.297,3.387-2.207,6.371-5.594,6.668l-17.166,1.502
				c-3.385,0.295-6.371-2.209-6.668-5.596l-1.5-17.164c-0.297-3.387,2.207-6.371,5.594-6.668l17.166-1.502
				c3.385-0.295,6.371,2.209,6.666,5.594L333.271,150.432z"/>
		</g>
		<g>
			<path fill-rule="evenodd" clip-rule="evenodd" d="M242.125,190.457c0.297,3.385-2.208,6.371-5.594,6.666l-17.165,1.502
				c-3.387,0.297-6.372-2.207-6.668-5.594l-1.502-17.166c-0.296-3.385,2.209-6.369,5.595-6.666l17.166-1.502
				c3.386-0.297,6.37,2.209,6.667,5.594L242.125,190.457z"/>
			<path fill-rule="evenodd" clip-rule="evenodd" d="M211.313,193.152c0.297,3.387-2.208,6.371-5.595,6.668l-17.165,1.5
				c-3.386,0.297-6.371-2.207-6.668-5.594l-1.501-17.166c-0.296-3.385,2.208-6.369,5.594-6.666l17.166-1.502
				c3.387-0.297,6.371,2.209,6.668,5.594L211.313,193.152z"/>
			<path fill-rule="evenodd" clip-rule="evenodd" d="M304.744,184.979c0.297,3.387-2.207,6.371-5.594,6.666l-17.164,1.502
				c-3.387,0.297-6.372-2.207-6.669-5.594l-1.501-17.166c-0.296-3.385,2.208-6.369,5.594-6.666l17.167-1.502
				c3.385-0.297,6.37,2.209,6.665,5.594L304.744,184.979z"/>
			<path fill-rule="evenodd" clip-rule="evenodd" d="M273.435,187.717c0.298,3.387-2.207,6.371-5.594,6.668l-17.165,1.502
				c-3.386,0.295-6.372-2.209-6.668-5.596l-1.501-17.164c-0.296-3.387,2.208-6.371,5.594-6.668l17.166-1.502
				c3.386-0.295,6.371,2.209,6.667,5.596L273.435,187.717z"/>
			<path fill-rule="evenodd" clip-rule="evenodd" d="M367.861,179.457c0.297,3.385-2.207,6.369-5.594,6.666l-17.166,1.502
				c-3.387,0.297-6.371-2.209-6.668-5.594l-1.502-17.166c-0.295-3.385,2.209-6.371,5.594-6.666l17.168-1.502
				c3.385-0.297,6.371,2.207,6.666,5.594L367.861,179.457z"/>
			<path fill-rule="evenodd" clip-rule="evenodd" d="M399.172,176.717c0.297,3.387-2.207,6.371-5.594,6.668l-17.166,1.5
				c-3.387,0.297-6.373-2.207-6.668-5.594l-1.502-17.166c-0.295-3.385,2.209-6.369,5.594-6.666l17.166-1.502
				c3.387-0.297,6.373,2.209,6.668,5.594L399.172,176.717z"/>
			<path fill-rule="evenodd" clip-rule="evenodd" d="M336.055,182.238c0.297,3.387-2.209,6.371-5.594,6.668l-17.166,1.502
				c-3.387,0.295-6.371-2.209-6.668-5.596l-1.502-17.164c-0.295-3.387,2.209-6.371,5.596-6.666l17.166-1.504
				c3.385-0.295,6.369,2.209,6.666,5.596L336.055,182.238z"/>
		</g>
		<g>
			<path fill-rule="evenodd" clip-rule="evenodd" d="M244.892,222.074c0.297,3.385-2.208,6.369-5.595,6.666l-17.165,1.502
				c-3.386,0.297-6.371-2.207-6.668-5.594l-1.501-17.166c-0.296-3.385,2.208-6.369,5.594-6.666l17.166-1.502
				c3.386-0.297,6.371,2.209,6.667,5.594L244.892,222.074z"/>
			<path fill-rule="evenodd" clip-rule="evenodd" d="M214.078,224.77c0.297,3.387-2.207,6.371-5.594,6.666l-17.165,1.502
				c-3.387,0.297-6.372-2.207-6.668-5.594l-1.502-17.166c-0.296-3.385,2.209-6.369,5.595-6.666l17.166-1.502
				c3.386-0.297,6.371,2.209,6.667,5.594L214.078,224.77z"/>
			<path fill-rule="evenodd" clip-rule="evenodd" d="M307.51,216.594c0.297,3.389-2.207,6.371-5.593,6.668l-17.165,1.502
				c-3.386,0.297-6.372-2.207-6.668-5.594l-1.501-17.166c-0.297-3.385,2.208-6.369,5.594-6.666l17.166-1.502
				c3.386-0.297,6.37,2.209,6.667,5.594L307.51,216.594z"/>
			<path fill-rule="evenodd" clip-rule="evenodd" d="M276.201,219.334c0.297,3.387-2.207,6.371-5.595,6.668l-17.164,1.5
				c-3.387,0.297-6.372-2.207-6.668-5.594l-1.502-17.166c-0.296-3.385,2.208-6.369,5.594-6.666l17.167-1.502
				c3.385-0.295,6.371,2.209,6.667,5.596L276.201,219.334z"/>
			<path fill-rule="evenodd" clip-rule="evenodd" d="M370.627,211.072c0.297,3.387-2.207,6.371-5.594,6.668l-17.166,1.502
				c-3.385,0.295-6.371-2.209-6.666-5.594l-1.502-17.166c-0.297-3.387,2.207-6.371,5.594-6.666l17.166-1.504
				c3.385-0.295,6.371,2.209,6.666,5.596L370.627,211.072z"/>
			<path fill-rule="evenodd" clip-rule="evenodd" d="M401.938,208.334c0.297,3.387-2.207,6.371-5.594,6.666l-17.166,1.502
				c-3.387,0.297-6.371-2.207-6.668-5.594l-1.502-17.166c-0.295-3.385,2.209-6.369,5.596-6.666l17.166-1.502
				c3.385-0.297,6.371,2.209,6.668,5.594L401.938,208.334z"/>
			<path fill-rule="evenodd" clip-rule="evenodd" d="M338.82,213.855c0.297,3.387-2.207,6.371-5.594,6.668l-17.166,1.5
				c-3.385,0.297-6.371-2.207-6.668-5.594l-1.5-17.166c-0.297-3.385,2.207-6.369,5.594-6.666l17.166-1.502
				c3.385-0.295,6.371,2.209,6.666,5.596L338.82,213.855z"/>
		</g>
		<g>
			<path fill-rule="evenodd" clip-rule="evenodd" d="M247.674,253.881c0.297,3.387-2.207,6.369-5.594,6.666l-17.165,1.502
				c-3.386,0.297-6.372-2.207-6.668-5.594l-1.501-17.166c-0.297-3.385,2.208-6.369,5.594-6.666l17.166-1.502
				c3.386-0.297,6.371,2.207,6.667,5.594L247.674,253.881z"/>
			<path fill-rule="evenodd" clip-rule="evenodd" d="M216.861,256.576c0.297,3.387-2.208,6.371-5.595,6.668l-17.164,1.5
				c-3.387,0.297-6.372-2.207-6.668-5.594l-1.502-17.166c-0.296-3.385,2.208-6.369,5.594-6.666l17.167-1.502
				c3.385-0.297,6.37,2.209,6.667,5.594L216.861,256.576z"/>
			<path fill-rule="evenodd" clip-rule="evenodd" d="M310.293,248.402c0.297,3.385-2.207,6.371-5.594,6.666l-17.165,1.502
				c-3.386,0.297-6.371-2.207-6.668-5.594l-1.501-17.166c-0.296-3.385,2.208-6.369,5.594-6.666l17.166-1.502
				c3.387-0.297,6.371,2.207,6.668,5.594L310.293,248.402z"/>
			<path fill-rule="evenodd" clip-rule="evenodd" d="M278.984,251.141c0.296,3.387-2.208,6.371-5.595,6.668l-17.165,1.502
				c-3.386,0.295-6.371-2.209-6.668-5.596l-1.501-17.164c-0.297-3.387,2.208-6.371,5.594-6.666l17.166-1.504
				c3.386-0.297,6.371,2.209,6.667,5.594L278.984,251.141z"/>
			<path fill-rule="evenodd" clip-rule="evenodd" d="M373.41,242.879c0.297,3.387-2.207,6.371-5.594,6.668l-17.166,1.502
				c-3.385,0.295-6.371-2.207-6.668-5.596l-1.5-17.164c-0.297-3.387,2.207-6.369,5.594-6.666l17.166-1.504
				c3.385-0.295,6.371,2.209,6.666,5.596L373.41,242.879z"/>
			<path fill-rule="evenodd" clip-rule="evenodd" d="M404.719,240.141c0.297,3.387-2.207,6.371-5.594,6.666l-17.164,1.502
				c-3.387,0.297-6.373-2.207-6.668-5.594l-1.502-17.166c-0.297-3.385,2.209-6.369,5.594-6.666l17.166-1.502
				c3.387-0.297,6.371,2.209,6.668,5.594L404.719,240.141z"/>
			<path fill-rule="evenodd" clip-rule="evenodd" d="M341.604,245.662c0.297,3.387-2.207,6.371-5.596,6.668l-17.164,1.502
				c-3.387,0.295-6.371-2.209-6.668-5.596l-1.502-17.164c-0.295-3.387,2.209-6.371,5.594-6.666l17.168-1.504
				c3.385-0.297,6.371,2.209,6.666,5.594L341.604,245.662z"/>
		</g>
		<g>
			<path fill-rule="evenodd" clip-rule="evenodd" d="M250.457,285.688c0.297,3.387-2.208,6.371-5.595,6.666l-17.165,1.502
				c-3.386,0.297-6.371-2.207-6.668-5.594l-1.501-17.166c-0.296-3.385,2.208-6.369,5.594-6.666l17.166-1.502
				c3.386-0.297,6.371,2.209,6.668,5.594L250.457,285.688z"/>
			<path fill-rule="evenodd" clip-rule="evenodd" d="M219.644,288.383c0.297,3.387-2.207,6.371-5.594,6.666l-17.165,1.502
				c-3.386,0.297-6.372-2.207-6.668-5.594l-1.501-17.166c-0.297-3.385,2.208-6.369,5.594-6.666l17.166-1.502
				c3.386-0.297,6.371,2.209,6.667,5.594L219.644,288.383z"/>
			<path fill-rule="evenodd" clip-rule="evenodd" d="M313.076,280.209c0.297,3.387-2.207,6.369-5.594,6.666l-17.165,1.502
				c-3.386,0.297-6.372-2.207-6.668-5.594l-1.501-17.166c-0.297-3.385,2.208-6.369,5.594-6.666l17.166-1.502
				c3.385-0.297,6.371,2.209,6.666,5.594L313.076,280.209z"/>
			<path fill-rule="evenodd" clip-rule="evenodd" d="M281.767,282.947c0.297,3.387-2.208,6.371-5.594,6.668l-17.166,1.502
				c-3.386,0.295-6.371-2.209-6.667-5.596l-1.502-17.164c-0.296-3.387,2.209-6.371,5.594-6.666l17.166-1.504
				c3.387-0.295,6.371,2.209,6.668,5.596L281.767,282.947z"/>
			<path fill-rule="evenodd" clip-rule="evenodd" d="M376.193,274.686c0.297,3.387-2.209,6.371-5.596,6.668l-17.164,1.502
				c-3.387,0.297-6.371-2.207-6.668-5.594l-1.502-17.166c-0.295-3.385,2.209-6.369,5.594-6.666l17.166-1.502
				c3.387-0.297,6.371,2.207,6.668,5.594L376.193,274.686z"/>
			<path fill-rule="evenodd" clip-rule="evenodd" d="M407.504,271.947c0.297,3.387-2.209,6.371-5.596,6.668l-17.164,1.5
				c-3.387,0.297-6.373-2.207-6.668-5.594l-1.502-17.164c-0.297-3.387,2.209-6.371,5.594-6.668l17.168-1.502
				c3.385-0.297,6.369,2.209,6.666,5.594L407.504,271.947z"/>
			<path fill-rule="evenodd" clip-rule="evenodd" d="M344.387,277.469c0.297,3.387-2.209,6.371-5.596,6.668l-17.164,1.502
				c-3.387,0.295-6.371-2.209-6.668-5.596l-1.502-17.164c-0.297-3.387,2.209-6.371,5.594-6.666l17.166-1.504
				c3.387-0.295,6.371,2.209,6.668,5.596L344.387,277.469z"/>
		</g>
		<g>
			<path fill-rule="evenodd" clip-rule="evenodd" d="M253.239,317.494c0.297,3.387-2.207,6.369-5.594,6.666l-17.165,1.502
				c-3.387,0.297-6.372-2.207-6.668-5.594l-1.502-17.166c-0.296-3.385,2.209-6.369,5.595-6.666l17.166-1.502
				c3.386-0.297,6.371,2.209,6.667,5.594L253.239,317.494z"/>
			<path fill-rule="evenodd" clip-rule="evenodd" d="M222.427,320.189c0.297,3.387-2.208,6.371-5.595,6.666l-17.165,1.502
				c-3.386,0.297-6.371-2.207-6.668-5.594l-1.501-17.166c-0.296-3.385,2.209-6.369,5.594-6.664l17.166-1.504
				c3.387-0.297,6.371,2.209,6.668,5.594L222.427,320.189z"/>
			<path fill-rule="evenodd" clip-rule="evenodd" d="M315.859,312.016c0.297,3.387-2.209,6.371-5.596,6.666l-17.163,1.502
				c-3.387,0.297-6.372-2.207-6.669-5.594l-1.501-17.166c-0.296-3.385,2.208-6.369,5.595-6.666l17.166-1.502
				c3.385-0.297,6.369,2.209,6.666,5.594L315.859,312.016z"/>
			<path fill-rule="evenodd" clip-rule="evenodd" d="M284.55,314.754c0.297,3.387-2.208,6.371-5.595,6.668l-17.165,1.5
				c-3.386,0.297-6.371-2.207-6.668-5.594l-1.501-17.164c-0.296-3.387,2.208-6.371,5.594-6.666l17.166-1.504
				c3.386-0.295,6.371,2.209,6.667,5.596L284.55,314.754z"/>
			<path fill-rule="evenodd" clip-rule="evenodd" d="M378.975,306.492c0.297,3.387-2.207,6.371-5.594,6.668l-17.164,1.502
				c-3.387,0.295-6.373-2.209-6.668-5.596l-1.502-17.164c-0.297-3.387,2.209-6.369,5.594-6.666l17.166-1.504
				c3.387-0.295,6.371,2.209,6.668,5.596L378.975,306.492z"/>
			<path fill-rule="evenodd" clip-rule="evenodd" d="M410.285,303.754c0.297,3.387-2.207,6.371-5.594,6.668l-17.166,1.5
				c-3.385,0.297-6.371-2.207-6.668-5.594l-1.5-17.166c-0.297-3.385,2.207-6.369,5.594-6.664l17.166-1.504
				c3.387-0.297,6.371,2.209,6.668,5.594L410.285,303.754z"/>
			<path fill-rule="evenodd" clip-rule="evenodd" d="M347.168,309.275c0.297,3.387-2.207,6.371-5.594,6.668l-17.164,1.502
				c-3.387,0.295-6.373-2.207-6.67-5.596l-1.5-17.164c-0.297-3.387,2.209-6.371,5.594-6.666L339,286.516
				c3.387-0.295,6.371,2.209,6.668,5.596L347.168,309.275z"/>
		</g>
	</g>
</g>
</svg>
