<?xml version="1.0" encoding="utf-8"?>
<!-- Generator: Adobe Illustrator 19.1.0, SVG Export Plug-In . SVG Version: 6.00 Build 0)  -->
<svg version="1.2" baseProfile="tiny" id="Layer_1" xmlns="http://www.w3.org/2000/svg" xmlns:xlink="http://www.w3.org/1999/xlink"
	 x="0px" y="0px" viewBox="0 0 496.2 361.1" xml:space="preserve">
<g>
	<text transform="matrix(1 0 0 1 0 198.7537)" font-family="'Helvetica-BoldOblique'" font-size="28px">C</text>
	<text transform="matrix(1 0 0 1 19.9409 198.7537)" font-family="'Helvetica-BoldOblique'" font-size="28px">o</text>
	<text transform="matrix(1 0 0 1 36.7642 198.7537)" font-family="'Helvetica-BoldOblique'" font-size="28px">m</text>
	<text transform="matrix(1 0 0 1 61.3809 198.7537)" font-family="'Helvetica-BoldOblique'" font-size="28px">p</text>
	<text transform="matrix(1 0 0 1 78.2041 198.7537)" font-family="'Helvetica-BoldOblique'" font-size="28px">a</text>
	<text transform="matrix(1 0 0 1 93.4961 198.7537)" font-family="'Helvetica-BoldOblique'" font-size="28px">r</text>
	<text transform="matrix(1 0 0 1 104.1133 198.7537)" font-family="'Helvetica-BoldOblique'" font-size="28px">e</text>
	<text transform="matrix(1 0 0 1 119.4053 198.7537)" font-family="'Helvetica-BoldOblique'" font-size="28px"> </text>
	<text transform="matrix(1 0 0 1 126.9043 198.7537)" font-family="'Helvetica-LightOblique'" font-size="28px">t</text>
	<text transform="matrix(1 0 0 1 134.4082 198.7537)" font-family="'Helvetica-LightOblique'" font-size="28px">h</text>
	<text transform="matrix(1 0 0 1 149.6963 198.7537)" font-family="'Helvetica-LightOblique'" font-size="28px">e</text>
	<text transform="matrix(1 0 0 1 164.9844 198.7537)" font-family="'Helvetica-BoldOblique'" font-size="28px"> </text>
	<text transform="matrix(1 0 0 1 172.4834 198.7537)" font-family="'Helvetica-BoldOblique'" font-size="28px">m</text>
	<text transform="matrix(1 0 0 1 197.1006 198.7537)" font-family="'Helvetica-BoldOblique'" font-size="28px">a</text>
	<text transform="matrix(1 0 0 1 212.3926 198.7537)" font-family="'Helvetica-BoldOblique'" font-size="28px">r</text>
	<text transform="matrix(1 0 0 1 223.0088 198.7537)" font-family="'Helvetica-BoldOblique'" font-size="28px">k</text>
	<text transform="matrix(1 0 0 1 238.3018 198.7537)" font-family="'Helvetica-BoldOblique'" font-size="28px">e</text>
	<text transform="matrix(1 0 0 1 253.5938 198.7537)" font-family="'Helvetica-BoldOblique'" font-size="28px">t</text>
	<text transform="matrix(1 0 0 1 -3.051758e-05 78.254)" font-family="'Helvetica-Bold'" font-size="54px">S</text>
	<text transform="matrix(1 0 0 1 35.4775 78.254)" font-family="'Helvetica-Bold'" font-size="54px">o</text>
	<text transform="matrix(1 0 0 1 67.9228 78.254)" font-family="'Helvetica-Bold'" font-size="54px">l</text>
	<text transform="matrix(1 0 0 1 82.3857 78.254)" font-family="'Helvetica-Bold'" font-size="54px">a</text>
	<text transform="matrix(1 0 0 1 111.8779 78.254)" font-family="'Helvetica-Bold'" font-size="54px">r</text>
	<text transform="matrix(1 0 0 1 132.3525 78.254)" font-family="'Helvetica-Bold'" font-size="54px"> </text>
	<text transform="matrix(1 0 0 1 146.8154 78.254)" font-family="'Helvetica-Bold'" font-size="54px">P</text>
	<text transform="matrix(1 0 0 1 182.2929 78.254)" font-family="'Helvetica-Bold'" font-size="54px">a</text>
	<text transform="matrix(1 0 0 1 211.7851 78.254)" font-family="'Helvetica-Bold'" font-size="54px">n</text>
	<text transform="matrix(1 0 0 1 244.2304 78.254)" font-family="'Helvetica-Bold'" font-size="54px">e</text>
	<text transform="matrix(1 0 0 1 273.7226 78.254)" font-family="'Helvetica-Bold'" font-size="54px">l</text>
	<text transform="matrix(1 0 0 1 288.1855 78.254)" font-family="'Helvetica-Bold'" font-size="54px"> </text>
	<text transform="matrix(1 0 0 1 -3.051758e-05 143.0538)" font-family="'Helvetica-Light'" font-size="54px">Q</text>
	<text transform="matrix(1 0 0 1 41.4716 143.0538)" font-family="'Helvetica-Light'" font-size="54px">u</text>
	<text transform="matrix(1 0 0 1 70.956 143.0538)" font-family="'Helvetica-Light'" font-size="54px">o</text>
	<text transform="matrix(1 0 0 1 100.4404 143.0538)" font-family="'Helvetica-Light'" font-size="54px">t</text>
	<text transform="matrix(1 0 0 1 114.9121 143.0538)" font-family="'Helvetica-Light'" font-size="54px">e</text>
	<text transform="matrix(1 0 0 1 144.3955 143.0538)" font-family="'Helvetica-Light'" font-size="54px">s</text>
	<text transform="matrix(1 0 0 1 170.8554 143.0538)" font-family="'Helvetica-Light'" font-size="54px"> </text>
	<text transform="matrix(1 0 0 1 185.3281 143.0538)" font-family="'Helvetica-Light'" font-size="54px">&amp;</text>
	<text transform="matrix(1 0 0 1 220.8056 143.0538)" font-family="'Helvetica-Light'" font-size="54px"> </text>
	<text transform="matrix(1 0 0 1 235.2773 143.0538)" font-family="'Helvetica-Light'" font-size="54px">D</text>
	<text transform="matrix(1 0 0 1 273.7246 143.0538)" font-family="'Helvetica-Light'" font-size="54px">e</text>
	<text transform="matrix(1 0 0 1 303.209 143.0538)" font-family="'Helvetica-Light'" font-size="54px">a</text>
	<text transform="matrix(1 0 0 1 332.6924 143.0538)" font-family="'Helvetica-Light'" font-size="54px">l</text>
	<text transform="matrix(1 0 0 1 344.1396 143.0538)" font-family="'Helvetica-Light'" font-size="54px">s</text>
	<text transform="matrix(1 0 0 1 0 280.4344)" font-family="'Helvetica-Light'" font-size="28px">G</text>
	<text transform="matrix(1 0 0 1 21.5034 280.4344)" font-family="'Helvetica-Light'" font-size="28px">e</text>
	<text transform="matrix(1 0 0 1 36.7925 280.4344)" font-family="'Helvetica-Light'" font-size="28px">t</text>
	<text transform="matrix(1 0 0 1 44.2964 280.4344)" font-family="'Helvetica-Bold'" font-size="28px">	</text>
	<text transform="matrix(1 0 0 1 83.0269 280.4344)" font-family="'Helvetica-Bold'" font-size="28px"> </text>
	<text transform="matrix(1 0 0 1 90.5259 280.4344)" font-family="'Helvetica-Bold'" font-size="28px">	</text>
	<text transform="matrix(1 0 0 1 124.9604 280.4344)" font-family="'Helvetica-Bold'" font-size="28px">	</text>
	<text transform="matrix(1 0 0 1 166.6128 280.4344)" font-family="'Helvetica-Bold'" font-size="28px">	</text>
	<text transform="matrix(1 0 0 1 208.2661 280.4344)" font-family="'Helvetica-Bold'" font-size="28px">	</text>
	<text transform="matrix(1 0 0 1 249.9194 280.4344)" font-family="'Helvetica-Bold'" font-size="28px"> </text>
	<text transform="matrix(1 0 0 1 257.4185 280.4344)" font-family="'Helvetica-Bold'" font-size="28px"> </text>
	<text transform="matrix(1 0 0 1 264.9185 280.4344)" font-family="'Helvetica-Light'" font-size="28px">q</text>
	<text transform="matrix(1 0 0 1 281.7456 280.4344)" font-family="'Helvetica-Light'" font-size="28px">u</text>
	<text transform="matrix(1 0 0 1 297.0347 280.4344)" font-family="'Helvetica-Light'" font-size="28px">o</text>
	<text transform="matrix(1 0 0 1 312.3228 280.4344)" font-family="'Helvetica-Light'" font-size="28px">t</text>
	<text transform="matrix(1 0 0 1 319.8267 280.4344)" font-family="'Helvetica-Light'" font-size="28px">e</text>
	<text transform="matrix(1 0 0 1 335.1147 280.4344)" font-family="'Helvetica-Light'" font-size="28px">s</text>
	<text transform="matrix(1 0 0 1 348.8354 280.4344)" font-family="'Helvetica-Light'" font-size="28px"> </text>
	<text transform="matrix(1 0 0 1 356.3394 280.4344)" font-family="'Helvetica-Light'" font-size="28px">f</text>
	<text transform="matrix(1 0 0 1 363.8433 280.4344)" font-family="'Helvetica-Light'" font-size="28px">o</text>
	<text transform="matrix(1 0 0 1 379.1323 280.4344)" font-family="'Helvetica-Light'" font-size="28px">r</text>
	<text transform="matrix(1 0 0 1 388.1763 280.4344)" font-family="'Helvetica-Bold'" font-size="28px"> </text>
	<text transform="matrix(1 0 0 1 395.6753 280.4344)" font-family="'Helvetica-Light'" font-size="28px">s</text>
	<text transform="matrix(1 0 0 1 409.395 280.4344)" font-family="'Helvetica-Light'" font-size="28px">o</text>
	<text transform="matrix(1 0 0 1 424.6841 280.4344)" font-family="'Helvetica-Light'" font-size="28px">l</text>
	<text transform="matrix(1 0 0 1 430.6196 280.4344)" font-family="'Helvetica-Light'" font-size="28px">a</text>
	<text transform="matrix(1 0 0 1 445.9077 280.4344)" font-family="'Helvetica-Light'" font-size="28px">r</text>
	<text transform="matrix(1 0 0 1 0 347.6346)" font-family="'Helvetica-Bold'" font-size="28px">S</text>
	<text transform="matrix(1 0 0 1 18.396 347.6346)" font-family="'Helvetica-Bold'" font-size="28px">a</text>
	<text transform="matrix(1 0 0 1 33.688 347.6346)" font-family="'Helvetica-Bold'" font-size="28px">v</text>
	<text transform="matrix(1 0 0 1 48.98 347.6346)" font-family="'Helvetica-Bold'" font-size="28px">e</text>
	<text transform="matrix(1 0 0 1 64.2729 347.6346)" font-family="'Helvetica-Bold'" font-size="28px"> </text>
	<text transform="matrix(1 0 0 1 71.772 347.6346)" font-family="'Helvetica-Bold'" font-size="28px">t</text>
	<text transform="matrix(1 0 0 1 80.8159 347.6346)" font-family="'Helvetica-Bold'" font-size="28px">h</text>
	<text transform="matrix(1 0 0 1 97.6392 347.6346)" font-family="'Helvetica-Bold'" font-size="28px">o</text>
	<text transform="matrix(1 0 0 1 114.4634 347.6346)" font-family="'Helvetica-Bold'" font-size="28px">u</text>
	<text transform="matrix(1 0 0 1 131.2866 347.6346)" font-family="'Helvetica-Bold'" font-size="28px">s</text>
	<text transform="matrix(1 0 0 1 146.5786 347.6346)" font-family="'Helvetica-Bold'" font-size="28px">a</text>
	<text transform="matrix(1 0 0 1 161.8716 347.6346)" font-family="'Helvetica-Bold'" font-size="28px">n</text>
	<text transform="matrix(1 0 0 1 178.6948 347.6346)" font-family="'Helvetica-Bold'" font-size="28px">d</text>
	<text transform="matrix(1 0 0 1 195.5181 347.6346)" font-family="'Helvetica-Bold'" font-size="28px">s</text>
	<text transform="matrix(1 0 0 1 210.8101 347.6346)" font-family="'Helvetica-Bold'" font-size="28px"> </text>
	<text transform="matrix(1 0 0 1 218.3101 347.6346)" font-family="'Helvetica-Bold'" font-size="28px">o</text>
	<text transform="matrix(1 0 0 1 235.1333 347.6346)" font-family="'Helvetica-Bold'" font-size="28px">f</text>
	<text transform="matrix(1 0 0 1 244.1772 347.6346)" font-family="'Helvetica-Bold'" font-size="28px"> </text>
	<text transform="matrix(1 0 0 1 251.6772 347.6346)" font-family="'Helvetica-Bold'" font-size="28px">d</text>
	<text transform="matrix(1 0 0 1 268.5005 347.6346)" font-family="'Helvetica-Bold'" font-size="28px">o</text>
	<text transform="matrix(1 0 0 1 285.3237 347.6346)" font-family="'Helvetica-Bold'" font-size="28px">l</text>
	<text transform="matrix(1 0 0 1 292.8228 347.6346)" font-family="'Helvetica-Bold'" font-size="28px">l</text>
	<text transform="matrix(1 0 0 1 300.3228 347.6346)" font-family="'Helvetica-Bold'" font-size="28px">a</text>
	<text transform="matrix(1 0 0 1 315.6147 347.6346)" font-family="'Helvetica-Bold'" font-size="28px">r</text>
	<text transform="matrix(1 0 0 1 326.231 347.6346)" font-family="'Helvetica-Bold'" font-size="28px">s</text>
	<text transform="matrix(1 0 0 1 341.5229 347.6346)" font-family="'Helvetica-Bold'" font-size="28px"> </text>
	<text transform="matrix(1 0 0 1 349.0229 347.6346)" font-family="'Helvetica-Bold'" font-size="28px">t</text>
	<text transform="matrix(1 0 0 1 358.0669 347.6346)" font-family="'Helvetica-Bold'" font-size="28px">o</text>
	<text transform="matrix(1 0 0 1 374.8901 347.6346)" font-family="'Helvetica-Bold'" font-size="28px">d</text>
	<text transform="matrix(1 0 0 1 391.7144 347.6346)" font-family="'Helvetica-Bold'" font-size="28px">a</text>
	<text transform="matrix(1 0 0 1 407.0063 347.6346)" font-family="'Helvetica-Bold'" font-size="28px">y</text>
	<text transform="matrix(1 0 0 1 422.2983 347.6346)" font-family="'Helvetica-Bold'" font-size="28px">!</text>
	<text transform="matrix(1 0 0 1 82.776 282.4344)" fill="#ED1C24" font-family="'Helvetica-Bold'" font-size="42.2251px">3</text>
	<text transform="matrix(1 0 0 1 105.8375 282.4344)" fill="#ED1C24" font-family="'Helvetica-Bold'" font-size="42.2251px"> </text>
	<text transform="matrix(1 0 0 1 117.1461 282.4344)" fill="#ED1C24" font-family="'Helvetica-Bold'" font-size="42.2251px">F</text>
	<text transform="matrix(1 0 0 1 142.5172 282.4344)" fill="#ED1C24" font-family="'Helvetica-Bold'" font-size="42.2251px">R</text>
	<text transform="matrix(1 0 0 1 172.5885 282.4344)" fill="#ED1C24" font-family="'Helvetica-Bold'" font-size="42.2251px">E</text>
	<text transform="matrix(1 0 0 1 200.3297 282.4344)" fill="#ED1C24" font-family="'Helvetica-Bold'" font-size="42.2251px">E</text>
	<g>
		<path fill="#ED1C24" d="M249.8,267.4c-0.2,10.6-9,18.4-17.3,23.6c-13,8.1-28.3,12.4-43.4,15c-32.8,5.6-71.7,3.8-101.7-12.2
			c-8.9-4.8-19.4-12.2-21.4-22.9c-1.8-9.8,5.4-18.3,12.8-23.8c11.8-8.8,26.4-13.5,40.6-16.5c18.2-3.9,37.2-4.7,55.7-3.2
			c17.9,1.5,36.4,5.3,52.4,13.8C237.6,246.4,249.5,254.9,249.8,267.4c0.1,5.4,8.6,5.5,8.5,0c-0.3-12.3-8.6-21.9-18.2-28.6
			c-13.8-9.7-30.9-14.7-47.3-17.6c-20.4-3.6-41.5-3.9-62-1.1c-17.6,2.4-35.6,7-50.9,16.2c-10.2,6.1-20.3,15.3-22.2,27.7
			c-1.8,11.9,5.1,22.3,14,29.5c12.6,10.2,28.6,15.8,44.2,19.2c20.3,4.4,41.4,5.4,62.1,3.3c19.7-2,40.1-6.5,57.3-16.7
			c11.6-6.9,22.8-17.5,23-31.9C258.3,261.9,249.9,261.9,249.8,267.4z"/>
	</g>
	<path fill="#ED1C24" d="M171.7,218.4l8.4,1.4l4.2,0.7l4.2,0.6l8.4,1.3l8.5,1.1c11.3,1.5,22.6,2.6,33.9,3.7l17,1.5l17,1.3
		c11.3,0.8,22.7,1.4,34,2l8.5,0.4l8.5,0.4c5.7,0.3,11.4,0.4,17,0.6c11.4,0.4,22.7,0.7,34.1,0.9c11.3,0.2,22.8,0.4,34.1,0.4
		c11.2,0,22.3-0.6,32.6-3.4c10.3-2.8,20-7.8,27.6-15c7.6-7.1,13-16.6,15.1-26.6c1-5,1.2-10.1,0.5-15.2c-0.7-5.1-2.4-10-4.6-14.8
		c-4.4-9.7-11.1-18.6-18-27.5l-5.3-6.8c-1.7-2.2-3.5-4.6-5.2-6.9c-3.5-4.6-6.8-9.2-10.1-13.9c-6.6-9.4-13-19-19.1-28.7
		c-3-4.9-6-9.8-8.9-14.8l-2.2-3.7c-0.8-1.3-1.6-3-2.2-4.4c-1.3-2.9-2.2-5.8-3.1-8.7c-1.7-5.8-3-11.6-3.7-17.7
		c-0.3-3-0.5-6.2-0.3-9.4c0.1-1.6,0.3-3.3,0.7-5.1c0.4-1.8,1-3.6,2.1-5.6c1.5-2.6,4.9-3.5,7.6-2c1.4,0.8,2.3,2.2,2.6,3.7l0,0
		c0.8,3.7,1.3,7.4,1.7,11.1c0.2,1.8,0.3,3.7,0.5,5.5c0.1,1.8,0.2,3.7,0.3,5.5c0.1,3.7,0.1,7.3,0,11c-0.1,1.8-0.2,3.7-0.3,5.5
		c-0.1,1.8-0.3,3.7-0.4,5.5c-0.7,7.3-1.8,14.6-3.5,21.8c-0.4,1.8-0.9,3.6-1.4,5.4c-0.5,1.8-1.1,3.6-1.7,5.4
		c-0.6,1.8-1.3,3.6-2.1,5.3c-0.8,1.8-1.6,3.5-2.6,5.3l-8.1-7.1c6.5-4.7,13-9.3,20-13.6c3.5-2.1,7.1-4.2,10.8-6.1
		c1.9-0.9,3.7-1.8,5.7-2.6c1-0.4,1.9-0.8,2.9-1.2c1-0.4,2-0.7,3-1.1c2-0.7,4-1.3,6.1-1.9c1-0.3,2.1-0.5,3.1-0.7
		c1-0.2,2.1-0.4,3.1-0.6c2.1-0.4,4.2-0.7,6.3-0.8c1.1-0.1,2.1-0.2,3.2-0.2c1.1-0.1,2.1-0.1,3.2-0.1c1.1,0,2.1,0,3.2,0
		c1.1,0,2.1,0.1,3.2,0.1c1.1,0.1,2.1,0.1,3.1,0.2c1,0.1,2.1,0.2,3.1,0.3c2.1,0.2,4.1,0.6,6.2,0.9c2,0.4,4.1,0.8,6.1,1.2l0.1,0
		c2.9,0.6,4.7,3.5,4.1,6.4c-0.6,2.6-3,4.4-5.6,4.2l-3.9-0.2l-3.9-0.4l-3.9-0.5c-1.3-0.2-2.6-0.4-3.9-0.7l-3.8-0.8l-3.8-1l-3.8-1.1
		L458,67l-3.7-1.4c-1.2-0.5-2.4-1-3.6-1.5c-2.4-1.1-4.7-2.2-7-3.4c-2.3-1.2-4.5-2.5-6.7-3.9c-2.2-1.4-4.3-2.8-6.4-4.4
		c-1-0.8-2.1-1.5-3.1-2.3c-1-0.8-2-1.6-3-2.4c-1-0.8-2-1.6-2.9-2.5c-1-0.8-1.9-1.7-2.9-2.6c-0.9-0.9-1.9-1.7-2.8-2.6
		c-0.9-0.9-1.8-1.8-2.7-2.7c-0.9-0.9-1.8-1.8-2.6-2.8c-0.9-0.9-1.7-1.9-2.6-2.8c-1.7-1.9-3.3-3.8-4.9-5.8c-1.6-2-3.2-4-4.7-6
		c-1.5-2-3-4.1-4.5-6.1c-1.5-2.1-2.9-4.1-4.3-6.2c-1.5-2.2-0.9-5.1,1.3-6.6c2.2-1.5,5.1-0.9,6.6,1.2l0,0c1.4,2,2.8,4,4.2,5.9
		c1.4,2,2.9,3.9,4.4,5.8c1.5,1.9,3,3.8,4.6,5.6c1.6,1.8,3.1,3.7,4.8,5.4c0.8,0.9,1.6,1.8,2.5,2.6c0.8,0.9,1.7,1.7,2.5,2.6
		c0.8,0.9,1.7,1.7,2.6,2.5c0.9,0.8,1.7,1.6,2.6,2.4c0.9,0.8,1.8,1.6,2.7,2.4c0.9,0.8,1.8,1.5,2.7,2.3c0.9,0.8,1.9,1.5,2.8,2.2
		c0.9,0.7,1.9,1.4,2.9,2.1c1.9,1.4,3.9,2.7,5.9,3.9c2,1.3,4,2.4,6.1,3.5c2.1,1.1,4.2,2.1,6.3,3.1c1.1,0.5,2.2,0.9,3.2,1.3l3.3,1.2
		l3.3,1.1l3.4,1l3.4,0.8l3.4,0.7l3.5,0.6l3.5,0.4l3.5,0.3l3.5,0.2l-1.4,10.6c-1.9-0.4-3.7-0.8-5.6-1.1c-1.9-0.3-3.7-0.6-5.6-0.8
		c-0.9-0.1-1.9-0.2-2.8-0.3c-0.9-0.1-1.9-0.2-2.8-0.2c-0.9-0.1-1.9-0.1-2.8-0.1c-0.9,0-1.9,0-2.8,0c-0.9,0-1.8,0-2.8,0.1
		c-0.9,0-1.8,0.1-2.7,0.2c-1.8,0.2-3.6,0.4-5.4,0.7c-0.9,0.2-1.8,0.4-2.7,0.5l-2.7,0.6c-1.8,0.5-3.5,1-5.3,1.6
		c-0.9,0.3-1.7,0.6-2.6,1c-0.9,0.3-1.7,0.7-2.6,1.1c-1.7,0.7-3.4,1.5-5.1,2.4c-3.4,1.7-6.7,3.6-9.9,5.6c-6.5,4-12.9,8.6-19.3,13.2
		c-2.5,1.8-5.9,1.2-7.7-1.2c-1.3-1.8-1.4-4-0.4-5.8l0-0.1c0.7-1.4,1.5-2.8,2.1-4.3c0.7-1.5,1.3-3,1.8-4.6c0.6-1.6,1.1-3.2,1.5-4.8
		c0.5-1.6,0.9-3.3,1.3-4.9c0.4-1.6,0.8-3.3,1.1-5c0.3-1.7,0.6-3.4,0.9-5.1c0.5-3.4,1-6.8,1.3-10.2c0.2-1.7,0.3-3.4,0.4-5.2
		c0.1-1.7,0.2-3.4,0.2-5.2c0.1-3.4,0.1-6.9,0-10.3c0-1.7-0.1-3.4-0.2-5.1c-0.1-1.7-0.2-3.4-0.4-5.1c-0.3-3.4-0.8-6.7-1.5-10
		l10.2,1.7c-0.3,0.5-0.6,1.4-0.8,2.4c-0.2,1-0.4,2.2-0.4,3.4c-0.1,2.4,0,5,0.3,7.6c0.6,5.2,1.7,10.6,3.3,15.7
		c0.8,2.6,1.7,5.1,2.7,7.4c0.5,1.2,1,2.1,1.6,3.3l2.1,3.7c2.8,4.9,5.7,9.7,8.7,14.5c5.9,9.6,12.1,19,18.6,28.3
		c3.2,4.6,6.5,9.2,9.9,13.7c1.7,2.3,3.4,4.5,5.1,6.8l5.2,6.7c7,9.1,14.1,18.5,19.2,29.7c2.5,5.6,4.4,11.5,5.3,17.8
		c0.9,6.2,0.6,12.7-0.7,18.8c-2.7,12.3-9.2,23.4-18.3,31.8c-9.1,8.4-20.3,14-32,17.1c-11.7,3.1-23.7,3.6-35.2,3.5
		c-5.8,0-11.4-0.2-17.2-0.3c-5.7-0.1-11.4-0.3-17.1-0.5c-11.4-0.4-22.8-0.8-34.2-1.5c-5.7-0.3-11.4-0.7-17.1-1l-8.5-0.6l-8.5-0.6
		c-11.4-0.9-22.8-1.9-34.1-3.1c-5.7-0.6-11.4-1.2-17-1.9l-17-2.2c-11.3-1.6-22.6-3.3-33.8-5.4c-11.2-2-22.4-4.5-33.5-7.3
		c-0.4-0.1-0.6-0.5-0.5-0.9C170.9,218.5,171.3,218.3,171.7,218.4z"/>
</g>
</svg>
