<?xml version="1.0" encoding="utf-8"?>
<!-- Generator: Adobe Illustrator 19.1.0, SVG Export Plug-In . SVG Version: 6.00 Build 0)  -->
<!DOCTYPE svg PUBLIC "-//W3C//DTD SVG 1.1//EN" "http://www.w3.org/Graphics/SVG/1.1/DTD/svg11.dtd">
<svg version="1.1" id="Layer_1" xmlns="http://www.w3.org/2000/svg" xmlns:xlink="http://www.w3.org/1999/xlink" x="0px" y="0px"
	 viewBox="0 0 424 165" enable-background="new 0 0 424 165" xml:space="preserve">
<g>
	<linearGradient id="SVGID_1_" gradientUnits="userSpaceOnUse" x1="217.0438" y1="6" x2="217.0438" y2="161.0032">
		<stop  offset="0" style="stop-color:#FED105"/>
		<stop  offset="7.364756e-02" style="stop-color:#FDCA0E"/>
		<stop  offset="0.2947" style="stop-color:#FBB719"/>
		<stop  offset="0.5207" style="stop-color:#FAA91E"/>
		<stop  offset="0.7528" style="stop-color:#F9A120"/>
		<stop  offset="1" style="stop-color:#F99F21"/>
	</linearGradient>
	<rect x="10" fill="url(#SVGID_1_)" width="414" height="160"/>
	<g>
		<polygon fill="#AD1A27" points="0,107.1 10.3,107.1 10.3,96.8 		"/>
		<g>
			<polygon fill="#ED1C24" points="46.7,0.1 0,46.8 0,107.1 107.1,0 			"/>
			<g>
				<path fill="#FFFFFF" d="M11.1,54.1l9.3-9.6l2.4,2.3l-6.6,6.8l3.1,3l5.8-6l2.3,2.3l-5.8,6l5.7,5.5l-2.7,2.8L11.1,54.1z"/>
				<path fill="#FFFFFF" d="M30.6,34.5c0.7-0.3,1.4-0.4,2.2-0.4c0.6,0,1.2,0.2,1.8,0.4c0.6,0.2,1.1,0.6,1.7,1.1
					c0.6,0.6,1.1,1.4,1.4,2.3c0.3,0.9,0.2,1.9-0.2,2.9c0.8-0.4,1.6-0.5,2.3-0.3c0.7,0.2,1.5,0.7,2.5,1.7l0.9,0.9
					c0.6,0.6,1.1,1,1.3,1.1c0.4,0.3,0.8,0.3,1.3,0.2l0.3,0.3l-3,3.1c-0.4-0.2-0.7-0.4-0.9-0.5c-0.4-0.3-0.9-0.6-1.3-1l-1.3-1.2
					c-0.9-0.8-1.6-1.2-2.2-1.2c-0.6,0-1.2,0.4-2,1.2l-2.7,2.8l5.3,5.1l-2.7,2.8L22,42.7l6.2-6.5C29.1,35.4,29.9,34.8,30.6,34.5z
					 M27,42.3l3.6,3.5l2.9-3c0.6-0.6,0.9-1.1,1.1-1.6c0.3-0.8,0-1.5-0.7-2.3c-0.8-0.8-1.6-1.1-2.4-0.8c-0.4,0.1-0.9,0.5-1.5,1.1
					L27,42.3z"/>
				<path fill="#FFFFFF" d="M46.9,21.8L40,28.9l2.9,2.8l6.3-6.6l2.3,2.3L45.2,34l3.5,3.4l7.2-7.5l2.4,2.3l-9.9,10.2l-13.5-13
					l9.6-9.9L46.9,21.8z"/>
				<path fill="#FFFFFF" d="M58.8,9.5l-6.9,7.1l2.9,2.8l6.3-6.6l2.3,2.3l-6.3,6.6l3.5,3.4l7.2-7.5l2.4,2.3l-9.9,10.2l-13.5-13
					l9.6-9.9L58.8,9.5z"/>
			</g>
			<polygon fill="#E2901D" points="10.3,96.8 10.3,107.1 117.4,0.1 107.1,0.1 			"/>
		</g>
	</g>
	<g>
		<g>
			<text transform="matrix(1 0 0 1 135.8571 45.2596)"><tspan x="0" y="0" fill="#FDD109" font-family="'Helvetica-Bold'" font-size="34px">SAVE MONEY</tspan><tspan x="223.3" y="0" fill="#FDD109" font-family="'Helvetica'" font-size="34px"> </tspan><tspan x="232.4" y="0" fill="#FDD109" font-family="'Helvetica-Light'" font-size="34px">IN</tspan><tspan x="-44.7" y="40.8" fill="#FDD109" font-family="'Helvetica-Light'" font-size="34px">ONLY</tspan><tspan x="44.6" y="40.8" fill="#FDD109" font-family="'Helvetica-Bold'" font-size="34px"> 30 SECONDS</tspan></text>
		</g>
		<g>
			<text transform="matrix(1 0 0 1 135.8571 44.2596)"><tspan x="0" y="0" font-family="'Helvetica-Bold'" font-size="34px">SAVE MONEY</tspan><tspan x="223.3" y="0" font-family="'Helvetica'" font-size="34px"> </tspan><tspan x="232.4" y="0" font-family="'Helvetica-Light'" font-size="34px">IN</tspan><tspan x="-44.7" y="40.8" font-family="'Helvetica-Light'" font-size="34px">ONLY</tspan><tspan x="44.6" y="40.8" font-family="'Helvetica-Bold'" font-size="34px"> 30 SECONDS</tspan></text>
		</g>
	</g>
	<g>
		<rect x="28.2" y="104.8" opacity="0.9" fill="#FFFFFF" width="208.9" height="40"/>
		<rect x="28.2" y="104.8" fill="#E2901D" width="208.9" height="2.2"/>
	</g>
	<g>
		<rect x="28.5" y="104.8" opacity="0.9" fill="#FFFFFF" width="40" height="40"/>
		<rect x="28.5" y="104.8" fill="#E2901D" width="40" height="2.2"/>
	</g>
	<text transform="matrix(1 0 0 1 79.3762 130.9652)" fill="#939598" font-family="'Helvetica-Light'" font-size="16px">Enter postcode...</text>
	<g>
		<circle fill="none" cx="47.7" cy="119.1" r="2.1"/>
		<path fill="#EC2227" d="M53.6,119.2c0-3.3-2.6-5.9-5.9-5.9c-3.3,0-5.9,2.6-5.9,5.9c0,4.8,4.6,5.4,5.9,12.7
			C49,124.6,53.6,124.1,53.6,119.2z M45.6,119.1c0-1.2,0.9-2.1,2.1-2.1c1.2,0,2.1,0.9,2.1,2.1c0,1.2-0.9,2.1-2.1,2.1
			C46.5,121.2,45.6,120.3,45.6,119.1z"/>
		<path fill="#F99F21" d="M57.1,129.4l-5.4-2.3c-0.4,0.5-0.7,1.1-1,1.7l4.9,2.1l1.9,3.8l-3.4-1.2l-1.8-3.3l0.7,3.6l-4.8,2.2
			l-0.6-2.4l-0.5,2.4l-4.7-2.1l0.7-3.5l-1.8,3.2l-3.1,1.2l1.9-3.7c4.4-1.9,3.5-1.5,4.6-2c-0.3-0.7-0.7-1.2-1-1.7l-5,2.2l-4.5,8.9
			l7.3-2.8l6.2,2.8l6.2-2.8l7.7,2.8L57.1,129.4z"/>
	</g>
	<g>
		<g opacity="0.25">
			<path d="M403.1,147.9h-166c-2.8,0-5.1-2.3-5.1-5.1v-30.2c0-2.8,2.3-5.1,5.1-5.1h166c2.8,0,5.1,2.3,5.1,5.1v30.2
				C408.2,145.6,405.9,147.9,403.1,147.9z"/>
		</g>
		<g>
			<path fill="#FED105" d="M403.1,145h-166c-2.8,0-5.1-2.3-5.1-5.1v-30.2c0-2.8,2.3-5.1,5.1-5.1h166c2.8,0,5.1,2.3,5.1,5.1v30.2
				C408.2,142.7,405.9,145,403.1,145z"/>
		</g>
	</g>
	<g>
		<g opacity="0.45">
			<text transform="matrix(0.9788 0 0 1 241.6437 125.8238)" fill="#FFFFFF" font-family="'Helvetica-Bold'" font-size="16px">GET 3 QUOTES</text>
		</g>
		<g>
			<text transform="matrix(0.9788 0 0 1 241.6437 124.8344)" font-family="'Helvetica-Bold'" font-size="16px">GET 3 QUOTES</text>
		</g>
	</g>
	<g>
		<g opacity="0.45">
			<text transform="matrix(1 0 0 1 242.1703 138.1476)" fill="#FFFFFF" font-family="'Helvetica'" font-size="10px">Find out what it really costs</text>
		</g>
		<g>
			<text transform="matrix(1 0 0 1 242.1703 137.1631)" font-family="'Helvetica'" font-size="10px">Find out what it really costs</text>
		</g>
	</g>
	<rect x="10" y="160" opacity="0.3" width="414" height="5"/>
	<g id="XMLID_1_">
		<g>
			<polygon fill="#FFEF8F" points="382.5,115.1 391.2,123.8 382.5,132.6 380.1,130.3 386.5,123.8 380.1,117.4 			"/>
			<path fill="#FFEF8F" d="M384.3,110.3c7.5,0,13.5,6,13.5,13.5c0,7.5-6,13.5-13.5,13.5c-7.5,0-13.5-6-13.5-13.5
				C370.8,116.4,376.9,110.3,384.3,110.3z M391.2,123.8l-8.7-8.8l-2.3,2.3l6.4,6.4l-6.4,6.4l2.3,2.3L391.2,123.8z"/>
		</g>
		<g>
			<g>
				<polygon fill="#FFFFFF" points="382.5,116.1 391.2,124.8 382.5,133.6 380.1,131.3 386.5,124.8 380.1,118.4 				"/>
				<path fill="#ED1C24" d="M384.3,111.3c7.5,0,13.5,6,13.5,13.5c0,7.5-6,13.5-13.5,13.5c-7.5,0-13.5-6-13.5-13.5
					C370.8,117.4,376.9,111.3,384.3,111.3z M391.2,124.8l-8.7-8.8l-2.3,2.3l6.4,6.4l-6.4,6.4l2.3,2.3L391.2,124.8z"/>
			</g>
		</g>
	</g>
</g>
</svg>
