<?xml version="1.0" encoding="utf-8"?>
<!-- Generator: Adobe Illustrator 19.1.0, SVG Export Plug-In . SVG Version: 6.00 Build 0)  -->
<!DOCTYPE svg PUBLIC "-//W3C//DTD SVG 1.0//EN" "http://www.w3.org/TR/2001/REC-SVG-20010904/DTD/svg10.dtd">
<svg version="1.0" id="Layer_1" xmlns="http://www.w3.org/2000/svg" xmlns:xlink="http://www.w3.org/1999/xlink" x="0px" y="0px"
	 viewBox="0 0 176.2 43.3" enable-background="new 0 0 176.2 43.3" xml:space="preserve">
<g>
	<g opacity="0.25">
		<path d="M171.1,43.3H5.1C2.3,43.3,0,41,0,38.2L0,8c0-2.8,2.3-5.1,5.1-5.1h166c2.8,0,5.1,2.3,5.1,5.1v30.2
			C176.2,41,173.9,43.3,171.1,43.3z"/>
	</g>
	<g>
		<path fill="#FED105" d="M171.1,40.4H5.1c-2.8,0-5.1-2.3-5.1-5.1L0,5.1C0,2.3,2.3,0,5.1,0l166,0c2.8,0,5.1,2.3,5.1,5.1v30.2
			C176.2,38.1,173.9,40.4,171.1,40.4z"/>
	</g>
</g>
<g>
	<g opacity="0.45">
		<text transform="matrix(0.9788 0 0 1 9.6315 21.1753)" fill="#FFFFFF" font-family="'Helvetica-Bold'" font-size="16px">GET 3 QUOTES</text>
	</g>
	<g>
		<text transform="matrix(0.9788 0 0 1 9.6315 20.1859)" font-family="'Helvetica-Bold'" font-size="16px">GET 3 QUOTES</text>
	</g>
</g>
<g>
	<g opacity="0.45">
		<text transform="matrix(1 0 0 1 10.1581 33.4991)" fill="#FFFFFF" font-family="'Helvetica'" font-size="10px">Find out what it really costs</text>
	</g>
	<g>
		<text transform="matrix(1 0 0 1 10.1581 32.5146)" font-family="'Helvetica'" font-size="10px">Find out what it really costs</text>
	</g>
</g>
<g id="XMLID_1_">
	<g>
		<polygon fill="#FFEF8F" points="150.5,10.4 159.2,19.2 150.5,28 148.1,25.6 154.5,19.2 148.1,12.8 		"/>
		<path fill="#FFEF8F" d="M152.3,5.7c7.5,0,13.5,6,13.5,13.5c0,7.5-6,13.5-13.5,13.5c-7.5,0-13.5-6-13.5-13.5
			C138.8,11.7,144.8,5.7,152.3,5.7z M159.2,19.2l-8.7-8.8l-2.3,2.3l6.4,6.4l-6.4,6.4l2.3,2.3L159.2,19.2z"/>
	</g>
	<g>
		<g>
			<polygon fill="#FFFFFF" points="150.5,11.4 159.2,20.2 150.5,29 148.1,26.6 154.5,20.2 148.1,13.8 			"/>
			<path fill="#ED1C24" d="M152.3,6.7c7.5,0,13.5,6,13.5,13.5c0,7.5-6,13.5-13.5,13.5c-7.5,0-13.5-6-13.5-13.5
				C138.8,12.7,144.8,6.7,152.3,6.7z M159.2,20.2l-8.7-8.8l-2.3,2.3l6.4,6.4l-6.4,6.4l2.3,2.3L159.2,20.2z"/>
		</g>
	</g>
</g>
</svg>
