<?xml version="1.0" encoding="utf-8"?>
<!-- Generator: Adobe Illustrator 19.1.0, SVG Export Plug-In . SVG Version: 6.00 Build 0)  -->
<!DOCTYPE svg PUBLIC "-//W3C//DTD SVG 1.0//EN" "http://www.w3.org/TR/2001/REC-SVG-20010904/DTD/svg10.dtd">
<svg version="1.0" id="Layer_1" xmlns="http://www.w3.org/2000/svg" xmlns:xlink="http://www.w3.org/1999/xlink" x="0px" y="0px"
	 viewBox="0 0 117.4 107.1" enable-background="new 0 0 117.4 107.1" xml:space="preserve">
<g>
	<polygon fill="#AD1A27" points="0,107.1 10.3,107.1 10.3,96.8 	"/>
	<g>
		<polygon fill="#ED1C24" points="46.7,0.1 0,46.8 0,107.1 107.1,0 		"/>
		<g>
			<path fill="#FFFFFF" d="M11.1,54.1l9.3-9.6l2.4,2.3l-6.6,6.8l3.1,3l5.8-6l2.3,2.3l-5.8,6l5.7,5.5l-2.7,2.8L11.1,54.1z"/>
			<path fill="#FFFFFF" d="M30.6,34.5c0.7-0.3,1.4-0.4,2.2-0.4c0.6,0,1.2,0.2,1.8,0.4c0.6,0.2,1.1,0.6,1.7,1.1
				c0.6,0.6,1.1,1.4,1.4,2.3c0.3,0.9,0.2,1.9-0.2,2.9c0.8-0.4,1.6-0.5,2.3-0.3c0.7,0.2,1.5,0.7,2.5,1.7l0.9,0.9
				c0.6,0.6,1.1,1,1.3,1.1c0.4,0.3,0.8,0.3,1.3,0.2l0.3,0.3l-3,3.1c-0.4-0.2-0.7-0.4-0.9-0.5c-0.4-0.3-0.9-0.6-1.3-1l-1.3-1.2
				c-0.9-0.8-1.6-1.2-2.2-1.2c-0.6,0-1.2,0.4-2,1.2l-2.7,2.8l5.3,5.1l-2.7,2.8L22,42.7l6.2-6.5C29.1,35.4,29.9,34.8,30.6,34.5z
				 M27,42.3l3.6,3.5l2.9-3c0.6-0.6,0.9-1.1,1.1-1.6c0.3-0.8,0-1.5-0.7-2.3c-0.8-0.8-1.6-1.1-2.4-0.8c-0.4,0.1-0.9,0.5-1.5,1.1
				L27,42.3z"/>
			<path fill="#FFFFFF" d="M46.9,21.8L40,28.9l2.9,2.8l6.3-6.6l2.3,2.3L45.2,34l3.5,3.4l7.2-7.5l2.4,2.3l-9.9,10.2l-13.5-13l9.6-9.9
				L46.9,21.8z"/>
			<path fill="#FFFFFF" d="M58.8,9.5l-6.9,7.1l2.9,2.8l6.3-6.6l2.3,2.3l-6.3,6.6l3.5,3.4l7.2-7.5l2.4,2.3l-9.9,10.2l-13.5-13
				l9.6-9.9L58.8,9.5z"/>
		</g>
		<polygon fill="#E2901D" points="10.3,96.8 10.3,107.1 117.4,0.1 107.1,0.1 		"/>
	</g>
</g>
</svg>
