<?xml version="1.0" encoding="utf-8"?>
<!-- Generator: Adobe Illustrator 19.1.0, SVG Export Plug-In . SVG Version: 6.00 Build 0)  -->
<!DOCTYPE svg PUBLIC "-//W3C//DTD SVG 1.0//EN" "http://www.w3.org/TR/2001/REC-SVG-20010904/DTD/svg10.dtd">
<svg version="1.0" id="Layer_1" xmlns="http://www.w3.org/2000/svg" xmlns:xlink="http://www.w3.org/1999/xlink" x="0px" y="0px"
	 viewBox="0 0 40 40" enable-background="new 0 0 40 40" xml:space="preserve">
<g>
	<rect opacity="0.9" fill="#FFFFFF" width="40" height="40"/>
	<rect fill="#E2901D" width="40" height="2.2"/>
</g>
<g>
	<circle fill="none" cx="19.2" cy="14.3" r="2.1"/>
	<path fill="#EC2227" d="M25.1,14.4c0-3.3-2.6-5.9-5.9-5.9c-3.3,0-5.9,2.6-5.9,5.9c0,4.8,4.6,5.4,5.9,12.7
		C20.5,19.8,25.1,19.2,25.1,14.4z M17.1,14.3c0-1.2,0.9-2.1,2.1-2.1c1.2,0,2.1,0.9,2.1,2.1c0,1.2-0.9,2.1-2.1,2.1
		C18,16.4,17.1,15.4,17.1,14.3z"/>
	<path fill="#F99F21" d="M28.6,24.6l-5.4-2.3c-0.4,0.5-0.7,1.1-1,1.7l4.9,2.1l1.9,3.8l-3.4-1.2l-1.8-3.3l0.7,3.6l-4.8,2.2l-0.6-2.4
		l-0.5,2.4l-4.7-2.1l0.7-3.5l-1.8,3.2l-3.1,1.2l1.9-3.7c4.4-1.9,3.5-1.5,4.6-2c-0.3-0.7-0.7-1.2-1-1.7l-5,2.2l-4.5,8.9l7.3-2.8
		l6.2,2.8l6.2-2.8l7.7,2.8L28.6,24.6z"/>
</g>
</svg>
