<?xml version="1.0" encoding="utf-8"?>
<!-- Generator: Adobe Illustrator 19.1.0, SVG Export Plug-In . SVG Version: 6.00 Build 0)  -->
<svg version="1.2" baseProfile="tiny" id="Layer_1" xmlns="http://www.w3.org/2000/svg" xmlns:xlink="http://www.w3.org/1999/xlink"
	 x="0px" y="0px" viewBox="0 0 213 75" xml:space="preserve">
<g>
	<g>
		<g>
			<path fill="none" d="M58.8,4.6L54.5,5c0,0.3,0,0.6-0.1,0.9l4.9-0.4C59.2,5.2,59,4.9,58.8,4.6z"/>
			<path fill="none" d="M27,10.6l0.6,6.5c0.1,1.3-0.8,2.4-2.1,2.5L19,20.2c-1.3,0.1-2.4-0.8-2.5-2.1l-0.3-3.7
				c-0.2,0.2-0.4,0.3-0.7,0.5l0.3,3.3c0.1,1.3-0.8,2.4-2.1,2.5l-5.4,0.5c-0.3,0.3-0.6,0.7-0.9,1l6.3-0.6c1.3-0.1,2.4,0.8,2.5,2.1
				l0.6,6.5c0.1,1.3-0.8,2.4-2.1,2.5l-6.5,0.6c-1.3,0.1-2.4-0.8-2.5-2.1l-0.5-6.2c-0.2,0.2-0.3,0.4-0.5,0.7l0.5,5.6
				c0.1,1.3-0.8,2.4-2.1,2.5l-2.3,0.2c-0.1,0.2-0.1,0.4-0.2,0.6c0,0.1,0,0.2,0,0.2l2.6-0.2c1.3-0.1,2.4,0.8,2.5,2.1l0.6,6.5
				c0.1,1.3-0.8,2.4-2.1,2.5l-3.5,0.3c0.1,0.3,0.1,0.6,0.2,0.9l3.4-0.3c1.3-0.1,2.4,0.8,2.5,2.1l0.6,6.5c0.1,1.3-0.8,2.4-2.1,2.5
				l-0.7,0.1c0.1,0.3,0.3,0.6,0.4,0.9l0.4,0c1.3-0.1,2.4,0.8,2.5,2.1l0.1,1.6c0.1-0.2,0.3-0.3,0.5-0.5l-0.1-1.1
				c-0.1-1.3,0.8-2.4,2.1-2.5l1.8-0.2c0.4-0.3,0.8-0.7,1.2-1l-3,0.3c-1.3,0.1-2.4-0.8-2.5-2.1l-0.6-6.5c-0.1-1.3,0.8-2.4,2.1-2.5
				l6.5-0.6c1.3-0.1,2.4,0.8,2.5,2.1l0.5,5.4c0.2-0.1,0.5-0.3,0.7-0.4l-0.4-5.1c-0.1-1.3,0.8-2.4,2.1-2.5l6.5-0.6
				c1.3-0.1,2.4,0.8,2.5,2.1l0.2,2.4c0.2,0,0.4,0,0.7-0.1c0,0,0,0,0,0l-0.2-2.4c-0.1-1.3,0.8-2.4,2.1-2.5l6.5-0.6
				c1.3-0.1,2.4,0.8,2.5,2.1l0.5,5.4c0.3,0.1,0.5,0.2,0.7,0.4l-0.5-5.8c-0.1-1.3,0.8-2.4,2.1-2.5l6.5-0.6c1.3-0.1,2.4,0.8,2.5,2.1
				l0.6,6.5c0.1,1.3-0.8,2.4-2.1,2.5l-5,0.4c0.3,0.3,0.7,0.5,1,0.8l4.1-0.4c1.3-0.1,2.4,0.8,2.5,2.1l0.6,6.5c0,0.2,0,0.4,0,0.6
				c0.2,0.3,0.3,0.5,0.5,0.8c0.5,0.8,1,1.6,1.5,2.4c0.4-0.5,0.9-0.8,1.6-0.8l6.5-0.6c1.1-0.1,2,0.6,2.4,1.5c0.4-0.8,0.9-1.6,1.3-2.5
				c0.1-0.2,0.2-0.4,0.3-0.6c-0.7-0.4-1.2-1-1.2-1.8l-0.6-6.5c-0.1-1.3,0.8-2.4,2.1-2.5l5.2-0.5c0.1-0.3,0.2-0.6,0.3-0.9l-5.6,0.5
				c-1.3,0.1-2.4-0.8-2.5-2.1l-0.6-6.5c-0.1-1.3,0.8-2.4,2.1-2.5l6.5-0.6c0.9-0.1,1.8,0.4,2.2,1.2c0-1,0-2.1-0.1-3.2
				c0-0.3-0.1-0.5-0.1-0.8c-0.2,1-1,1.8-2.1,1.9L68.5,40c-1.3,0.1-2.4-0.8-2.5-2.1l-0.6-6.5c-0.1-1.3,0.8-2.4,2.1-2.5l6.1-0.5
				c-0.2-0.3-0.3-0.5-0.5-0.8L67.5,28c-1.3,0.1-2.4-0.8-2.5-2.1l-0.6-6.5c-0.1-0.6,0.2-1.2,0.5-1.7c-0.4-0.5-0.8-1-1.1-1.4
				c-0.3-0.5-0.6-0.9-0.8-1.4c-0.3,0.8-1,1.4-2,1.5l-6.5,0.6c-0.7,0.1-1.4-0.2-1.9-0.7c-0.5,0.6-1.3,0.9-2.3,1.1
				c-0.4,0.1-0.9,0.1-1.4,0.1l-6.4,0.6c-1.3,0.1-2.4-0.8-2.5-2.1l-0.6-6.5c-0.1-1.3,0.8-2.4,2.1-2.5l2.7-0.2
				c0.2-0.3,0.3-0.6,0.3-0.9l-3.1,0.3c-1.1,0.1-2.1-0.6-2.4-1.7c-0.3,0-0.5,0.1-0.8,0.1c-0.1,1.1-1,2-2.1,2.1l-6.5,0.6
				c-0.2,0-0.4,0-0.6,0c-0.8,0.3-1.7,0.7-2.5,1.1c-0.3,0.2-0.6,0.3-1,0.5C26.4,9.1,26.9,9.8,27,10.6z M19.1,21.1l6.5-0.6
				c1.3-0.1,2.4,0.8,2.5,2.1l0.6,6.5c0.1,1.3-0.8,2.4-2.1,2.5L20,32.2c-1.3,0.1-2.4-0.8-2.5-2.1L17,23.6
				C16.9,22.3,17.8,21.2,19.1,21.1z M15.8,44.6l-6.5,0.6C8,45.2,6.9,44.3,6.8,43l-0.6-6.5C6.1,35.3,7,34.1,8.3,34l6.5-0.6
				c1.3-0.1,2.4,0.8,2.5,2.1l0.6,6.5C18,43.3,17,44.5,15.8,44.6z M27.6,43.5l-6.5,0.6c-1.3,0.1-2.4-0.8-2.5-2.1L18,35.5
				c-0.1-1.3,0.8-2.4,2.1-2.5l6.5-0.6c1.3-0.1,2.4,0.8,2.5,2.1l0.6,6.5C29.8,42.3,28.8,43.4,27.6,43.5z M39.4,42.5l-6.5,0.6
				c-1.3,0.1-2.4-0.8-2.5-2.1l-0.6-6.5c-0.1-1.3,0.8-2.4,2.1-2.5l6.5-0.6c1.3-0.1,2.4,0.8,2.5,2.1l0.6,6.5
				C41.6,41.3,40.6,42.4,39.4,42.5z M66.8,55.4l0.6,6.5c0.1,1.3-0.8,2.4-2.1,2.5L58.8,65c-1.3,0.1-2.4-0.8-2.5-2.1l-0.6-6.5
				c-0.1-1.3,0.8-2.4,2.1-2.5l6.5-0.6C65.6,53.2,66.7,54.1,66.8,55.4z M65.8,43.4l0.6,6.5c0.1,1.3-0.8,2.4-2.1,2.5L57.7,53
				c-1.3,0.1-2.4-0.8-2.5-2.1l-0.6-6.5c-0.1-1.3,0.8-2.4,2.1-2.5l6.5-0.6C64.5,41.2,65.6,42.1,65.8,43.4z M64.7,31.4l0.6,6.5
				c0.1,1.3-0.8,2.4-2.1,2.5L56.7,41c-1.3,0.1-2.4-0.8-2.5-2.1l-0.6-6.5c-0.1-1.3,0.8-2.4,2.1-2.5l6.5-0.6
				C63.5,29.2,64.6,30.2,64.7,31.4z M54.7,18l6.5-0.6c1.3-0.1,2.4,0.8,2.5,2.1l0.6,6.5c0.1,1.3-0.8,2.4-2.1,2.5l-6.5,0.6
				c-1.3,0.1-2.4-0.8-2.5-2.1l-0.6-6.5C52.5,19.2,53.4,18.1,54.7,18z M52.7,32.5l0.6,6.5c0.1,1.3-0.8,2.4-2.1,2.5L44.7,42
				c-1.3,0.1-2.4-0.8-2.5-2.1l-0.6-6.5c-0.1-1.3,0.8-2.4,2.1-2.5l6.5-0.6C51.5,30.3,52.6,31.2,52.7,32.5z M42.7,19l6.5-0.6
				c1.3-0.1,2.4,0.8,2.5,2.1l0.6,6.5c0.1,1.3-0.8,2.4-2.1,2.5l-6.5,0.6c-1.3,0.1-2.4-0.8-2.5-2.1l-0.6-6.5
				C40.5,20.3,41.4,19.1,42.7,19z M39.9,21.6l0.6,6.5c0.1,1.3-0.8,2.4-2.1,2.5l-6.5,0.6c-1.3,0.1-2.4-0.8-2.5-2.1l-0.6-6.5
				c-0.1-1.3,0.8-2.4,2.1-2.5l6.5-0.6C38.6,19.4,39.8,20.3,39.9,21.6z M29.8,8.1l6.5-0.6c1.3-0.1,2.4,0.8,2.5,2.1l0.6,6.5
				c0.1,1.3-0.8,2.4-2.1,2.5l-6.5,0.6c-1.3,0.1-2.4-0.8-2.5-2.1l-0.6-6.5C27.6,9.3,28.6,8.2,29.8,8.1z"/>
			<path fill="#010101" d="M36.2,6.6c1.1-0.1,2-1,2.1-2.1c-2.6,0.3-5.7,1.2-9.2,2.6c0.2,0,0.4,0,0.6,0L36.2,6.6z"/>
			<path fill="#010101" d="M55.2,0.5c0,0-0.2-2.6-0.7,4.5l4.3-0.4C57,1.7,55.2,0.5,55.2,0.5z"/>
			<path fill="#010101" d="M41.6,6.1l3.1-0.3c0-0.1,0-0.2,0-0.2c-0.2-1-2.3-1.5-5.5-1.2C39.4,5.5,40.4,6.2,41.6,6.1z"/>
			<path fill="#010101" d="M15.8,18.1l-0.3-3.3c-2.5,1.8-5,3.9-7.2,6.2l5.4-0.5C14.9,20.5,15.9,19.4,15.8,18.1z"/>
			<path fill="#010101" d="M30.8,19.2l6.5-0.6c1.3-0.1,2.2-1.2,2.1-2.5l-0.6-6.5c-0.1-1.3-1.2-2.2-2.5-2.1l-6.5,0.6
				c-1.3,0.1-2.2,1.2-2.1,2.5l0.6,6.5C28.4,18.3,29.5,19.3,30.8,19.2z"/>
			<path fill="#010101" d="M19,20.2l6.5-0.6c1.3-0.1,2.2-1.2,2.1-2.5L27,10.6c-0.1-0.9-0.6-1.6-1.3-1.9c-3,1.5-6.3,3.4-9.5,5.7
				l0.3,3.7C16.6,19.4,17.7,20.3,19,20.2z"/>
			<path fill="#010101" d="M54.6,17.1l6.5-0.6c0.9-0.1,1.7-0.7,2-1.5c-1.5-3.1-1.9-6.2-3.6-9.4c0-0.1-0.1-0.1-0.1-0.1l-4.9,0.4
				c0,0.3,0,0.6,0,0.8c-0.3,6.1-0.7,8.5-1.7,9.6C53.2,16.8,53.9,17.1,54.6,17.1z"/>
			<path fill="#010101" d="M39.5,9.5l0.6,6.5c0.1,1.3,1.2,2.2,2.5,2.1l6.4-0.6c-3.5,0-9.5-1.7-8.9-5c0.5-3,3.3-4.3,4.2-5.7L41.6,7
				C40.4,7.1,39.4,8.3,39.5,9.5z"/>
			<path fill="#010101" d="M8.2,33.2l6.5-0.6c1.3-0.1,2.2-1.2,2.1-2.5l-0.6-6.5c-0.1-1.3-1.2-2.2-2.5-2.1l-6.3,0.6
				c-0.8,0.9-1.5,1.8-2.2,2.8l0.5,6.2C5.8,32.4,7,33.3,8.2,33.2z"/>
			<path fill="#010101" d="M5.2,31.1l-0.5-5.6c-1.7,2.5-3.1,5.3-3.9,8.3l2.3-0.2C4.4,33.5,5.3,32.4,5.2,31.1z"/>
			<path fill="#010101" d="M37.4,19.5L30.9,20c-1.3,0.1-2.2,1.2-2.1,2.5l0.6,6.5c0.1,1.3,1.2,2.2,2.5,2.1l6.5-0.6
				c1.3-0.1,2.2-1.2,2.1-2.5l-0.6-6.5C39.8,20.3,38.6,19.4,37.4,19.5z"/>
			<path fill="#010101" d="M20,32.2l6.5-0.6c1.3-0.1,2.2-1.2,2.1-2.5l-0.6-6.5c-0.1-1.3-1.2-2.2-2.5-2.1l-6.5,0.6
				c-1.3,0.1-2.2,1.2-2.1,2.5l0.6,6.5C17.6,31.3,18.8,32.3,20,32.2z"/>
			<path fill="#010101" d="M55.6,29.1l6.5-0.6c1.3-0.1,2.2-1.2,2.1-2.5l-0.6-6.5c-0.1-1.3-1.2-2.2-2.5-2.1L54.7,18
				c-1.3,0.1-2.2,1.2-2.1,2.5l0.6,6.5C53.2,28.2,54.4,29.2,55.6,29.1z"/>
			<path fill="#010101" d="M64.9,25.9c0.1,1.3,1.2,2.2,2.5,2.1l5.7-0.5c-2.8-4.3-6.3-7.5-8.2-9.8c-0.4,0.5-0.6,1-0.5,1.7L64.9,25.9z
				"/>
			<path fill="#010101" d="M43.7,30.1l6.5-0.6c1.3-0.1,2.2-1.2,2.1-2.5l-0.6-6.5c-0.1-1.3-1.2-2.2-2.5-2.1L42.7,19
				c-1.3,0.1-2.2,1.2-2.1,2.5l0.6,6.5C41.3,29.3,42.4,30.2,43.7,30.1z"/>
			<path fill="#010101" d="M14.8,33.5L8.3,34c-1.3,0.1-2.2,1.2-2.1,2.5L6.8,43c0.1,1.3,1.2,2.2,2.5,2.1l6.5-0.6
				c1.3-0.1,2.2-1.2,2.1-2.5l-0.6-6.5C17.2,34.3,16.1,33.4,14.8,33.5z"/>
			<path fill="#010101" d="M6.2,43.1l-0.6-6.5c-0.1-1.3-1.2-2.2-2.5-2.1l-2.6,0.2c-0.8,3.7-0.7,7.5,0,11.2l3.5-0.3
				C5.4,45.5,6.4,44.3,6.2,43.1z"/>
			<path fill="#010101" d="M38.4,31.4L31.9,32c-1.3,0.1-2.2,1.2-2.1,2.5l0.6,6.5c0.1,1.3,1.2,2.2,2.5,2.1l6.5-0.6
				c1.3-0.1,2.2-1.2,2.1-2.5l-0.6-6.5C40.8,32.2,39.7,31.3,38.4,31.4z"/>
			<path fill="#010101" d="M26.6,32.4L20.1,33c-1.3,0.1-2.2,1.2-2.1,2.5l0.6,6.5c0.1,1.3,1.2,2.2,2.5,2.1l6.5-0.6
				c1.3-0.1,2.2-1.2,2.1-2.5l-0.6-6.5C29,33.3,27.9,32.3,26.6,32.4z"/>
			<path fill="#010101" d="M62.2,29.3l-6.5,0.6c-1.3,0.1-2.2,1.2-2.1,2.5l0.6,6.5c0.1,1.3,1.2,2.2,2.5,2.1l6.5-0.6
				c1.3-0.1,2.2-1.2,2.1-2.5l-0.6-6.5C64.6,30.2,63.5,29.2,62.2,29.3z"/>
			<path fill="#010101" d="M65.4,31.4l0.6,6.5c0.1,1.3,1.2,2.2,2.5,2.1l6.5-0.6c1.1-0.1,1.9-0.9,2.1-1.9c-0.5-3.4-1.8-6.5-3.4-9.2
				l-6.1,0.5C66.2,29,65.3,30.1,65.4,31.4z"/>
			<path fill="#010101" d="M50.2,30.4l-6.5,0.6c-1.3,0.1-2.2,1.2-2.1,2.5l0.6,6.5c0.1,1.3,1.2,2.2,2.5,2.1l6.5-0.6
				c1.3-0.1,2.2-1.2,2.1-2.5l-0.6-6.5C52.6,31.2,51.5,30.3,50.2,30.4z"/>
			<path fill="#010101" d="M15.8,45.5L9.4,46c-1.3,0.1-2.2,1.2-2.1,2.5L7.8,55c0.1,1.3,1.2,2.2,2.5,2.1l3-0.3
				c1.6-1.3,3.4-2.7,5.4-3.9l-0.5-5.4C18.2,46.3,17.1,45.4,15.8,45.5z"/>
			<path fill="#010101" d="M7.3,55.1l-0.6-6.5c-0.1-1.3-1.2-2.2-2.5-2.1l-3.4,0.3c0.9,4.1,2.4,8,3.7,10.9l0.7-0.1
				C6.5,57.5,7.4,56.3,7.3,55.1z"/>
			<path fill="#010101" d="M39.4,43.4L33,44c-1.3,0.1-2.2,1.2-2.1,2.5l0.2,2.4c4.4-0.3,8.2,0.5,11.4,2L42,45.5
				C41.8,44.2,40.7,43.3,39.4,43.4z"/>
			<path fill="#010101" d="M27.6,44.4L21.2,45c-1.3,0.1-2.2,1.2-2.1,2.5l0.4,5.1c3.2-1.8,6.9-3.3,10.9-3.6l-0.2-2.4
				C30,45.3,28.9,44.3,27.6,44.4z"/>
			<path fill="#010101" d="M63.2,41.3l-6.5,0.6c-1.3,0.1-2.2,1.2-2.1,2.5l0.6,6.5c0.1,1.3,1.2,2.2,2.5,2.1l6.5-0.6
				c1.3-0.1,2.2-1.2,2.1-2.5l-0.6-6.5C65.6,42.1,64.5,41.2,63.2,41.3z"/>
			<path fill="#010101" d="M75,40.3l-6.5,0.6c-1.3,0.1-2.2,1.2-2.1,2.5l0.6,6.5c0.1,1.3,1.2,2.2,2.5,2.1l5.6-0.5
				c1.1-3.1,1.9-6.5,2.1-10C76.8,40.7,76,40.2,75,40.3z"/>
			<path fill="#010101" d="M54.3,50.9l-0.6-6.5c-0.1-1.3-1.2-2.2-2.5-2.1l-6.5,0.6c-1.3,0.1-2.2,1.2-2.1,2.5l0.5,5.8
				c1.5,0.8,2.8,1.7,4.1,2.7l5-0.4C53.5,53.3,54.4,52.2,54.3,50.9z"/>
			<path fill="#010101" d="M8.3,60.5l0.1,1.1c0.8-0.9,2.1-2.3,3.8-3.8L10.4,58C9.1,58.1,8.2,59.3,8.3,60.5z"/>
			<path fill="#010101" d="M5.3,58.5l-0.4,0C6.2,61.3,7.3,63,7.3,63s0.2-0.3,0.6-0.8l-0.1-1.6C7.7,59.3,6.5,58.4,5.3,58.5z"/>
			<path fill="#010101" d="M64.3,53.3l-6.5,0.6c-1.3,0.1-2.2,1.2-2.1,2.5l0.6,6.5c0.1,1.3,1.2,2.2,2.5,2.1l6.5-0.6
				c1.3-0.1,2.2-1.2,2.1-2.5l-0.6-6.5C66.7,54.1,65.6,53.2,64.3,53.3z"/>
			<path fill="#010101" d="M67.5,55.4l0.6,6.5c0.1,0.8,0.6,1.5,1.2,1.8c1.3-2.5,3.7-6.5,5.5-11.3l-5.2,0.5
				C68.3,53,67.4,54.1,67.5,55.4z"/>
			<path fill="#010101" d="M54.8,56.5c-0.1-1.3-1.2-2.2-2.5-2.1l-4.1,0.4c3,2.7,5.3,5.9,7.1,8.8c0-0.2,0.1-0.4,0-0.6L54.8,56.5z"/>
			<path fill="#010101" d="M65.3,65.3l-6.5,0.6c-0.6,0.1-1.2,0.4-1.6,0.8c3.6,5.5,6.9,8.3,6.9,8.3c-0.1-2,1.7-4.8,3.5-8.2
				C67.4,65.9,66.4,65.2,65.3,65.3z"/>
		</g>
		<g>
			<path fill="#010101" d="M112.6,19.2h9.6l15.2,36h-10.6l-2.6-6.4h-13.8l-2.6,6.4H97.3L112.6,19.2z M121.2,41.1l-4-10.2l-4,10.2
				H121.2z"/>
			<path fill="#010101" d="M137.6,49.9l5.5-6.6c3.5,2.8,7.5,4.3,11.6,4.3c2.7,0,4.1-0.9,4.1-2.5V45c0-1.5-1.2-2.3-6-3.4
				c-7.6-1.7-13.5-3.9-13.5-11.2v-0.1c0-6.6,5.3-11.4,13.8-11.4c6.1,0,10.8,1.6,14.7,4.8l-5,7c-3.3-2.3-6.8-3.5-10-3.5
				c-2.4,0-3.6,1-3.6,2.3v0.1c0,1.6,1.2,2.4,6.2,3.5c8.2,1.8,13.3,4.4,13.3,11.1v0.1c0,7.3-5.8,11.6-14.5,11.6
				C148,55.8,142,53.8,137.6,49.9z"/>
			<path fill="#010101" d="M202.5,52.7c-3.1,2-6.8,3.2-10.9,3.2c-11,0-19.2-8.2-19.2-18.5v-0.1c0-10.3,8.3-18.6,19.3-18.6
				c11,0,19.2,8.2,19.2,18.5v0.1c0,3.8-1.1,7.4-3.2,10.3l3.7,3.1l-5,5.6L202.5,52.7z M195.3,46.5l-5-4.2l5-5.6l4.9,4.4
				c0.4-1.1,0.6-2.2,0.6-3.5v-0.1c0-5.2-3.7-9.8-9.2-9.8c-5.4,0-9,4.5-9,9.7v0.1c0,5.2,3.7,9.7,9.1,9.7
				C193,47.1,194.2,46.9,195.3,46.5z"/>
		</g>
	</g>
	<g>
		<path d="M103.3,69.2c-0.1-0.5-0.4-0.9-0.9-1.1c-0.3-0.1-0.5-0.2-0.9-0.2c-0.6,0-1.1,0.2-1.5,0.7s-0.6,1.1-0.6,2
			c0,0.9,0.2,1.6,0.6,1.9c0.4,0.4,0.9,0.6,1.4,0.6c0.5,0,1-0.2,1.3-0.4c0.3-0.3,0.5-0.7,0.6-1.2h-1.7v-1.2h3.1v4h-1l-0.2-0.9
			c-0.3,0.4-0.6,0.6-0.8,0.7c-0.4,0.3-0.9,0.4-1.5,0.4c-1,0-1.8-0.3-2.4-1c-0.7-0.7-1-1.6-1-2.8c0-1.2,0.3-2.2,1-2.9
			c0.7-0.7,1.5-1.1,2.6-1.1c0.9,0,1.7,0.2,2.3,0.7c0.6,0.5,0.9,1.1,1,1.8H103.3z"/>
		<path d="M110.7,73.7c-0.5,0.6-1.2,0.9-2.1,0.9s-1.7-0.3-2.1-0.9c-0.5-0.6-0.7-1.3-0.7-2.1c0-0.8,0.2-1.5,0.7-2.1
			c0.5-0.6,1.2-0.9,2.1-0.9s1.7,0.3,2.1,0.9c0.5,0.6,0.7,1.3,0.7,2.1C111.4,72.4,111.2,73.1,110.7,73.7z M109.6,72.9
			c0.2-0.3,0.3-0.7,0.3-1.3c0-0.6-0.1-1-0.3-1.3c-0.2-0.3-0.5-0.4-1-0.4s-0.7,0.1-1,0.4c-0.2,0.3-0.3,0.7-0.3,1.3
			c0,0.6,0.1,1,0.3,1.3c0.2,0.3,0.6,0.4,1,0.4S109.4,73.2,109.6,72.9z"/>
		<path d="M117,73.7c-0.5,0.6-1.2,0.9-2.1,0.9s-1.7-0.3-2.1-0.9c-0.5-0.6-0.7-1.3-0.7-2.1c0-0.8,0.2-1.5,0.7-2.1
			c0.5-0.6,1.2-0.9,2.1-0.9s1.7,0.3,2.1,0.9c0.5,0.6,0.7,1.3,0.7,2.1C117.7,72.4,117.4,73.1,117,73.7z M115.8,72.9
			c0.2-0.3,0.3-0.7,0.3-1.3c0-0.6-0.1-1-0.3-1.3c-0.2-0.3-0.5-0.4-1-0.4s-0.7,0.1-1,0.4c-0.2,0.3-0.3,0.7-0.3,1.3
			c0,0.6,0.1,1,0.3,1.3c0.2,0.3,0.6,0.4,1,0.4S115.6,73.2,115.8,72.9z"/>
		<path d="M121.5,69c0.3,0.1,0.5,0.3,0.6,0.6v-2.6h1.5v7.4h-1.4v-0.8c-0.2,0.3-0.4,0.6-0.7,0.7s-0.6,0.2-1,0.2
			c-0.6,0-1.2-0.3-1.6-0.8c-0.4-0.5-0.7-1.2-0.7-2c0-0.9,0.2-1.7,0.6-2.2s1-0.8,1.7-0.8C121,68.7,121.3,68.8,121.5,69z M121.9,72.9
			c0.2-0.3,0.3-0.7,0.3-1.2c0-0.7-0.2-1.2-0.5-1.4c-0.2-0.2-0.5-0.3-0.7-0.3c-0.4,0-0.7,0.2-0.9,0.5c-0.2,0.3-0.3,0.7-0.3,1.2
			c0,0.5,0.1,0.9,0.3,1.2s0.5,0.5,0.9,0.5S121.7,73.2,121.9,72.9z"/>
		<path d="M129.5,66.9h1.8l2.6,7.5h-1.7l-0.5-1.5h-2.7l-0.5,1.5h-1.6L129.5,66.9z M129.4,71.6h1.9l-0.9-2.9L129.4,71.6z"/>
		<path d="M137.5,69c0.3,0.1,0.5,0.3,0.6,0.6v-2.6h1.5v7.4h-1.4v-0.8c-0.2,0.3-0.4,0.6-0.7,0.7c-0.3,0.1-0.6,0.2-1,0.2
			c-0.6,0-1.2-0.3-1.6-0.8s-0.7-1.2-0.7-2c0-0.9,0.2-1.7,0.6-2.2s1-0.8,1.7-0.8C136.9,68.7,137.2,68.8,137.5,69z M137.9,72.9
			c0.2-0.3,0.3-0.7,0.3-1.2c0-0.7-0.2-1.2-0.5-1.4c-0.2-0.2-0.5-0.3-0.7-0.3c-0.4,0-0.7,0.2-0.9,0.5s-0.3,0.7-0.3,1.2
			c0,0.5,0.1,0.9,0.3,1.2s0.5,0.5,0.9,0.5S137.6,73.2,137.9,72.9z"/>
		<path d="M144.2,68.9h1.5l-2,5.5h-1.5l-2-5.5h1.6l1.1,4.1L144.2,68.9z"/>
		<path d="M147.9,68.2h-1.5v-1.3h1.5V68.2z M146.5,68.9h1.5v5.5h-1.5V68.9z"/>
		<path d="M152.5,70.8c0-0.2-0.1-0.4-0.2-0.6c-0.2-0.2-0.4-0.3-0.8-0.3c-0.5,0-0.8,0.2-1,0.7c-0.1,0.3-0.1,0.6-0.1,1
			c0,0.4,0,0.7,0.1,1c0.2,0.5,0.5,0.7,1,0.7c0.3,0,0.6-0.1,0.7-0.3c0.1-0.2,0.2-0.4,0.3-0.7h1.5c0,0.4-0.2,0.9-0.5,1.2
			c-0.5,0.6-1.1,0.9-2,0.9s-1.5-0.3-2-0.8c-0.4-0.5-0.6-1.2-0.6-2c0-0.9,0.2-1.7,0.7-2.2c0.5-0.5,1.1-0.8,1.9-0.8
			c0.7,0,1.3,0.2,1.7,0.5c0.4,0.3,0.7,0.9,0.8,1.6H152.5z"/>
		<path d="M158.5,69c0.4,0.2,0.7,0.4,1,0.8c0.2,0.3,0.4,0.7,0.4,1.1c0,0.3,0.1,0.6,0,1.1h-4c0,0.6,0.2,0.9,0.6,1.2
			c0.2,0.1,0.5,0.2,0.8,0.2c0.3,0,0.6-0.1,0.8-0.3c0.1-0.1,0.2-0.2,0.3-0.4h1.5c0,0.3-0.2,0.7-0.5,1c-0.5,0.5-1.2,0.8-2.1,0.8
			c-0.7,0-1.4-0.2-1.9-0.7c-0.6-0.5-0.8-1.2-0.8-2.2c0-1,0.3-1.7,0.8-2.2c0.5-0.5,1.2-0.8,2-0.8C157.7,68.7,158.1,68.8,158.5,69z
			 M156.3,70.2c-0.2,0.2-0.3,0.5-0.4,0.9h2.5c0-0.4-0.2-0.7-0.4-0.9c-0.2-0.2-0.5-0.3-0.9-0.3C156.8,69.9,156.5,70,156.3,70.2z"/>
		<path d="M168.5,69.2c-0.1-0.5-0.4-0.9-0.9-1.1c-0.3-0.1-0.5-0.2-0.9-0.2c-0.6,0-1.1,0.2-1.5,0.7s-0.6,1.1-0.6,2
			c0,0.9,0.2,1.6,0.6,1.9c0.4,0.4,0.9,0.6,1.4,0.6c0.5,0,1-0.2,1.3-0.4c0.3-0.3,0.5-0.7,0.6-1.2h-1.7v-1.2h3.1v4h-1l-0.2-0.9
			c-0.3,0.4-0.6,0.6-0.8,0.7c-0.4,0.3-0.9,0.4-1.5,0.4c-1,0-1.8-0.3-2.4-1c-0.7-0.7-1-1.6-1-2.8c0-1.2,0.3-2.2,1-2.9
			c0.7-0.7,1.5-1.1,2.6-1.1c0.9,0,1.7,0.2,2.3,0.7c0.6,0.5,0.9,1.1,1,1.8H168.5z"/>
		<path d="M172.7,68.9v3.3c0,0.3,0,0.5,0.1,0.7c0.1,0.3,0.4,0.4,0.8,0.4c0.5,0,0.8-0.2,1-0.6c0.1-0.2,0.1-0.5,0.1-0.9v-3h1.5v5.5
			h-1.4v-0.8c0,0,0,0.1-0.1,0.2c-0.1,0.1-0.1,0.2-0.2,0.2c-0.2,0.2-0.4,0.3-0.7,0.4c-0.2,0.1-0.5,0.1-0.7,0.1
			c-0.8,0-1.4-0.3-1.6-0.9c-0.2-0.3-0.2-0.8-0.2-1.4v-3.3H172.7z"/>
		<path d="M179.7,71c0.3,0,0.5-0.1,0.6-0.1c0.2-0.1,0.3-0.2,0.3-0.4c0-0.2-0.1-0.4-0.2-0.5s-0.4-0.1-0.7-0.1c-0.3,0-0.6,0.1-0.7,0.3
			c-0.1,0.1-0.2,0.3-0.2,0.5h-1.4c0-0.5,0.2-0.9,0.4-1.2c0.4-0.5,1-0.7,2-0.7c0.6,0,1.1,0.1,1.6,0.4s0.7,0.7,0.7,1.4V73
			c0,0.2,0,0.4,0,0.6c0,0.2,0,0.3,0.1,0.4c0,0.1,0.1,0.1,0.2,0.2v0.2h-1.6c0-0.1-0.1-0.2-0.1-0.3c0-0.1,0-0.2,0-0.3
			c-0.2,0.2-0.4,0.4-0.7,0.6c-0.3,0.2-0.7,0.3-1.1,0.3c-0.5,0-0.9-0.1-1.2-0.4c-0.3-0.3-0.5-0.7-0.5-1.2c0-0.7,0.3-1.2,0.8-1.5
			c0.3-0.2,0.7-0.3,1.3-0.4L179.7,71z M180.6,71.7c-0.1,0.1-0.2,0.1-0.3,0.1c-0.1,0-0.2,0.1-0.4,0.1l-0.3,0.1
			c-0.3,0.1-0.5,0.1-0.7,0.2c-0.2,0.1-0.3,0.3-0.3,0.6c0,0.2,0.1,0.4,0.2,0.5c0.1,0.1,0.3,0.2,0.5,0.2c0.3,0,0.6-0.1,0.9-0.3
			c0.3-0.2,0.4-0.5,0.4-1V71.7z"/>
		<path d="M186.2,68.7c0,0,0.1,0,0.1,0v1.5c-0.1,0-0.2,0-0.2,0c-0.1,0-0.1,0-0.2,0c-0.6,0-1,0.2-1.2,0.6c-0.1,0.2-0.2,0.5-0.2,1v2.6
			h-1.5v-5.5h1.4v1c0.2-0.4,0.4-0.6,0.6-0.8C185.4,68.8,185.7,68.7,186.2,68.7C186.2,68.7,186.2,68.7,186.2,68.7z"/>
		<path d="M189.3,71c0.3,0,0.5-0.1,0.6-0.1c0.2-0.1,0.3-0.2,0.3-0.4c0-0.2-0.1-0.4-0.2-0.5s-0.4-0.1-0.7-0.1c-0.3,0-0.6,0.1-0.7,0.3
			c-0.1,0.1-0.2,0.3-0.2,0.5h-1.4c0-0.5,0.2-0.9,0.4-1.2c0.4-0.5,1-0.7,2-0.7c0.6,0,1.1,0.1,1.6,0.4s0.7,0.7,0.7,1.4V73
			c0,0.2,0,0.4,0,0.6c0,0.2,0,0.3,0.1,0.4c0,0.1,0.1,0.1,0.2,0.2v0.2h-1.6c0-0.1-0.1-0.2-0.1-0.3c0-0.1,0-0.2,0-0.3
			c-0.2,0.2-0.4,0.4-0.7,0.6c-0.3,0.2-0.7,0.3-1.1,0.3c-0.5,0-0.9-0.1-1.2-0.4c-0.3-0.3-0.5-0.7-0.5-1.2c0-0.7,0.3-1.2,0.8-1.5
			c0.3-0.2,0.7-0.3,1.3-0.4L189.3,71z M190.1,71.7c-0.1,0.1-0.2,0.1-0.3,0.1c-0.1,0-0.2,0.1-0.4,0.1l-0.3,0.1
			c-0.3,0.1-0.5,0.1-0.7,0.2c-0.2,0.1-0.3,0.3-0.3,0.6c0,0.2,0.1,0.4,0.2,0.5c0.1,0.1,0.3,0.2,0.5,0.2c0.3,0,0.6-0.1,0.9-0.3
			c0.3-0.2,0.4-0.5,0.4-1V71.7z"/>
		<path d="M197.2,69.2c0.4,0.3,0.5,0.8,0.5,1.5v3.7h-1.5V71c0-0.3,0-0.5-0.1-0.7c-0.1-0.3-0.4-0.4-0.8-0.4c-0.5,0-0.8,0.2-1,0.6
			c-0.1,0.2-0.1,0.5-0.1,0.8v3h-1.4v-5.5h1.4v0.8c0.2-0.3,0.4-0.5,0.5-0.6c0.3-0.2,0.7-0.3,1.1-0.3
			C196.4,68.7,196.8,68.9,197.2,69.2z"/>
		<path d="M198.4,69.9v-1h0.8v-1.5h1.4v1.5h0.9v1h-0.9v2.9c0,0.2,0,0.4,0.1,0.4c0.1,0.1,0.2,0.1,0.5,0.1c0,0,0.1,0,0.1,0
			c0,0,0.1,0,0.1,0v1.1l-0.7,0c-0.7,0-1.1-0.1-1.4-0.4c-0.2-0.2-0.2-0.4-0.2-0.8v-3.4H198.4z"/>
		<path d="M205.9,69c0.4,0.2,0.7,0.4,1,0.8c0.2,0.3,0.4,0.7,0.4,1.1c0,0.3,0.1,0.6,0,1.1h-4c0,0.6,0.2,0.9,0.6,1.2
			c0.2,0.1,0.5,0.2,0.8,0.2c0.3,0,0.6-0.1,0.8-0.3c0.1-0.1,0.2-0.2,0.3-0.4h1.5c0,0.3-0.2,0.7-0.5,1c-0.5,0.5-1.2,0.8-2.1,0.8
			c-0.7,0-1.4-0.2-1.9-0.7c-0.6-0.5-0.8-1.2-0.8-2.2c0-1,0.3-1.7,0.8-2.2c0.5-0.5,1.2-0.8,2-0.8C205.1,68.7,205.5,68.8,205.9,69z
			 M203.7,70.2c-0.2,0.2-0.3,0.5-0.4,0.9h2.5c0-0.4-0.2-0.7-0.4-0.9s-0.5-0.3-0.9-0.3C204.2,69.9,203.9,70,203.7,70.2z"/>
		<path d="M211.6,69c0.4,0.2,0.7,0.4,1,0.8c0.2,0.3,0.4,0.7,0.4,1.1c0,0.3,0.1,0.6,0,1.1h-4c0,0.6,0.2,0.9,0.6,1.2
			c0.2,0.1,0.5,0.2,0.8,0.2c0.3,0,0.6-0.1,0.8-0.3c0.1-0.1,0.2-0.2,0.3-0.4h1.5c0,0.3-0.2,0.7-0.5,1c-0.5,0.5-1.2,0.8-2.1,0.8
			c-0.7,0-1.4-0.2-1.9-0.7c-0.6-0.5-0.8-1.2-0.8-2.2c0-1,0.3-1.7,0.8-2.2c0.5-0.5,1.2-0.8,2-0.8C210.7,68.7,211.2,68.8,211.6,69z
			 M209.4,70.2c-0.2,0.2-0.3,0.5-0.4,0.9h2.5c0-0.4-0.2-0.7-0.4-0.9c-0.2-0.2-0.5-0.3-0.9-0.3C209.9,69.9,209.6,70,209.4,70.2z"/>
	</g>
</g>
</svg>
