<?xml version="1.0" encoding="utf-8"?>
<!-- Generator: Adobe Illustrator 19.1.0, SVG Export Plug-In . SVG Version: 6.00 Build 0)  -->
<!DOCTYPE svg PUBLIC "-//W3C//DTD SVG 1.0//EN" "http://www.w3.org/TR/2001/REC-SVG-20010904/DTD/svg10.dtd">
<svg version="1.0" id="Layer_1" xmlns="http://www.w3.org/2000/svg" xmlns:xlink="http://www.w3.org/1999/xlink" x="0px" y="0px"
	 viewBox="0 0 170 176.1" enable-background="new 0 0 170 176.1" xml:space="preserve">
<g>
	<path opacity="0.25" d="M161.6,176.7H8.6c-4.7,0-8.5-3.8-8.5-8.5v-153c0-4.7,3.8-8.5,8.5-8.5h153c4.7,0,8.5,3.8,8.5,8.5v153
		C170.1,172.8,166.3,176.7,161.6,176.7z"/>
	<g>
		<linearGradient id="SVGID_1_" gradientUnits="userSpaceOnUse" x1="85.1255" y1="8.1267" x2="85.1255" y2="170.3475">
			<stop  offset="0" style="stop-color:#FED105"/>
			<stop  offset="7.364756e-02" style="stop-color:#FDCA0E"/>
			<stop  offset="0.2947" style="stop-color:#FBB719"/>
			<stop  offset="0.5207" style="stop-color:#FAA91E"/>
			<stop  offset="0.7528" style="stop-color:#F9A120"/>
			<stop  offset="1" style="stop-color:#F99F21"/>
		</linearGradient>
		<path fill="url(#SVGID_1_)" d="M8.6,169.3c-4,0-7.2-3.2-7.2-7.2V9.1c0-4,3.2-7.2,7.2-7.2h153c4,0,7.2,3.2,7.2,7.2v153
			c0,4-3.2,7.2-7.2,7.2H8.6z"/>
		<path fill="#FED105" d="M161.6,3.1c3.3,0,6,2.7,6,6v153c0,3.3-2.7,6-6,6H8.6c-3.3,0-6-2.7-6-6V9.1c0-3.3,2.7-6,6-6H161.6
			 M161.6,0.6H8.6C4,0.6,0.1,4.4,0.1,9.1v153c0,4.7,3.8,8.5,8.5,8.5h153c4.7,0,8.5-3.8,8.5-8.5V9.1C170.1,4.4,166.3,0.6,161.6,0.6
			L161.6,0.6z"/>
	</g>
	<g>
		<g>
			<path fill="#FED105" d="M88.5,60.2l4-4c1.1-1.1,1.1-2.9,0-4c-1.1-1.1-2.9-1.1-4,0l-4,4c-1.1,1.1-1.1,2.9,0,4
				C85.5,61.3,87.4,61.3,88.5,60.2z"/>
			<path fill="#FED105" d="M68.8,53.5c1.6,0,3-1.3,3-2.8v-5.7c0-1.6-1.4-2.8-3-2.8c-1.6,0-3,1.3-3,2.8v5.7
				C65.8,52.2,67.2,53.5,68.8,53.5z"/>
			<path fill="#FED105" d="M48.2,60.2c1.1,1.1,2.9,1.1,4,0c1.1-1.1,1.1-2.9,0-4l-4-4c-1.1-1.1-2.9-1.1-4,0c-1.1,1.1-1.1,2.9,0,4
				L48.2,60.2z"/>
			<path fill="#FED105" d="M45.5,76.4c0-1.6-1.3-3-2.8-3H37c-1.6,0-2.8,1.4-2.8,3c0,1.6,1.3,3,2.8,3h5.7
				C44.2,79.4,45.5,78,45.5,76.4z"/>
			<path fill="#FED105" d="M52.2,92.4c-1.1-1.1-2.9-1.1-4,0l-4,4c-1.1,1.1-1.1,2.9,0,4c1.1,1.1,2.9,1.1,4,0l4-4
				C53.3,95.3,53.3,93.5,52.2,92.4z"/>
			<path fill="#FED105" d="M135.1,102.8l-14.3-14.5V69.7c0-0.8-0.5-1.2-1.3-1.2h-11.4c-0.8,0-2.3,0.4-2.3,1.2v4.1L94,61.3
				c-0.3-0.3-0.4-0.4-0.8-0.4c-0.4,0-0.6,0.2-0.9,0.4l-8.2,8.5c-2.6-6.2-8.6-10.6-15.8-10.6c-9.4,0-17.1,7.7-17.1,17.1
				c0,7.3,4.5,13.5,10.9,15.9l-10.4,10.6c-0.4,0.4-0.5,1.6-0.3,2.1c0.2,0.5,0.7,1.5,1.3,1.5h9.1v24.3c0,0.8-0.1,1.7,0.7,1.7h25.2
				c0.8,0,2.1-0.9,2.1-1.7v-20.3h8v20.3c0,0.8,0.5,1.7,1.3,1.7h25.2c0.8,0,1.4-0.9,1.4-1.7v-24.3h8.3c0.6,0,1.1-0.9,1.3-1.5
				C135.6,104.4,135.5,103.3,135.1,102.8z M56.9,76.3c0-6.3,5.1-11.4,11.4-11.4c5.7,0,10.4,4.1,11.2,9.5L66.7,87.6
				C61.2,86.8,56.9,82,56.9,76.3z"/>
		</g>
		<g>
			<path fill="#333333" d="M100.2,76.3h-5.7c-1.6,0-2.9-1.3-2.9-2.8c0-1.6,1.3-2.8,2.9-2.8h5.7c1.6,0,2.8,1.3,2.8,2.8
				C103.1,75,101.8,76.3,100.2,76.3z"/>
			<path fill="#333333" d="M89,57.3c-1.1,1.1-2.9,1.1-4,0c-1.1-1.1-1.1-2.9,0-4l4-4c1.1-1.1,2.9-1.1,4,0c1.1,1.1,1.1,2.9,0,4
				L89,57.3z"/>
			<path fill="#333333" d="M68.9,56.3c-9.4,0-17.1,7.7-17.1,17.1c0,9.4,7.7,17.1,17.1,17.1c9.4,0,17.1-7.7,17.1-17.1
				C86,64,78.3,56.3,68.9,56.3z M68.9,84.8c-6.3,0-11.4-5.1-11.4-11.4c0-6.3,5.1-11.4,11.4-11.4c6.3,0,11.4,5.1,11.4,11.4
				C80.3,79.7,75.2,84.8,68.9,84.8z"/>
			<path fill="#333333" d="M68.9,50.6c-1.6,0-2.8-1.3-2.8-2.8v-5.7c0-1.6,1.3-2.8,2.8-2.8c1.6,0,2.8,1.3,2.8,2.8v5.7
				C71.7,49.4,70.5,50.6,68.9,50.6z"/>
			<path fill="#333333" d="M48.7,57.3l-4-4c-1.1-1.1-1.1-2.9,0-4c1.1-1.1,2.9-1.1,4,0l4,4c1.1,1.1,1.1,2.9,0,4
				C51.7,58.4,49.9,58.4,48.7,57.3z"/>
			<path fill="#333333" d="M46.1,73.4c0,1.6-1.3,2.8-2.8,2.8h-5.7c-1.6,0-2.8-1.3-2.8-2.8c0-1.6,1.3-2.8,2.8-2.8h5.7
				C44.8,70.6,46.1,71.9,46.1,73.4z"/>
			<path fill="#333333" d="M48.7,89.6c1.1-1.1,2.9-1.1,4,0c1.1,1.1,1.1,2.9,0,4l-4,4c-1.1,1.1-2.9,1.1-4,0c-1.1-1.1-1.1-2.9,0-4
				L48.7,89.6z"/>
			<path fill="#333333" d="M68.9,96.2c1.6,0,2.8,1.3,2.8,2.8v5.7c0,1.6-1.3,2.8-2.8,2.8c-1.6,0-2.8-1.3-2.8-2.8v-5.7
				C66,97.5,67.3,96.2,68.9,96.2z"/>
			<path fill="#333333" d="M89,89.6l4,4c1.1,1.1,1.1,2.9,0,4c-1.1,1.1-2.9,1.1-4,0l-4-4c-1.1-1.1-1.1-2.9,0-4
				C86.1,88.4,87.9,88.4,89,89.6z"/>
		</g>
		<path fill="#333333" d="M99.7,129.3c-0.8,0-1.4-0.6-1.4-1.4v-20.6h-8.5v20.6c0,0.8-0.6,1.4-1.4,1.4H63.1c-0.8,0-1.4-0.6-1.4-1.4
			v-25.4h-8.3c-0.6,0-1.1-0.3-1.3-0.9c-0.2-0.5-0.1-1.1,0.3-1.5L93,58.5c0.3-0.3,0.6-0.4,1-0.4c0.4,0,0.7,0.2,1,0.4l12.2,12.5v-4.1
			c0-0.8,0.6-1.4,1.4-1.4H120c0.8,0,1.4,0.6,1.4,1.4v18.7l14.2,14.5c0.4,0.4,0.5,1,0.3,1.5c-0.2,0.5-0.7,0.9-1.3,0.9h-8.3v25.4
			c0,0.8-0.6,1.4-1.4,1.4H99.7z"/>
		<g>
			<path fill="#FFFFFF" d="M110.2,83.1H108v-1.2c0-1.6-1.3-2.9-2.9-2.9H80.7c-1.6,0-2.9,1.3-2.9,2.9v12.2c0,1.6,1.3,2.9,2.9,2.9
				h24.4c1.6,0,2.9-1.3,2.9-2.9v-1.3h2.1c0.8,0,1.5-0.7,1.5-1.5v-6.8C111.6,83.8,111,83.1,110.2,83.1z M105.1,94.1H80.7V81.9h24.4
				V94.1z"/>
			<rect x="82.9" y="84.1" fill="#FFFFFF" width="3" height="7.8"/>
			<rect x="88.4" y="84.1" fill="#FFFFFF" width="3" height="7.8"/>
			<rect x="93.9" y="84.1" fill="#FFFFFF" width="3" height="7.8"/>
		</g>
	</g>
</g>
</svg>
