<?xml version="1.0" encoding="utf-8"?>
<!-- Generator: Adobe Illustrator 19.1.0, SVG Export Plug-In . SVG Version: 6.00 Build 0)  -->
<!DOCTYPE svg PUBLIC "-//W3C//DTD SVG 1.0//EN" "http://www.w3.org/TR/2001/REC-SVG-20010904/DTD/svg10.dtd">
<svg version="1.0" id="Layer_1" xmlns="http://www.w3.org/2000/svg" xmlns:xlink="http://www.w3.org/1999/xlink" x="0px" y="0px"
	 viewBox="0 0 170 170" enable-background="new 0 0 170 170" xml:space="preserve">
<g>
	<g>
		
			<linearGradient id="SVGID_1_" gradientUnits="userSpaceOnUse" x1="85.1252" y1="788.837" x2="85.1252" y2="951.0573" gradientTransform="matrix(1 0 0 -1 0 950.8549)">
			<stop  offset="0" style="stop-color:#FED105"/>
			<stop  offset="7.364756e-02" style="stop-color:#FDCA0E"/>
			<stop  offset="0.2947" style="stop-color:#FBB719"/>
			<stop  offset="0.5207" style="stop-color:#FAA91E"/>
			<stop  offset="0.7528" style="stop-color:#F9A120"/>
			<stop  offset="1" style="stop-color:#F99F21"/>
		</linearGradient>
		<path fill="url(#SVGID_1_)" d="M8.6,168.3c-4,0-7.2-3.2-7.2-7.2V8.1c0-4,3.2-7.2,7.2-7.2h153c4,0,7.2,3.2,7.2,7.2v153
			c0,4-3.2,7.2-7.2,7.2H8.6z"/>
		<path fill="#FED105" d="M161.6,2.1c3.3,0,6,2.7,6,6v153c0,3.3-2.7,6-6,6H8.6c-3.3,0-6-2.7-6-6V8.1c0-3.3,2.7-6,6-6H161.6
			 M161.6-0.4H8.6C4-0.4,0.1,3.4,0.1,8.1v153c0,4.7,3.8,8.5,8.5,8.5h153c4.7,0,8.5-3.8,8.5-8.5V8.1C170.1,3.4,166.3-0.4,161.6-0.4
			L161.6-0.4z"/>
	</g>
	<g>
		<path fill="#FED105" d="M88.5,53.2l4-4c1.1-1.1,1.1-2.9,0-4c-1.1-1.1-2.9-1.1-4,0l-4,4c-1.1,1.1-1.1,2.9,0,4
			C85.5,54.3,87.4,54.3,88.5,53.2z"/>
		<path fill="#FED105" d="M68.6,46.5c1.6,0,3-1.3,3-2.8v-5.7c0-1.6-1.4-2.8-3-2.8c-1.6,0-3,1.3-3,2.8v5.7
			C65.6,45.2,67,46.5,68.6,46.5z"/>
		<path fill="#FED105" d="M48.2,53.2c1.1,1.1,2.9,1.1,4,0c1.1-1.1,1.1-2.9,0-4l-4-4c-1.1-1.1-2.9-1.1-4,0c-1.1,1.1-1.1,2.9,0,4
			L48.2,53.2z"/>
		<path fill="#FED105" d="M45.5,68.9c0-1.6-1.3-3-2.8-3H37c-1.6,0-2.8,1.4-2.8,3c0,1.6,1.3,3,2.8,3h5.7
			C44.2,71.9,45.5,70.4,45.5,68.9z"/>
		<path fill="#FED105" d="M52.2,85.4c-1.1-1.1-2.9-1.1-4,0l-4,4c-1.1,1.1-1.1,2.9,0,4c1.1,1.1,2.9,1.1,4,0l4-4
			C53.3,88.3,53.3,86.5,52.2,85.4z"/>
		<path fill="#FED105" d="M135,95.8l-14.4-14.5V62.7c0-0.8-0.3-1.8-1.1-1.8h-11.4c-0.8,0-2.5,1-2.5,1.8v4.1L93.9,54.3
			c-0.3-0.3-0.4-0.4-0.7-0.4c-0.4,0-0.6,0.2-0.9,0.4l-8.2,8.5c-2.6-6.2-8.6-10.6-15.8-10.6c-9.4,0-17.1,7.7-17.1,17.1
			c0,7.3,4.5,13.5,10.9,15.9L51.7,95.8c-0.4,0.4-0.5,1.3-0.3,1.8c0.2,0.5,0.7,1.2,1.3,1.2h8.9v24.8c0,0.8,0.1,1.2,0.9,1.2h25.2
			c0.8,0,1.9-0.4,1.9-1.2v-20.8h8v20.8c0,0.8,0.8,1.2,1.5,1.2h25.2c0.8,0,1.2-0.4,1.2-1.2V98.9h8.5c0.6,0,1-0.6,1.2-1.2
			C135.6,97.2,135.4,96.3,135,95.8z M56.9,69.3c0-6.3,5.1-11.4,11.4-11.4c5.7,0,10.4,4.1,11.2,9.5L66.7,80.6
			C61.2,79.8,56.9,75,56.9,69.3z"/>
	</g>
	<g>
		<path fill="#333333" d="M100.2,75.3h-5.7c-1.6,0-2.9-1.3-2.9-2.8c0-1.6,1.3-2.8,2.9-2.8h5.7c1.6,0,2.8,1.3,2.8,2.8
			C103.1,74,101.8,75.3,100.2,75.3z"/>
		<path fill="#333333" d="M89,56.3c-1.1,1.1-2.9,1.1-4,0c-1.1-1.1-1.1-2.9,0-4l4-4c1.1-1.1,2.9-1.1,4,0c1.1,1.1,1.1,2.9,0,4L89,56.3
			z"/>
		<path fill="#333333" d="M68.9,55.3c-9.4,0-17.1,7.7-17.1,17.1c0,9.4,7.7,17.1,17.1,17.1c9.4,0,17.1-7.7,17.1-17.1
			C86,63,78.3,55.3,68.9,55.3z M68.9,83.8c-6.3,0-11.4-5.1-11.4-11.4c0-6.3,5.1-11.4,11.4-11.4s11.4,5.1,11.4,11.4
			C80.3,78.7,75.2,83.8,68.9,83.8z"/>
		<path fill="#333333" d="M68.9,49.6c-1.6,0-2.8-1.3-2.8-2.8v-5.7c0-1.6,1.3-2.8,2.8-2.8s2.8,1.3,2.8,2.8v5.7
			C71.7,48.4,70.5,49.6,68.9,49.6z"/>
		<path fill="#333333" d="M48.7,56.3l-4-4c-1.1-1.1-1.1-2.9,0-4c1.1-1.1,2.9-1.1,4,0l4,4c1.1,1.1,1.1,2.9,0,4
			C51.7,57.4,49.9,57.4,48.7,56.3z"/>
		<path fill="#333333" d="M46.1,72.4c0,1.6-1.3,2.8-2.8,2.8h-5.7c-1.6,0-2.8-1.3-2.8-2.8c0-1.6,1.3-2.8,2.8-2.8h5.7
			C44.8,69.6,46.1,70.9,46.1,72.4z"/>
		<path fill="#333333" d="M48.7,88.6c1.1-1.1,2.9-1.1,4,0c1.1,1.1,1.1,2.9,0,4l-4,4c-1.1,1.1-2.9,1.1-4,0c-1.1-1.1-1.1-2.9,0-4
			L48.7,88.6z"/>
		<path fill="#333333" d="M68.9,95.2c1.6,0,2.8,1.3,2.8,2.8v5.7c0,1.6-1.3,2.8-2.8,2.8s-2.8-1.3-2.8-2.8v-5.7
			C66,96.5,67.3,95.2,68.9,95.2z"/>
		<path fill="#333333" d="M89,88.6l4,4c1.1,1.1,1.1,2.9,0,4c-1.1,1.1-2.9,1.1-4,0l-4-4c-1.1-1.1-1.1-2.9,0-4
			C86.1,87.4,87.9,87.4,89,88.6z"/>
	</g>
	<path fill="#333333" d="M99.7,128.3c-0.8,0-1.4-0.6-1.4-1.4v-20.6h-8.5v20.6c0,0.8-0.6,1.4-1.4,1.4H63.1c-0.8,0-1.4-0.6-1.4-1.4
		v-25.4h-8.3c-0.6,0-1.1-0.3-1.3-0.9c-0.2-0.5-0.1-1.1,0.3-1.5L93,57.5c0.3-0.3,0.6-0.4,1-0.4c0.4,0,0.7,0.2,1,0.4l12.2,12.5v-4.1
		c0-0.8,0.6-1.4,1.4-1.4H120c0.8,0,1.4,0.6,1.4,1.4v18.7L135.7,99c0.4,0.4,0.5,1,0.3,1.5c-0.2,0.5-0.7,0.9-1.3,0.9h-8.3v25.4
		c0,0.8-0.6,1.4-1.4,1.4H99.7z"/>
	<g>
		<path fill="#FFFFFF" d="M110.2,82.1H108v-1.2c0-1.6-1.3-2.9-2.9-2.9H80.7c-1.6,0-2.9,1.3-2.9,2.9v12.2c0,1.6,1.3,2.9,2.9,2.9h24.4
			c1.6,0,2.9-1.3,2.9-2.9v-1.3h2.1c0.8,0,1.5-0.7,1.5-1.5v-6.8C111.6,82.8,111,82.1,110.2,82.1z M105.1,93.1H80.7V80.9h24.4V93.1z"
			/>
		<rect x="82.9" y="83.1" fill="#FFFFFF" width="3" height="7.8"/>
		<rect x="88.4" y="83.1" fill="#FFFFFF" width="3" height="7.8"/>
		<rect x="93.9" y="83.1" fill="#FFFFFF" width="3" height="7.8"/>
	</g>
</g>
</svg>
