<?xml version="1.0" encoding="utf-8"?>
<!-- Generator: Adobe Illustrator 19.1.0, SVG Export Plug-In . SVG Version: 6.00 Build 0)  -->
<!DOCTYPE svg PUBLIC "-//W3C//DTD SVG 1.0//EN" "http://www.w3.org/TR/2001/REC-SVG-20010904/DTD/svg10.dtd">
<svg version="1.0" id="Layer_1" xmlns="http://www.w3.org/2000/svg" xmlns:xlink="http://www.w3.org/1999/xlink" x="0px" y="0px"
	 viewBox="0 0 170 170" enable-background="new 0 0 170 170" xml:space="preserve">
<g>
	<g>
		
			<linearGradient id="SVGID_1_" gradientUnits="userSpaceOnUse" x1="84.8743" y1="788.837" x2="84.8743" y2="951.0573" gradientTransform="matrix(1 0 0 -1 0 950.8549)">
			<stop  offset="0" style="stop-color:#FED105"/>
			<stop  offset="7.364756e-02" style="stop-color:#FDCA0E"/>
			<stop  offset="0.2947" style="stop-color:#FBB719"/>
			<stop  offset="0.5207" style="stop-color:#FAA91E"/>
			<stop  offset="0.7528" style="stop-color:#F9A120"/>
			<stop  offset="1" style="stop-color:#F99F21"/>
		</linearGradient>
		<path fill="url(#SVGID_1_)" d="M8.4,168.3c-4,0-7.2-3.2-7.2-7.2V8.1c0-4,3.2-7.2,7.2-7.2h153c4,0,7.2,3.2,7.2,7.2v153
			c0,4-3.2,7.2-7.2,7.2H8.4z"/>
		<path fill="#FED105" d="M161.4,2.1c3.3,0,6,2.7,6,6v153c0,3.3-2.7,6-6,6H8.4c-3.3,0-6-2.7-6-6V8.1c0-3.3,2.7-6,6-6H161.4
			 M161.4-0.4H8.4c-4.7,0-8.5,3.8-8.5,8.5v153c0,4.7,3.8,8.5,8.5,8.5h153c4.7,0,8.5-3.8,8.5-8.5V8.1C169.9,3.4,166-0.4,161.4-0.4
			L161.4-0.4z"/>
	</g>
	<g>
		<path fill="#FED105" d="M66.1,60.5c1.5,0,2.5-1.2,2.5-2.7v-5.3c0-1.5-1-2.7-2.5-2.7s-2.5,1.2-2.5,2.7v5.3
			C63.6,59.3,64.6,60.5,66.1,60.5z"/>
		<path fill="#FED105" d="M47,66.8c1,1,2.7,1,3.8,0c1-1,1-2.7,0-3.8L47,59.2c-1-1-2.7-1-3.8,0c-1,1-1,2.7,0,3.8L47,66.8z"/>
		<path fill="#FED105" d="M44.6,81.9c0-1.5-1.2-3-2.7-3h-5.3c-1.5,0-2.7,1.5-2.7,3c0,1.5,1.2,3,2.7,3h5.3
			C43.4,84.9,44.6,83.3,44.6,81.9z"/>
		<path fill="#FED105" d="M47,97l-3.8,3.8c-1,1-1,2.7,0,3.8c1,1,2.7,1,3.8,0l3.8-3.8c1-1,1-2.7,0-3.8C49.8,95.9,48.1,95.9,47,97z"/>
		<path fill="#FED105" d="M66.1,103.2c-1.5,0-2.5,1.2-2.5,2.7v5.3c0,1.5,1,2.7,2.5,2.7s2.5-1.2,2.5-2.7v-5.3
			C68.6,104.4,67.6,103.2,66.1,103.2z"/>
		<path fill="#FED105" d="M71.6,66.8c-2-0.6-3.7-1-5.6-1c-8.9,0-16.1,7.2-16.1,16c0,8.8,7.2,16,16.1,16c1.9,0,3.6-0.3,5.6-1v23h31
			v-76h-31V66.8z M66,92.5c-5.9,0-10.7-4.8-10.7-10.7c0-5.9,4.8-10.7,10.7-10.7c2,0,3.6,0.6,5.6,1.6V91C69.6,92,68,92.5,66,92.5z"/>
		<polygon fill="#FED105" points="128.6,76.9 128.6,62.9 122.6,62.9 122.6,51.9 119.6,51.9 119.6,40.9 117.6,40.9 117.6,51.9 
			117.6,62.9 110.6,62.9 110.6,76.9 104.6,76.9 104.6,119.9 134.6,119.9 134.6,76.9 		"/>
	</g>
	<g>
		<g>
			<path fill="#333333" d="M95.8,87.1h-5.3c-1.5,0-2.7-1.2-2.7-2.7c0-1.5,1.2-2.7,2.7-2.7h5.3c1.5,0,2.7,1.2,2.7,2.7
				C98.5,86,97.3,87.1,95.8,87.1z"/>
			<path fill="#333333" d="M85.3,69.4c-1,1-2.7,1-3.8,0c-1-1-1-2.7,0-3.8l3.8-3.8c1-1,2.7-1,3.8,0c1,1,1,2.7,0,3.8L85.3,69.4z"/>
			<path fill="#333333" d="M66.5,68.5c-8.9,0-16,7.2-16,16c0,8.8,7.2,16,16,16c8.9,0,16-7.2,16-16C82.5,75.6,75.3,68.5,66.5,68.5z
				 M66.5,95.2c-5.9,0-10.7-4.8-10.7-10.7c0-5.9,4.8-10.7,10.7-10.7s10.7,4.8,10.7,10.7C77.1,90.4,72.4,95.2,66.5,95.2z"/>
			<path fill="#333333" d="M66.5,63.1c-1.5,0-2.7-1.2-2.7-2.7v-5.3c0-1.5,1.2-2.7,2.7-2.7c1.5,0,2.7,1.2,2.7,2.7v5.3
				C69.1,61.9,67.9,63.1,66.5,63.1z"/>
			<path fill="#333333" d="M47.6,69.4l-3.8-3.8c-1-1-1-2.7,0-3.8c1-1,2.7-1,3.8,0l3.8,3.8c1,1,1,2.7,0,3.8
				C50.3,70.4,48.6,70.4,47.6,69.4z"/>
			<path fill="#333333" d="M45.1,84.5c0,1.5-1.2,2.7-2.7,2.7h-5.3c-1.5,0-2.7-1.2-2.7-2.7c0-1.5,1.2-2.7,2.7-2.7h5.3
				C43.9,81.8,45.1,83,45.1,84.5z"/>
			<path fill="#333333" d="M47.6,99.6c1-1,2.7-1,3.8,0c1,1,1,2.7,0,3.8l-3.8,3.8c-1,1-2.7,1-3.8,0c-1-1-1-2.7,0-3.8L47.6,99.6z"/>
			<path fill="#333333" d="M66.5,105.8c1.5,0,2.7,1.2,2.7,2.7v5.3c0,1.5-1.2,2.7-2.7,2.7c-1.5,0-2.7-1.2-2.7-2.7v-5.3
				C63.8,107,65,105.8,66.5,105.8z"/>
			<path fill="#333333" d="M85.3,99.6l3.8,3.8c1,1,1,2.7,0,3.8c-1,1-2.7,1-3.8,0l-3.8-3.8c-1-1-1-2.7,0-3.8
				C82.6,98.5,84.3,98.5,85.3,99.6z"/>
		</g>
		<g>
			<g>
				<path fill="#333333" d="M103.7,46.8H72v76.7h31.7V46.8z"/>
				<path fill="#333333" d="M129.4,78.5V66.2H123V54.5h-2.3V43.3h-1.9v11.1l0,0v11.7h-6.5v12.3h-6.4v44.9h30V78.5H129.4z"/>
			</g>
			<g>
				<rect x="76.6" y="60.9" fill="#FFFFFF" width="7" height="5"/>
				<rect x="77.9" y="97.2" fill="#FFFFFF" width="6.7" height="6.3"/>
				<rect x="77.8" y="87.8" fill="#FFFFFF" width="6.7" height="6.3"/>
				<rect x="90.4" y="87.8" fill="#FFFFFF" width="6.7" height="6.3"/>
				<rect x="77.6" y="68.9" fill="#FFFFFF" width="6.7" height="6.3"/>
				<rect x="90.4" y="68.9" fill="#FFFFFF" width="6.7" height="6.3"/>
				<rect x="90.4" y="97.2" fill="#FFFFFF" width="6.7" height="6.3"/>
				<rect x="90.4" y="78.3" fill="#FFFFFF" width="6.7" height="6.3"/>
				<rect x="90.4" y="59.4" fill="#FFFFFF" width="6.7" height="6.3"/>
				<rect x="77.8" y="78.3" fill="#FFFFFF" width="6.7" height="6.3"/>
				<rect x="112.2" y="104.1" fill="#FFFFFF" width="6.7" height="6.3"/>
				<rect x="112.3" y="94.3" fill="#FFFFFF" width="6.7" height="6.3"/>
				<rect x="112.3" y="85" fill="#FFFFFF" width="6.7" height="6.3"/>
				<rect x="122.8" y="104.1" fill="#FFFFFF" width="6.7" height="6.3"/>
				<rect x="122.8" y="94.3" fill="#FFFFFF" width="6.7" height="6.3"/>
				<rect x="123.1" y="85" fill="#FFFFFF" width="6.7" height="6.3"/>
			</g>
		</g>
	</g>
</g>
</svg>
