<?xml version="1.0" encoding="utf-8"?>
<!-- Generator: Adobe Illustrator 19.1.0, SVG Export Plug-In . SVG Version: 6.00 Build 0)  -->
<!DOCTYPE svg PUBLIC "-//W3C//DTD SVG 1.0//EN" "http://www.w3.org/TR/2001/REC-SVG-20010904/DTD/svg10.dtd">
<svg version="1.0" id="Layer_1" xmlns="http://www.w3.org/2000/svg" xmlns:xlink="http://www.w3.org/1999/xlink" x="0px" y="0px"
	 viewBox="0 0 170 176.1" enable-background="new 0 0 170 176.1" xml:space="preserve">
<g>
	<path opacity="0.25" d="M161.4,176.7H8.4c-4.7,0-8.5-3.8-8.5-8.5v-153c0-4.7,3.8-8.5,8.5-8.5h153c4.7,0,8.5,3.8,8.5,8.5v153
		C169.9,172.8,166,176.7,161.4,176.7z"/>
	<g>
		<linearGradient id="SVGID_1_" gradientUnits="userSpaceOnUse" x1="84.8743" y1="8.1267" x2="84.8743" y2="170.3475">
			<stop  offset="0" style="stop-color:#FED105"/>
			<stop  offset="7.364756e-02" style="stop-color:#FDCA0E"/>
			<stop  offset="0.2947" style="stop-color:#FBB719"/>
			<stop  offset="0.5207" style="stop-color:#FAA91E"/>
			<stop  offset="0.7528" style="stop-color:#F9A120"/>
			<stop  offset="1" style="stop-color:#F99F21"/>
		</linearGradient>
		<path fill="url(#SVGID_1_)" d="M8.4,169.3c-4,0-7.2-3.2-7.2-7.2V9.1c0-4,3.2-7.2,7.2-7.2h153c4,0,7.2,3.2,7.2,7.2v153
			c0,4-3.2,7.2-7.2,7.2H8.4z"/>
		<path fill="#FED105" d="M161.4,3.1c3.3,0,6,2.7,6,6v153c0,3.3-2.7,6-6,6H8.4c-3.3,0-6-2.7-6-6V9.1c0-3.3,2.7-6,6-6H161.4
			 M161.4,0.6H8.4c-4.7,0-8.5,3.8-8.5,8.5v153c0,4.7,3.8,8.5,8.5,8.5h153c4.7,0,8.5-3.8,8.5-8.5V9.1C169.9,4.4,166,0.6,161.4,0.6
			L161.4,0.6z"/>
	</g>
	<g>
		<g>
			<path fill="#FED105" d="M66.3,67.5c1.5,0,2.5-1.2,2.5-2.7v-5.3c0-1.5-1-2.7-2.5-2.7c-1.5,0-2.5,1.2-2.5,2.7v5.3
				C63.8,66.3,64.8,67.5,66.3,67.5z"/>
			<path fill="#FED105" d="M47,73.8c1,1,2.7,1,3.8,0c1-1,1-2.7,0-3.8L47,66.2c-1-1-2.7-1-3.8,0c-1,1-1,2.7,0,3.8L47,73.8z"/>
			<path fill="#FED105" d="M44.6,89.4c0-1.5-1.2-3-2.7-3h-5.3c-1.5,0-2.7,1.5-2.7,3c0,1.5,1.2,3,2.7,3h5.3
				C43.4,92.4,44.6,90.9,44.6,89.4z"/>
			<path fill="#FED105" d="M47,104l-3.8,3.8c-1,1-1,2.7,0,3.8c1,1,2.7,1,3.8,0l3.8-3.8c1-1,1-2.7,0-3.8
				C49.8,102.9,48.1,102.9,47,104z"/>
			<path fill="#FED105" d="M66.3,110.2c-1.5,0-2.5,1.2-2.5,2.7v5.3c0,1.5,1,2.7,2.5,2.7c1.5,0,2.5-1.2,2.5-2.7v-5.3
				C68.8,111.4,67.8,110.2,66.3,110.2z"/>
			<path fill="#FED105" d="M71.8,73.8c-2-0.6-3.8-1-5.7-1c-8.9,0-16.1,7.2-16.1,16c0,8.8,7.3,16,16.1,16c1.9,0,3.7-0.3,5.7-1v23.5
				h31v-76h-31V73.8z M66.1,99.5c-5.9,0-10.8-4.8-10.8-10.7c0-5.9,4.9-10.7,10.8-10.7c2,0,3.7,0.6,5.7,1.6V98
				C69.8,99,68.1,99.5,66.1,99.5z"/>
			<polygon fill="#FED105" points="128.8,84.4 128.8,70.4 122.8,70.4 122.8,59.4 119.8,59.4 119.8,48.4 117.8,48.4 117.8,58.9 
				117.8,70.4 110.8,70.4 110.8,84.4 104.8,84.4 104.8,127.4 134.8,127.4 134.8,84.4 			"/>
		</g>
		<g>
			<g>
				<path fill="#333333" d="M95.8,88.1h-5.3c-1.5,0-2.7-1.2-2.7-2.7c0-1.5,1.2-2.7,2.7-2.7h5.3c1.5,0,2.7,1.2,2.7,2.7
					C98.5,87,97.3,88.1,95.8,88.1z"/>
				<path fill="#333333" d="M85.3,70.4c-1,1-2.7,1-3.8,0c-1-1-1-2.7,0-3.8l3.8-3.8c1-1,2.7-1,3.8,0c1,1,1,2.7,0,3.8L85.3,70.4z"/>
				<path fill="#333333" d="M66.5,69.5c-8.9,0-16,7.2-16,16c0,8.8,7.2,16,16,16c8.9,0,16-7.2,16-16C82.5,76.6,75.3,69.5,66.5,69.5z
					 M66.5,96.2c-5.9,0-10.7-4.8-10.7-10.7c0-5.9,4.8-10.7,10.7-10.7s10.7,4.8,10.7,10.7C77.1,91.4,72.4,96.2,66.5,96.2z"/>
				<path fill="#333333" d="M66.5,64.1c-1.5,0-2.7-1.2-2.7-2.7v-5.3c0-1.5,1.2-2.7,2.7-2.7c1.5,0,2.7,1.2,2.7,2.7v5.3
					C69.1,62.9,67.9,64.1,66.5,64.1z"/>
				<path fill="#333333" d="M47.6,70.4l-3.8-3.8c-1-1-1-2.7,0-3.8c1-1,2.7-1,3.8,0l3.8,3.8c1,1,1,2.7,0,3.8
					C50.3,71.4,48.6,71.4,47.6,70.4z"/>
				<path fill="#333333" d="M45.1,85.5c0,1.5-1.2,2.7-2.7,2.7h-5.3c-1.5,0-2.7-1.2-2.7-2.7c0-1.5,1.2-2.7,2.7-2.7h5.3
					C43.9,82.8,45.1,84,45.1,85.5z"/>
				<path fill="#333333" d="M47.6,100.6c1-1,2.7-1,3.8,0c1,1,1,2.7,0,3.8l-3.8,3.8c-1,1-2.7,1-3.8,0c-1-1-1-2.7,0-3.8L47.6,100.6z"
					/>
				<path fill="#333333" d="M66.5,106.8c1.5,0,2.7,1.2,2.7,2.7v5.3c0,1.5-1.2,2.7-2.7,2.7c-1.5,0-2.7-1.2-2.7-2.7v-5.3
					C63.8,108,65,106.8,66.5,106.8z"/>
				<path fill="#333333" d="M85.3,100.6l3.8,3.8c1,1,1,2.7,0,3.8c-1,1-2.7,1-3.8,0l-3.8-3.8c-1-1-1-2.7,0-3.8
					C82.6,99.5,84.3,99.5,85.3,100.6z"/>
			</g>
			<g>
				<g>
					<path fill="#333333" d="M103.7,47.8H72v76.7h31.7V47.8z"/>
					<path fill="#333333" d="M129.4,79.5V67.2H123V55.5h-2.3V44.3h-1.9v11.1l0,0v11.7h-6.5v12.3h-6.4v44.9h30V79.5H129.4z"/>
				</g>
				<g>
					<rect x="76.8" y="62.4" fill="#FFFFFF" width="7" height="5"/>
					<rect x="77.9" y="98.2" fill="#FFFFFF" width="6.7" height="6.3"/>
					<rect x="77.8" y="88.8" fill="#FFFFFF" width="6.7" height="6.3"/>
					<rect x="90.4" y="88.8" fill="#FFFFFF" width="6.7" height="6.3"/>
					<rect x="77.6" y="69.9" fill="#FFFFFF" width="6.7" height="6.3"/>
					<rect x="90.4" y="69.9" fill="#FFFFFF" width="6.7" height="6.3"/>
					<rect x="90.4" y="98.2" fill="#FFFFFF" width="6.7" height="6.3"/>
					<rect x="90.4" y="79.3" fill="#FFFFFF" width="6.7" height="6.3"/>
					<rect x="90.4" y="60.4" fill="#FFFFFF" width="6.7" height="6.3"/>
					<rect x="77.8" y="79.3" fill="#FFFFFF" width="6.7" height="6.3"/>
					<rect x="112.2" y="105.1" fill="#FFFFFF" width="6.7" height="6.3"/>
					<rect x="112.3" y="95.3" fill="#FFFFFF" width="6.7" height="6.3"/>
					<rect x="112.3" y="86" fill="#FFFFFF" width="6.7" height="6.3"/>
					<rect x="122.8" y="105.1" fill="#FFFFFF" width="6.7" height="6.3"/>
					<rect x="122.8" y="95.3" fill="#FFFFFF" width="6.7" height="6.3"/>
					<rect x="123.1" y="86" fill="#FFFFFF" width="6.7" height="6.3"/>
				</g>
			</g>
		</g>
	</g>
</g>
</svg>
