<?xml version="1.0" encoding="utf-8"?>
<!-- Generator: Adobe Illustrator 19.1.0, SVG Export Plug-In . SVG Version: 6.00 Build 0)  -->
<!DOCTYPE svg PUBLIC "-//W3C//DTD SVG 1.0//EN" "http://www.w3.org/TR/2001/REC-SVG-20010904/DTD/svg10.dtd">
<svg version="1.0" id="Layer_1" xmlns="http://www.w3.org/2000/svg" xmlns:xlink="http://www.w3.org/1999/xlink" x="0px" y="0px"
	 viewBox="0 0 170 176.1" enable-background="new 0 0 170 176.1" xml:space="preserve">
<g>
	<path opacity="0.25" d="M161.5,176.1H8.5c-4.7,0-8.5-3.8-8.5-8.5v-153c0-4.7,3.8-8.5,8.5-8.5h153c4.7,0,8.5,3.8,8.5,8.5v153
		C170,172.3,166.2,176.1,161.5,176.1z"/>
	<g>
		<linearGradient id="SVGID_1_" gradientUnits="userSpaceOnUse" x1="84.9995" y1="7.5544" x2="84.9995" y2="169.7742">
			<stop  offset="0" style="stop-color:#FED105"/>
			<stop  offset="7.364756e-02" style="stop-color:#FDCA0E"/>
			<stop  offset="0.2947" style="stop-color:#FBB719"/>
			<stop  offset="0.5207" style="stop-color:#FAA91E"/>
			<stop  offset="0.7528" style="stop-color:#F9A120"/>
			<stop  offset="1" style="stop-color:#F99F21"/>
		</linearGradient>
		<path fill="url(#SVGID_1_)" d="M8.5,168.7c-4,0-7.2-3.2-7.2-7.2V8.5c0-4,3.2-7.2,7.2-7.2h153c4,0,7.2,3.2,7.2,7.2v153
			c0,4-3.2,7.2-7.2,7.2H8.5z"/>
		<path fill="#FED105" d="M161.5,2.5c3.3,0,6,2.7,6,6v153c0,3.3-2.7,6-6,6H8.5c-3.3,0-6-2.7-6-6V8.5c0-3.3,2.7-6,6-6H161.5 M161.5,0
			H8.5C3.8,0,0,3.8,0,8.5v153c0,4.7,3.8,8.5,8.5,8.5h153c4.7,0,8.5-3.8,8.5-8.5V8.5C170,3.8,166.2,0,161.5,0L161.5,0z"/>
	</g>
	<g>
		<g>
			<path fill="#F99F21" d="M88.3,59.6l4-4c1.1-1.1,1.1-2.9,0-4c-1.1-1.1-2.9-1.1-4,0l-4,4c-1.1,1.1-1.1,2.9,0,4
				C85.4,60.7,87.2,60.7,88.3,59.6z"/>
			<path fill="#F99F21" d="M68.3,52.9c1.6,0,2.5-1.3,2.5-2.8v-5.7c0-1.6-0.9-2.8-2.5-2.8c-1.6,0-2.5,1.3-2.5,2.8V50
				C65.8,51.6,66.7,52.9,68.3,52.9z"/>
			<path fill="#F99F21" d="M48,59.6c1.1,1.1,2.9,1.1,4,0c1.1-1.1,1.1-2.9,0-4l-4-4c-1.1-1.1-2.9-1.1-4,0c-1.1,1.1-1.1,2.9,0,4
				L48,59.6z"/>
			<path fill="#F99F21" d="M45.4,74.9c0-1.6-1.3-3.5-2.8-3.5h-5.7c-1.6,0-2.8,1.9-2.8,3.5c0,1.6,1.3,3.5,2.8,3.5h5.7
				C44.1,78.4,45.4,76.5,45.4,74.9z"/>
			<path fill="#F99F21" d="M52.1,91.8c-1.1-1.1-2.9-1.1-4,0l-4,4c-1.1,1.1-1.1,2.9,0,4c1.1,1.1,2.9,1.1,4,0l4-4
				C53.2,94.7,53.2,92.9,52.1,91.8z"/>
			<path fill="#FED105" d="M135,102.2l-14.2-14.5V69c0-0.8-0.7-1.6-1.4-1.6H108c-0.8,0-2.2,0.8-2.2,1.6v4.1L93.9,60.7
				c-0.3-0.3-0.4-0.4-0.8-0.4c-0.4,0-0.7,0.2-0.9,0.4L84,69.2c-2.6-6.2-8.6-10.6-15.8-10.6c-9.4,0-17.1,7.7-17.1,17.1
				c0,7.3,4.5,13.5,10.9,15.9l-10.4,10.6c-0.4,0.4-0.5,1.4-0.3,1.9c0.2,0.5,0.7,1.3,1.3,1.3h9.2v24.7c0,0.8-0.2,1.3,0.6,1.3h25.2
				c0.8,0,2.2-0.5,2.2-1.3v-19.7h8v19.7c0,0.8,0.4,1.3,1.2,1.3h25.2c0.8,0,1.6-0.5,1.6-1.3v-24.7h8.2c0.6,0,1.1-0.7,1.3-1.3
				C135.5,103.6,135.4,102.6,135,102.2z M56.8,75.7c0-6.3,5.1-11.4,11.4-11.4c5.7,0,10.4,4.1,11.2,9.5L66.6,87
				C61,86.2,56.8,81.4,56.8,75.7z"/>
		</g>
		<g>
			<path fill="#F99F21" d="M100.1,75.7h-5.7c-1.6,0-2.9-1.3-2.9-2.8c0-1.6,1.3-2.8,2.9-2.8h5.7c1.6,0,2.8,1.3,2.8,2.8
				C102.9,74.5,101.7,75.7,100.1,75.7z"/>
			<path fill="#F99F21" d="M88.9,56.8c-1.1,1.1-2.9,1.1-4,0c-1.1-1.1-1.1-2.9,0-4l4-4c1.1-1.1,2.9-1.1,4,0c1.1,1.1,1.1,2.9,0,4
				L88.9,56.8z"/>
			<path fill="#F99F21" d="M68.8,55.8c-9.4,0-17.1,7.7-17.1,17.1c0,9.4,7.7,17.1,17.1,17.1c9.4,0,17.1-7.7,17.1-17.1
				C85.9,63.5,78.2,55.8,68.8,55.8z M68.8,84.3c-6.3,0-11.4-5.1-11.4-11.4c0-6.3,5.1-11.4,11.4-11.4s11.4,5.1,11.4,11.4
				C80.2,79.2,75.1,84.3,68.8,84.3z"/>
			<path fill="#F99F21" d="M68.8,50.1c-1.6,0-2.8-1.3-2.8-2.8v-5.7c0-1.6,1.3-2.8,2.8-2.8c1.6,0,2.8,1.3,2.8,2.8v5.7
				C71.6,48.8,70.3,50.1,68.8,50.1z"/>
			<path fill="#F99F21" d="M48.6,56.8l-4-4c-1.1-1.1-1.1-2.9,0-4c1.1-1.1,2.9-1.1,4,0l4,4c1.1,1.1,1.1,2.9,0,4
				C51.5,57.9,49.7,57.9,48.6,56.8z"/>
			<path fill="#F99F21" d="M46,72.9c0,1.6-1.3,2.8-2.8,2.8h-5.7c-1.6,0-2.8-1.3-2.8-2.8c0-1.6,1.3-2.8,2.8-2.8h5.7
				C44.7,70,46,71.3,46,72.9z"/>
			<path fill="#F99F21" d="M48.6,89c1.1-1.1,2.9-1.1,4,0c1.1,1.1,1.1,2.9,0,4l-4,4c-1.1,1.1-2.9,1.1-4,0c-1.1-1.1-1.1-2.9,0-4
				L48.6,89z"/>
			<path fill="#F99F21" d="M68.8,95.7c1.6,0,2.8,1.3,2.8,2.8v5.7c0,1.6-1.3,2.8-2.8,2.8c-1.6,0-2.8-1.3-2.8-2.8v-5.7
				C65.9,97,67.2,95.7,68.8,95.7z"/>
			<path fill="#F99F21" d="M88.9,89l4,4c1.1,1.1,1.1,2.9,0,4c-1.1,1.1-2.9,1.1-4,0l-4-4c-1.1-1.1-1.1-2.9,0-4
				C86,87.9,87.8,87.9,88.9,89z"/>
		</g>
		<path fill="#F99F21" d="M99.6,128.7c-0.8,0-1.4-0.6-1.4-1.4v-20.6h-8.5v20.6c0,0.8-0.6,1.4-1.4,1.4H62.9c-0.8,0-1.4-0.6-1.4-1.4
			v-25.4h-8.3c-0.6,0-1.1-0.3-1.3-0.9c-0.2-0.5-0.1-1.1,0.3-1.5l40.7-41.5c0.3-0.3,0.6-0.4,1-0.4c0.4,0,0.7,0.2,1,0.4l12.2,12.5
			v-4.1c0-0.8,0.6-1.4,1.4-1.4h11.4c0.8,0,1.4,0.6,1.4,1.4v18.7l14.2,14.5c0.4,0.4,0.5,1,0.3,1.5c-0.2,0.5-0.7,0.9-1.3,0.9h-8.3
			v25.4c0,0.8-0.6,1.4-1.4,1.4H99.6z"/>
		<g>
			<path fill="#333333" d="M100.1,75.7h-5.7c-1.6,0-2.9-1.3-2.9-2.8c0-1.6,1.3-2.8,2.9-2.8h5.7c1.6,0,2.8,1.3,2.8,2.8
				C102.9,74.5,101.7,75.7,100.1,75.7z"/>
			<path fill="#333333" d="M88.9,56.8c-1.1,1.1-2.9,1.1-4,0c-1.1-1.1-1.1-2.9,0-4l4-4c1.1-1.1,2.9-1.1,4,0c1.1,1.1,1.1,2.9,0,4
				L88.9,56.8z"/>
			<path fill="#333333" d="M68.8,55.8c-9.4,0-17.1,7.7-17.1,17.1c0,9.4,7.7,17.1,17.1,17.1c9.4,0,17.1-7.7,17.1-17.1
				C85.9,63.5,78.2,55.8,68.8,55.8z M68.8,84.3c-6.3,0-11.4-5.1-11.4-11.4c0-6.3,5.1-11.4,11.4-11.4s11.4,5.1,11.4,11.4
				C80.2,79.2,75.1,84.3,68.8,84.3z"/>
			<path fill="#333333" d="M68.8,50.1c-1.6,0-2.8-1.3-2.8-2.8v-5.7c0-1.6,1.3-2.8,2.8-2.8c1.6,0,2.8,1.3,2.8,2.8v5.7
				C71.6,48.8,70.3,50.1,68.8,50.1z"/>
			<path fill="#333333" d="M48.6,56.8l-4-4c-1.1-1.1-1.1-2.9,0-4c1.1-1.1,2.9-1.1,4,0l4,4c1.1,1.1,1.1,2.9,0,4
				C51.5,57.9,49.7,57.9,48.6,56.8z"/>
			<path fill="#333333" d="M46,72.9c0,1.6-1.3,2.8-2.8,2.8h-5.7c-1.6,0-2.8-1.3-2.8-2.8c0-1.6,1.3-2.8,2.8-2.8h5.7
				C44.7,70,46,71.3,46,72.9z"/>
			<path fill="#333333" d="M48.6,89c1.1-1.1,2.9-1.1,4,0c1.1,1.1,1.1,2.9,0,4l-4,4c-1.1,1.1-2.9,1.1-4,0c-1.1-1.1-1.1-2.9,0-4
				L48.6,89z"/>
			<path fill="#333333" d="M68.8,95.7c1.6,0,2.8,1.3,2.8,2.8v5.7c0,1.6-1.3,2.8-2.8,2.8c-1.6,0-2.8-1.3-2.8-2.8v-5.7
				C65.9,97,67.2,95.7,68.8,95.7z"/>
			<path fill="#333333" d="M88.9,89l4,4c1.1,1.1,1.1,2.9,0,4c-1.1,1.1-2.9,1.1-4,0l-4-4c-1.1-1.1-1.1-2.9,0-4
				C86,87.9,87.8,87.9,88.9,89z"/>
		</g>
		<path fill="#333333" d="M99.6,128.7c-0.8,0-1.4-0.6-1.4-1.4v-20.6h-8.5v20.6c0,0.8-0.6,1.4-1.4,1.4H62.9c-0.8,0-1.4-0.6-1.4-1.4
			v-25.4h-8.3c-0.6,0-1.1-0.3-1.3-0.9c-0.2-0.5-0.1-1.1,0.3-1.5l40.7-41.5c0.3-0.3,0.6-0.4,1-0.4c0.4,0,0.7,0.2,1,0.4l12.2,12.5
			v-4.1c0-0.8,0.6-1.4,1.4-1.4h11.4c0.8,0,1.4,0.6,1.4,1.4v18.7l14.2,14.5c0.4,0.4,0.5,1,0.3,1.5c-0.2,0.5-0.7,0.9-1.3,0.9h-8.3
			v25.4c0,0.8-0.6,1.4-1.4,1.4H99.6z"/>
		<g>
			<path fill="#FFFFFF" d="M100.9,82.9h-4.7l5.6-6.4c0.3-0.3,0.4-0.8,0.2-1.2c-0.2-0.4-0.6-0.6-1-0.6h-7.9c-0.4,0-0.8,0.2-1,0.6
				l-6.6,12.8c-0.2,0.3-0.2,0.8,0,1.1c0.2,0.3,0.6,0.6,0.9,0.6h3.4h0h0h1.4l-2.5,8.2c-0.2,0.5,0.1,1,0.6,1.3
				c0.2,0.1,0.3,0.1,0.5,0.1c0.3,0,0.7-0.2,0.9-0.4l11-14.1c0.3-0.3,0.3-0.8,0.1-1.2C101.7,83.2,101.4,82.9,100.9,82.9z"/>
		</g>
	</g>
</g>
</svg>
