<?xml version="1.0" encoding="utf-8"?>
<!-- Generator: Adobe Illustrator 19.1.0, SVG Export Plug-In . SVG Version: 6.00 Build 0)  -->
<!DOCTYPE svg PUBLIC "-//W3C//DTD SVG 1.0//EN" "http://www.w3.org/TR/2001/REC-SVG-20010904/DTD/svg10.dtd">
<svg version="1.0" id="Layer_1" xmlns="http://www.w3.org/2000/svg" xmlns:xlink="http://www.w3.org/1999/xlink" x="0px" y="0px"
	 viewBox="0 0 170 176.1" enable-background="new 0 0 170 176.1" xml:space="preserve">
<g>
	<path opacity="0.25" d="M161.5,176.7H8.5c-4.7,0-8.5-3.8-8.5-8.5v-153c0-4.7,3.8-8.5,8.5-8.5h153c4.7,0,8.5,3.8,8.5,8.5v153
		C170,172.8,166.2,176.7,161.5,176.7z"/>
	<g>
		<linearGradient id="SVGID_1_" gradientUnits="userSpaceOnUse" x1="85.0415" y1="8.1267" x2="85.0415" y2="170.3475">
			<stop  offset="0" style="stop-color:#FED105"/>
			<stop  offset="7.364756e-02" style="stop-color:#FDCA0E"/>
			<stop  offset="0.2947" style="stop-color:#FBB719"/>
			<stop  offset="0.5207" style="stop-color:#FAA91E"/>
			<stop  offset="0.7528" style="stop-color:#F9A120"/>
			<stop  offset="1" style="stop-color:#F99F21"/>
		</linearGradient>
		<path fill="url(#SVGID_1_)" d="M8.5,169.3c-4,0-7.2-3.2-7.2-7.2V9.1c0-4,3.2-7.2,7.2-7.2h153c4,0,7.2,3.2,7.2,7.2v153
			c0,4-3.2,7.2-7.2,7.2H8.5z"/>
		<path fill="#FED105" d="M161.5,3.1c3.3,0,6,2.7,6,6v153c0,3.3-2.7,6-6,6H8.5c-3.3,0-5.9-2.7-5.9-6V9.1c0-3.3,2.7-6,5.9-6H161.5
			 M161.5,0.6H8.5C3.9,0.6,0,4.4,0,9.1v153c0,4.7,3.8,8.5,8.5,8.5h153c4.7,0,8.5-3.8,8.5-8.5V9.1C170,4.4,166.2,0.6,161.5,0.6
			L161.5,0.6z"/>
	</g>
	<g>
		<g>
			<path fill="#FED105" d="M88.4,60.2l4-4c1.1-1.1,1.1-2.9,0-4c-1.1-1.1-2.9-1.1-4,0l-4,4c-1.1,1.1-1.1,2.9,0,4
				C85.5,61.3,87.3,61.3,88.4,60.2z"/>
			<path fill="#FED105" d="M67.8,53.5c1.6,0,3-1.3,3-2.8v-5.7c0-1.6-1.4-2.8-3-2.8c-1.6,0-3,1.3-3,2.8v5.7
				C64.8,52.2,66.2,53.5,67.8,53.5z"/>
			<path fill="#FED105" d="M48.1,60.2c1.1,1.1,2.9,1.1,4,0c1.1-1.1,1.1-2.9,0-4l-4-4c-1.1-1.1-2.9-1.1-4,0c-1.1,1.1-1.1,2.9,0,4
				L48.1,60.2z"/>
			<path fill="#FED105" d="M45.4,75.9c0-1.6-1.3-3.5-2.8-3.5h-5.7c-1.6,0-2.8,1.9-2.8,3.5c0,1.6,1.3,3.5,2.8,3.5h5.7
				C44.2,79.4,45.4,77.5,45.4,75.9z"/>
			<path fill="#FED105" d="M52.1,92.4c-1.1-1.1-2.9-1.1-4,0l-4,4c-1.1,1.1-1.1,2.9,0,4c1.1,1.1,2.9,1.1,4,0l4-4
				C53.2,95.3,53.2,93.5,52.1,92.4z"/>
			<path fill="#FED105" d="M135.1,102.8l-14.3-14.5V69.7c0-0.8-0.6-2.2-1.4-2.2H108c-0.8,0-2.2,1.4-2.2,2.2v4.1L94,61.3
				c-0.3-0.3-0.4-0.4-0.8-0.4c-0.4,0-0.7,0.2-0.9,0.4L84,69.8c-2.6-6.2-8.6-10.6-15.8-10.6c-9.4,0-17.1,7.7-17.1,17.1
				c0,7.3,4.5,13.5,10.9,15.9l-10.4,10.6c-0.4,0.4-0.5,1.1-0.3,1.6c0.2,0.5,0.7,1,1.3,1h8.1v25.3c0,0.8,0.8,0.7,1.6,0.7h25.2
				c0.8,0,1.1,0.1,1.1-0.7v-21.3h9v21.3c0,0.8,0.5,0.7,1.3,0.7h25.2c0.8,0,0.5,0.1,0.5-0.7v-25.3h9.3c0.6,0,1.1-0.4,1.3-1
				C135.6,103.9,135.5,103.3,135.1,102.8z M56.8,76.3c0-6.3,5.1-11.4,11.4-11.4c5.7,0,10.4,4.1,11.2,9.5L66.6,87.6
				C61.1,86.8,56.8,82,56.8,76.3z"/>
		</g>
		<g>
			<path fill="#333333" d="M100.1,76.3h-5.7c-1.6,0-2.9-1.3-2.9-2.8c0-1.6,1.3-2.8,2.9-2.8h5.7c1.6,0,2.8,1.3,2.8,2.8
				C103,75,101.7,76.3,100.1,76.3z"/>
			<path fill="#333333" d="M89,57.3c-1.1,1.1-2.9,1.1-4,0c-1.1-1.1-1.1-2.9,0-4l4-4c1.1-1.1,2.9-1.1,4,0c1.1,1.1,1.1,2.9,0,4
				L89,57.3z"/>
			<path fill="#333333" d="M68.8,56.3c-9.4,0-17.1,7.7-17.1,17.1c0,9.4,7.7,17.1,17.1,17.1c9.4,0,17.1-7.7,17.1-17.1
				C85.9,64,78.2,56.3,68.8,56.3z M68.8,84.8c-6.3,0-11.4-5.1-11.4-11.4c0-6.3,5.1-11.4,11.4-11.4s11.4,5.1,11.4,11.4
				C80.2,79.7,75.1,84.8,68.8,84.8z"/>
			<path fill="#333333" d="M68.8,50.6c-1.6,0-2.8-1.3-2.8-2.8v-5.7c0-1.6,1.3-2.8,2.8-2.8s2.8,1.3,2.8,2.8v5.7
				C71.7,49.4,70.4,50.6,68.8,50.6z"/>
			<path fill="#333333" d="M48.7,57.3l-4-4c-1.1-1.1-1.1-2.9,0-4c1.1-1.1,2.9-1.1,4,0l4,4c1.1,1.1,1.1,2.9,0,4
				C51.6,58.4,49.8,58.4,48.7,57.3z"/>
			<path fill="#333333" d="M46,73.4c0,1.6-1.3,2.8-2.8,2.8h-5.7c-1.6,0-2.8-1.3-2.8-2.8c0-1.6,1.3-2.8,2.8-2.8h5.7
				C44.7,70.6,46,71.9,46,73.4z"/>
			<path fill="#333333" d="M48.7,89.6c1.1-1.1,2.9-1.1,4,0c1.1,1.1,1.1,2.9,0,4l-4,4c-1.1,1.1-2.9,1.1-4,0c-1.1-1.1-1.1-2.9,0-4
				L48.7,89.6z"/>
			<path fill="#333333" d="M68.8,96.2c1.6,0,2.8,1.3,2.8,2.8v5.7c0,1.6-1.3,2.8-2.8,2.8s-2.8-1.3-2.8-2.8v-5.7
				C66,97.5,67.2,96.2,68.8,96.2z"/>
			<path fill="#333333" d="M89,89.6l4,4c1.1,1.1,1.1,2.9,0,4c-1.1,1.1-2.9,1.1-4,0l-4-4c-1.1-1.1-1.1-2.9,0-4
				C86,88.4,87.8,88.4,89,89.6z"/>
		</g>
		<path fill="#333333" d="M99.6,129.3c-0.8,0-1.4-0.6-1.4-1.4v-20.6h-8.5v20.6c0,0.8-0.6,1.4-1.4,1.4H63c-0.8,0-1.4-0.6-1.4-1.4
			v-25.4h-8.3c-0.6,0-1.1-0.3-1.3-0.9c-0.2-0.5-0.1-1.1,0.3-1.5l40.7-41.5c0.3-0.3,0.6-0.4,1-0.4c0.4,0,0.7,0.2,1,0.4l12.2,12.5
			v-4.1c0-0.8,0.6-1.4,1.4-1.4H120c0.8,0,1.4,0.6,1.4,1.4v18.7l14.2,14.5c0.4,0.4,0.5,1,0.3,1.5c-0.2,0.5-0.7,0.9-1.3,0.9h-8.3v25.4
			c0,0.8-0.6,1.4-1.4,1.4H99.6z"/>
		<g>
			<path fill="#FFFFFF" d="M94.3,75.3c-6.8,0-12.3,5.5-12.3,12.3h6.2c0-3.4,2.8-6.2,6.2-6.2c3.4,0,6.2,2.8,6.2,6.2v12.3h6.2V87.6
				C106.6,80.8,101.1,75.3,94.3,75.3z"/>
			<path fill="#FFFFFF" d="M82,96.8c0,1.7,1.4,3.1,3.1,3.1c1.7,0,3.1-1.4,3.1-3.1c0-3.1-3.1-6.2-3.1-6.2S82,93.7,82,96.8z"/>
		</g>
	</g>
</g>
</svg>
