<?xml version="1.0" encoding="utf-8"?>
<!-- Generator: Adobe Illustrator 19.1.0, SVG Export Plug-In . SVG Version: 6.00 Build 0)  -->
<!DOCTYPE svg PUBLIC "-//W3C//DTD SVG 1.0//EN" "http://www.w3.org/TR/2001/REC-SVG-20010904/DTD/svg10.dtd">
<svg version="1.0" id="Layer_1" xmlns="http://www.w3.org/2000/svg" xmlns:xlink="http://www.w3.org/1999/xlink" x="0px" y="0px"
	 viewBox="0 0 170 176.1" enable-background="new 0 0 170 176.1" xml:space="preserve">
<g>
	<path opacity="0.25" d="M161.3,176.7H8.3c-4.7,0-8.5-3.8-8.5-8.5v-153c0-4.7,3.8-8.5,8.5-8.5h153c4.7,0,8.5,3.8,8.5,8.5v153
		C169.8,172.8,166,176.7,161.3,176.7z"/>
	<g>
		<linearGradient id="SVGID_1_" gradientUnits="userSpaceOnUse" x1="84.7905" y1="8.1267" x2="84.7905" y2="170.3475">
			<stop  offset="0" style="stop-color:#FED105"/>
			<stop  offset="7.364756e-02" style="stop-color:#FDCA0E"/>
			<stop  offset="0.2947" style="stop-color:#FBB719"/>
			<stop  offset="0.5207" style="stop-color:#FAA91E"/>
			<stop  offset="0.7528" style="stop-color:#F9A120"/>
			<stop  offset="1" style="stop-color:#F99F21"/>
		</linearGradient>
		<path fill="url(#SVGID_1_)" d="M8.3,169.3c-4,0-7.2-3.2-7.2-7.2V9.1c0-4,3.2-7.2,7.2-7.2h153c4,0,7.2,3.2,7.2,7.2v153
			c0,4-3.2,7.2-7.2,7.2H8.3z"/>
		<path fill="#FED105" d="M161.3,3.1c3.3,0,6,2.7,6,6v153c0,3.3-2.7,6-6,6H8.3c-3.3,0-6-2.7-6-6V9.1c0-3.3,2.7-6,6-6H161.3
			 M161.3,0.6H8.3c-4.7,0-8.5,3.8-8.5,8.5v153c0,4.7,3.8,8.5,8.5,8.5h153c4.7,0,8.5-3.8,8.5-8.5V9.1C169.8,4.4,166,0.6,161.3,0.6
			L161.3,0.6z"/>
	</g>
	<g>
		<g>
			<path fill="#FED105" d="M124.9,88.4h-7.4c-2,0-3.7,1-3.7,3c0,2,1.6,3,3.7,3h7.4c2,0,3.7-1,3.7-3
				C128.6,89.4,126.9,88.4,124.9,88.4z"/>
			<path fill="#FED105" d="M83.8,61.6c2,0,4-1.6,4-3.7v-7.4c0-2-2-3.7-4-3.7s-4,1.6-4,3.7V58C79.8,60,81.8,61.6,83.8,61.6z"/>
			<path fill="#FED105" d="M55,91.4c0-2-1.6-3-3.7-3h-7.4c-2,0-3.7,1-3.7,3c0,2,1.6,3,3.7,3h7.4C53.3,94.4,55,93.5,55,91.4z"/>
			<path fill="#FED105" d="M83.8,120.5c-2,0-4,1.6-4,3.7v7.4c0,2,2,3.7,4,3.7s4-1.6,4-3.7v-7.4C87.8,122.2,85.8,120.5,83.8,120.5z"
				/>
			<path fill="#FED105" d="M132.6,42.1c-3.2-3.2-8.2-3.4-11.4-0.2L96.7,66.4c-0.3,0.3-0.3,0.7,0,1c0.8,0.8,0.8,2.2,0,3
				c-0.8,0.8-2.2,0.8-3,0c-0.3-0.3-0.7-0.3-1,0l-0.2,0.2c-2.5-1-5.2-1.5-8.1-1.5c-3.4,0-6.6,0.8-9.5,2.1l-7.4-6.9
				c-2.8-3-3.5-4.3-2.8-7.8c0.9-3.9,0.2-11-6.5-14.9c-7.6-4.4-15.3-0.4-15.3-0.4l-0.6,1c0,0,6.8,4.5,7.7,5c1,0.6,3.9,3.9,0.4,9.1
				c-3.4,5.2-7.2,3.5-8.3,2.7c-0.9-0.5-7.7-4.9-7.7-4.9l-0.6,1c0,0-0.5,9.1,7.1,14c3.5,2.3,7.3,2.3,10,1.3c2.7-0.9,4.6,0.1,7.9,3.3
				l6.5,6.5c-1.8,3.2-2.9,6.9-2.9,10.9c0,5,1.7,9.6,4.5,13.3L50,121.3l-3,4.9l1.4,1.4l4.9-3l16.7-16.7c3.9,3.3,8.9,5.3,14.3,5.3
				c3.9,0,7.7-1,10.9-2.9l15.2,15.2c3,3.2,7.9,3.2,11.1,0.1c3-3.2,3.2-8,0.1-11.1L105,99.1c1-2.5,1.5-5.2,1.5-8
				c0-3.4-0.8-6.6-2.1-9.4c0.1-0.3,0-0.5-0.2-0.7c-0.8-0.8-0.8-2.2,0-3c0.8-0.8,2.2-0.8,3,0c0.3,0.3,0.7,0.3,1,0l24.5-24.5
				C135.9,50.2,135.8,45.2,132.6,42.1z M113,117.1c1.7-1.6,4.3-1.6,5.8,0c1.6,1.6,1.6,4.4,0,5.8c-1.6,1.7-4.1,1.5-5.8-0.1
				C111.6,121.4,111.6,118.7,113,117.1z M93,87.9l-10,10l6.9,6.9c-1.7,0.6-3.5,1-5.4,1c-3.4,0-6.6-1.2-9.1-3.2l19.9-19.9l-3.3-3.4
				L72.1,99.2c-1.5-2.3-2.4-5.1-2.4-8.1c0-1.9,0.4-3.7,1-5.4l6,6l9.8-9.8L81,76.8c1.1-0.3,2.2-0.4,3.4-0.4c8.1,0,14.7,6.6,14.7,14.7
				c0,0.8-0.1,1.6-0.2,2.4L93,87.9z"/>
		</g>
		<g>
			<path fill="#333333" d="M125.6,91.1h-7.4c-2,0-3.7-1.6-3.7-3.7c0-2,1.6-3.7,3.7-3.7h7.4c2,0,3.7,1.6,3.7,3.7
				C129.3,89.4,127.7,91.1,125.6,91.1z"/>
			<path fill="#333333" d="M85.2,65.3c-12.2,0-22.1,9.9-22.1,22.1c0,12.2,9.9,22.1,22.1,22.1c12.2,0,22.1-9.9,22.1-22.1
				C107.2,75.2,97.4,65.3,85.2,65.3z M85.2,102.1c-8.1,0-14.7-6.6-14.7-14.7c0-8.1,6.6-14.7,14.7-14.7s14.7,6.6,14.7,14.7
				C99.9,95.5,93.3,102.1,85.2,102.1z"/>
			<path fill="#333333" d="M85.2,58c-2,0-3.7-1.6-3.7-3.7v-7.4c0-2,1.6-3.7,3.7-3.7s3.7,1.6,3.7,3.7v7.4C88.8,56.3,87.2,58,85.2,58z
				"/>
			<path fill="#333333" d="M55.7,87.4c0,2-1.6,3.7-3.7,3.7h-7.4c-2,0-3.7-1.6-3.7-3.7c0-2,1.6-3.7,3.7-3.7H52
				C54.1,83.7,55.7,85.4,55.7,87.4z"/>
			<path fill="#333333" d="M85.2,116.9c2,0,3.7,1.6,3.7,3.7v7.4c0,2-1.6,3.7-3.7,3.7s-3.7-1.6-3.7-3.7v-7.4
				C81.5,118.5,83.1,116.9,85.2,116.9z"/>
		</g>
		<g>
			<g>
				<polygon fill="#333333" points="92.6,75.7 50.7,117.6 47.8,122.5 49.2,123.9 54.1,120.9 96,79 				"/>
			</g>
			<g>
				<path fill="#333333" d="M133.3,38.4c-3.2-3.2-8.2-3.4-11.4-0.2L97.4,62.7c-0.3,0.3-0.3,0.7,0,1c0.8,0.8,0.8,2.2,0,3
					c-0.8,0.8-2.2,0.8-3,0c-0.3-0.3-0.7-0.3-1,0l-2.8,2.8c-0.2,0.2-0.3,0.6-0.1,0.9l10.8,10.8c0.3,0.2,0.6,0.1,0.9-0.1l2.8-2.8
					c0.3-0.3,0.3-0.7,0-1c-0.8-0.8-0.8-2.2,0-3c0.8-0.8,2.2-0.8,3,0c0.3,0.3,0.7,0.3,1,0l24.5-24.5
					C136.7,46.5,136.5,41.6,133.3,38.4z"/>
			</g>
			<path fill="#333333" d="M122.4,110.9L93.7,84.2l-10,10l27.6,27.6c3,3.2,7.9,3.2,11.1,0.1C125.3,118.8,125.4,113.9,122.4,110.9z
				 M119.6,119.3c-1.6,1.7-4.1,1.5-5.8-0.1c-1.5-1.5-1.5-4.1,0-5.7c1.7-1.6,4.3-1.6,5.8,0C121.2,115,121.2,117.8,119.6,119.3z"/>
			<path fill="#333333" d="M77.4,88l9.8-9.8l-19-17.6c-2.8-3-3.5-4.3-2.8-7.8c0.9-3.9,0.2-11-6.5-14.9c-7.6-4.4-15.3-0.4-15.3-0.4
				l-0.6,1c0,0,6.8,4.5,7.7,5c1,0.6,3.9,3.9,0.4,9.1c-3.4,5.2-7.2,3.5-8.3,2.7c-0.9-0.5-7.7-4.9-7.7-4.9l-0.6,1c0,0-0.5,9.1,7.1,14
				c3.5,2.3,7.3,2.3,10,1.3c2.7-0.9,4.6,0.1,7.9,3.3L77.4,88z"/>
		</g>
	</g>
</g>
</svg>
