<?xml version="1.0" encoding="utf-8"?>
<!-- Generator: Adobe Illustrator 19.1.0, SVG Export Plug-In . SVG Version: 6.00 Build 0)  -->
<!DOCTYPE svg PUBLIC "-//W3C//DTD SVG 1.0//EN" "http://www.w3.org/TR/2001/REC-SVG-20010904/DTD/svg10.dtd">
<svg version="1.0" id="Layer_1" xmlns="http://www.w3.org/2000/svg" xmlns:xlink="http://www.w3.org/1999/xlink" x="0px" y="0px"
	 viewBox="0 0 170 176.1" enable-background="new 0 0 170 176.1" xml:space="preserve">
<g>
	<path opacity="0.25" d="M161.5,176.7H8.5c-4.7,0-8.5-3.8-8.5-8.5v-153c0-4.7,3.8-8.5,8.5-8.5h153c4.7,0,8.5,3.8,8.5,8.5v153
		C170,172.8,166.1,176.7,161.5,176.7z"/>
	<g>
		<linearGradient id="SVGID_1_" gradientUnits="userSpaceOnUse" x1="84.9578" y1="8.1267" x2="84.9578" y2="170.3475">
			<stop  offset="0" style="stop-color:#FED105"/>
			<stop  offset="7.364756e-02" style="stop-color:#FDCA0E"/>
			<stop  offset="0.2947" style="stop-color:#FBB719"/>
			<stop  offset="0.5207" style="stop-color:#FAA91E"/>
			<stop  offset="0.7528" style="stop-color:#F9A120"/>
			<stop  offset="1" style="stop-color:#F99F21"/>
		</linearGradient>
		<path fill="url(#SVGID_1_)" d="M8.5,169.3c-4,0-7.2-3.2-7.2-7.2V9.1c0-4,3.2-7.2,7.2-7.2h153c4,0,7.2,3.2,7.2,7.2v153
			c0,4-3.2,7.2-7.2,7.2H8.5z"/>
		<path fill="#FED105" d="M161.5,3.1c3.3,0,6,2.7,6,6v153c0,3.3-2.7,6-6,6H8.5c-3.3,0-6-2.7-6-6V9.1c0-3.3,2.7-6,6-6H161.5
			 M161.5,0.6H8.5C3.8,0.6,0,4.4,0,9.1v153c0,4.7,3.8,8.5,8.5,8.5h153c4.7,0,8.5-3.8,8.5-8.5V9.1C170,4.4,166.1,0.6,161.5,0.6
			L161.5,0.6z"/>
	</g>
	<g>
		<g>
			<path fill="#FED105" d="M88.3,60.2l4-4c1.1-1.1,1.1-2.9,0-4c-1.1-1.1-2.9-1.1-4,0l-4,4c-1.1,1.1-1.1,2.9,0,4
				C85.4,61.3,87.2,61.3,88.3,60.2z"/>
			<path fill="#FED105" d="M68.8,53.5c1.6,0,3-1.3,3-2.8v-5.7c0-1.6-1.4-2.8-3-2.8c-1.6,0-3,1.3-3,2.8v5.7
				C65.8,52.2,67.2,53.5,68.8,53.5z"/>
			<path fill="#FED105" d="M48,60.2c1.1,1.1,2.9,1.1,4,0c1.1-1.1,1.1-2.9,0-4l-4-4c-1.1-1.1-2.9-1.1-4,0c-1.1,1.1-1.1,2.9,0,4
				L48,60.2z"/>
			<path fill="#FED105" d="M45.4,76.9c0-1.6-1.3-3.5-2.8-3.5h-5.7c-1.6,0-2.8,1.9-2.8,3.5c0,1.6,1.3,3.5,2.8,3.5h5.7
				C44.1,80.4,45.4,78.5,45.4,76.9z"/>
			<path fill="#FED105" d="M52,92.4c-1.1-1.1-2.9-1.1-4,0l-4,4c-1.1,1.1-1.1,2.9,0,4c1.1,1.1,2.9,1.1,4,0l4-4
				C53.1,95.3,53.1,93.5,52,92.4z"/>
			<path fill="#FED105" d="M135,102.8l-14.2-14.5V69.7c0-0.8-0.7-1.2-1.5-1.2h-11.4c-0.8,0-2.1,0.4-2.1,1.2v4.1L93.9,61.3
				c-0.3-0.3-0.5-0.4-0.8-0.4c-0.4,0-0.7,0.2-0.9,0.4l-8.2,8.5c-2.6-6.2-8.6-10.6-15.8-10.6c-9.4,0-17.1,7.7-17.1,17.1
				c0,7.3,4.5,13.5,10.9,15.9l-10.4,10.6c-0.4,0.4-0.5,1.6-0.3,2.1c0.2,0.5,0.7,1.5,1.3,1.5h9.2v24.3c0,0.8-0.2,1.7,0.5,1.7h25.2
				c0.8,0,2.2-0.9,2.2-1.7v-20.3h8v20.3c0,0.8,0.4,1.7,1.2,1.7h25.2c0.8,0,1.6-0.9,1.6-1.7v-24.3h8.2c0.6,0,1.1-0.9,1.3-1.5
				C135.5,104.4,135.4,103.3,135,102.8z M56.8,76.3c0-6.3,5.1-11.4,11.4-11.4c5.7,0,10.4,4.1,11.2,9.5L66.5,87.6
				C61,86.8,56.8,82,56.8,76.3z"/>
		</g>
		<g>
			<path fill="#333333" d="M100.1,76.3h-5.7c-1.6,0-2.9-1.3-2.9-2.8c0-1.6,1.3-2.8,2.9-2.8h5.7c1.6,0,2.8,1.3,2.8,2.8
				C102.9,75,101.6,76.3,100.1,76.3z"/>
			<path fill="#333333" d="M88.9,57.3c-1.1,1.1-2.9,1.1-4,0c-1.1-1.1-1.1-2.9,0-4l4-4c1.1-1.1,2.9-1.1,4,0c1.1,1.1,1.1,2.9,0,4
				L88.9,57.3z"/>
			<path fill="#333333" d="M68.7,56.3c-9.4,0-17.1,7.7-17.1,17.1c0,9.4,7.7,17.1,17.1,17.1c9.4,0,17.1-7.7,17.1-17.1
				C85.8,64,78.2,56.3,68.7,56.3z M68.7,84.8c-6.3,0-11.4-5.1-11.4-11.4c0-6.3,5.1-11.4,11.4-11.4s11.4,5.1,11.4,11.4
				C80.1,79.7,75,84.8,68.7,84.8z"/>
			<path fill="#333333" d="M68.7,50.6c-1.6,0-2.8-1.3-2.8-2.8v-5.7c0-1.6,1.3-2.8,2.8-2.8s2.8,1.3,2.8,2.8v5.7
				C71.6,49.4,70.3,50.6,68.7,50.6z"/>
			<path fill="#333333" d="M48.6,57.3l-4-4c-1.1-1.1-1.1-2.9,0-4c1.1-1.1,2.9-1.1,4,0l4,4c1.1,1.1,1.1,2.9,0,4
				C51.5,58.4,49.7,58.4,48.6,57.3z"/>
			<path fill="#333333" d="M45.9,73.4c0,1.6-1.3,2.8-2.8,2.8h-5.7c-1.6,0-2.8-1.3-2.8-2.8c0-1.6,1.3-2.8,2.8-2.8h5.7
				C44.6,70.6,45.9,71.9,45.9,73.4z"/>
			<path fill="#333333" d="M48.6,89.6c1.1-1.1,2.9-1.1,4,0c1.1,1.1,1.1,2.9,0,4l-4,4c-1.1,1.1-2.9,1.1-4,0c-1.1-1.1-1.1-2.9,0-4
				L48.6,89.6z"/>
			<path fill="#333333" d="M68.7,96.2c1.6,0,2.8,1.3,2.8,2.8v5.7c0,1.6-1.3,2.8-2.8,2.8s-2.8-1.3-2.8-2.8v-5.7
				C65.9,97.5,67.1,96.2,68.7,96.2z"/>
			<path fill="#333333" d="M88.9,89.6l4,4c1.1,1.1,1.1,2.9,0,4c-1.1,1.1-2.9,1.1-4,0l-4-4c-1.1-1.1-1.1-2.9,0-4
				C85.9,88.4,87.8,88.4,88.9,89.6z"/>
		</g>
		<path fill="#333333" d="M99.5,129.3c-0.8,0-1.4-0.6-1.4-1.4v-20.6h-8.5v20.6c0,0.8-0.6,1.4-1.4,1.4H62.9c-0.8,0-1.4-0.6-1.4-1.4
			v-25.4h-8.3c-0.6,0-1.1-0.3-1.3-0.9c-0.2-0.5-0.1-1.1,0.3-1.5l40.7-41.5c0.3-0.3,0.6-0.4,1-0.4c0.4,0,0.7,0.2,1,0.4l12.2,12.5
			v-4.1c0-0.8,0.6-1.4,1.4-1.4h11.4c0.8,0,1.4,0.6,1.4,1.4v18.7l14.2,14.5c0.4,0.4,0.5,1,0.3,1.5c-0.2,0.5-0.7,0.9-1.3,0.9h-8.3
			v25.4c0,0.8-0.6,1.4-1.4,1.4H99.5z"/>
		<g>
			<path fill="#FFFFFF" d="M94.2,75.3c-6.8,0-12.3,5.5-12.3,12.3h6.2c0-3.4,2.8-6.2,6.2-6.2c3.4,0,6.2,2.8,6.2,6.2v12.3h6.2V87.6
				C106.6,80.8,101,75.3,94.2,75.3z"/>
			<path fill="#FFFFFF" d="M81.9,96.8c0,1.7,1.4,3.1,3.1,3.1c1.7,0,3.1-1.4,3.1-3.1c0-3.1-3.1-6.2-3.1-6.2S81.9,93.7,81.9,96.8z"/>
		</g>
	</g>
</g>
</svg>
