<?xml version="1.0" standalone="no"?>
<!DOCTYPE svg PUBLIC "-//W3C//DTD SVG 1.1//EN" "http://www.w3.org/Graphics/SVG/1.1/DTD/svg11.dtd" >
<svg xmlns="http://www.w3.org/2000/svg">
<metadata>
This is a custom SVG webfont generated by Font Squirrel.
Copyright   : 2000 AlbertJan Pool published by Fontshop International for the FontFont library
</metadata>
<defs>
<font id="DINCondBold" horiz-adv-x="800" >
<font-face units-per-em="2048" ascent="1657" descent="-391" />
<missing-glyph horiz-adv-x="358" />
<glyph unicode=" "  horiz-adv-x="358" />
<glyph unicode="&#x09;" horiz-adv-x="358" />
<glyph unicode="&#xa0;" horiz-adv-x="358" />
<glyph unicode="!" horiz-adv-x="514" d="M156 0v248h250v-248h-250zM174 401v1029h213v-1029h-213z" />
<glyph unicode="&#x22;" horiz-adv-x="876" d="M145 1026v404h205v-404h-205zM528 1026v404h203v-404h-203z" />
<glyph unicode="#" horiz-adv-x="1218" d="M94 403v201h168l37 254h-143l-2 203h178l51 369h223l-53 -369h213l55 369h221l-53 -369h137v-203h-170l-34 -254h141v-201h-174l-58 -403h-223l58 403h-215l-58 -403h-221l59 403h-137zM483 604h215l39 254h-215z" />
<glyph unicode="$" horiz-adv-x="901" d="M76 387h225q0 -115 41 -160q33 -39 104 -39q72 0 107 41q39 45 39 158t-24.5 157t-110.5 79l-170 69q-111 47 -155 122t-44 239q0 199 117 303q61 55 145 74v188h199v-186q96 -18 158 -76q100 -100 100 -312h-225q0 109 -33 152t-100 43q-61 0 -97 -41q-39 -43 -39 -141 q0 -88 21.5 -125t97.5 -68l168 -67q129 -51 173 -135t44 -267q0 -225 -92 -315q-66 -63 -176 -84v-225h-199v223q-115 18 -184 86q-90 90 -90 307z" />
<glyph unicode="%" horiz-adv-x="1468" d="M94 938v266q0 115 74 178.5t181.5 63.5t181 -63.5t73.5 -178.5v-266q0 -115 -73.5 -178.5t-181 -63.5t-181.5 63.5t-74 178.5zM266 942q0 -90 84 -90q80 0 80 90v258q0 90 -80 90q-84 0 -84 -90v-258zM406 0l497 1430h164l-498 -1430h-163zM864 225v267q0 115 74 178 t182.5 63t181 -63.5t72.5 -177.5v-267q0 -115 -72.5 -178t-181 -63t-182.5 63t-74 178zM1040 229q0 -90 80 -90t80 90v258q0 90 -80 90.5t-80 -90.5v-258z" />
<glyph unicode="&#x26;" horiz-adv-x="1001" d="M68 352q0 213 213 430q-78 104 -114 181t-36 161q0 152 80 236t205 84q139 0 214 -84t75 -215q0 -119 -45.5 -208t-137.5 -185l170 -265q49 102 60 265h182q-10 -252 -123 -453l186 -299h-223l-78 127q-127 -143 -293 -143q-150 0 -242.5 99t-92.5 269zM266 365 q0 -84 43 -137.5t113 -53.5q90 0 170 115l-207 321q-119 -120 -119 -245zM322 1133q0 -84 94 -211q51 57 74.5 103t23.5 116q0 49 -27.5 80.5t-68.5 31.5q-45 0 -70.5 -32.5t-25.5 -87.5z" />
<glyph unicode="'" horiz-adv-x="495" d="M145 1026v404h205v-404h-205z" />
<glyph unicode="(" horiz-adv-x="530" d="M96 242v946q0 154 49 237q41 72 162 193l144 -143q-86 -84 -114 -134.5t-28 -164.5v-924q0 -113 28 -163t114 -136l-144 -141q-123 123 -162 192q-49 84 -49 238z" />
<glyph unicode=")" horiz-adv-x="530" d="M82 -47q84 86 113 135q31 55 30 164v924q0 111 -30 165q-29 49 -113 134l145 143q125 -131 160 -193q51 -88 51 -237v-946q0 -150 -51 -238q-35 -61 -160 -192z" />
<glyph unicode="*" horiz-adv-x="835" d="M86 961l197 102l-197 102l74 133l190 -118l-8 254h154l-9 -254l187 118l78 -133l-199 -102l199 -102l-78 -130l-187 117l9 -254h-154l8 254l-190 -117z" />
<glyph unicode="+" horiz-adv-x="915" d="M88 477v203h268v270h203v-270h270v-203h-270v-268h-203v268h-268z" />
<glyph unicode="," horiz-adv-x="458" d="M115 250h231v-381l-231 -170v551z" />
<glyph unicode="-" horiz-adv-x="591" d="M94 477v203h406v-203h-406z" />
<glyph unicode="." horiz-adv-x="468" d="M113 0v248h245v-248h-245z" />
<glyph unicode="/" horiz-adv-x="598" d="M12 -150l371 1727h201l-371 -1727h-201z" />
<glyph unicode="0" horiz-adv-x="802" d="M84 305v819q0 150 90 236q88 86 229 86q139 0 228 -86q90 -86 90 -236v-819q0 -152 -90 -237q-88 -84 -228 -84q-141 0 -229 84q-90 85 -90 237zM297 297q0 -57 29.5 -90t77 -33t76 32t28.5 91v836q0 59 -28.5 89.5t-76 30.5t-77 -31.5t-29.5 -88.5v-836z" />
<glyph unicode="1" horiz-adv-x="802" d="M141 1016v239l213 175h213v-1430h-213v1180z" />
<glyph unicode="2" horiz-adv-x="802" d="M88 1040v84q0 152 88 237t232 85q139 0 221 -78q94 -88 94 -246q0 -164 -78 -313l-323 -619h401v-190h-629v180l357 694q59 109 59 256q0 59 -28.5 91t-75 32t-76 -31.5t-29.5 -88.5v-93h-213z" />
<glyph unicode="3" horiz-adv-x="802" d="M82 305v84h213v-92q0 -57 29.5 -90t76.5 -33q49 0 76 37q35 43 35 210t-33 210q-27 35 -80 35h-69v180h69q45 0 68 26q33 37 33 181q0 133 -29 170q-25 31 -70 30q-43 0 -69.5 -29.5t-26.5 -82.5v-101h-213v86q0 152 88 236q86 84 221 84q139 0 220 -82q92 -92 92 -297 q0 -156 -37 -225q-25 -51 -78 -86q57 -41 82 -86q45 -78 45 -262q0 -135 -16.5 -208t-77.5 -134q-86 -82 -229.5 -82t-231.5 83.5t-88 237.5z" />
<glyph unicode="4" horiz-adv-x="802" d="M49 223v191l367 1016h207l-357 -1016h180v254h211v-254h99v-191h-99v-223h-211v223h-397z" />
<glyph unicode="5" horiz-adv-x="802" d="M84 305v70h213v-99q0 -61 28.5 -92.5t77.5 -31.5t78 38q33 43 33 271q0 209 -29 254q-27 43 -82 43q-47 0 -76.5 -33t-29.5 -88v-31h-203v824h617v-191h-422v-385q37 47 73 70q49 27 103 26q125 0 192 -88q43 -51 56.5 -140t13.5 -241q0 -117 -4 -174t-26.5 -123.5 t-65.5 -111.5q-88 -88 -228 -88q-143 0 -229 82q-90 85 -90 239z" />
<glyph unicode="6" horiz-adv-x="802" d="M80 434q0 180 59 336l250 660h221l-235 -578q33 23 88 22q121 0 188 -88q41 -51 57.5 -124.5t16.5 -227.5q0 -238 -70 -336q-80 -115 -254 -114q-168 0 -249 114q-41 59 -56.5 132t-15.5 204zM293 436q0 -182 33 -225q27 -37 77 -37t76 37q33 41 33 225q0 186 -33 228 q-27 37 -77 36.5t-76 -36.5q-33 -42 -33 -228z" />
<glyph unicode="7" horiz-adv-x="802" d="M66 1049v381h667v-177l-377 -1253h-211l375 1239h-250v-190h-204z" />
<glyph unicode="8" horiz-adv-x="802" d="M80 403q0 176 43 252q23 47 84 93q-51 35 -78 88q-39 74 -39 221q0 213 92 305q82 84 219 84q139 0 222 -84q92 -92 92 -305q0 -147 -39 -221q-27 -53 -78 -88q55 -43 84 -93q43 -76 43 -252q0 -131 -18.5 -203.5t-75.5 -131.5q-84 -84 -228 -84q-145 0 -229 84 q-57 59 -75.5 131.5t-18.5 203.5zM293 414q0 -164 33 -205q27 -35 77 -35q47 0 76 35q33 41 33 205q0 170 -33 211q-29 33 -76 32q-51 0 -77 -32q-33 -41 -33 -211zM303 1049q0 -154 37 -189q23 -23 63.5 -22.5t63.5 22.5q6 6 11 13.5t9.5 17.5t6.5 18.5t4 22.5t3 20t1 24 v23v26v24q0 141 -31 178q-20 27 -68 26q-49 0 -69 -26q-31 -37 -31 -178z" />
<glyph unicode="9" horiz-adv-x="802" d="M80 995q0 236 72 336q80 115 251 115q170 0 250 -115q43 -59 57.5 -131t14.5 -205q0 -180 -59 -338l-250 -657h-221l235 578q-33 -25 -86 -25q-123 0 -192 90q-39 51 -55.5 124.5t-16.5 227.5zM293 993q0 -186 33 -229q27 -35 77 -35t76 35q33 43 33 229q0 180 -33 226 q-27 35 -77 34.5t-76 -34.5q-33 -44 -33 -226z" />
<glyph unicode=":" horiz-adv-x="514" d="M156 0v248h250v-248h-250zM156 629v245h250v-245h-250z" />
<glyph unicode=";" horiz-adv-x="514" d="M156 629v245h250v-245h-250zM164 250h233v-381l-233 -170v551z" />
<glyph unicode="&#x3c;" horiz-adv-x="802" d="M68 512v147l669 392v-234l-407 -231l407 -232v-233z" />
<glyph unicode="=" horiz-adv-x="915" d="M88 291v203h741v-203h-741zM88 653v203h741v-203h-741z" />
<glyph unicode="&#x3e;" horiz-adv-x="802" d="M68 121v233l407 232l-407 231v234l669 -392v-147z" />
<glyph unicode="?" horiz-adv-x="854" d="M113 1057q0 201 94 291q102 94 242 94q158 0 243 -90q96 -98 96 -299q0 -158 -67 -248l-119 -158q-47 -63 -47 -131v-115h-211v140q0 90 62 172l118 157q51 70 51 187q0 111 -38 155q-35 39 -87.5 39t-87.5 -37q-37 -43 -36 -157h-213zM326 0v248h247v-248h-247z" />
<glyph unicode="@" horiz-adv-x="1218" d="M94 262v838q0 154 92 243q86 86 238 87h356q152 0 238 -87q94 -90 94 -243v-1100h-205v80q-37 -47 -69 -66q-51 -31 -109 -30q-121 0 -190 82q-61 70 -62 229v377q0 162 62 229q70 82 190 82q57 0 109 -29q37 -18 61 -53v166q0 180 -166 180h-262q-164 0 -164 -180v-795 q0 -90 58 -145l-154 -154q-63 63 -90 126t-27 163zM690 297q0 -59 30 -91t76 -32t74.5 32t28.5 91v373q0 61 -28.5 93t-74.5 32t-76 -32t-30 -93v-373z" />
<glyph unicode="A" horiz-adv-x="937" d="M10 0l350 1430h220l348 -1430h-236l-57 283h-332l-55 -283h-238zM348 485h244l-123 598z" />
<glyph unicode="B" horiz-adv-x="946" d="M121 0v1430h356q190 0 279 -89q90 -90 90 -301q0 -168 -76 -241q-31 -33 -74 -49q47 -18 76 -54q78 -82 78 -272q0 -240 -94 -334q-88 -90 -281 -90h-354zM346 203h107q94 0 133 49t39 174q0 119 -40 171t-132 52h-107v-446zM346 840h105q90 0 130 46t40 148 q0 106 -38 149.5t-132 43.5h-105v-387z" />
<glyph unicode="C" horiz-adv-x="897" d="M82 712.5q0 184.5 3 266.5t27.5 185.5t73.5 160.5q106 121 277 121q152 0 250 -92q109 -102 114 -301h-225q-4 92 -35 137q-31 53 -103.5 53t-107.5 -55q-49 -80 -49 -473t49 -473q35 -55 107 -56q76 0 106 54q31 45 35 139h225q-6 -203 -118 -305q-100 -90 -248 -90 q-170 0 -277 120q-49 55 -73.5 158t-27.5 184.5t-3 266z" />
<glyph unicode="D" horiz-adv-x="946" d="M121 0v1430h362q172 0 277 -119q51 -57 74.5 -156.5t26.5 -179.5t3 -260t-3 -261t-26.5 -180.5t-74.5 -154.5q-104 -119 -277 -119h-362zM346 203h131q76 0 115 57q31 47 40 149.5t9 307.5t-9 305t-40 145q-39 59 -115 60h-131v-1024z" />
<glyph unicode="E" horiz-adv-x="794" d="M121 0v1430h600v-203h-375v-406h322v-203h-322v-415h375v-203h-600z" />
<glyph unicode="F" horiz-adv-x="782" d="M121 0v1430h600v-203h-375v-406h322v-203h-322v-618h-225z" />
<glyph unicode="G" horiz-adv-x="911" d="M82 714.5q0 184.5 3 266.5t27.5 184.5t73.5 159.5q106 121 277 121q160 0 256 -96q104 -106 110 -299h-225q-4 193 -141 192q-72 0 -107 -55q-49 -80 -49 -473t49 -473q35 -55 107 -56q70 0 105.5 52.5t35.5 130.5v223h-141v184h366v-395q0 -188 -100 -292.5t-266 -104.5 q-170 0 -277 120q-49 55 -73.5 158t-27.5 185.5t-3 267z" />
<glyph unicode="H" horiz-adv-x="968" d="M121 0v1430h225v-603h279v603h225v-1430h-225v627h-279v-627h-225z" />
<glyph unicode="I" horiz-adv-x="464" d="M121 0v1430h225v-1430h-225z" />
<glyph unicode="J" horiz-adv-x="780" d="M6 98l156 152q45 -63 125 -64q72 0 117 49.5t45 137.5v1057h223v-1057q0 -180 -99 -281q-102 -109 -286 -108q-172 -1 -281 114z" />
<glyph unicode="K" horiz-adv-x="940" d="M121 0v1430h225v-674l309 674h228l-287 -592l332 -838h-244l-231 588l-107 -221v-367h-225z" />
<glyph unicode="L" horiz-adv-x="768" d="M121 0v1430h225v-1227h375v-203h-600z" />
<glyph unicode="M" horiz-adv-x="1200" d="M121 0v1430h203l276 -752l274 752h205v-1430h-225v891l-195 -586h-122l-191 576v-881h-225z" />
<glyph unicode="N" horiz-adv-x="1001" d="M121 0v1430h201l333 -850v850h226v-1430h-199l-336 850v-850h-225z" />
<glyph unicode="O" horiz-adv-x="925" d="M82 714.5q0 184.5 3 266.5t27.5 184.5t73.5 159.5q106 121 277.5 121t277.5 -121q49 -57 74 -159.5t28 -184.5t3 -266.5t-3 -267t-27.5 -185t-74.5 -158.5q-106 -121 -277 -120.5t-278 120.5q-49 55 -73.5 158t-27.5 185.5t-3 267zM307 715q0 -393 49 -473 q35 -55 107 -56q76 0 108 56q31 47 40.5 152.5t9.5 320.5t-9.5 320.5t-40.5 152.5q-33 55 -108 55q-72 0 -107 -55q-49 -80 -49 -473z" />
<glyph unicode="P" horiz-adv-x="919" d="M121 0v1430h358q193 0 281 -104.5t88 -330.5q0 -223 -85 -330.5t-284 -107.5h-133v-557h-225zM346 760h137q82 0 111 60.5t29 173t-29 173t-111 60.5h-137v-467z" />
<glyph unicode="Q" horiz-adv-x="925" d="M82 714.5q0 184.5 3 266.5t27.5 184.5t73.5 159.5q106 121 277.5 121t277.5 -121q49 -57 74 -159.5t28 -184.5t3 -266q0 -152 -2 -223.5t-15.5 -162.5t-42.5 -151l119 -100l-104 -125l-117 98q-88 -68 -221 -67q-170 0 -277 120q-49 55 -73.5 158t-27.5 185.5t-3 267z M307 715q0 -217 10.5 -321.5t38.5 -151.5q35 -55 107 -56q31 0 49 11l-74 61l105 125l57 -47q20 86 21 379q0 221 -9.5 323.5t-40.5 149.5q-33 55 -108 55q-72 0 -107 -55q-29 -47 -39 -151.5t-10 -321.5z" />
<glyph unicode="R" horiz-adv-x="958" d="M121 0v1430h360q195 0 281 -99.5t86 -322.5q0 -143 -38 -233.5t-130 -139.5l213 -635h-236l-186 586h-125v-586h-225zM346 788h137q82 0 111 57.5t29 162t-29 162t-111 57.5h-137v-439z" />
<glyph unicode="S" horiz-adv-x="886" d="M70 387h225q0 -115 41 -160q33 -39 104 -39q74 0 109 41q37 43 37 158q0 113 -24.5 157t-110.5 79l-170 69q-111 47 -155 122t-44 239q0 199 117 303q98 86 245 86q166 0 256 -86q100 -100 101 -312h-226q0 109 -32 152q-33 43 -101 43q-61 0 -96 -41q-39 -43 -39 -141 q0 -88 22.5 -125t96.5 -68l168 -67q127 -49 172 -134t45 -268q0 -225 -92 -315q-98 -94 -279 -94q-184 0 -278 94q-92 92 -92 307z" />
<glyph unicode="T" horiz-adv-x="788" d="M43 1227v203h705v-203h-242v-1227h-225v1227h-238z" />
<glyph unicode="U" horiz-adv-x="944" d="M109 352v1078h225v-1090q0 -76 40 -115t100.5 -39t99 39t38.5 115v1090h226v-1078q0 -162 -99 -264q-102 -104 -266 -104t-266 104q-98 102 -98 264z" />
<glyph unicode="V" horiz-adv-x="876" d="M8 1430h246l184 -1084l185 1084h245l-315 -1430h-231z" />
<glyph unicode="W" horiz-adv-x="1431" d="M8 1430h246l141 -1084l197 1084h250l198 -1084l138 1084h247l-270 -1430h-233l-205 1085l-203 -1085h-235z" />
<glyph unicode="X" horiz-adv-x="866" d="M23 0l282 741l-260 689h246l143 -478l141 478h248l-268 -689l291 -741h-248l-164 514l-166 -514h-245z" />
<glyph unicode="Y" horiz-adv-x="780" d="M0 1430h250l139 -568l143 568h246l-276 -871v-559h-226v559z" />
<glyph unicode="Z" horiz-adv-x="747" d="M61 0v168l390 1059h-365v203h598v-170l-387 -1057h387v-203h-623z" />
<glyph unicode="[" horiz-adv-x="565" d="M106 -150v1727h402v-188h-189v-1348h189v-191h-402z" />
<glyph unicode="\" horiz-adv-x="598" d="M12 1577h201l371 -1727h-201z" />
<glyph unicode="]" horiz-adv-x="565" d="M57 41h189v1348h-189v188h400v-1727h-400v191z" />
<glyph unicode="^" horiz-adv-x="927" d="M90 870l281 570h186l283 -570h-207l-168 357l-166 -357h-209z" />
<glyph unicode="_" horiz-adv-x="915" d="M0 -152h918v-155h-918v155z" />
<glyph unicode="`" d="M168 1456h180l144 -278h-148z" />
<glyph unicode="a" d="M53 309q0 150 99 238q84 72 243 71h94v146q0 123 -102 123q-43 0 -70 -31q-33 -33 -32 -98h-213q0 139 90 229q88 86 223 86q150 0 225 -78q92 -92 92 -247v-748h-200v90q-37 -49 -64 -70q-53 -37 -121 -36q-123 0 -198 88q-66 77 -66 237zM266 317q0 -147 111 -147 q49 0 80.5 39t31.5 102v156h-69q-76 0 -111 -31q-43 -39 -43 -119z" />
<glyph unicode="b" horiz-adv-x="817" d="M104 0v1430h213v-441q27 37 62 58q47 27 106 26q119 0 187 -82q49 -59 62.5 -159.5t13.5 -301t-13.5 -302t-62.5 -162.5q-66 -82 -187 -82q-55 0 -106 30q-16 8 -38 28.5t-32 37.5v-80h-205zM317 301q0 -66 35 -100q25 -27 72 -27q53 0 80 43q31 51 31 313q0 258 -31 312 q-29 43 -80 43q-45 0 -72 -29q-35 -33 -35 -100v-455z" />
<glyph unicode="c" horiz-adv-x="770" d="M72 530q0 328 75 433q80 111 250 110q143 0 224 -74q82 -80 94 -249h-211q-4 68 -29 98q-27 37 -78 37q-53 0 -82 -43q-31 -53 -30 -312q0 -264 30 -313q25 -43 82 -43q53 0 78 37q25 31 29 100h211q-10 -166 -92 -250q-78 -78 -226 -77q-170 0 -250 112q-75 100 -75 434 z" />
<glyph unicode="d" horiz-adv-x="817" d="M72 530.5q0 200.5 13 301t62 159.5q68 82 187 82q59 0 106 -26q35 -20 62 -58v441h213v-1430h-205v80q-10 -16 -32.5 -36.5t-37.5 -29.5q-51 -31 -106 -30q-121 0 -187 82q-49 61 -62 162.5t-13 302zM285 530q0 -262 30 -313q27 -43 80 -43q47 0 72 27q35 35 35 100v455 q0 68 -35 100q-27 29 -72 29q-51 0 -80 -43q-30 -54 -30 -312z" />
<glyph unicode="e" horiz-adv-x="790" d="M72 529.5q0 177.5 18.5 288t79.5 171.5q84 84 227 84q150 0 228 -84q16 -18 29.5 -38.5t22.5 -49.5t16 -49.5t12.5 -59t8.5 -59t4 -68t2 -63.5t1 -70v-65h-436q0 -205 32 -250q29 -43 82 -43q49 0 80 43q27 33 27 94h211q-6 -154 -88 -243q-76 -84 -230 -84 q-143 0 -229 86q-61 63 -79.5 172.5t-18.5 287zM285 625h223q0 180 -31 219q-31 41 -79 41t-81 -41q-32 -41 -32 -219z" />
<glyph unicode="f" horiz-adv-x="542" d="M39 895v162h108v63q0 170 105 254q88 68 254 68v-191q-147 0 -148 -143v-51h148v-162h-148v-895h-211v895h-108z" />
<glyph unicode="g" horiz-adv-x="817" d="M72 568q0 177 18.5 274.5t65.5 152.5q68 78 184 78q57 0 109 -26q35 -20 61 -58v68h205v-1077q0 -184 -90 -275q-86 -86 -230 -86q-145 0 -229 82q-88 88 -88 233h211q0 -66 30 -100q29 -33 76 -33t76 35q31 35 31 129v182q-31 -41 -60 -59q-39 -25 -102 -25 q-117 0 -184 80q-47 55 -65.5 151.5t-18.5 273.5zM285 566.5q0 -232.5 32.5 -274.5t77.5 -42q51 0 76 29q31 35 31 96v381q0 63 -33 98q-27 31 -74 31q-43 0 -78 -43q-32 -43 -32 -275.5z" />
<glyph unicode="h" horiz-adv-x="835" d="M104 0v1430h213v-441q27 37 62 58q47 27 106 26q123 0 193 -82q61 -68 61 -229v-762h-213v760q0 61 -29.5 92t-75.5 31t-75 -31t-29 -92v-760h-213z" />
<glyph unicode="i" horiz-adv-x="419" d="M92 1192v235h236v-235h-236zM104 0v1030h213v-1030h-213z" />
<glyph unicode="j" horiz-adv-x="419" d="M-41 -180q76 0 110.5 31.5t34.5 109.5v1069h213v-1079q0 -174 -108 -256q-86 -66 -250 -66v191zM92 1192v235h236v-235h-236z" />
<glyph unicode="k" horiz-adv-x="833" d="M104 0v1430h213v-824l267 451h223l-262 -418l276 -639h-235l-178 446l-91 -143v-303h-213z" />
<glyph unicode="l" horiz-adv-x="489" d="M98 322v1108h213v-1096q0 -143 144 -144v-190q-168 0 -250 63q-107 83 -107 259z" />
<glyph unicode="m" horiz-adv-x="1259" d="M104 0v1057h205v-78q37 49 70 68q47 27 106 26q131 0 207 -108q45 51 94 82q51 27 113 26q131 0 201 -82q61 -70 61 -229v-762h-211v760q0 59 -30.5 91t-76.5 32t-75 -31t-29 -92v-760h-213v760q0 61 -29.5 92t-75.5 31t-75 -31t-29 -92v-760h-213z" />
<glyph unicode="n" horiz-adv-x="835" d="M104 0v1057h205v-78q37 49 70 68q47 27 106 26q123 0 193 -82q61 -68 61 -229v-762h-213v760q0 61 -29.5 92t-75.5 31t-75 -31t-29 -92v-760h-213z" />
<glyph unicode="o" horiz-adv-x="794" d="M72 529.5q0 328.5 75 433.5q80 111 250 110.5t252 -110.5q74 -104 74 -433t-74 -434q-82 -113 -252 -112.5t-250 112.5q-75 105 -75 433.5zM285 530q0 -262 30 -313q27 -43 82.5 -43t81.5 43q31 51 31 313q0 258 -31 312q-29 43 -82 43t-82 -43q-30 -54 -30 -312z" />
<glyph unicode="p" horiz-adv-x="817" d="M104 -371v1428h205v-78q10 16 31.5 37.5t38.5 30.5q47 27 106 26q121 0 187 -82q49 -59 62.5 -159.5t13.5 -301t-13.5 -302t-62.5 -162.5q-68 -82 -187 -82q-59 0 -106 28q-35 20 -62 56v-439h-213zM317 301q0 -66 35 -100q25 -27 72 -27q53 0 80 43q31 51 31 313 q0 258 -31 312q-29 43 -80 43q-45 0 -72 -29q-35 -33 -35 -100v-455z" />
<glyph unicode="q" horiz-adv-x="817" d="M72 530.5q0 200.5 13 301t62 159.5q66 82 187 82q59 0 106 -26q14 -8 37 -30t33 -38v78h205v-1428h-213v439q-27 -35 -62 -56q-47 -29 -106 -28q-119 0 -187 82q-49 61 -62 162.5t-13 302zM285 530q0 -262 30 -313q27 -43 80 -43q47 0 72 27q35 35 35 100v455 q0 68 -35 100q-27 29 -72 29q-51 0 -80 -43q-30 -54 -30 -312z" />
<glyph unicode="r" horiz-adv-x="600" d="M104 0v1057h205v-111q33 47 92 84q72 43 164 43v-207h-71q-76 0 -126.5 -49t-50.5 -133v-684h-213z" />
<glyph unicode="s" horiz-adv-x="763" d="M53 309h211q0 -63 37 -100q31 -33 81 -33t81 31q31 27 31 84q0 47 -23 78q-23 37 -82 61l-139 62q-109 49 -156 122q-35 53 -35 144q0 131 93 227q90 88 229 88t223 -80q90 -86 90 -235h-209q0 66 -29.5 97.5t-74.5 31.5q-47 0 -78 -30t-31 -81q0 -37 17 -61 q23 -37 78 -62l141 -59q109 -47 154 -117q45 -61 45 -172q0 -141 -95 -235q-86 -86 -231 -86q-150 0 -231 86q-97 98 -97 239z" />
<glyph unicode="t" horiz-adv-x="548" d="M39 895v162h108v272h211v-272h148v-162h-148v-561q0 -143 152 -144v-190q-174 0 -258 63q-104 86 -105 259v573h-108z" />
<glyph unicode="u" horiz-adv-x="835" d="M98 295v762h213v-760q0 -59 29 -91t75 -32t75.5 32t29.5 91v760h213v-1057h-203v80q-35 -45 -73 -66q-49 -31 -105 -30q-123 0 -194 82q-60 69 -60 229z" />
<glyph unicode="v" horiz-adv-x="763" d="M8 1057h236l139 -719l139 719h234l-260 -1057h-226z" />
<glyph unicode="w" horiz-adv-x="1157" d="M8 1057h238l108 -719l131 719h183l133 -719l110 719h240l-238 -1057h-211l-127 686l-124 -686h-209z" />
<glyph unicode="x" horiz-adv-x="784" d="M18 0l248 539l-235 518h233l127 -320l127 320h236l-240 -518l252 -539h-236l-139 330l-139 -330h-234z" />
<glyph unicode="y" horiz-adv-x="765" d="M8 1057h236l139 -719l139 719h234l-297 -1192q-35 -145 -130.5 -190.5t-265.5 -45.5v189q57 2 88 7t61 29.5t40 73.5l18 74z" />
<glyph unicode="z" horiz-adv-x="651" d="M51 0v160l309 708h-284v189h524v-158l-309 -709h309v-190h-549z" />
<glyph unicode="{" horiz-adv-x="671" d="M57 621v188h80q39 0 65.5 29.5t26.5 76.5v381q0 137 76 209q72 72 189 72h122v-191h-77q-43 0 -70 -28.5t-27 -75.5v-360q0 -109 -55 -164q-33 -31 -74 -43q41 -12 74 -45q55 -47 55 -162v-361q0 -47 27 -75.5t70 -28.5h77v-193h-122q-117 0 -189 74q-76 72 -76 209v381 q0 45 -26.5 76t-65.5 31h-80z" />
<glyph unicode="|" horiz-adv-x="661" d="M225 -150v1727h213v-1727h-213z" />
<glyph unicode="}" horiz-adv-x="671" d="M57 43h80q39 0 66.5 28.5t27.5 75.5v361q0 109 54 162q33 33 73 45q-53 16 -73 43q-53 55 -54 164v360q0 47 -27.5 75.5t-66.5 28.5h-80v191h121q119 0 191 -72q76 -70 75 -209v-381q0 -47 27 -76.5t68 -29.5h77v-188h-77q-41 0 -68 -31t-27 -76v-381q0 -139 -75 -209 q-72 -74 -191 -74h-121v193z" />
<glyph unicode="~" horiz-adv-x="915" d="M47 596q131 133 252 133q84 0 178 -51q76 -39 131 -39q66 0 133 66l129 -130q-131 -131 -252 -131q-82 0 -176 50q-78 41 -133 41q-66 0 -133 -68z" />
<glyph horiz-adv-x="937" d="M10 0l350 1430h220l348 -1430h-236l-57 283h-332l-55 -283h-238zM195 1546v201h200v-201h-200zM348 485h244l-123 598zM547 1546v201h201v-201h-201z" />
<glyph horiz-adv-x="937" d="M10 0l350 1430h220l348 -1430h-236l-57 283h-332l-55 -283h-238zM260 1729q0 86 60.5 147t148.5 61t149.5 -61t61.5 -147.5t-61.5 -148.5t-149.5 -62q-86 0 -147.5 61.5t-61.5 149.5zM348 485h244l-123 598zM379 1727.5q0 -37.5 26.5 -64.5t64.5 -27t64.5 27t26.5 64.5 t-26.5 65.5t-64.5 28t-64.5 -28t-26.5 -65.5z" />
<glyph horiz-adv-x="897" d="M82 712.5q0 184.5 3 266.5t27.5 185.5t73.5 160.5q106 121 277 121q152 0 250 -92q109 -102 114 -301h-225q-4 92 -35 137q-31 53 -103.5 53t-107.5 -55q-49 -80 -49 -473t49 -473q35 -55 107 -56q76 0 106 54q31 45 35 139h225q-6 -203 -118 -305q-100 -90 -248 -90 q-170 0 -277 120q-49 55 -73.5 158t-27.5 184.5t-3 266zM276 -389l123 309h138l-107 -309h-154z" />
<glyph horiz-adv-x="794" d="M121 0v1430h600v-203h-375v-406h322v-203h-322v-415h375v-203h-600zM336 1526l143 278h178l-174 -278h-147z" />
<glyph horiz-adv-x="1001" d="M121 0v1430h201l333 -850v850h226v-1430h-199l-336 850v-850h-225zM229 1653q94 94 177 94q66 0 124 -35q49 -31 88 -31q43 0 91 48l94 -95q-92 -92 -178 -92q-68 0 -125 33q-49 31 -88 31q-47 0 -93 -47z" />
<glyph unicode="&#x85;" horiz-adv-x="925" d="M82 714.5q0 184.5 3 266.5t27.5 184.5t73.5 159.5q106 121 277.5 121t277.5 -121q49 -57 74 -159.5t28 -184.5t3 -266.5t-3 -267t-27.5 -185t-74.5 -158.5q-106 -121 -277 -120.5t-278 120.5q-49 55 -73.5 158t-27.5 185.5t-3 267zM184 1546v201h201v-201h-201zM307 715 q0 -393 49 -473q35 -55 107 -56q76 0 108 56q31 47 40.5 152.5t9.5 320.5t-9.5 320.5t-40.5 152.5q-33 55 -108 55q-72 0 -107 -55q-49 -80 -49 -473zM537 1546v201h200v-201h-200z" />
<glyph horiz-adv-x="944" d="M109 352v1078h225v-1090q0 -76 40 -115t100.5 -39t99 39t38.5 115v1090h226v-1078q0 -162 -99 -264q-102 -104 -266 -104t-266 104q-98 102 -98 264zM199 1546v201h200v-201h-200zM551 1546v201h201v-201h-201z" />
<glyph d="M53 309q0 150 99 238q84 72 243 71h94v146q0 123 -102 123q-43 0 -70 -31q-33 -33 -32 -98h-213q0 139 90 229q88 86 223 86q150 0 225 -78q92 -92 92 -247v-748h-200v90q-37 -49 -64 -70q-53 -37 -121 -36q-123 0 -198 88q-66 77 -66 237zM266 317q0 -147 111 -147 q49 0 80.5 39t31.5 102v156h-69q-76 0 -111 -31q-43 -39 -43 -119zM305 1178l146 278h178l-176 -278h-148z" />
<glyph d="M49 309q0 150 101 238q82 72 241 71h94v146q0 123 -102 123q-43 0 -70 -31q-33 -33 -32 -98h-213q0 139 90 229q88 86 223 86q147 0 225 -78q92 -92 92 -247v-748h-200v90q-37 -49 -64 -70q-53 -37 -121 -36q-125 0 -198 88q-66 73 -66 237zM164 1456h180l143 -278h-147z M262 317q0 -147 111 -147q49 0 80.5 39t31.5 102v156h-69q-76 0 -111 -31q-43 -39 -43 -119z" />
<glyph d="M53 309q0 150 99 238q84 72 243 71h94v146q0 123 -102 123q-43 0 -70 -31q-33 -33 -32 -98h-213q0 139 90 229q88 86 223 86q150 0 225 -78q92 -92 92 -247v-748h-200v90q-37 -49 -64 -70q-53 -37 -121 -36q-123 0 -198 88q-66 77 -66 237zM109 1178l198 278h166 l199 -278h-162l-121 165l-119 -165h-161zM266 317q0 -147 111 -147q49 0 80.5 39t31.5 102v156h-69q-76 0 -111 -31q-43 -39 -43 -119z" />
<glyph d="M53 309q0 150 99 238q84 72 243 71h94v146q0 123 -102 123q-43 0 -70 -31q-33 -33 -32 -98h-213q0 139 90 229q88 86 223 86q150 0 225 -78q92 -92 92 -247v-748h-200v90q-37 -49 -64 -70q-53 -37 -121 -36q-123 0 -198 88q-66 77 -66 237zM115 1198v201h200v-201h-200z M266 317q0 -147 111 -147q49 0 80.5 39t31.5 102v156h-69q-76 0 -111 -31q-43 -39 -43 -119zM465 1198v201h201v-201h-201z" />
<glyph d="M53 309q0 150 99 238q84 72 243 71h94v146q0 123 -102 123q-43 0 -70 -31q-33 -33 -32 -98h-213q0 139 90 229q88 86 223 86q150 0 225 -78q92 -92 92 -247v-748h-200v90q-37 -49 -64 -70q-53 -37 -121 -36q-123 0 -198 88q-66 77 -66 237zM111 1305q94 94 176 94 q66 0 125 -35q49 -29 88 -29q45 0 90 45l94 -94q-92 -92 -178 -92q-66 0 -125 35q-49 29 -88 28q-45 0 -92 -45zM266 317q0 -147 111 -147q49 0 80.5 39t31.5 102v156h-69q-76 0 -111 -31q-43 -39 -43 -119z" />
<glyph d="M53 309q0 150 99 238q84 72 243 71h94v146q0 123 -102 123q-43 0 -70 -31q-33 -33 -32 -98h-213q0 139 90 229q88 86 223 86q150 0 225 -78q92 -92 92 -247v-748h-200v90q-37 -49 -64 -70q-53 -37 -121 -36q-123 0 -198 88q-66 77 -66 237zM180 1386q0 86 60.5 147.5 t148.5 61.5t149.5 -61t61.5 -147.5t-61.5 -148.5t-149.5 -62q-86 0 -147.5 61t-61.5 149zM266 317q0 -147 111 -147q49 0 80.5 39t31.5 102v156h-69q-76 0 -111 -31q-43 -39 -43 -119zM299 1387.5q0 -37.5 26.5 -65.5t64.5 -28t64.5 28t26.5 65.5t-26.5 64.5t-64.5 27 t-64.5 -27t-26.5 -64.5z" />
<glyph horiz-adv-x="770" d="M72 530q0 328 75 433q80 111 250 110q143 0 224 -74q82 -80 94 -249h-211q-4 68 -29 98q-27 37 -78 37q-53 0 -82 -43q-31 -53 -30 -312q0 -264 30 -313q25 -43 82 -43q53 0 78 37q25 31 29 100h211q-10 -166 -92 -250q-78 -78 -226 -77q-170 0 -250 112q-75 100 -75 434 zM229 -389l123 309h135l-106 -309h-152z" />
<glyph horiz-adv-x="790" d="M72 529.5q0 177.5 18.5 288t79.5 171.5q84 84 227 84q150 0 228 -84q16 -18 29.5 -38.5t22.5 -49.5t16 -49.5t12.5 -59t8.5 -59t4 -68t2 -63.5t1 -70v-65h-436q0 -205 32 -250q29 -43 82 -43q49 0 80 43q27 33 27 94h211q-6 -154 -88 -243q-76 -84 -230 -84 q-143 0 -229 86q-61 63 -79.5 172.5t-18.5 287zM285 625h223q0 180 -31 219q-31 41 -79 41t-81 -41q-32 -41 -32 -219zM309 1178l144 278h180l-176 -278h-148z" />
<glyph d="M168 529.5q0 177.5 18.5 288t79.5 171.5q86 84 228 84q150 0 227 -84q16 -18 29.5 -38.5t22.5 -49.5t16.5 -49.5t12.5 -59t8 -59t4 -68t2 -63.5t1 -70v-65h-436q0 -205 33 -250q29 -43 82 -43q49 0 79 43q27 33 27 94h211q-6 -154 -88 -243q-76 -84 -229 -84 q-143 0 -230 86q-61 63 -79.5 172.5t-18.5 287zM215 1456h178l146 -278h-150zM381 625h223q0 180 -31 219q-31 41 -79 41t-80 -41q-33 -41 -33 -219z" />
<glyph horiz-adv-x="790" d="M72 529.5q0 177.5 18.5 288t79.5 171.5q84 84 227 84q150 0 228 -84q16 -18 29.5 -38.5t22.5 -49.5t16 -49.5t12.5 -59t8.5 -59t4 -68t2 -63.5t1 -70v-65h-436q0 -205 32 -250q29 -43 82 -43q49 0 80 43q27 33 27 94h211q-6 -154 -88 -243q-76 -84 -230 -84 q-143 0 -229 86q-61 63 -79.5 172.5t-18.5 287zM119 1178l198 278h166l199 -278h-162l-121 165l-118 -165h-162zM285 625h223q0 180 -31 219q-31 41 -79 41t-81 -41q-32 -41 -32 -219z" />
<glyph horiz-adv-x="790" d="M72 529.5q0 177.5 18.5 288t79.5 171.5q84 84 227 84q150 0 228 -84q16 -18 29.5 -38.5t22.5 -49.5t16 -49.5t12.5 -59t8.5 -59t4 -68t2 -63.5t1 -70v-65h-436q0 -205 32 -250q29 -43 82 -43q49 0 80 43q27 33 27 94h211q-6 -154 -88 -243q-76 -84 -230 -84 q-143 0 -229 86q-61 63 -79.5 172.5t-18.5 287zM125 1198v201h201v-201h-201zM285 625h223q0 180 -31 219q-31 41 -79 41t-81 -41q-32 -41 -32 -219zM475 1198v201h201v-201h-201z" />
<glyph horiz-adv-x="419" d="M106 0v1057h213v-1057h-213zM123 1178l143 278h183l-179 -278h-147z" />
<glyph horiz-adv-x="419" d="M-14 1456h178l145 -278h-149zM106 0v1057h213v-1057h-213z" />
<glyph horiz-adv-x="419" d="M-70 1178l199 278h166l199 -278h-162l-119 165l-121 -165h-162zM106 0v1057h213v-1057h-213z" />
<glyph horiz-adv-x="419" d="M-63 1198v201h200v-201h-200zM106 0v1057h213v-1057h-213zM287 1198v201h200v-201h-200z" />
<glyph horiz-adv-x="835" d="M104 0v1057h205v-78q37 49 70 68q47 27 106 26q123 0 193 -82q61 -68 61 -229v-762h-213v760q0 61 -29.5 92t-75.5 31t-75 -31t-29 -92v-760h-213zM145 1305q94 94 177 94q66 0 124 -35q49 -29 89 -29q43 0 90 45l94 -94q-92 -92 -178 -92q-68 0 -125 35q-51 29 -88 28 q-47 0 -92 -45z" />
<glyph horiz-adv-x="794" d="M72 529.5q0 328.5 75 433.5q80 111 250 110.5t252 -110.5q74 -104 74 -433t-74 -434q-82 -113 -252 -112.5t-250 112.5q-75 105 -75 433.5zM285 530q0 -262 30 -313q27 -43 82.5 -43t81.5 43q31 51 31 313q0 258 -31 312q-29 43 -82 43t-82 -43q-30 -54 -30 -312z M309 1178l144 278h180l-176 -278h-148z" />
<glyph d="M168 529.5q0 328.5 76 433.5q80 111 250 110.5t251 -110.5q74 -104 74 -433t-74 -434q-82 -113 -251.5 -112.5t-249.5 112.5q-76 105 -76 433.5zM217 1456h178l146 -278h-150zM381 530q0 -262 31 -313q27 -43 83 -43t80 43q31 51 31 313q0 258 -31 312q-27 43 -81 43 t-82 -43q-31 -54 -31 -312z" />
<glyph horiz-adv-x="794" d="M72 529.5q0 328.5 75 433.5q80 111 250 110.5t252 -110.5q74 -104 74 -433t-74 -434q-82 -113 -252 -112.5t-250 112.5q-75 105 -75 433.5zM119 1178l198 278h166l199 -278h-162l-121 165l-118 -165h-162zM285 530q0 -262 30 -313q27 -43 82.5 -43t81.5 43q31 51 31 313 q0 258 -31 312q-29 43 -82 43t-82 -43q-30 -54 -30 -312z" />
<glyph horiz-adv-x="794" d="M72 529.5q0 328.5 75 433.5q80 111 250 110.5t252 -110.5q74 -104 74 -433t-74 -434q-82 -113 -252 -112.5t-250 112.5q-75 105 -75 433.5zM125 1198v201h201v-201h-201zM285 530q0 -262 30 -313q27 -43 82.5 -43t81.5 43q31 51 31 313q0 258 -31 312q-29 43 -82 43 t-82 -43q-30 -54 -30 -312zM475 1198v201h201v-201h-201z" />
<glyph horiz-adv-x="794" d="M72 529.5q0 328.5 75 433.5q80 111 250 110.5t252 -110.5q74 -104 74 -433t-74 -434q-82 -113 -252 -112.5t-250 112.5q-75 105 -75 433.5zM119 1305q94 94 176 94q66 0 125 -35q49 -29 88 -29q45 0 90 45l94 -94q-92 -92 -178 -92q-66 0 -125 35q-49 29 -88 28 q-47 0 -92 -45zM285 530q0 -262 30 -313q27 -43 82.5 -43t81.5 43q31 51 31 313q0 258 -31 312q-29 43 -82 43t-82 -43q-30 -54 -30 -312z" />
<glyph horiz-adv-x="835" d="M98 295v762h213v-760q0 -59 29 -91t75 -32t75.5 32t29.5 91v760h213v-1057h-203v80q-35 -45 -73 -66q-49 -31 -105 -30q-123 0 -194 82q-60 69 -60 229zM350 1178l144 278h178l-174 -278h-148z" />
<glyph horiz-adv-x="835" d="M98 295v762h213v-760q0 -59 29 -91t75 -32t75.5 32t29.5 91v760h213v-1057h-203v80q-35 -45 -73 -66q-49 -31 -105 -30q-123 0 -194 82q-60 69 -60 229zM176 1456h178l146 -278h-148z" />
<glyph horiz-adv-x="835" d="M98 295v762h213v-760q0 -59 29 -91t75 -32t75.5 32t29.5 91v760h213v-1057h-203v80q-35 -45 -73 -66q-49 -31 -105 -30q-123 0 -194 82q-60 69 -60 229zM139 1178l199 278h166l198 -278h-161l-121 165l-119 -165h-162z" />
<glyph horiz-adv-x="835" d="M98 295v762h213v-760q0 -59 29 -91t75 -32t75.5 32t29.5 91v760h213v-1057h-203v80q-35 -45 -73 -66q-49 -31 -105 -30q-123 0 -194 82q-60 69 -60 229zM143 1198v201h201v-201h-201zM494 1198v201h200v-201h-200z" />
<glyph unicode="&#xa0;" horiz-adv-x="901" d="M88 881v176h264v373h199v-373h262v-176h-262v-881h-199v881h-264z" />
<glyph unicode="&#xa1;" horiz-adv-x="821" d="M86 1131.5q0 134.5 95 229.5t230.5 95t230.5 -95t95 -229.5t-95 -229.5t-230.5 -95t-230.5 95t-95 229.5zM272 1131.5q0 -58.5 40 -98.5t98.5 -40t99.5 40t41 98.5t-41 99.5t-99.5 41t-98.5 -41t-40 -99.5z" />
<glyph unicode="&#xa2;" horiz-adv-x="786" d="M82 729q0 315 74 414q63 80 172 100v187h161v-187q80 -12 142 -67q84 -76 92 -238h-211q0 59 -27 94q-29 33 -77 33q-55 0 -82 -39q-31 -51 -31 -298t31 -296q27 -43 82 -43q47 0 77 37q27 29 27 94h211q-6 -158 -90 -237q-49 -47 -144 -68v-215h-161v215 q-109 20 -172 100q-74 99 -74 414z" />
<glyph unicode="&#xa3;" horiz-adv-x="921" d="M63 651v162h127v244q0 176 109 282.5t274 106.5q176 0 283 -115l-154 -151q-49 63 -129 63q-68 0 -112.5 -49t-44.5 -135v-246h159v-162h-159v-448h440v-203h-666v651h-127z" />
<glyph unicode="&#xa5;" horiz-adv-x="894" d="M121 671q0 136 96 231t230.5 95t230.5 -95t96 -231t-96 -231.5t-230.5 -95.5t-230.5 95.5t-96 231.5z" />
<glyph unicode="&#xa7;" horiz-adv-x="833" d="M104 0v1120q0 152 90.5 239t229.5 87q150 0 231 -84q96 -94 97 -283q0 -133 -35 -202q-27 -49 -76 -86q51 -37 78 -82q45 -78 45 -277q0 -92 -3 -138t-24.5 -108.5t-66.5 -105.5q-82 -80 -244 -80v190q66 0 92 35q16 20 24.5 60.5t9.5 67t1 98.5q0 166 -31 208 q-27 39 -80 39h-16v179h16q43 0 68 34q29 39 29 150q0 117 -31 158q-27 35 -82 34q-49 0 -79 -32.5t-30 -94.5v-1126h-213z" />
<glyph unicode="&#xa9;" horiz-adv-x="1693" d="M121 715q0 301 213 514t514 213t513 -213t212 -514t-212 -514t-513 -213t-514 213t-213 514zM262 714q0 -255 169 -425t416 -170t416 170t169 425t-169 426t-416 171t-416 -171t-169 -426zM639 713q0 86 2 132t14.5 107.5t40.5 94.5q61 72 156 71q88 0 141 -55 q59 -59 62 -176h-127q0 55 -19 80q-20 31 -57 30q-35 0 -57 -32q-29 -43 -29 -252t29 -254q23 -31 57 -31q35 0 55 25t21 88h129q-2 -115 -64 -179q-55 -55 -141 -55q-94 0 -156 72q-29 33 -41 94.5t-14 107.5t-2 132z" />
<glyph unicode="&#xaa;" horiz-adv-x="1265" d="M49 1298v132h432v-132h-145v-745h-141v745h-146zM582 553v877h127l163 -453l168 453h125v-877h-139v526l-113 -342h-79l-111 336v-520h-141z" />
<glyph unicode="&#xab;" d="M309 1178l144 278h180l-176 -278h-148z" />
<glyph unicode="&#xac;" d="M125 1198v201h201v-201h-201zM475 1198v201h201v-201h-201z" />
<glyph unicode="&#xad;" horiz-adv-x="591" d="M94 477v203h406v-203h-406z" />
<glyph unicode="&#xae;" horiz-adv-x="1353" d="M12 0l525 1430h743v-203h-375v-406h324v-203h-324v-415h375v-203h-600v297h-318l-104 -297h-246zM430 500h250v727z" />
<glyph unicode="&#xaf;" horiz-adv-x="915" d="M82 715q0 184 3 266t27.5 184.5t73.5 159.5q106 121 277 121q102 0 176 -39l39 111h149l-73 -207q45 -57 66.5 -159.5t24.5 -182.5t3 -254q0 -184 -3 -267t-27.5 -185.5t-74.5 -158.5q-106 -121 -280 -120q-102 0 -174 39l-39 -111h-148l74 205q-45 55 -66.5 158.5 t-24.5 184.5t-3 255zM307 715q0 -186 10 -256l246 741q-35 43 -100 43q-72 0 -107 -55q-49 -80 -49 -473zM365 229q33 -43 98 -43q76 0 108 56q31 47 40.5 152.5t9.5 320.5q0 199 -9 252z" />
<glyph unicode="&#xb1;" horiz-adv-x="915" d="M88 27v202h741v-202h-741zM88 635v203h268v268h203v-268h270v-203h-270v-270h-203v270h-268z" />
<glyph unicode="&#xb2;" horiz-adv-x="802" d="M88 1040v84q0 152 88 237t232 85q139 0 221 -78q94 -88 94 -246q0 -164 -78 -313l-323 -619h401v-190h-629v180l357 694q59 109 59 256q0 59 -28.5 91t-75 32t-76 -31.5t-29.5 -88.5v-93h-213z" />
<glyph unicode="&#xb3;" horiz-adv-x="802" d="M82 305v84h213v-92q0 -57 29.5 -90t76.5 -33q49 0 76 37q35 43 35 210t-33 210q-27 35 -80 35h-69v180h69q45 0 68 26q33 37 33 181q0 133 -29 170q-25 31 -70 30q-43 0 -69.5 -29.5t-26.5 -82.5v-101h-213v86q0 152 88 236q86 84 221 84q139 0 220 -82q92 -92 92 -297 q0 -156 -37 -225q-25 -51 -78 -86q57 -41 82 -86q45 -78 45 -262q0 -135 -16.5 -208t-77.5 -134q-86 -82 -229.5 -82t-231.5 83.5t-88 237.5z" />
<glyph unicode="&#xb5;" horiz-adv-x="843" d="M100 -371v1428h213v-760q0 -57 30 -90t76 -33t75.5 32t29.5 91v760h213v-1057h-205v80q-37 -47 -71 -66q-49 -31 -111 -30q-33 0 -45 16v-371h-205z" />
<glyph unicode="&#xb9;" horiz-adv-x="802" d="M141 1016v239l213 175h213v-1430h-213v1180z" />
<glyph unicode="&#xba;" horiz-adv-x="794" d="M72 529.5q0 328.5 75 433.5q80 111 250 110.5t252 -110.5q74 -104 74 -433t-74 -434q-82 -113 -252 -112.5t-250 112.5q-75 105 -75 433.5zM285 530q0 -262 30 -313q27 -43 82.5 -43t81.5 43q31 51 31 313q0 258 -31 312q-29 43 -82 43t-82 -43q-30 -54 -30 -312z" />
<glyph unicode="&#xbb;" horiz-adv-x="663" d="M49 836q0 119 84 188q68 57 197 57h73v109q0 94 -79 94q-35 0 -62 -27q-20 -23 -20 -75h-179q0 115 74 186q70 72 185 72q119 0 184 -68q74 -74 74 -198v-584h-164v67q-29 -35 -58 -51q-41 -25 -94 -24q-102 0 -162 69q-53 58 -53 185zM227 844q0 -113 88 -113 q37 0 62.5 31t25.5 82v112h-55q-59 0 -88 -24q-33 -31 -33 -88z" />
<glyph unicode="&#xbf;" horiz-adv-x="790" d="M57 -88l84 192q-70 100 -69 426q0 328 75 433q80 111 250 110q94 0 156 -29l41 103h143l-84 -193q70 -100 70 -424q0 -330 -74 -434q-82 -113 -252 -112q-94 0 -153 30l-43 -102h-144zM283 530q0 -90 6 -120l182 450q-27 33 -74 33q-55 0 -82 -43q-32 -56 -32 -320z M324 197q29 -33 73 -33q53 0 82 47q33 53 33 319q0 98 -6 119z" />
<glyph unicode="&#xc0;" horiz-adv-x="854" d="M66 8q0 156 69 246l117 158q47 61 47 131v114h213v-139q0 -90 -61 -172l-119 -158q-53 -68 -53 -186q0 -111 40 -156q33 -39 85.5 -39t87.5 39q39 41 38 156h213q0 -203 -94 -291q-102 -94 -241 -94q-158 0 -246 92q-96 96 -96 299zM283 811v246h247v-246h-247z" />
<glyph unicode="&#xc1;" horiz-adv-x="514" d="M113 811v246h245v-246h-245zM129 -371v1028h213v-1028h-213z" />
<glyph unicode="&#xc2;" horiz-adv-x="915" d="M102 506v203h715v-424h-203v221h-512z" />
<glyph unicode="&#xc3;" horiz-adv-x="937" d="M59 1718q131 133 252 133q84 0 178 -51q76 -39 131 -39q66 0 133 66l129 -130q-131 -131 -252 -131q-82 0 -176 50q-78 41 -133 41q-66 0 -133 -68zM10 0l350 1430h220l348 -1430h-236l-57 283h-332l-55 -283h-238zM348 485h244l-123 598z" />
<glyph unicode="&#xc4;" horiz-adv-x="731" d="M0 -371l178 989h-104v160h135l65 385q25 139 115 210t209 71h88v-191h-82q-47 0 -78.5 -28.5t-40.5 -71.5l-65 -375h149v-160h-180l-178 -989h-211z" />
<glyph unicode="&#xc7;" horiz-adv-x="829" d="M49 553l322 500v-318l-121 -182l121 -184v-316zM416 553l321 500v-318l-125 -182l125 -184v-316z" />
<glyph unicode="&#xc8;" horiz-adv-x="829" d="M94 53v316l125 184l-125 182v318l322 -500zM459 53v316l123 184l-123 182v318l321 -500z" />
<glyph unicode="&#xc9;" horiz-adv-x="1310" d="M113 0v248h245v-248h-245zM535 0v248h245v-248h-245zM954 0v248h248v-248h-248z" />
<glyph unicode="&#xca;" horiz-adv-x="358" />
<glyph unicode="&#xcb;" horiz-adv-x="937" d="M10 0l350 1430h220l348 -1430h-236l-57 283h-332l-55 -283h-238zM240 1804h178l143 -278h-147zM348 485h244l-123 598z" />
<glyph unicode="&#xcc;" horiz-adv-x="937" d="M10 0l350 1430h220l348 -1430h-236l-57 283h-332l-55 -283h-238zM190 1653q94 94 177 94q68 0 125 -35q51 -31 88 -31q45 0 90 48l94 -95q-92 -92 -178 -92q-66 0 -125 33q-49 31 -88 31q-45 0 -92 -47zM348 485h244l-123 598z" />
<glyph unicode="&#xcd;" horiz-adv-x="925" d="M82 714.5q0 184.5 3 266.5t27.5 184.5t73.5 159.5q106 121 277.5 121t277.5 -121q49 -57 74 -159.5t28 -184.5t3 -266.5t-3 -267t-27.5 -185t-74.5 -158.5q-106 -121 -277 -120.5t-278 120.5q-49 55 -73.5 158t-27.5 185.5t-3 267zM180 1653q94 94 176 94q68 0 125 -35 q51 -31 88 -31q45 0 90 48l95 -95q-92 -92 -179 -92q-66 0 -124 33q-49 31 -89 31q-45 0 -92 -47zM307 715q0 -393 49 -473q35 -55 107 -56q76 0 108 56q31 47 40.5 152.5t9.5 320.5t-9.5 320.5t-40.5 152.5q-33 55 -108 55q-72 0 -107 -55q-49 -80 -49 -473z" />
<glyph unicode="&#xce;" horiz-adv-x="1288" d="M82 715q0 246 20.5 389t83.5 221q96 121 267 121q115 0 182 -72v56h577v-203h-374v-406h321v-203h-321v-415h374v-203h-577v53q-72 -70 -182 -69q-172 0 -267 120q-61 80 -82.5 225.5t-21.5 385.5zM307 715q0 -393 49 -473q35 -55 107 -56q76 0 108 56q31 47 40.5 152.5 t9.5 320.5t-9.5 320.5t-40.5 152.5q-33 55 -108 55q-72 0 -107 -55q-49 -80 -49 -473z" />
<glyph unicode="&#xcf;" horiz-adv-x="1228" d="M72 529.5q0 328.5 75 433.5q80 111 250 110q117 0 191 -61q18 -16 30 -37q16 23 37 39q78 59 181 59q147 0 225 -84q45 -45 68.5 -132t26.5 -157.5t3 -189.5v-43h-436q0 -205 31 -250q29 -43 84 -43q47 0 80 43q27 33 26 94h211q-6 -154 -90 -243q-76 -84 -227 -84 q-106 0 -185 63q-12 8 -32 37q-12 -20 -37 -39q-76 -61 -187 -61q-170 0 -250 112q-75 105 -75 433.5zM285 530q0 -262 30 -313q27 -43 82.5 -43t81.5 43q31 51 31 313q0 258 -31 312q-29 43 -82 43t-82 -43q-30 -54 -30 -312zM723 625h225q0 178 -33 219t-81 41t-80 -41 q-31 -41 -31 -219z" />
<glyph unicode="&#xd0;" horiz-adv-x="915" d="M88 477v203h741v-203h-741z" />
<glyph unicode="&#xd1;" horiz-adv-x="1425" d="M94 477v203h1241v-203h-1241z" />
<glyph unicode="&#xd2;" horiz-adv-x="837" d="M115 1192v238l231 169v-407h-231zM492 1192v238l233 169v-407h-233z" />
<glyph unicode="&#xd3;" horiz-adv-x="837" d="M115 1020v410h231v-238zM492 1020v410h233v-238z" />
<glyph unicode="&#xd4;" horiz-adv-x="458" d="M115 1192v238l231 169v-407h-231z" />
<glyph unicode="&#xd5;" horiz-adv-x="458" d="M115 1020v410h231v-238z" />
<glyph unicode="&#xd6;" horiz-adv-x="915" d="M88 459v203h741v-203h-741zM336 63v248h248v-248h-248zM336 809v246h248v-246h-248z" />
<glyph unicode="&#xd8;" horiz-adv-x="765" d="M8 1057h236l139 -719l139 719h234l-297 -1192q-35 -145 -130.5 -190.5t-265.5 -45.5v189q57 2 88 7t61 29.5t40 73.5l18 74zM111 1198v201h200v-201h-200zM461 1198v201h201v-201h-201z" />
<glyph unicode="&#xd9;" horiz-adv-x="780" d="M0 1430h250l139 -568l143 568h246l-276 -871v-559h-226v559zM115 1546v201h200v-201h-200zM465 1546v201h201v-201h-201z" />
<glyph unicode="&#xda;" horiz-adv-x="249" d="M-205 0l494 1430h164l-494 -1430h-164z" />
<glyph unicode="&#xdb;" horiz-adv-x="999" d="M63 471v164h113v160h-113v161h117q6 260 101 369q106 121 274 121q154 0 252 -92q109 -102 115 -301h-226q-4 190 -141 190q-76 0 -109 -55q-37 -55 -38 -232h213v-161h-220v-160h220v-164h-213q2 -176 41 -229q35 -55 106 -56q137 0 141 193h226q-6 -203 -119 -305 q-100 -90 -248 -90q-168 0 -274 120q-94 106 -101 367h-117z" />
<glyph unicode="&#xdc;" horiz-adv-x="462" d="M49 553l322 500v-318l-121 -182l121 -184v-316z" />
<glyph unicode="&#xdd;" horiz-adv-x="462" d="M94 53v316l121 184l-121 182v318l322 -500z" />
<glyph unicode="&#xde;" horiz-adv-x="927" d="M39 895v162h108v67q0 170 105 254q88 68 254 68v-193q-76 0 -112 -32.5t-36 -108.5v-55h148v-162h-148v-895h-211v895h-108zM602 1192v235h236v-235h-236zM612 0v1057h213v-1057h-213z" />
<glyph unicode="&#xdf;" horiz-adv-x="1003" d="M39 895v162h108v67q0 170 105 254q88 68 254 68v-193q-147 0 -148 -141v-55h148v-162h-148v-895h-211v895h-108zM612 322v1108h213v-1096q0 -143 144 -144v-190q-166 0 -248 63q-109 85 -109 259z" />
<glyph unicode="&#xe0;" horiz-adv-x="901" d="M88 0v178h264v703h-264v176h264v373h199v-373h262v-176h-262v-703h262v-178h-262v-371h-199v371h-264z" />
<glyph unicode="&#xe1;" horiz-adv-x="544" d="M113 444v320h321v-320h-321z" />
<glyph unicode="&#xe2;" horiz-adv-x="458" d="M115 -170v408h231v-238z" />
<glyph unicode="&#xe3;" horiz-adv-x="837" d="M115 -170v408h231v-238zM492 -170v408h233v-238z" />
<glyph unicode="&#xe4;" horiz-adv-x="2107" d="M94 938v266q0 115 74 178.5t181.5 63.5t181 -63.5t73.5 -178.5v-266q0 -115 -73.5 -178.5t-181 -63.5t-181.5 63.5t-74 178.5zM266 942q0 -90 84 -90q80 0 80 90v258q0 90 -80 90q-84 0 -84 -90v-258zM406 0l497 1430h164l-498 -1430h-163zM864 225v267q0 115 74 178 t182.5 63t181 -63.5t72.5 -177.5v-267q0 -115 -72.5 -178t-181 -63t-182.5 63t-74 178zM1040 229q0 -90 80 -90t80 90v258q0 90 -80 90.5t-80 -90.5v-258zM1505 225v267q0 115 74 178t181.5 63t180 -63.5t72.5 -177.5v-267q0 -115 -72.5 -178t-180 -63t-181.5 63t-74 178z M1677 229q0 -90 82 -90t82 90v258q0 90 -82 91q-82 0 -82 -91v-258z" />
<glyph unicode="&#xe5;" horiz-adv-x="937" d="M10 0l350 1430h220l348 -1430h-236l-57 283h-332l-55 -283h-238zM188 1526l199 278h166l201 -278h-164l-121 164l-117 -164h-164zM348 485h244l-123 598z" />
<glyph unicode="&#xe6;" horiz-adv-x="794" d="M121 0v1430h600v-203h-375v-406h322v-203h-322v-415h375v-203h-600zM147 1526l199 278h166l199 -278h-162l-121 164l-119 -164h-162z" />
<glyph unicode="&#xe7;" horiz-adv-x="937" d="M10 0l350 1430h220l348 -1430h-236l-57 283h-332l-55 -283h-238zM348 485h244l-123 598zM377 1526l145 278h178l-174 -278h-149z" />
<glyph unicode="&#xe8;" horiz-adv-x="794" d="M121 0v1430h600v-203h-375v-406h322v-203h-322v-415h375v-203h-600zM152 1546v201h200v-201h-200zM504 1546v201h201v-201h-201z" />
<glyph unicode="&#xe9;" horiz-adv-x="794" d="M121 0v1430h600v-203h-375v-406h322v-203h-322v-415h375v-203h-600zM195 1804h178l145 -278h-149z" />
<glyph unicode="&#xea;" horiz-adv-x="464" d="M121 0v1430h225v-1430h-225zM145 1526l144 278h178l-174 -278h-148z" />
<glyph unicode="&#xeb;" horiz-adv-x="464" d="M-49 1526l201 278h165l199 -278h-164l-119 164l-118 -164h-164zM121 0v1430h225v-1430h-225z" />
<glyph unicode="&#xec;" horiz-adv-x="464" d="M-45 1546v201h201v-201h-201zM121 0v1430h225v-1430h-225zM307 1546v201h201v-201h-201z" />
<glyph unicode="&#xed;" horiz-adv-x="464" d="M23 1804h178l145 -278h-149zM121 0v1430h225v-1430h-225z" />
<glyph unicode="&#xee;" horiz-adv-x="925" d="M82 714.5q0 184.5 3 266.5t27.5 184.5t73.5 159.5q106 121 277.5 121t277.5 -121q49 -57 74 -159.5t28 -184.5t3 -266.5t-3 -267t-27.5 -185t-74.5 -158.5q-106 -121 -277 -120.5t-278 120.5q-49 55 -73.5 158t-27.5 185.5t-3 267zM307 715q0 -393 49 -473 q35 -55 107 -56q76 0 108 56q31 47 40.5 152.5t9.5 320.5t-9.5 320.5t-40.5 152.5q-33 55 -108 55q-72 0 -107 -55q-49 -80 -49 -473zM371 1526l145 278h178l-174 -278h-149z" />
<glyph unicode="&#xef;" horiz-adv-x="925" d="M82 714.5q0 184.5 3 266.5t27.5 184.5t73.5 159.5q106 121 277.5 121t277.5 -121q49 -57 74 -159.5t28 -184.5t3 -266.5t-3 -267t-27.5 -185t-74.5 -158.5q-106 -121 -277 -120.5t-278 120.5q-49 55 -73.5 158t-27.5 185.5t-3 267zM178 1526l199 278h168l198 -278h-163 l-121 164l-117 -164h-164zM307 715q0 -393 49 -473q35 -55 107 -56q76 0 108 56q31 47 40.5 152.5t9.5 320.5t-9.5 320.5t-40.5 152.5q-33 55 -108 55q-72 0 -107 -55q-49 -80 -49 -473z" />
<glyph unicode="&#xf1;" horiz-adv-x="925" d="M82 714.5q0 184.5 3 266.5t27.5 184.5t73.5 159.5q106 121 277.5 121t277.5 -121q49 -57 74 -159.5t28 -184.5t3 -266.5t-3 -267t-27.5 -185t-74.5 -158.5q-106 -121 -277 -120.5t-278 120.5q-49 55 -73.5 158t-27.5 185.5t-3 267zM229 1804h179l145 -278h-150zM307 715 q0 -393 49 -473q35 -55 107 -56q76 0 108 56q31 47 40.5 152.5t9.5 320.5t-9.5 320.5t-40.5 152.5q-33 55 -108 55q-72 0 -107 -55q-49 -80 -49 -473z" />
<glyph unicode="&#xf2;" horiz-adv-x="944" d="M109 352v1078h225v-1090q0 -76 40 -115t100.5 -39t99 39t38.5 115v1090h226v-1078q0 -162 -99 -264q-102 -104 -266 -104t-266 104q-98 102 -98 264zM385 1526l145 278h179l-174 -278h-150z" />
<glyph unicode="&#xf3;" horiz-adv-x="944" d="M109 352v1078h225v-1090q0 -76 40 -115t100.5 -39t99 39t38.5 115v1090h226v-1078q0 -162 -99 -264q-102 -104 -266 -104t-266 104q-98 102 -98 264zM193 1526l198 278h166l199 -278h-162l-121 164l-119 -164h-161z" />
<glyph unicode="&#xf4;" horiz-adv-x="944" d="M109 352v1078h225v-1090q0 -76 40 -115t100.5 -39t99 39t38.5 115v1090h226v-1078q0 -162 -99 -264q-102 -104 -266 -104t-266 104q-98 102 -98 264zM244 1804h178l143 -278h-147z" />
<glyph unicode="&#xf5;" horiz-adv-x="419" d="M106 0v1057h213v-1057h-213z" />
<glyph unicode="&#xf6;" d="M119 1178l198 278h166l199 -278h-162l-121 165l-118 -165h-162z" />
<glyph unicode="&#xf7;" d="M121 1305q94 94 176 94q66 0 125 -35q49 -29 88 -29q43 0 90 45l94 -94q-92 -92 -178 -92q-66 0 -125 35q-49 29 -88 28q-47 0 -92 -45z" />
<glyph unicode="&#xf8;" d="M154 1225v141h493v-141h-493z" />
<glyph unicode="&#xf9;" d="M152 1397h141q8 -92 106 -92q100 0 109 92h143q-6 -123 -75.5 -181.5t-176.5 -58.5q-104 0 -173.5 58.5t-73.5 181.5z" />
<glyph unicode="&#xfa;" d="M301 1217v200h199v-200h-199z" />
<glyph unicode="&#xfb;" d="M190 1386q0 86 61.5 147.5t147.5 61.5q88 0 149.5 -61t61.5 -147.5t-62.5 -148.5t-148.5 -62t-147.5 61t-61.5 149zM309 1387.5q0 -37.5 25.5 -65.5t64.5 -28t66 28t27 65.5t-27 64.5t-66 27t-64.5 -27t-25.5 -64.5z" />
<glyph unicode="&#xfc;" d="M229 -389l123 309h135l-106 -309h-152z" />
<glyph unicode="&#xfd;" d="M143 1171l95 283h180l-135 -283h-140zM483 1171l92 283h181l-133 -283h-140z" />
<glyph unicode="&#xfe;" d="M315 -80h136l122 -309h-151z" />
<glyph unicode="&#xff;" d="M119 1454h162l118 -166l121 166h162l-199 -283h-168z" />
<glyph unicode="&#x108;" horiz-adv-x="897" d="M90 1564l281 570h186l283 -570h-207l-168 357l-166 -357h-209zM82 712.5q0 184.5 3 266.5t27.5 185.5t73.5 160.5q106 121 277 121q152 0 250 -92q109 -102 114 -301h-225q-4 92 -35 137q-31 53 -103.5 53t-107.5 -55q-49 -80 -49 -473t49 -473q35 -55 107 -56 q76 0 106 54q31 45 35 139h225q-6 -203 -118 -305q-100 -90 -248 -90q-170 0 -277 120q-49 55 -73.5 158t-27.5 184.5t-3 266z" />
<glyph unicode="&#x109;" horiz-adv-x="770" d="M22 1194l281 570h186l283 -570h-207l-168 357l-166 -357h-209zM72 530q0 328 75 433q80 111 250 110q143 0 224 -74q82 -80 94 -249h-211q-4 68 -29 98q-27 37 -78 37q-53 0 -82 -43q-31 -53 -30 -312q0 -264 30 -313q25 -43 82 -43q53 0 78 37q25 31 29 100h211 q-10 -166 -92 -250q-78 -78 -226 -77q-170 0 -250 112q-75 100 -75 434z" />
<glyph unicode="&#x10c;" horiz-adv-x="897" d="M90 2134l281 -570h186l283 570h-207l-168 -357l-166 357h-209zM82 712.5q0 184.5 3 266.5t27.5 185.5t73.5 160.5q106 121 277 121q152 0 250 -92q109 -102 114 -301h-225q-4 92 -35 137q-31 53 -103.5 53t-107.5 -55q-49 -80 -49 -473t49 -473q35 -55 107 -56 q76 0 106 54q31 45 35 139h225q-6 -203 -118 -305q-100 -90 -248 -90q-170 0 -277 120q-49 55 -73.5 158t-27.5 184.5t-3 266z" />
<glyph unicode="&#x10d;" horiz-adv-x="770" d="M22 1764l281 -570h186l283 570h-207l-168 -357l-166 357h-209zM72 530q0 328 75 433q80 111 250 110q143 0 224 -74q82 -80 94 -249h-211q-4 68 -29 98q-27 37 -78 37q-53 0 -82 -43q-31 -53 -30 -312q0 -264 30 -313q25 -43 82 -43q53 0 78 37q25 31 29 100h211 q-10 -166 -92 -250q-78 -78 -226 -77q-170 0 -250 112q-75 100 -75 434z" />
<glyph unicode="&#x10e;" horiz-adv-x="946" d="M119 2134l281 -570h186l283 570h-207l-168 -357l-166 357h-209zM121 0v1430h362q172 0 277 -119q51 -57 74.5 -156.5t26.5 -179.5t3 -260t-3 -261t-26.5 -180.5t-74.5 -154.5q-104 -119 -277 -119h-362zM346 203h131q76 0 115 57q31 47 40 149.5t9 307.5t-9 305t-40 145 q-39 59 -115 60h-131v-1024z" />
<glyph unicode="&#x10f;" horiz-adv-x="817" d="M895 1430h231v-381l-231 -170v551zM72 530.5q0 200.5 13 301t62 159.5q68 82 187 82q59 0 106 -26q35 -20 62 -58v441h213v-1430h-205v80q-10 -16 -32.5 -36.5t-37.5 -29.5q-51 -31 -106 -30q-121 0 -187 82q-49 61 -62 162.5t-13 302zM285 530q0 -262 30 -313 q27 -43 80 -43q47 0 72 27q35 35 35 100v455q0 68 -35 100q-27 29 -72 29q-51 0 -80 -43q-30 -54 -30 -312z" />
<glyph unicode="&#x110;" horiz-adv-x="915" d="M88 477v203h741v-203h-741z" />
<glyph unicode="&#x11a;" horiz-adv-x="794" d="M45 2134l281 -570h186l283 570h-207l-168 -357l-166 357h-209zM121 0v1430h600v-203h-375v-406h322v-203h-322v-415h375v-203h-600z" />
<glyph unicode="&#x11b;" horiz-adv-x="790" d="M22 1764l281 -570h186l283 570h-207l-168 -357l-166 357h-209zM72 529.5q0 177.5 18.5 288t79.5 171.5q84 84 227 84q150 0 228 -84q16 -18 29.5 -38.5t22.5 -49.5t16 -49.5t12.5 -59t8.5 -59t4 -68t2 -63.5t1 -70v-65h-436q0 -205 32 -250q29 -43 82 -43q49 0 80 43 q27 33 27 94h211q-6 -154 -88 -243q-76 -84 -230 -84q-143 0 -229 86q-61 63 -79.5 172.5t-18.5 287zM285 625h223q0 180 -31 219q-31 41 -79 41t-81 -41q-32 -41 -32 -219z" />
<glyph unicode="&#x11c;" horiz-adv-x="911" d="M90 1564l281 570h186l283 -570h-207l-168 357l-166 -357h-209zM82 714.5q0 184.5 3 266.5t27.5 184.5t73.5 159.5q106 121 277 121q160 0 256 -96q104 -106 110 -299h-225q-4 193 -141 192q-72 0 -107 -55q-49 -80 -49 -473t49 -473q35 -55 107 -56q70 0 105.5 52.5 t35.5 130.5v223h-141v184h366v-395q0 -188 -100 -292.5t-266 -104.5q-170 0 -277 120q-49 55 -73.5 158t-27.5 185.5t-3 267z" />
<glyph unicode="&#x11d;" horiz-adv-x="817" d="M-35 1194l281 570h186l283 -570h-207l-168 357l-166 -357h-209zM72 568q0 177 18.5 274.5t65.5 152.5q68 78 184 78q57 0 109 -26q35 -20 61 -58v68h205v-1077q0 -184 -90 -275q-86 -86 -230 -86q-145 0 -229 82q-88 88 -88 233h211q0 -66 30 -100q29 -33 76 -33t76 35 q31 35 31 129v182q-31 -41 -60 -59q-39 -25 -102 -25q-117 0 -184 80q-47 55 -65.5 151.5t-18.5 273.5zM285 566.5q0 -232.5 32.5 -274.5t77.5 -42q51 0 76 29q31 35 31 96v381q0 63 -33 98q-27 31 -74 31q-43 0 -78 -43q-32 -43 -32 -275.5z" />
<glyph unicode="&#x124;" horiz-adv-x="968" d="M110 1564l281 570h186l283 -570h-207l-168 357l-166 -357h-209zM121 0v1430h225v-603h279v603h225v-1430h-225v627h-279v-627h-225z" />
<glyph unicode="&#x125;" horiz-adv-x="835" d="M45 1548l281 570h186l283 -570h-207l-168 357l-166 -357h-209zM104 0v1430h213v-441q27 37 62 58q47 27 106 26q123 0 193 -82q61 -68 61 -229v-762h-213v760q0 61 -29.5 92t-75.5 31t-75 -31t-29 -92v-760h-213z" />
<glyph unicode="&#x130;" horiz-adv-x="464" d="M109 1565v248h245v-248h-245zM121 0v1430h225v-1430h-225z" />
<glyph unicode="&#x131;" horiz-adv-x="419" d="M104 0v1030h213v-1030h-213z" />
<glyph unicode="&#x134;" horiz-adv-x="780" d="M186 1564l281 570h186l283 -570h-207l-168 357l-166 -357h-209zM6 98l156 152q45 -63 125 -64q72 0 117 49.5t45 137.5v1057h223v-1057q0 -180 -99 -281q-102 -109 -286 -108q-172 -1 -281 114z" />
<glyph unicode="&#x135;" horiz-adv-x="419" d="M-164 1546l281 570h186l283 -570h-207l-168 357l-166 -357h-209zM-41 -180q76 0 110.5 31.5t34.5 109.5v1069h213v-1079q0 -174 -108 -256q-86 -66 -250 -66v191zM92 1192v235h236v-235h-236z" />
<glyph unicode="&#x13d;" horiz-adv-x="768" d="M901 1446h231v-381l-231 -170v551zM121 0v1430h225v-1227h375v-203h-600z" />
<glyph unicode="&#x13e;" horiz-adv-x="489" d="M492 1430h231v-381l-231 -170v551zM98 322v1108h213v-1096q0 -143 144 -144v-190q-168 0 -250 63q-107 83 -107 259z" />
<glyph unicode="&#x147;" horiz-adv-x="1001" d="M127 2134l281 -570h186l283 570h-207l-168 -357l-166 357h-209zM121 0v1430h201l333 -850v850h226v-1430h-199l-336 850v-850h-225z" />
<glyph unicode="&#x148;" horiz-adv-x="835" d="M45 1764l281 -570h186l283 570h-207l-168 -357l-166 357h-209zM104 0v1057h205v-78q37 49 70 68q47 27 106 26q123 0 193 -82q61 -68 61 -229v-762h-213v760q0 61 -29.5 92t-75.5 31t-75 -31t-29 -92v-760h-213z" />
<glyph unicode="&#x152;" horiz-adv-x="659" d="M63 1008q0 258 64 342q63 88 205 88q137 0 203 -88q61 -84 61 -342t-61 -342q-66 -88 -203 -88q-141 0 -205 88q-64 84 -64 342zM242 1007.5q0 -194.5 24 -241.5q23 -33 66 -33q39 0 61 33q27 45 27 241.5t-27 241.5q-23 33 -61 33q-43 0 -66 -33q-24 -47 -24 -241.5z " />
<glyph unicode="&#x153;" horiz-adv-x="1585" d="M867 529.5q0 177.5 18.5 288t79.5 171.5q84 84 227 84q150 0 228 -84q16 -18 29.5 -38.5t22.5 -49.5t16 -49.5t12.5 -59t8.5 -59t4 -68t2 -63.5t1 -70v-65h-436q0 -205 32 -250q29 -43 82 -43q49 0 80 43q27 33 27 94h211q-6 -154 -88 -243q-76 -84 -230 -84 q-143 0 -229 86q-61 63 -79.5 172.5t-18.5 287zM1080 625h223q0 180 -31 219q-31 41 -79 41t-81 -41q-32 -41 -32 -219zM72 529.5q0 328.5 75 433.5q80 111 250 110.5t252 -110.5q74 -104 74 -433t-74 -434q-82 -113 -252 -112.5t-250 112.5q-75 105 -75 433.5zM285 530 q0 -262 30 -313q27 -43 82.5 -43t81.5 43q31 51 31 313q0 258 -31 312q-29 43 -82 43t-82 -43q-30 -54 -30 -312z" />
<glyph unicode="&#x158;" horiz-adv-x="958" d="M-74 2134l281 -570h186l283 570h-207l-168 -357l-166 357h-209zM121 0v1430h360q195 0 281 -99.5t86 -322.5q0 -143 -38 -233.5t-130 -139.5l213 -635h-236l-186 586h-125v-586h-225zM346 788h137q82 0 111 57.5t29 162t-29 162t-111 57.5h-137v-439z" />
<glyph unicode="&#x159;" horiz-adv-x="600" d="M-39 1764l281 -570h186l283 570h-207l-168 -357l-166 357h-209zM104 0v1057h205v-111q33 47 92 84q72 43 164 43v-207h-71q-76 0 -126.5 -49t-50.5 -133v-684h-213z" />
<glyph unicode="&#x15c;" horiz-adv-x="886" d="M70 1564l281 570h186l283 -570h-207l-168 357l-166 -357h-209zM70 387h225q0 -115 41 -160q33 -39 104 -39q74 0 109 41q37 43 37 158q0 113 -24.5 157t-110.5 79l-170 69q-111 47 -155 122t-44 239q0 199 117 303q98 86 245 86q166 0 256 -86q100 -100 101 -312h-226 q0 109 -32 152q-33 43 -101 43q-61 0 -96 -41q-39 -43 -39 -141q0 -88 22.5 -125t96.5 -68l168 -67q127 -49 172 -134t45 -268q0 -225 -92 -315q-98 -94 -279 -94q-184 0 -278 94q-92 92 -92 307z" />
<glyph unicode="&#x15d;" horiz-adv-x="763" d="M6 1194l281 570h186l283 -570h-207l-168 357l-166 -357h-209zM53 309h211q0 -63 37 -100q31 -33 81 -33t81 31q31 27 31 84q0 47 -23 78q-23 37 -82 61l-139 62q-109 49 -156 122q-35 53 -35 144q0 131 93 227q90 88 229 88t223 -80q90 -86 90 -235h-209q0 66 -29.5 97.5 t-74.5 31.5q-47 0 -78 -30t-31 -81q0 -37 17 -61q23 -37 78 -62l141 -59q109 -47 154 -117q45 -61 45 -172q0 -141 -95 -235q-86 -86 -231 -86q-150 0 -231 86q-97 98 -97 239z" />
<glyph unicode="&#x160;" horiz-adv-x="1206" d="M72 1001.5q0 428.5 297 428.5h733v-1801h-213v1598h-203v-1598h-213v944h-104q-297 0 -297 428.5z" />
<glyph unicode="&#x161;" horiz-adv-x="1693" d="M121 715q0 301 213 514t514 213t513 -213t212 -514t-212 -514t-513 -213t-514 213t-213 514zM262 714q0 -255 169 -425t416 -170t416 170t169 425t-169 426t-416 171t-416 -171t-169 -426zM657 317v791h209q100 0 150 -49q51 -53 51 -187q0 -123 -49 -176 q-14 -16 -39 -30l113 -349h-136l-98 322h-70v-322h-131zM788 758h78q31 0 52 20q23 25 22 94q0 70 -22 95q-20 20 -52 20h-78v-229z" />
<glyph unicode="&#x164;" horiz-adv-x="788" d="M20 2134l281 -570h186l283 570h-207l-168 -357l-166 357h-209zM43 1227v203h705v-203h-242v-1227h-225v1227h-238z" />
<glyph unicode="&#x165;" horiz-adv-x="548" d="M541 1329h231v-381l-231 -170v551zM39 895v162h108v272h211v-272h148v-162h-148v-561q0 -143 152 -144v-190q-174 0 -258 63q-104 86 -105 259v573h-108z" />
<glyph unicode="&#x178;" horiz-adv-x="1206" d="M53 309q0 150 99 238q84 72 243 71h94v148q0 59 -26.5 90t-74.5 31t-75 -33q-29 -33 -28 -96h-213q0 139 90 229q88 86 223 86q113 0 176 -47q27 -23 39 -43q20 25 33 35q70 55 182 55q147 0 227 -84q14 -18 28.5 -38.5t24 -49.5t16.5 -49.5t12 -59t8.5 -59t4.5 -68 t2 -63.5t1 -70v-65h-437q0 -205 33 -250q27 -43 80 -43q49 0 82 43q27 33 27 94h211q-6 -154 -88 -243q-78 -84 -232 -84q-102 0 -178 53q-49 33 -84 88q-43 -72 -84 -96q-59 -45 -152 -45q-123 0 -198 88q-66 77 -66 237zM266 317q0 -147 111 -147q49 0 80.5 39t31.5 102 v156h-69q-76 0 -111 -31q-43 -39 -43 -119zM702 625h224q0 180 -31 219q-33 41 -81 41t-79 -41q-33 -41 -33 -219z" />
<glyph unicode="&#x17b;" horiz-adv-x="747" d="M263 1565v248h245v-248h-245zM61 0v168l390 1059h-365v203h598v-170l-387 -1057h387v-203h-623z" />
<glyph unicode="&#x17c;" horiz-adv-x="651" d="M215 1194v248h245v-248h-245zM51 0v160l309 708h-284v189h524v-158l-309 -709h309v-190h-549z" />
<glyph unicode="&#x17d;" horiz-adv-x="780" d="M18 1430h234l137 -568l139 568h234l-187 -613h119v-162h-168l-30 -96v-80h198v-162h-198v-317h-213v317h-199v162h199v80l-29 96h-170v162h121z" />
<glyph unicode="&#x17e;" horiz-adv-x="651" d="M-37 1764l281 -570h186l283 570h-207l-168 -357l-166 357h-209zM51 0v160l309 708h-284v189h524v-158l-309 -709h309v-190h-549z" />
<glyph unicode="&#x2c6;" horiz-adv-x="927" d="M90 870l281 570h186l283 -570h-207l-168 357l-166 -357h-209z" />
<glyph unicode="&#x2d9;" horiz-adv-x="358" d="M-125 121v248h245v-248h-245z" />
<glyph unicode="&#x2dc;" horiz-adv-x="358" d="M-410 272q131 133 252 133q84 0 178 -51q76 -39 131 -39q66 0 133 66l129 -130q-131 -131 -252 -131q-82 0 -176 50q-78 41 -133 41q-66 0 -133 -68z" />
<glyph unicode="&#x37e;" horiz-adv-x="514" d="M156 629v245h250v-245h-250zM164 250h233v-381l-233 -170v551z" />
<glyph unicode="&#x391;" horiz-adv-x="937" d="M10 0l350 1430h220l348 -1430h-236l-57 283h-332l-55 -283h-238zM348 485h244l-123 598z" />
<glyph unicode="&#x392;" horiz-adv-x="946" d="M121 0v1430h356q190 0 279 -89q90 -90 90 -301q0 -168 -76 -241q-31 -33 -74 -49q47 -18 76 -54q78 -82 78 -272q0 -240 -94 -334q-88 -90 -281 -90h-354zM346 203h107q94 0 133 49t39 174q0 119 -40 171t-132 52h-107v-446zM346 840h105q90 0 130 46t40 148 q0 106 -38 149.5t-132 43.5h-105v-387z" />
<glyph unicode="&#x395;" horiz-adv-x="794" d="M121 0v1430h600v-203h-375v-406h322v-203h-322v-415h375v-203h-600z" />
<glyph unicode="&#x396;" horiz-adv-x="747" d="M61 0v168l390 1059h-365v203h598v-170l-387 -1057h387v-203h-623z" />
<glyph unicode="&#x397;" horiz-adv-x="968" d="M121 0v1430h225v-603h279v603h225v-1430h-225v627h-279v-627h-225z" />
<glyph unicode="&#x399;" horiz-adv-x="464" d="M121 0v1430h225v-1430h-225z" />
<glyph unicode="&#x39a;" horiz-adv-x="940" d="M121 0v1430h225v-674l309 674h228l-287 -592l332 -838h-244l-231 588l-107 -221v-367h-225z" />
<glyph unicode="&#x39c;" horiz-adv-x="1200" d="M121 0v1430h203l276 -752l274 752h205v-1430h-225v891l-195 -586h-122l-191 576v-881h-225z" />
<glyph unicode="&#x39d;" horiz-adv-x="1001" d="M121 0v1430h201l333 -850v850h226v-1430h-199l-336 850v-850h-225z" />
<glyph unicode="&#x39f;" horiz-adv-x="925" d="M82 714.5q0 184.5 3 266.5t27.5 184.5t73.5 159.5q106 121 277.5 121t277.5 -121q49 -57 74 -159.5t28 -184.5t3 -266.5t-3 -267t-27.5 -185t-74.5 -158.5q-106 -121 -277 -120.5t-278 120.5q-49 55 -73.5 158t-27.5 185.5t-3 267zM307 715q0 -393 49 -473 q35 -55 107 -56q76 0 108 56q31 47 40.5 152.5t9.5 320.5t-9.5 320.5t-40.5 152.5q-33 55 -108 55q-72 0 -107 -55q-49 -80 -49 -473z" />
<glyph unicode="&#x3a1;" horiz-adv-x="919" d="M121 0v1430h358q193 0 281 -104.5t88 -330.5q0 -223 -85 -330.5t-284 -107.5h-133v-557h-225zM346 760h137q82 0 111 60.5t29 173t-29 173t-111 60.5h-137v-467z" />
<glyph unicode="&#x3a4;" horiz-adv-x="788" d="M43 1227v203h705v-203h-242v-1227h-225v1227h-238z" />
<glyph unicode="&#x3a5;" horiz-adv-x="780" d="M0 1430h250l139 -568l143 568h246l-276 -871v-559h-226v559z" />
<glyph unicode="&#x3a7;" horiz-adv-x="866" d="M23 0l282 741l-260 689h246l143 -478l141 478h248l-268 -689l291 -741h-248l-164 514l-166 -514h-245z" />
<glyph unicode="&#x3bf;" horiz-adv-x="794" d="M72 529.5q0 328.5 75 433.5q80 111 250 110.5t252 -110.5q74 -104 74 -433t-74 -434q-82 -113 -252 -112.5t-250 112.5q-75 105 -75 433.5zM285 530q0 -262 30 -313q27 -43 82.5 -43t81.5 43q31 51 31 313q0 258 -31 312q-29 43 -82 43t-82 -43q-30 -54 -30 -312z" />
<glyph unicode="&#x3c1;" horiz-adv-x="817" d="M104 -371v1428h205v-78q10 16 31.5 37.5t38.5 30.5q47 27 106 26q121 0 187 -82q49 -59 62.5 -159.5t13.5 -301t-13.5 -302t-62.5 -162.5q-68 -82 -187 -82q-59 0 -106 28q-35 20 -62 56v-439h-213zM317 301q0 -66 35 -100q25 -27 72 -27q53 0 80 43q31 51 31 313 q0 258 -31 312q-29 43 -80 43q-45 0 -72 -29q-35 -33 -35 -100v-455z" />
<glyph unicode="&#x3c7;" horiz-adv-x="784" d="M18 0l248 539l-235 518h233l127 -320l127 320h236l-240 -518l252 -539h-236l-139 330l-139 -330h-234z" />
<glyph unicode="&#x3d2;" horiz-adv-x="780" d="M0 1430h250l139 -568l143 568h246l-276 -871v-559h-226v559z" />
<glyph unicode="&#x2000;" horiz-adv-x="1003" />
<glyph unicode="&#x2001;" horiz-adv-x="2007" />
<glyph unicode="&#x2002;" horiz-adv-x="1003" />
<glyph unicode="&#x2003;" horiz-adv-x="2007" />
<glyph unicode="&#x2004;" horiz-adv-x="667" />
<glyph unicode="&#x2005;" horiz-adv-x="501" />
<glyph unicode="&#x2006;" horiz-adv-x="331" />
<glyph unicode="&#x2007;" horiz-adv-x="802" />
<glyph unicode="&#x2008;" horiz-adv-x="468" />
<glyph unicode="&#x2009;" horiz-adv-x="200" />
<glyph unicode="&#x200a;" horiz-adv-x="18" />
<glyph unicode="&#x200b;" horiz-adv-x="0" />
<glyph unicode="&#x200c;" horiz-adv-x="0" />
<glyph unicode="&#x200d;" horiz-adv-x="0" />
<glyph unicode="&#x200e;" horiz-adv-x="667" />
<glyph unicode="&#x200f;" horiz-adv-x="667" />
<glyph unicode="&#x2010;" horiz-adv-x="591" d="M94 477v203h406v-203h-406z" />
<glyph unicode="&#x2011;" horiz-adv-x="591" d="M94 477v203h406v-203h-406z" />
<glyph unicode="&#x2012;" horiz-adv-x="802" d="M94 477v203h619v-203h-619z" />
<glyph unicode="&#x2013;" horiz-adv-x="1003" d="M94 477v203h817v-203h-817z" />
<glyph unicode="&#x2014;" horiz-adv-x="2007" d="M94 477v203h1821v-203h-1821z" />
<glyph unicode="&#x2015;" horiz-adv-x="4014" d="M94 477v203h3828v-203h-3828z" />
<glyph unicode="&#x2016;" horiz-adv-x="1323" d="M887 -150v1727h213v-1727h-213zM225 -150v1727h213v-1727h-213z" />
<glyph unicode="&#x2018;" d="M168 1456h180l144 -278h-148z" />
<glyph unicode="&#x2019;" horiz-adv-x="495" d="M145 1026v404h205v-404h-205z" />
<glyph unicode="&#x201c;" horiz-adv-x="876" d="M145 1026v404h205v-404h-205zM528 1026v404h203v-404h-203z" />
<glyph unicode="&#x201d;" horiz-adv-x="876" d="M145 1026v404h205v-404h-205zM528 1026v404h203v-404h-203z" />
<glyph unicode="&#x2024;" horiz-adv-x="468" d="M113 0v248h245v-248h-245z" />
<glyph unicode="&#x2025;" horiz-adv-x="937" d="M582 0v248h245v-248h-245zM113 0v248h245v-248h-245z" />
<glyph unicode="&#x2026;" horiz-adv-x="1406" d="M1053 0v248h245v-248h-245zM582 0v248h245v-248h-245zM113 0v248h245v-248h-245z" />
<glyph unicode="&#x202a;" horiz-adv-x="0" />
<glyph unicode="&#x202f;" horiz-adv-x="425" />
<glyph unicode="&#x2032;" horiz-adv-x="495" d="M145 1026v404h205v-404h-205z" />
<glyph unicode="&#x2033;" horiz-adv-x="991" d="M641 1026v404h205v-404h-205zM145 1026v404h205v-404h-205z" />
<glyph unicode="&#x2034;" horiz-adv-x="1486" d="M1136 1026v404h205v-404h-205zM641 1026v404h205v-404h-205zM145 1026v404h205v-404h-205z" />
<glyph unicode="&#x2035;" d="M168 1456h180l144 -278h-148z" />
<glyph unicode="&#x2036;" horiz-adv-x="1601" d="M969 1456h180l144 -278h-148zM168 1456h180l144 -278h-148z" />
<glyph unicode="&#x2037;" horiz-adv-x="2402" d="M1770 1456h180l144 -278h-148zM969 1456h180l144 -278h-148zM168 1456h180l144 -278h-148z" />
<glyph unicode="&#x2039;" horiz-adv-x="802" d="M68 512v147l669 392v-234l-407 -231l407 -232v-233z" />
<glyph unicode="&#x203a;" horiz-adv-x="802" d="M68 121v233l407 232l-407 231v234l669 -392v-147z" />
<glyph unicode="&#x203c;" horiz-adv-x="1030" d="M672 0v248h250v-248h-250zM690 401v1029h213v-1029h-213zM156 0v248h250v-248h-250zM174 401v1029h213v-1029h-213z" />
<glyph unicode="&#x203e;" horiz-adv-x="358" d="M-383 924q0 184 3 266t27.5 184.5t73.5 159.5q106 121 277 121q102 0 176 -39l39 111h149l-73 -207q45 -57 66.5 -159.5t24.5 -182.5t3 -254q0 -184 -3 -267t-27.5 -185.5t-74.5 -158.5q-106 -121 -280 -120q-102 0 -174 39l-39 -111h-148l74 205q-45 55 -66.5 158.5 t-24.5 184.5t-3 255zM-158 924q0 -186 10 -256l246 741q-35 43 -100 43q-72 0 -107 -55q-49 -80 -49 -473zM-100 438q33 -43 98 -43q76 0 108 56q31 47 40.5 152.5t9.5 320.5q0 199 -9 252z" />
<glyph unicode="&#x2047;" horiz-adv-x="1708" d="M967 1057q0 201 94 291q102 94 242 94q158 0 243 -90q96 -98 96 -299q0 -158 -67 -248l-119 -158q-47 -63 -47 -131v-115h-211v140q0 90 62 172l118 157q51 70 51 187q0 111 -38 155q-35 39 -87.5 39t-87.5 -37q-37 -43 -36 -157h-213zM1180 0v248h247v-248h-247z M113 1057q0 201 94 291q102 94 242 94q158 0 243 -90q96 -98 96 -299q0 -158 -67 -248l-119 -158q-47 -63 -47 -131v-115h-211v140q0 90 62 172l118 157q51 70 51 187q0 111 -38 155q-35 39 -87.5 39t-87.5 -37q-37 -43 -36 -157h-213zM326 0v248h247v-248h-247z" />
<glyph unicode="&#x2048;" horiz-adv-x="1370" d="M1010 0v248h250v-248h-250zM1028 401v1029h213v-1029h-213zM113 1057q0 201 94 291q102 94 242 94q158 0 243 -90q96 -98 96 -299q0 -158 -67 -248l-119 -158q-47 -63 -47 -131v-115h-211v140q0 90 62 172l118 157q51 70 51 187q0 111 -38 155q-35 39 -87.5 39t-87.5 -37 q-37 -43 -36 -157h-213zM326 0v248h247v-248h-247z" />
<glyph unicode="&#x2049;" horiz-adv-x="1370" d="M629 1057q0 201 94 291q102 94 242 94q158 0 243 -90q96 -98 96 -299q0 -158 -67 -248l-119 -158q-47 -63 -47 -131v-115h-211v140q0 90 62 172l118 157q51 70 51 187q0 111 -38 155q-35 39 -87.5 39t-87.5 -37q-37 -43 -36 -157h-213zM842 0v248h247v-248h-247zM156 0 v248h250v-248h-250zM174 401v1029h213v-1029h-213z" />
<glyph unicode="&#x2057;" horiz-adv-x="1982" d="M1632 1026v404h205v-404h-205zM1136 1026v404h205v-404h-205zM641 1026v404h205v-404h-205zM145 1026v404h205v-404h-205z" />
<glyph unicode="&#x205f;" horiz-adv-x="532" />
<glyph unicode="&#x2060;" horiz-adv-x="0" />
<glyph unicode="&#x20a0;" horiz-adv-x="1122" d="M137 283l113 112q-49 82 -49 178q0 98 49 181l-113 112l131 133l113 -112q86 49 180 49t180 -49l113 112l131 -133l-113 -112q51 -86 52 -181q0 -92 -52 -178l113 -112l-131 -131l-113 110q-88 -49 -180 -49q-90 0 -180 49l-113 -110zM383 574.5q0 -74.5 52 -127 t127 -52.5t127 52.5t52 127t-52 127t-127 52.5t-127 -52.5t-52 -127z" />
<glyph unicode="&#x20a8;" horiz-adv-x="1722" d="M1011 309h211q0 -63 37 -100q31 -33 81 -33t81 31q31 27 31 84q0 47 -23 78q-23 37 -82 61l-139 62q-109 49 -156 122q-35 53 -35 144q0 131 93 227q90 88 229 88t223 -80q90 -86 90 -235h-209q0 66 -29.5 97.5t-74.5 31.5q-47 0 -78 -30t-31 -81q0 -37 17 -61 q23 -37 78 -62l141 -59q109 -47 154 -117q45 -61 45 -172q0 -141 -95 -235q-86 -86 -231 -86q-150 0 -231 86q-97 98 -97 239zM121 0v1430h360q195 0 281 -99.5t86 -322.5q0 -143 -38 -233.5t-130 -139.5l213 -635h-236l-186 586h-125v-586h-225zM346 788h137q82 0 111 57.5 t29 162t-29 162t-111 57.5h-137v-439z" />
<glyph unicode="&#x20ac;" horiz-adv-x="999" d="M63 471v164h113v160h-113v161h117q6 260 101 369q106 121 274 121q154 0 252 -92q109 -102 115 -301h-226q-4 190 -141 190q-76 0 -109 -55q-37 -55 -38 -232h213v-161h-220v-160h220v-164h-213q2 -176 41 -229q35 -55 106 -56q137 0 141 193h226q-6 -203 -119 -305 q-100 -90 -248 -90q-168 0 -274 120q-94 106 -101 367h-117z" />
<glyph unicode="&#x2122;" horiz-adv-x="1988" d="M909 0v1430h203l276 -752l274 752h205v-1430h-225v891l-195 -586h-122l-191 576v-881h-225zM43 1227v203h705v-203h-242v-1227h-225v1227h-238z" />
<glyph unicode="&#x2260;" horiz-adv-x="915" d="M172 -291l371 1727h201l-371 -1727h-201zM88 291v203h741v-203h-741zM88 653v203h741v-203h-741z" />
<glyph unicode="&#xe000;" horiz-adv-x="1055" d="M0 1055h1055v-1055h-1055v1055z" />
<glyph unicode="&#xfb01;" horiz-adv-x="964" d="M637 1192v235h236v-235h-236zM649 0v1030h213v-1030h-213zM39 895v162h108v63q0 170 105 254q88 68 254 68v-191q-147 0 -148 -143v-51h148v-162h-148v-895h-211v895h-108z" />
<glyph unicode="&#xfb02;" horiz-adv-x="1032" d="M643 322v1108h213v-1096q0 -143 144 -144v-190q-168 0 -250 63q-107 83 -107 259zM39 895v162h108v63q0 170 105 254q88 68 254 68v-191q-147 0 -148 -143v-51h148v-162h-148v-895h-211v895h-108z" />
<glyph unicode="&#xfb03;" horiz-adv-x="1507" d="M1179 1192v235h236v-235h-236zM1191 0v1030h213v-1030h-213zM584 895v162h108v63q0 170 105 254q88 68 254 68v-191q-147 0 -148 -143v-51h148v-162h-148v-895h-211v895h-108zM39 895v162h108v63q0 170 105 254q88 68 254 68v-191q-147 0 -148 -143v-51h148v-162h-148 v-895h-211v895h-108z" />
<glyph unicode="&#xfb04;" horiz-adv-x="1576" d="M1185 322v1108h213v-1096q0 -143 144 -144v-190q-168 0 -250 63q-107 83 -107 259zM584 895v162h108v63q0 170 105 254q88 68 254 68v-191q-147 0 -148 -143v-51h148v-162h-148v-895h-211v895h-108zM39 895v162h108v63q0 170 105 254q88 68 254 68v-191q-147 0 -148 -143 v-51h148v-162h-148v-895h-211v895h-108z" />
</font>
</defs>
</svg>
