<?xml version="1.0" encoding="utf-8"?>
<!-- Generator: Adobe Illustrator 15.0.0, SVG Export Plug-In . SVG Version: 6.00 Build 0)  -->
<!DOCTYPE svg PUBLIC "-//W3C//DTD SVG 1.1//EN" "http://www.w3.org/Graphics/SVG/1.1/DTD/svg11.dtd">
<svg version="1.1" id="Layer_1" xmlns="http://www.w3.org/2000/svg" xmlns:xlink="http://www.w3.org/1999/xlink" x="0px" y="0px"
	 width="90px" height="90px" viewBox="0 0 90 90" enable-background="new 0 0 90 90" xml:space="preserve">
<path fill="#3D3235" d="M43.17,9.67l1.45-1.78l-0.1-0.96c-3.14,0.58-7.12,1.67-11.4,3.33l0.42,0.35L43.17,9.67z M47.18,9.27
	L51.4,8.86c0.439-0.77,0.51-1.46-0.18-2.08c-0.551-0.5-2.73-0.52-5.901,0.01l0.1,1.03L47.18,9.27z M63.77,2
	c-0.27,1.66-0.359,3.64-0.42,5.69l5.211-0.51C67.5,5.44,66.02,3.72,63.77,2z M18.66,24.3l-0.58-6.03c-3.43,2.45-6.67,5.32-9.45,8.64
	l8.58-0.84L18.66,24.3z M21.23,25.68l9.62-0.95l1.45-1.77l-0.93-9.69l-1.76-1.46l-0.24,0.02c-3.5,1.59-7.1,3.54-10.53,5.91
	l0.62,6.48L21.23,25.68z M33.62,11.42l-1.45,1.77l0.94,9.69l1.76,1.46l9.63-0.94l1.44-1.78l-0.93-9.69l-1.76-1.46L33.62,11.42z
	 M45.81,11.85l0.94,9.7L48.51,23l7.36-0.72c-3.32-0.3-6.97-2.11-8.71-4.85c-1.8-2.83,1.79-5.49,3.609-7.69l-3.51,0.34L45.81,11.85z
	 M71.779,20.72l1.311-1.61c-1.74-3.98-2.17-7.63-4.08-11.16l-5.68,0.56c-0.12,5.03-0.13,10.32-2.12,12.38l0.94,0.78L71.779,20.72z
	 M8.91,40.74l9.63-0.94l1.45-1.77l-0.94-9.7l-1.76-1.45l-9.38,0.91c-0.57,0.73-1.13,1.48-1.65,2.24l0.89,9.25L8.91,40.74z
	 M21.3,26.48l-1.45,1.78l0.94,9.69l1.76,1.45l9.63-0.94l1.45-1.77L32.69,27l-1.76-1.46L21.3,26.48z M34.94,25.15l-1.44,1.77
	l0.93,9.69l1.76,1.46l9.63-0.95l1.45-1.77l-0.939-9.69l-1.76-1.46L34.94,25.15z M48.59,23.81l-1.449,1.77l0.93,9.69l1.76,1.46
	l9.63-0.94l1.45-1.77l-0.93-9.69l-1.771-1.46L48.59,23.81z M62.23,22.48l-1.451,1.77l0.931,9.69l1.771,1.46l9.619-0.95l1.45-1.77
	l-0.93-9.69l-1.761-1.46L62.23,22.48z M75.359,32.6l1.761,1.46l7.319-0.72c-3.1-4.36-6.529-7-7.899-8.57
	c-0.649-0.81-1.21-1.6-1.7-2.37l-0.42,0.51L75.359,32.6z M8.99,41.55l-1.45,1.77l0.94,9.69l1.76,1.461l9.63-0.941l1.45-1.779
	l-0.94-9.69l-1.76-1.45L8.99,41.55z M22.63,40.21l-1.45,1.77l0.94,9.7l1.76,1.45l9.63-0.94l1.45-1.77l-0.94-9.69l-1.76-1.46
	L22.63,40.21z M36.27,38.88l-1.45,1.77l0.94,9.69l1.76,1.46l9.63-0.95l1.449-1.77l-0.939-9.69l-1.76-1.46L36.27,38.88z M49.91,37.54
	l-1.45,1.77L49.4,49l1.76,1.46l9.63-0.94l1.45-1.77l-0.94-9.7l-1.76-1.45L49.91,37.54z M63.55,36.2l-1.44,1.78l0.931,9.69l1.76,1.46
	l9.63-0.95l1.45-1.77l-0.94-9.69l-1.76-1.46L63.55,36.2z M75.75,36.64l0.93,9.69l1.76,1.46l9.631-0.94l1.449-1.78l-0.08-0.8
	c-0.979-4.11-2.64-7.45-4.469-10.16L77.2,34.87L75.75,36.64z M19.95,54.33l-9.63,0.949L8.87,57.05l0.94,9.69l1.76,1.46l2.92-0.29
	c2.1-1.881,4.73-3.84,7.86-5.48l-0.64-6.64L19.95,54.33z M33.59,53l-9.63,0.939l-1.45,1.771l0.61,6.319
	c3.58-1.77,7.8-3.109,12.63-3.459l-0.4-4.11L33.59,53z M47.23,51.66l-9.63,0.949l-1.45,1.771l0.4,4.14l0.51-0.029
	c4.93-0.17,9.15,0.88,12.69,2.52l-0.76-7.89L47.23,51.66z M63.57,61.48l-0.94-9.701l-1.76-1.449l-9.63,0.939l-1.45,1.771l0.81,8.38
	c1.51,0.76,2.891,1.63,4.141,2.551l7.38-0.721L63.57,61.48z M64.88,49.93l-1.45,1.78l0.94,9.69l1.76,1.449l9.63-0.939l1.45-1.77
	l-0.94-9.69l-1.76-1.46L64.88,49.93z M88.15,47.65L78.52,48.6L77.07,50.37l0.939,9.69l1.76,1.459l8.221-0.81
	c1.13-3.45,1.949-7.33,1.949-11.31l-0.029-0.291L88.15,47.65z M10.2,70.779l0.13,1.41c0.83-0.979,1.88-2.14,3.17-3.369l-1.86,0.189
	L10.2,70.779z M63.96,65.51l-1.76-1.46l-6.521,0.64c6.01,4.781,8.82,10.551,8.82,10.551l0.141,0.279l0.25-0.319L63.96,65.51z
	 M66.21,63.66l-1.45,1.779l0.94,9.69l1.76,1.45l9.63-0.939l1.45-1.771l-0.94-9.69l-1.76-1.459L66.21,63.66z M78.4,64.1l0.939,9.69
	L80.8,75c0.58-0.92,0.95-1.45,0.95-1.45s3.529-5,5.96-11.989l-7.86,0.77L78.4,64.1z M6.35,39.36l-0.8-8.26
	c-2.01,3.13-3.61,6.59-4.63,10.42l3.98-0.39L6.35,39.36z M7.68,53.09L6.74,43.4l-1.76-1.46l-4.27,0.42c-0.25,1-0.45,2.03-0.62,3.09
	c-0.25,3.36,0.04,6.739,0.63,9.95l5.51-0.541L7.68,53.09z M9,66.82l-0.93-9.69l-1.76-1.46L0.88,56.2c0.99,4.86,2.65,9.29,4.13,12.64
	l2.54-0.25L9,66.82z M7.63,69.4l-2.26,0.22c1.54,3.36,2.81,5.43,2.81,5.43s0.48-0.76,1.43-1.97l-0.22-2.221L7.63,69.4z M77.17,76.45
	l-9.63,0.94L66.4,78.79c1.789,3.101,4.709,7.521,8.06,10.21c0.931-3.95,2.851-7.95,4.49-10.891L78.93,77.91L77.17,76.45z"/>
<path opacity="0.2" fill="#FFFFFF" d="M44.6,6.91c-0.77,0.14-1.59,0.32-2.45,0.52c0.83-0.2,1.63-0.36,2.37-0.5l0.1,0.96l-1.41,1.73
	l0.02,0.03h0.01l1.45-1.78L44.6,6.91z M44.52,6.93c-0.74,0.14-1.54,0.3-2.37,0.5l-0.34,0.08l1.4,2.11l1.41-1.73L44.52,6.93z
	 M35.18,9.51c-0.66,0.23-1.32,0.47-1.99,0.73l0.42,0.35l2.27-0.22L35.18,9.51z M48.46,6.4c-0.87,0.05-1.899,0.17-3.07,0.37l0,0
	c1.18-0.19,2.209-0.31,3.081-0.35L48.46,6.4z M48.471,6.42c-0.871,0.04-1.9,0.16-3.081,0.35l0.1,1.03l1.76,1.45L49.84,9L48.471,6.42
	z M66.62,4.5l0.03,0.12c0.76,0.85,1.379,1.69,1.91,2.55l0.08-0.01C68.09,6.27,67.439,5.38,66.62,4.5z M66.65,4.62L67.18,7.3
	l1.381-0.13C68.029,6.31,67.41,5.47,66.65,4.62z M9.99,25.43c-0.44,0.48-0.87,0.96-1.28,1.46l3.37-0.33L9.99,25.43z M18.15,18.25
	l-0.07,0.05l0.36,3.66l0.08,0.06L18.15,18.25z M18.08,18.3c-0.81,0.58-1.61,1.19-2.39,1.82l2.75,1.84L18.08,18.3z M29.68,11.79
	l-0.24,0.02l-0.03,0.02l0.2-0.02l1.76,1.46l0.19,2.01l0.08,0.09l-0.2-2.12L29.68,11.79z M29.61,11.81l-0.2,0.02l-0.88,0.41
	l3.03,3.04l-0.19-2.01L29.61,11.81z M31.66,23.75l-0.79,0.97l0.06-0.01l0.76-0.94L31.66,23.75z M21.97,15.74
	c-1.03,0.63-2.05,1.29-3.06,1.98l0.47,4.88l4.21,2.83l7.28-0.71l0.79-0.97L21.97,15.74z M44.3,11.27l0.12,0.18l0.59,0.48l0.04,0.47
	l0.09,0.13l-0.06-0.62L44.3,11.27z M44.42,11.45l0.63,0.95l-0.04-0.47L44.42,11.45z M36.5,11.13l-2.82,0.28l-1.44,1.76l0.3,3.1
	l7.5,7.55l4.47-0.44l0.99-1.21L36.5,11.13z M50.34,20.37l0.08,0.11c1.641,0.99,3.561,1.62,5.391,1.8l0.14-0.02
	C54.05,22.09,52.04,21.42,50.34,20.37z M50.42,20.48l1.45,2.18l3.94-0.38C53.98,22.1,52.061,21.47,50.42,20.48z M50.26,9.79
	l-2.939,0.29l-1.44,1.75l0.21,2.13L46.779,15c0.48-1.76,2.351-3.41,3.65-4.88L50.26,9.79z M63.26,13.14
	c-0.17,3.35-0.6,6.31-1.98,7.73l0.941,0.78l3.5-0.35L63.26,13.14z M69.08,7.93L67.34,8.1v0.01l1.67-0.16
	c1.91,3.53,2.34,7.18,4.08,11.16l-1.3,1.6l0.06-0.01l1.32-1.61C71.42,15.11,71,11.46,69.08,7.93z M69.01,7.95l-1.67,0.16l2.53,12.79
	l1.92-0.19l1.3-1.6C71.35,15.13,70.92,11.48,69.01,7.95z M13.39,27.26l-5.42,0.53c-0.57,0.72-1.12,1.46-1.64,2.22l0.21,2.22
	l13.43,5.6l-0.72-7.41L13.39,27.26z M32.8,37.7l-0.61,0.75l0.07-0.01l0.58-0.72L32.8,37.7z M20.19,30.92l0.68,7.01l0.66,0.55
	l1.97,0.82l8.69-0.85l0.61-0.75L20.19,30.92z M31.01,25.52l-6.36,0.62l0.02,0.01l6.26-0.61L32.69,27l0.47,4.87l0.08,0.05l-0.47-4.94
	L31.01,25.52z M30.93,25.54l-6.26,0.61l8.49,5.72L32.69,27L30.93,25.54z M46.641,36.12l-0.811,0.99h0.07l0.78-0.96L46.641,36.12z
	 M34.34,25.96l-0.77,0.94l0.54,5.6l7.47,5.03l4.25-0.42l0.811-0.99L34.34,25.96z M44.65,24.18l-3.87,0.38l0.01,0.01l3.78-0.37
	l1.76,1.46l0.49,4.98l0.08,0.08l-0.49-5.08L44.65,24.18z M44.57,24.2l-3.78,0.37l6.03,6.07l-0.49-4.98L44.57,24.2z M47.74,24.91
	l-0.53,0.65l0.59,6.06l4.79,4.83l4.221-0.41L47.74,24.91z M57.25,22.96l-4.87,0.48l7.7,11.59l0.83-1.01l-0.49-5.09L57.25,22.96z
	 M71.93,21.51l-1.91,0.19l0.01,0.01l1.83-0.18l1.761,1.46l0.93,9.69l-1.43,1.76l0.06-0.01l1.45-1.77l-0.94-9.69L71.93,21.51z
	 M71.859,21.53l-1.83,0.18l2.521,12.78l0.57-0.05l1.43-1.76l-0.93-9.69L71.859,21.53z M61.5,30.97l0.29,2.95l1.76,1.46l0.28-0.03
	L61.5,30.97z M65.96,22.1l-3.66,0.36l-0.01,0.01l3.67-0.36V22.1z M65.96,22.11l-3.67,0.36l-0.38,0.46l4.98,12.12l2.889-0.28
	L65.96,22.11z M77.99,26.14v0.09c0.89,0.85,2.01,1.89,3.199,3.16V29.3C80,28.03,78.88,26.99,77.99,26.14z M77.99,26.23v7.73
	l2.77-0.27l0.43-4.3C80,28.12,78.88,27.08,77.99,26.23z M10.48,41.4l-1.43,0.14L7.61,43.3l0.46,4.72l13.14,2.631l-0.59-6.15
	L10.48,41.4z M32.33,39.25l-7.24,0.71l0.02,0.01l7.15-0.7l1.76,1.46l0.3,3.08l0.08,0.03l-0.31-3.13L32.33,39.25z M32.26,39.27
	l-7.15,0.7l9.21,3.84l-0.3-3.08L32.26,39.27z M34.8,48.83l0.16,1.59l-1.44,1.76l0.06-0.01l1.45-1.77l-0.15-1.551L34.8,48.83z
	 M21.53,44.78l0.58,6.05l8.27,1.65l3.14-0.301l1.44-1.76l-0.16-1.59L21.53,44.78z M48.311,46.04l0.289,3.04l-0.41,0.51l0.041,0.02
	l0.439-0.549l-0.279-2.971L48.311,46.04z M35.92,39.38l-1.02,1.25l0.34,3.56l12.949,5.4l0.41-0.51l-0.289-3.04L35.92,39.38z
	 M35.72,49.109l0.11,1.211l1.77,1.459l5.19-0.51L35.72,49.109z M45.97,37.91l-3.33,0.33l0.02,0.01l3.24-0.32l1.76,1.46l0.23,2.38
	l0.08,0.06l-0.23-2.46L45.97,37.91z M45.9,37.93l-3.24,0.32l5.23,3.52l-0.23-2.38L45.9,37.93z M61.63,48.5l-0.83,1h0.06l0.801-0.971
	L61.63,48.5z M49.32,38.33l-0.78,0.96l0.3,3.12l10.73,7.22L60.8,49.5l0.83-1L49.32,38.33z M49.24,46.55l0.24,2.431l1.76,1.459
	l4.43-0.43L49.24,46.55z M57.43,36.8l-4.09,0.4l8.73,8.79l-0.381-3.97L57.43,36.8z M62.689,43.25l0.36,3.73l2.091,2.1l2.129-0.21
	L62.689,43.25z M73.26,35.24l-0.55,0.05v0.02l0.47-0.05l1.76,1.46l0.94,9.69l-0.78,0.96l0.01,0.06l0.841-1.039L75.02,36.7
	L73.26,35.24z M73.18,35.26l-0.47,0.05l2.39,12.06l0.78-0.96l-0.94-9.69L73.18,35.26z M64.24,36.12l-0.61,0.06l-0.01,0.02l0.63-0.06
	L64.24,36.12z M64.25,36.14l-0.63,0.06l-1.44,1.76l0.03,0.28l6.931,10.449l1.689-0.17L64.25,36.14z M70.02,35.56l-2.799,0.27v0.01
	l2.799-0.27V35.56z M70.02,35.57l-2.799,0.27l5.159,12.53l1.46-0.14L70.02,35.57z M87.6,38.66l-0.039,0.1
	c0.43,0.95,0.83,1.96,1.18,3.02l0.039-0.08C88.43,40.63,88.029,39.62,87.6,38.66z M87.561,38.76l-3.48,8.461l1.859-0.181l2.801-5.26
	C88.391,40.72,87.99,39.71,87.561,38.76z M85.05,34.09l-1.569,0.15v0.01l1.49-0.14c0.329,0.49,0.659,1,0.969,1.53l0.031-0.09
	C85.67,35.05,85.359,34.55,85.05,34.09z M84.971,34.11l-1.49,0.14L80.85,47.54l1.551-0.149l3.539-11.75
	C85.63,35.11,85.3,34.6,84.971,34.11z M80.68,34.51l-2.689,0.27v0.01l2.689-0.26V34.51z M80.68,34.53l-2.689,0.26v12.54l0.529,0.439
	l0.871-0.09L80.68,34.53z M21.77,56.439l0.54,5.58h0.07l-0.53-5.569L21.77,56.439z M10.35,55.311l-1.41,1.719l0.48,4.99h12.89
	l-0.54-5.58L10.35,55.311z M22.66,56.529L23.19,62c1.9-0.939,3.98-1.75,6.23-2.359c1.97-0.541,4.08-0.92,6.32-1.091l-0.07-0.729
	L22.66,56.529z M44.85,51.9L37.66,52.6l-0.94,1.15l12.57,2.52l-0.3-3.109L44.85,51.9z M49.58,59.2l0.17,1.75l0.08,0.04l-0.18-1.78
	L49.58,59.2z M36.57,57.91l0.05,0.59l0.52-0.029c0.35-0.011,0.71-0.021,1.06-0.021c4.44,0,8.28,1,11.55,2.5l-0.17-1.75L36.57,57.91z
	 M63.18,57.49l0.16,1.59l0.07,0.02l-0.15-1.58L63.18,57.49z M49.91,53.439l0.29,3.011l13.14,2.63l-0.16-1.59L49.91,53.439z
	 M63.48,60.58l0.09,0.9l-0.44,0.539h0.05l0.461-0.56l-0.08-0.88H63.48z M50.471,59.29l0.209,2.11C51.07,61.6,51.45,61.8,51.82,62.02
	h11.31l0.44-0.539l-0.09-0.9L50.471,59.29z M56.98,50.71l-4.951,0.479l10.99,4.58l-0.189-1.91L56.98,50.71z M60.939,50.311
	l-0.31,0.029l0.011,0.01l0.229-0.02l1.12,0.92l0.51,0.35L60.939,50.311z M60.87,50.33l-0.229,0.02l1.35,0.9L60.87,50.33z
	 M71.25,49.311l-1.59,0.16l7.29,10.979l0.13-0.15L71.25,49.311z M76.141,61.45L76,61.62l0.05,0.01l0.13-0.17L76.141,61.45z
	 M64.09,57.77l0.15,1.49L76,61.62l0.141-0.17L64.09,57.77z M75.58,49.79l0.02,0.101l0.67,0.56l0.541,5.6l0.149,0.75l-0.61-6.37
	L75.58,49.79z M75.6,49.891l1.211,6.159l-0.541-5.6L75.6,49.891z M77.109,59.07L77.2,60.1l0.04,0.08l0.039-0.06l-0.059-0.681
	L77.109,59.07z M74.08,49.02L72.7,49.16v0.01l1.38-0.141V49.02z M74.08,49.029L72.7,49.17l4.5,10.93l-0.091-1.029L74.08,49.029z
	 M75.85,61.8L75.77,61.9l0.061-0.01l0.07-0.08L75.85,61.8z M64.37,60.67l0.069,0.71l0.771,0.64h9.36L75.77,61.9l0.08-0.101
	L64.37,60.67z M67.9,49.641l-2.01,0.189l10.83,10.91L76.84,60.6L67.9,49.641z M76.38,61.15l-0.12,0.14l0.051,0.021l0.109-0.141
	L76.38,61.15z M63.77,54.359l0.17,1.801l12.32,5.13l0.12-0.14L63.77,54.359z M76.609,60.87L76.5,61.01l0.029,0.02l0.111-0.129
	L76.609,60.87z M64.311,50.71l-0.801,0.979l0.061,0.621L76.5,61.01l0.109-0.14L64.311,50.71z M79.311,48.51L78.6,48.58l-0.02,0.01
	l0.73-0.07V48.51z M79.311,48.52l-0.73,0.07l-0.59,0.73v9.76l0.09,0.96l0.1,0.08L79.311,48.52z M85.49,47.9l-1.76,0.17l-0.01,0.02
	l1.76-0.17L85.49,47.9z M85.48,47.92l-1.76,0.17l-5.101,12.4l0.13,0.1L85.48,47.92z M82.15,48.23l-1.461,0.14v0.021l1.451-0.15
	L82.15,48.23z M82.141,48.24l-1.451,0.15L78.34,60.25l0.15,0.12L82.141,48.24z M90,49.93L89.93,50c-0.01,0.75-0.05,1.51-0.119,2.26
	l0.069-0.06C89.95,51.45,89.99,50.689,90,49.93z M89.93,50l-10.82,10.891l0.121,0.1l10.58-8.73C89.88,51.51,89.92,50.75,89.93,50z
	 M88.221,47.63l-0.73,0.08l-0.01,0.011l0.67-0.07l0.93,0.77l0.04-0.05L88.221,47.63z M88.15,47.65l-0.67,0.07l-8.61,12.969
	l0.12,0.101l10.09-12.37L88.15,47.65z M89.63,54.189l-0.069,0.041c-0.09,0.58-0.19,1.16-0.301,1.729l0.07-0.04
	C89.439,55.35,89.54,54.77,89.63,54.189z M89.561,54.23L79.359,61.1l0.131,0.11l9.77-5.25C89.37,55.391,89.471,54.811,89.561,54.23z
	 M88.99,57.43l-0.07,0.03c-0.109,0.44-0.22,0.89-0.34,1.319l0.07-0.02C88.77,58.32,88.88,57.88,88.99,57.43z M88.92,57.46
	l-9.279,3.87l0.159,0.13l8.78-2.681C88.7,58.35,88.811,57.9,88.92,57.46z M88.3,59.95l-0.069,0.01L88,60.7l0.07-0.011L88.3,59.95z
	 M88.23,59.96l-6.971,1.399L88,60.7L88.23,59.96z M13.57,68.811l-1.85,0.18L11.71,69l1.79-0.18c-1.25,1.199-2.29,2.33-3.1,3.289
	l0.01,0.061C11.23,71.189,12.28,70.029,13.57,68.811z M13.5,68.82L11.71,69l-1.44,1.76l0.13,1.35
	C11.21,71.15,12.25,70.02,13.5,68.82z M62.27,64.04l-6.51,0.63l0.01,0.01l6.431-0.63l1.09,0.91l0.08-0.021L62.27,64.04z M62.2,64.05
	l-6.431,0.63c0.59,0.48,1.16,0.961,1.69,1.45l5.83-1.17L62.2,64.05z M64.4,69.33l-0.07,0.029l0.17,1.73l0.07-0.05L64.4,69.33z
	 M64.33,69.359l-2.62,1.42c0.399,0.521,0.75,1.011,1.069,1.471l1.721-1.16L64.33,69.359z M64.109,66.25l-0.08,0.029l0.15,1.49
	l0.07-0.029L64.109,66.25z M64.029,66.279l-4.889,1.49c0.489,0.521,0.949,1.03,1.379,1.53l3.66-1.53L64.029,66.279z M64.75,72.95
	l-0.07,0.06l0.211,2.19l0.069-0.07L64.75,72.95z M64.68,73.01l-0.92,0.76c0.551,0.9,0.82,1.451,0.82,1.451l0.09,0.199l0.221-0.22
	L64.68,73.01z M77.689,65.109L76.66,75.67l0.439-0.04l0.891-1.101V68.24L77.689,65.109z M76.23,62.96l-0.061,0.03l0.16,0.14
	l0.061-0.04L76.23,62.96z M76.17,62.99l-11,5.92l0.16,1.619l11-7.399L76.17,62.99z M77.41,63.939l-0.02,0.07l0.18,0.141l0.01-0.07
	L77.41,63.939z M77.391,64.01L73.79,75.95l1.479-0.14l2.301-11.66L77.391,64.01z M77.1,63.689L77.07,63.74l0.16,0.13l0.02-0.06
	L77.1,63.689z M77.07,63.74l-6.65,12.539l1.77-0.17L77.23,63.87L77.07,63.74z M76.82,63.45l-0.041,0.05l0.15,0.12l0.03-0.05
	L76.82,63.45z M76.779,63.5l-10.09,12.37l0.84,0.69l0.861-0.08l8.539-12.86L76.779,63.5z M76.54,63.221l-0.05,0.039l0.15,0.12
	l0.039-0.04L76.54,63.221z M76.49,63.26L65.5,72.33l0.2,2.061l10.94-11.011L76.49,63.26z M73.29,62.96l-7.011,0.681l-0.01,0.02
	l6.9-0.68L73.29,62.96z M73.17,62.98l-6.9,0.68L65.58,64.5L73.17,62.98z M75.91,62.7l-0.24,0.021l-0.061,0.02l0.23-0.02l0.15,0.129
	l0.07-0.029L75.91,62.7z M75.84,62.721l-0.23,0.02l-10.719,3.27l0.139,1.41l10.961-4.57L75.84,62.721z M84.62,68.689l-0.47,0.881
	l0.039,0.05l0.471-0.89L84.62,68.689z M79.18,63.21l-0.1,0.13l5.07,6.23l0.47-0.881L79.18,63.21z M86.87,63.79l-0.341,0.83
	l0.061,0.021l0.34-0.83L86.87,63.79z M79.859,62.391L79.73,62.55l6.799,2.07l0.341-0.83L79.859,62.391z M85.45,67.029l-0.4,0.811
	l0.05,0.04l0.4-0.819L85.45,67.029z M79.391,62.96l-0.101,0.12l5.76,4.76l0.4-0.811L79.391,62.96z M87.55,62.02h-4.521l-2.539,0.24
	l6.72,0.67L87.55,62.02z M78.55,64.82l0.86,8.949l1.08,0.891L78.55,64.82z M83.63,70.51l-0.59,1.01l0.03,0.061l0.59-1.02
	L83.63,70.51z M78.96,63.48l-0.11,0.14l4.19,7.899l0.59-1.01L78.96,63.48z M86.18,65.43l-0.35,0.801l0.05,0.029l0.36-0.81
	L86.18,65.43z M79.609,62.689L79.5,62.83l6.33,3.4l0.35-0.801L79.609,62.689z M82.359,72.63c-0.379,0.601-0.609,0.92-0.609,0.92
	l-0.2,0.28l0.021,0.07l0.25-0.371c0,0,0.209-0.299,0.56-0.85L82.359,72.63z M78.721,63.779L78.58,63.95l2.97,9.88l0.2-0.28
	c0,0,0.23-0.319,0.609-0.92L78.721,63.779z M5.62,31.08l-0.06,0.1l0.06,0.66l0.08,0.04L5.62,31.08z M5.56,31.18l-0.31,0.51
	l0.37,0.15L5.56,31.18z M5.84,39.99l-0.93,1.13l0.06-0.01L5.88,40L5.84,39.99z M1.84,38.77c-0.31,0.89-0.6,1.8-0.85,2.73l3.92-0.38
	l0.93-1.13L1.84,38.77z M5.05,41.92l-4.27,0.42v0.01l4.2-0.41l1.76,1.46l0.43,4.44l0.08,0.01l-0.44-4.47L5.05,41.92z M4.98,41.94
	l-4.2,0.41c-0.25,1-0.45,2.03-0.61,3.08c-0.03,0.33-0.04,0.66-0.06,0.99l7.06,1.42L6.74,43.4L4.98,41.94z M0.62,54.35l0.18,1.03
	l5.17-0.5L0.62,54.35z M6.38,55.65L0.95,56.18l0.01,0.01l5.35-0.52l1.76,1.46l0.47,4.89h0.07l-0.47-4.91L6.38,55.65z M6.31,55.67
	l-5.35,0.52c0.41,2.041,0.94,3.99,1.53,5.83h6.05l-0.47-4.89L6.31,55.67z M7.71,69.38L5.44,69.6l0.01,0.01L7.63,69.4l1.76,1.459
	l0.22,2.221c-0.79,0.99-1.25,1.689-1.39,1.9l0.03,0.049c0,0,0.48-0.76,1.43-1.969L9.47,70.84L7.71,69.38z M7.63,69.4l-2.18,0.209
	c1.4,3.051,2.57,5.041,2.77,5.371c0.14-0.211,0.6-0.91,1.39-1.9l-0.22-2.221L7.63,69.4z M71.84,76.96l-1.88,0.181l-0.01,0.02
	l1.89-0.189V76.96z M71.84,76.971l-1.89,0.189l-2.08,3.91c0.44,0.68,0.909,1.39,1.42,2.09L71.84,76.971z M75.1,76.641l-1.56,0.149
	l-0.011,0.01l1.57-0.149V76.641z M75.1,76.65l-1.57,0.149l-2.569,8.55c0.63,0.771,1.3,1.51,1.99,2.2L75.1,76.65z M77.17,76.45
	l-0.6,0.06l-0.811,8.34c0.67-1.76,1.461-3.439,2.23-4.949V77.13L77.17,76.45z M67.811,77.35l-0.201,0.021l-0.01,0.021l0.2-0.021
	L67.811,77.35z M67.8,77.37l-0.2,0.021l-1.129,1.379l0.189,0.32L67.8,77.37z"/>
</svg>
