<?xml version="1.0" encoding="utf-8"?>
<!-- Generator: Adobe Illustrator 15.0.0, SVG Export Plug-In . SVG Version: 6.00 Build 0)  -->
<!DOCTYPE svg PUBLIC "-//W3C//DTD SVG 1.1//EN" "http://www.w3.org/Graphics/SVG/1.1/DTD/svg11.dtd">
<svg version="1.1" id="Layer_1" xmlns="http://www.w3.org/2000/svg" xmlns:xlink="http://www.w3.org/1999/xlink" x="0px" y="0px"
	 width="1900px" height="280px" viewBox="0 0 1900 280" enable-background="new 0 0 1900 280" xml:space="preserve">
<g>
	<radialGradient id="SVGID_1_" cx="430" cy="-66" r="1181.0208" gradientUnits="userSpaceOnUse">
		<stop  offset="0" style="stop-color:rgba(255,255,255,.2)"/>
		<stop  offset="1" style="stop-color:rgba(255,255,255,.35)"/>
	</radialGradient>
	<polygon fill-rule="evenodd" clip-rule="evenodd" fill="url(#SVGID_1_)" points="404.458,0 0,162.96 0,201.081 409.576,0 	"/>
	<radialGradient id="SVGID_2_" cx="430" cy="-66" r="1181.0208" gradientUnits="userSpaceOnUse">
		<stop  offset="0" style="stop-color:rgba(255,255,255,.2)"/>
		<stop  offset="1" style="stop-color:rgba(255,255,255,.35)"/>
	</radialGradient>
	<polygon fill-rule="evenodd" clip-rule="evenodd" fill="url(#SVGID_2_)" points="390.283,0 0,105.07 0,131.674 398.221,0 	"/>
	<radialGradient id="SVGID_3_" cx="430" cy="-66" r="1181.0208" gradientUnits="userSpaceOnUse">
		<stop  offset="0" style="stop-color:rgba(255,255,255,.2)"/>
		<stop  offset="1" style="stop-color:rgba(255,255,255,.35)"/>
	</radialGradient>
	<polygon fill-rule="evenodd" clip-rule="evenodd" fill="url(#SVGID_3_)" points="421.177,0 133.32,280 213.531,280 424.342,0 	"/>
	<radialGradient id="SVGID_4_" cx="430" cy="-66" r="1181.0208" gradientUnits="userSpaceOnUse">
		<stop  offset="0" style="stop-color:rgba(255,255,255,.2)"/>
		<stop  offset="1" style="stop-color:rgba(255,255,255,.35)"/>
	</radialGradient>
	<polygon fill-rule="evenodd" clip-rule="evenodd" fill="url(#SVGID_4_)" points="0,0 0,5.682 143.179,0 	"/>
	<radialGradient id="SVGID_5_" cx="430" cy="-66" r="1181.0208" gradientUnits="userSpaceOnUse">
		<stop  offset="0" style="stop-color:rgba(255,255,255,.2)"/>
		<stop  offset="1" style="stop-color:rgba(255,255,255,.35)"/>
	</radialGradient>
	<polygon fill-rule="evenodd" clip-rule="evenodd" fill="url(#SVGID_5_)" points="364.091,0 0,60.762 0,81.75 379.601,0 	"/>
	<radialGradient id="SVGID_6_" cx="430" cy="-66" r="1181.0208" gradientUnits="userSpaceOnUse">
		<stop  offset="0" style="stop-color:rgba(255,255,255,.2)"/>
		<stop  offset="1" style="stop-color:rgba(255,255,255,.35)"/>
	</radialGradient>
	<polygon fill-rule="evenodd" clip-rule="evenodd" fill="url(#SVGID_6_)" points="413.928,0 0,249.597 0,280 46.286,280 417.744,0 	
		"/>
	<radialGradient id="SVGID_7_" cx="430" cy="-66" r="1181.0208" gradientUnits="userSpaceOnUse">
		<stop  offset="0" style="stop-color:rgba(255,255,255,.2)"/>
		<stop  offset="1" style="stop-color:rgba(255,255,255,.35)"/>
	</radialGradient>
	<polygon fill-rule="evenodd" clip-rule="evenodd" fill="url(#SVGID_7_)" points="289.093,280 361.744,280 430.191,0 427.327,0 	"/>
	<radialGradient id="SVGID_8_" cx="430" cy="-66" r="1181.0208" gradientUnits="userSpaceOnUse">
		<stop  offset="0" style="stop-color:rgba(255,255,255,.2)"/>
		<stop  offset="1" style="stop-color:rgba(255,255,255,.35)"/>
	</radialGradient>
	<polygon fill-rule="evenodd" clip-rule="evenodd" fill="url(#SVGID_8_)" points="289.487,0 0,23.2 0,41.42 338.897,0 	"/>
	<radialGradient id="SVGID_9_" cx="430" cy="-66" r="1181.0208" gradientUnits="userSpaceOnUse">
		<stop  offset="0" style="stop-color:rgba(255,255,255,.2)"/>
		<stop  offset="1" style="stop-color:rgba(255,255,255,.35)"/>
	</radialGradient>
	<polygon fill-rule="evenodd" clip-rule="evenodd" fill="url(#SVGID_9_)" points="444.823,0 732.68,280 819.713,280 448.256,0 	"/>
	<radialGradient id="SVGID_10_" cx="430" cy="-66" r="1181.0208" gradientUnits="userSpaceOnUse">
		<stop  offset="0" style="stop-color:rgba(255,255,255,.2)"/>
		<stop  offset="1" style="stop-color:rgba(255,255,255,.35)"/>
	</radialGradient>
	<polygon fill-rule="evenodd" clip-rule="evenodd" fill="url(#SVGID_10_)" points="501.938,0 1900,233.324 1900,167.796 527.113,0 	
		"/>
	<radialGradient id="SVGID_11_" cx="430" cy="-66" r="1181.0208" gradientUnits="userSpaceOnUse">
		<stop  offset="0" style="stop-color:rgba(255,255,255,.2)"/>
		<stop  offset="1" style="stop-color:rgba(255,255,255,.35)"/>
	</radialGradient>
	<polygon fill-rule="evenodd" clip-rule="evenodd" fill="url(#SVGID_11_)" points="475.737,0 1515.783,280 1786.56,280 486.428,0 	
		"/>
	<radialGradient id="SVGID_12_" cx="430" cy="-66" r="1181.0208" gradientUnits="userSpaceOnUse">
		<stop  offset="0" style="stop-color:rgba(255,255,255,.2)"/>
		<stop  offset="1" style="stop-color:rgba(255,255,255,.35)"/>
	</radialGradient>
	<polygon fill-rule="evenodd" clip-rule="evenodd" fill="url(#SVGID_12_)" points="722.814,0 576.506,0 1900,106.068 1900,46.713 	
		"/>
	<radialGradient id="SVGID_13_" cx="430" cy="-66" r="1181.0208" gradientUnits="userSpaceOnUse">
		<stop  offset="0" style="stop-color:rgba(255,255,255,.2)"/>
		<stop  offset="1" style="stop-color:rgba(255,255,255,.35)"/>
	</radialGradient>
	<polygon fill-rule="evenodd" clip-rule="evenodd" fill="url(#SVGID_13_)" points="433,0 433,280 504.256,280 435.809,0 	"/>
	<radialGradient id="SVGID_14_" cx="430" cy="-66" r="1181.0208" gradientUnits="userSpaceOnUse">
		<stop  offset="0" style="stop-color:rgba(255,255,255,.2)"/>
		<stop  offset="1" style="stop-color:rgba(255,255,255,.35)"/>
	</radialGradient>
	<polygon fill-rule="evenodd" clip-rule="evenodd" fill="url(#SVGID_14_)" points="438.677,0 576.91,280 652.469,280 441.658,0 	"/>
	<radialGradient id="SVGID_15_" cx="430" cy="-66" r="1181.0208" gradientUnits="userSpaceOnUse">
		<stop  offset="0" style="stop-color:rgba(255,255,255,.2)"/>
		<stop  offset="1" style="stop-color:rgba(255,255,255,.35)"/>
	</radialGradient>
	<polygon fill-rule="evenodd" clip-rule="evenodd" fill="url(#SVGID_15_)" points="461.552,0 1156.493,280 1314.584,280 467.789,0 	
		"/>
	<radialGradient id="SVGID_16_" cx="430" cy="-66" r="1181.0208" gradientUnits="userSpaceOnUse">
		<stop  offset="0" style="stop-color:rgba(255,255,255,.2)"/>
		<stop  offset="1" style="stop-color:rgba(255,255,255,.35)"/>
	</radialGradient>
	<polygon fill-rule="evenodd" clip-rule="evenodd" fill="url(#SVGID_16_)" points="452.072,0 916.42,280 1026.75,280 456.424,0 	"/>
</g>
</svg>
