<?xml version="1.0" encoding="utf-8"?>
<!-- Generator: Adobe Illustrator 15.0.0, SVG Export Plug-In . SVG Version: 6.00 Build 0)  -->
<!DOCTYPE svg PUBLIC "-//W3C//DTD SVG 1.1//EN" "http://www.w3.org/Graphics/SVG/1.1/DTD/svg11.dtd">
<svg version="1.1" id="Layer_1" xmlns="http://www.w3.org/2000/svg" xmlns:xlink="http://www.w3.org/1999/xlink" x="0px" y="0px"
	 width="46px" height="50.474px" viewBox="0 0 46 50.474" enable-background="new 0 0 46 50.474" xml:space="preserve">
<path opacity="0.6" fill-rule="evenodd" clip-rule="evenodd" fill="#FFFFFF" d="M0.034,22.973C0.034,10.289,10.323,0,23.017,0
	C35.712,0,46,10.289,46,22.973c0,12.684-22.983,26.904-22.983,26.904S0.034,35.657,0.034,22.973z"/>
<polygon fill-rule="evenodd" clip-rule="evenodd" fill="#010202" points="23.017,50.474 31.294,42.391 14.74,42.391 "/>
<path fill-rule="evenodd" clip-rule="evenodd" fill="#008D36" d="M2.968,22.983c0,11.071,20.048,26.894,20.048,26.894
	s20.05-15.823,20.05-26.894S34.089,2.934,23.017,2.934C11.946,2.934,2.968,11.912,2.968,22.983z M14.704,22.005
	c0-4.587,3.726-8.313,8.312-8.313c4.587,0,8.313,3.726,8.313,8.313c0,4.586-3.727,8.312-8.313,8.312
	C18.43,30.317,14.704,26.591,14.704,22.005z"/>
<radialGradient id="SVGID_1_" cx="23.0171" cy="21.8428" r="21.5665" gradientTransform="matrix(-1 0 0 -1.2 46.0342 48.0541)" gradientUnits="userSpaceOnUse">
	<stop  offset="0" style="stop-color:#DEDC00"/>
	<stop  offset="1" style="stop-color:#008D36"/>
</radialGradient>
<path fill-rule="evenodd" clip-rule="evenodd" fill="url(#SVGID_1_)" d="M22.274,2.943l0.675,10.749h0.068
	c0.352,0,0.705,0.02,1.047,0.068l0.675-10.758c-0.567-0.04-1.145-0.068-1.722-0.068C22.772,2.934,22.528,2.943,22.274,2.943z
	 M27.154,3.364L25.13,13.956c0.361,0.098,0.703,0.215,1.036,0.352L29.512,4.01C28.748,3.746,27.955,3.53,27.154,3.364z M31.77,4.938
	l-4.636,9.839c0.313,0.186,0.607,0.381,0.89,0.587l5.858-9.232C33.208,5.702,32.493,5.291,31.77,4.938z M35.838,7.58l-7.012,8.479
	c0.254,0.244,0.489,0.499,0.705,0.772l8.077-7.589C37.061,8.655,36.465,8.098,35.838,7.58z M39.173,11.11l-9.046,6.572
	c0.176,0.293,0.332,0.596,0.479,0.909l9.887-5.437C40.092,12.45,39.652,11.765,39.173,11.11z M41.559,15.345L30.958,19.54
	c0.099,0.323,0.176,0.646,0.234,0.978l11.159-2.866C42.136,16.87,41.872,16.098,41.559,15.345z M42.859,20.049l-11.548,1.458
	c0.009,0.166,0.019,0.332,0.019,0.499c0,0.166-0.01,0.323-0.019,0.489h11.745C43.037,21.662,42.969,20.851,42.859,20.049z
	 M42.869,24.938l-11.667-1.477c-0.058,0.323-0.136,0.646-0.224,0.949l11.226,2.885C42.499,26.493,42.733,25.712,42.869,24.938z
	 M41.248,29.516L30.645,25.32c-0.126,0.293-0.273,0.587-0.439,0.86l9.877,5.428C40.503,30.913,40.895,30.211,41.248,29.516z
	 M38.781,33.594l-9.094-6.611c-0.196,0.254-0.401,0.499-0.627,0.733l8.313,7.805C37.863,34.885,38.342,34.249,38.781,33.594z
	 M35.848,37.418l-7.48-9.047c-0.244,0.206-0.5,0.401-0.773,0.577l6.592,10.377C34.753,38.709,35.311,38.063,35.848,37.418z
	 M32.355,41.301l-5.593-11.873c-0.284,0.146-0.576,0.273-0.88,0.382l4.41,13.573C30.967,42.718,31.662,42.024,32.355,41.301z
	 M27.927,45.633l-2.974-15.541c-0.312,0.069-0.636,0.128-0.958,0.167l1.125,17.868C25.901,47.451,26.86,46.611,27.927,45.633z
	 M21.843,48.918l1.173-18.601c-0.332,0-0.665-0.019-0.998-0.059l-3.071,16.137C20.122,47.451,21.129,48.312,21.843,48.918z
	 M16.484,44.098l4.558-14.015c-0.333-0.079-0.646-0.176-0.968-0.303l-5.741,12.194C15.066,42.728,15.79,43.433,16.484,44.098z
	 M12.416,39.96l6.729-10.592c-0.303-0.166-0.596-0.342-0.88-0.546l-7.59,9.172C11.252,38.67,11.829,39.325,12.416,39.96z
	 M9.061,36.048l8.391-7.862c-0.264-0.244-0.509-0.488-0.744-0.763l-9.134,6.641C8.054,34.737,8.552,35.403,9.061,36.048z
	 M6.195,32.01l9.878-5.429c-0.195-0.303-0.372-0.605-0.538-0.938L4.953,29.838C5.325,30.562,5.746,31.286,6.195,32.01z M3.907,27.53
	l11.218-2.885c-0.108-0.342-0.196-0.694-0.264-1.056L3.184,25.057C3.34,25.868,3.584,26.689,3.907,27.53z M2.978,22.494h11.746
	c-0.01-0.166-0.02-0.323-0.02-0.489c0-0.206,0.009-0.421,0.029-0.626l-11.54-1.447C3.066,20.763,2.997,21.623,2.978,22.494z
	 M3.741,17.428l11.14,2.856c0.078-0.372,0.186-0.733,0.312-1.086L4.611,15.012C4.269,15.794,3.985,16.597,3.741,17.428z
	 M5.765,12.743l9.877,5.428c0.176-0.332,0.372-0.655,0.587-0.958L7.203,10.65C6.684,11.315,6.206,12.009,5.765,12.743z M8.875,8.763
	l8.068,7.57c0.254-0.274,0.538-0.538,0.832-0.772L10.772,7.1C10.107,7.619,9.472,8.176,8.875,8.763z M12.846,5.702l5.838,9.203
	c0.323-0.196,0.656-0.372,0.998-0.528l-4.606-9.81C14.303,4.899,13.56,5.281,12.846,5.702z M17.413,3.736l3.335,10.269
	c0.352-0.097,0.724-0.176,1.095-0.234L19.819,3.188C18.998,3.315,18.195,3.501,17.413,3.736z"/>
<path fill="#007E30" d="M23.017,3.934c10.504,0,19.05,8.545,19.05,19.049c0,9.393-15.706,22.848-19.05,25.604
	C19.673,45.831,3.968,32.376,3.968,22.983C3.968,12.479,12.513,3.934,23.017,3.934 M23.017,31.317c5.136,0,9.313-4.178,9.313-9.312
	c0-5.135-4.178-9.313-9.313-9.313c-5.135,0-9.312,4.178-9.312,9.313C13.704,27.14,17.882,31.317,23.017,31.317 M23.017,2.934
	c-11.07,0-20.048,8.978-20.048,20.049c0,11.07,20.048,26.894,20.048,26.894s20.05-15.823,20.05-26.894
	C43.066,11.912,34.089,2.934,23.017,2.934L23.017,2.934z M23.017,30.317c-4.586,0-8.312-3.727-8.312-8.312
	c0-4.587,3.726-8.313,8.312-8.313c4.587,0,8.313,3.726,8.313,8.313C31.33,26.591,27.604,30.317,23.017,30.317L23.017,30.317z"/>
</svg>
