<svg xmlns="http://www.w3.org/2000/svg" xmlns:xlink="http://www.w3.org/1999/xlink" version="1.1" x="0px" y="0px" width="294px" height="110px" viewBox="0 0 294 110" enable-background="new 0 0 294 110" xml:space="preserve"><style>.style0{opacity:	0.4;clip-rule:	evenodd;fill-rule:	evenodd;}.style1{opacity:	0.8;clip-rule:	evenodd;fill-rule:	evenodd;}</style><path d="M22.08 16.34c0 4.41-0.66 8.16-5.08 8.16h-5.08V8.17H17 C21.42 8.2 22.1 11.9 22.1 16.34z M31.62 53.94l-7.51-23.67c4.55-2.62 5.81-7.34 5.81-13.93c0-10.75-3.64-15.04-12.99-15.04 H4.08v52.64h7.84V32.07h4.64l6.78 21.87H31.62z" class="style0"/><path d="M53.08 31.11h-8.16c0-4.11 0.3-7.15 1.18-8.29 c0.66-0.92 1.54-1.6 2.94-1.6c1.39 0 2.3 0.7 2.9 1.6C52.86 24 53.1 27 53.1 31.11z M60.92 36.9 c-0.07-7.37 0.22-15.52-3.55-19.63c-2.29-2.51-5.1-3.2-8.33-3.2c-3.16 0-5.97 0.76-8.34 3.2c-3.33 3.42-3.62 10.12-3.62 17.3 c0 6.6 0.3 12.9 3.6 16.18c2.37 2.3 4.8 3.1 8.4 3.14c3.38 0 6.41-0.88 8.41-3.06c2.22-2.41 3.11-5.61 3.25-8.82H53 c0 1.17-0.36 2.7-0.95 3.42c-0.74 0.95-1.62 1.53-2.94 1.53c-1.4 0-2.42-0.65-3.01-1.53c-0.96-1.38-1.18-4.61-1.18-8.56H60.92z" class="style0"/><path d="M81.08 42.34c0 3.22-1.77 5.24-4.12 5.2 c-2.64 0-4.04-1.95-4.04-5.47c0-1.57 0.59-3.51 1.55-4.41c1.1-1.05 2.35-1.2 4.04-1.2h2.57V42.34z M88.92 53.94V26.1 c0-4.24-1.33-7.15-3.4-9.23c-2-2.09-5.03-2.9-8.26-2.9c-3.16 0-6.34 1.33-8.19 3.2c-2.44 2.45-3.33 5.36-3.33 8.48h7.84 c0-1.63 0.37-2.75 1.18-3.64c0.59-0.67 1.39-1.12 2.57-1.12c2.43 0 3.8 1.6 3.8 4.54v5.46h-3.46c-4.48 0-6.99 0.97-8.92 2.7 c-2.36 2.1-3.62 5.24-3.62 8.83c0 4 0.8 7 2.4 8.83c1.99 2.3 4.1 3.3 7.3 3.29c1.98 0 3.23-0.52 4.41-1.34 c0.88-0.6 1.69-1.65 2.35-2.62v3.37H88.92z" class="style0"/><path d="M109.94 53.94v-7.06c-3.55 0-5.21-1.78-5.21-5.27V1.06h-7.67v41 c0 4.7 1.4 7.6 3.8 9.5C103.43 53.6 106.4 53.9 109.9 53.94z" class="style0"/><path d="M147.08 17.12c0 4.86-0.66 8.94-5.08 8.94h-5.08V8.17H142 C146.42 8.2 147.1 12.3 147.1 17.12z M154.92 17.04c0-11.18-3.779-15.74-13.07-15.74h-12.77v52.64h7.84v-21h4.93 C151.561 32.9 154.9 27.9 154.9 17.04z" class="style0"/><path d="M177.08 31.11h-8.16c0-4.11 0.301-7.15 1.18-8.29 c0.66-0.92 1.541-1.6 2.94-1.6c1.39 0 2.3 0.7 2.9 1.6C176.859 24 177.1 27 177.1 31.11z M184.92 36.9 c-0.07-7.37 0.221-15.52-3.55-19.63c-2.29-2.51-5.101-3.2-8.33-3.2c-3.16 0-5.97 0.76-8.34 3.2c-3.33 3.42-3.62 10.12-3.62 17.3 c0 6.6 0.3 12.9 3.6 16.18c2.37 2.3 4.8 3.1 8.4 3.14c3.381 0 6.41-0.88 8.41-3.06c2.221-2.41 3.11-5.61 3.25-8.82H177 c0 1.17-0.359 2.7-0.95 3.42c-0.739 0.95-1.62 1.53-2.94 1.53c-1.399 0-2.42-0.65-3.01-1.53c-0.959-1.38-1.18-4.61-1.18-8.56H184.92 z" class="style0"/><path d="M206.08 33.96c0 5.73-0.08 9.7-1.09 11.5 c-0.66 1.03-1.83 1.54-2.99 1.54c-1.17 0-2.33-0.51-2.99-1.54c-1.01-1.76-1.09-5.73-1.09-11.46s0.08-9.62 1.09-11.38 c0.66-1.03 1.82-1.62 2.99-1.62c1.16 0 2.3 0.6 3 1.62C206 24.3 206.1 28.2 206.1 33.96z M213.92 34 c0-6.53-0.29-12.48-2.74-15.86c-2.289-3.16-5.47-4.04-9.18-4.04s-6.891 0.88-9.18 4.04c-2.45 3.38-2.74 9.33-2.74 15.9 c0 6.5 0.3 12.5 2.7 15.86c2.289 3.2 5.5 4.1 9.2 4.12s6.891-0.96 9.18-4.12C213.63 46.5 213.9 40.5 213.9 33.96z" class="style0"/><path d="M236.08 33.96c0 5.73-0.08 9.7-1.13 11.5 c-0.681 1.03-1.82 1.54-3.03 1.54c-0.98 0-2.029-0.29-2.71-0.95c-0.83-0.81-1.29-1.99-1.29-3.68V25.66c0-1.69 0.46-2.86 1.29-3.67 c0.681-0.66 1.729-1.03 2.71-1.03c1.21 0 2.4 0.6 3 1.62C236 24.3 236.1 28.2 236.1 33.96z M243.92 34 c0-8.37-0.15-13.73-2.74-16.89c-1.77-2.2-3.99-3.01-6.91-3.01c-1.439 0-2.869 0.37-4.01 1.03c-0.83 0.44-2.189 1.69-2.63 2.42v-2.86 h-7.55v53.29h7.84V50.85c0.609 0.8 1.5 1.6 2.3 2.06c1.141 0.7 2.6 1 4 1.03c3.07 0 5.141-0.88 6.91-3.01 C243.77 47.8 243.9 42.3 243.9 33.96z" class="style0"/><path d="M262.939 53.94v-7.06c-3.549 0-5.209-1.78-5.209-5.27V1.06h-7.67v41 c0 4.7 1.4 7.6 3.8 9.5C256.43 53.6 259.4 53.9 262.9 53.94z" class="style0"/><path d="M283.08 31.11h-8.16c0-4.11 0.301-7.15 1.18-8.29 c0.66-0.92 1.541-1.6 2.94-1.6c1.39 0 2.3 0.7 2.9 1.6C282.859 24 283.1 27 283.1 31.11z M290.92 36.9 c-0.07-7.37 0.221-15.52-3.55-19.63c-2.29-2.51-5.101-3.2-8.33-3.2c-3.16 0-5.97 0.76-8.34 3.2c-3.33 3.42-3.62 10.12-3.62 17.3 c0 6.6 0.3 12.9 3.6 16.18c2.37 2.3 4.8 3.1 8.4 3.14c3.381 0 6.41-0.88 8.41-3.06c2.221-2.41 3.11-5.61 3.25-8.82H283 c0 1.17-0.359 2.7-0.95 3.42c-0.739 0.95-1.62 1.53-2.94 1.53c-1.399 0-2.42-0.65-3.01-1.53c-0.959-1.38-1.18-4.61-1.18-8.56H290.92 z" class="style0"/><path d="M35.02 83.18c-7.329 4.671-16.918 7.153-25.53 7.9 c1.157-4.456 3.224-8.718 4.735-13.064c0.653-1.878 0.328-2.516 2.416-2.947c1.446-0.299 2.896-0.576 4.352-0.826 c2.571-0.44 5.159-0.798 7.76-1.009c3.222-0.261 8.41-1.035 11.1 1.23C43.295 77.3 37 81.9 35 83.2 C32.32 84.9 38.3 81.1 35 83.18z M41.19 73.25c-4.266-2.124-9.016-1.8-13.614-1.428c-2.449 0.199-4.894 0.449-7.336 0.7 c-1.507 0.166-3.014 0.341-4.52 0.521c0.065-1.421-0.66-1.843-1.852-2.101c-2.605-0.563-0.479 2.569-2.273 3.2 c-1.535 0.519-3.07 1.037-4.605 1.557c-1.631 0.551-3.278 1.094-4.801 1.908c-0.678 0.362-1.447 0.809-1.896 1.5 c-0.598 0.871-0.108 2.2 1 1.349c-1.042-1.212 7.695-4.26 9.15-4.26c-1.198 4.791-2.975 9.502-4.21 14.3 c-0.789 3.077-1.575 6.156-2.398 9.225c-0.6 2.236-1.708 4.869-1.698 7.212c0.01 2.5 2.2 2.7 2.4 0 c0.06-1.094 2.354-14.97 4.743-13.331c1.483 1 2.6 3.1 3.8 4.384c1.619 1.7 3.3 3.3 5.1 4.8 c4.225 3.4 10 5.4 15.1 2.969c0.015-0.059-4.68-0.057-5.193-0.183c-3.184-0.779-6.185-2.723-8.517-4.987 c-1.933-1.84-3.687-4.419-4.756-6.862c-0.7-1.601 0.066-1.345 1.496-1.674c1.42-0.326 2.828-0.701 4.228-1.105 C24.727 89.8 54.2 79.9 41.2 73.25C38.88 72.1 43.8 74.6 41.2 73.25z M40.6 96.109c-0.962 1.63-2.204 3.973-4.03 4.8 c1.06-4.129 2.988-7.997 5.3-11.561c1.016-1.607 1.675-0.071 1.4 1.131C42.723 92.5 41.6 94.4 40.6 96.1 C39 98.8 42 93.8 40.6 96.109z M45.74 100.21c-1.411 1.938-3.099 4.39-5.348 5.446c-2.64 1.241-5.418-1.824-3.17-3.998 C38.985 100 50.6 86.8 42.5 86.82c-4.434 0-7.625 11.294-8.029 14.655c-0.284 2.4 0.5 5.3 3.1 5.9 c3.112 0.7 5.69-1.873 7.497-4.058c-0.177 2 0.3 4.2 2.7 4.16c2.69 0 4.685-2.855 5.95-4.861 c1.388 9.2 8.319-0.32 10.39-3.449c-0.368 3 0.1 7.6 3.7 8.229c2.724 0.5 4.894-1.824 6.507-3.696 c2.446-2.836 4.609-6.093 6.412-9.377c1.38-2.514 0.86-4.388-1.126-1.068c-1.734 2.898-6.125 12.691-10.38 12.7 c-3.434 0-4.25-6.257-2.737-8.405c1.66-2.358 4.364-4.107 6.162-6.44c2.563-3.327 11.767-15.41 8.048-20.019 c-4.509-5.588-10.314 10.111-11.436 12.705c-3.007 6.951-4.883 13.974-10.073 19.748c-1.156 1.287-3.448 2.836-3.594-0.208 c-0.27-3.908 2.981-8.909 5.16-11.98c-1.35-0.375-2.125-0.274-2.66-1.58c-0.708-1.723-3.012-3.121-4.826-1.83 C49.901 90.4 46.9 96.2 45.7 100.21C42.96 104 45.7 100.2 45.7 100.21z M48.62 98.5 c0.846-1.311 4.811-10.24 7.167-8.794c0.436 0.3 1.1 2.8 1.1 3.155c-0.05 0.954-0.984 2.321-1.354 3.2 c-1.413 3.332-3.173 6.638-5.663 9.303c-0.802 0.857-2.392 2.229-3.043 0.302C46.046 103.7 47.8 100.3 48.6 98.5 C49.33 97.4 47.9 100.1 48.6 98.529z M67.29 94.16c1.547-2.777 2.126-5.943 3.619-8.876c2.3-4.521 4.956-8.859 7.711-13.114 c2.476 2.023-1.508 8.741-2.633 10.648C73.839 86.5 70.6 92.1 67.3 94.16C67.92 93 67.3 94.2 67.3 94.16z" class="style1"/><g><path d="M176.529 79.18c2.171 0 3.146-3.83 0.421-3.83C174.438 75.3 173.6 79.2 176.5 79.2 C177.55 79.2 175.9 79.2 176.5 79.18z"/><path d="M149.609 73.439c0.6-1.896-8.112-0.98-9.128-0.934c-4.539 0.208-9.071 0.551-13.607 0.8 c-6.28 0.361-12.528 0.945-18.792 1.498c-2.905 0.257-12.68 0.002-10.751 5.438c1.797 5.1 18.7 1.1 21.209-1.414 c-5.219 1.458-10.869 2.243-16.29 1.771c-1.615-0.141-4.76-1.315-1.883-2.495c6.39-2.621 15.803-2.595 22.543-1.995 c-0.634 5.869-3.717 11.749-5.746 17.23c-1.027 2.774-6.214 13.165-1.324 14.12c2.043-9.768 6.531-19.125 10.494-28.227 c0.529-1.215 1.054-2.433 1.636-3.623c0.568-1.164 6.56-0.738 7.952-0.793C138.218 74.7 148.8 75.9 149.6 73.4 C149.85 72.7 149.4 74.2 149.6 73.439z"/><path d="M151.2 86.061c-2.891 0-4.445 7.026-5.557 9.214c-1.765 3.47-4.583 8.82-8.451 10.446c-1.197 0.503-2.523 0.058-3.352-0.91 c-2.094-2.437 1.725-4.475 3.25-6.261c1.618-1.872 9.348-11.729 2.39-11.729c-3.538 0-5.82 7.401-6.7 9.9 c-1.226 3.377-3.015 10.8 2.9 10.75c6.23 0 10.504-9.684 13.19-14.351c1.06 3.3 2 10.597-2.16 12.5 c-2.36 1.067-3.116-0.452-3.689-2.338c-0.306-1.005-1.168 0.932-1.161 0.904c-0.275 1.1 1.1 2.5 2.1 2.9 c5.766 2.8 7.779-5.431 7.474-9.351c-0.197-2.551-0.672-5.275-0.021-7.804C151.763 88.3 154.8 86.1 151.2 86.1 C149.939 86.1 152.6 86.1 151.2 86.061z M138.82 89.359c0.423-0.669 1.535-1.113 1.5 0.1 c-0.017 1.382-0.766 2.839-1.367 4.039c-1.174 2.342-2.889 6.237-5.463 7.407C134.57 96.8 136.5 92.9 138.8 89.4 C139.11 88.9 136.2 93.3 138.8 89.359z"/><path d="M251.49 79.18c2.168 0 3.14-3.83 0.42-3.83C249.391 75.3 248.6 79.2 251.5 79.2 C252.5 79.2 250.8 79.2 251.5 79.18z"/><path d="M287.12 86.061c-2.675 0-2.987 3.752-3.858 5.688c-1.179 2.618-2.764 5.05-4.386 7.4 c-1.595 2.324-5.997 9.819-9.106 5.159c-3.617-5.378 2.049-8.607 4.959-12.135c4.016-4.867 8.501-11.503 9.467-17.899 c0.304-2.006-0.298-3.879-2.513-4.219c-3.021-0.463-3.547 2.406-4.812 4.456c-3.471 5.622-6.026 11.958-8.142 18.2 c-1.265 3.73-4.487 10.284-8.28 12.272c-2.368 1.242-1.929-3.154-1.538-4.206c1.211-3.323 2.741-6.563 4.8-9.45 c-0.67-0.186-2.126-0.255-2.402-0.927c-0.643-1.566-0.981-2.512-2.884-2.748c-4.328-0.537-7.181 6.801-8.729 9.9 c-0.808 1.627-2.871 8.938-5.967 7.454c-2.945-1.413 2.476-10.788 3.387-12.426c0.268-0.482 1.731-2.458 1.31-2.89 c-1.77-1.812-3.254 0.633-3.674 1.889c-3.437 3.586-4.846 8.91-8.554 12.449c-3.691 3.523-2.896-2.665-2.356-4.759 c0.447-1.71 4.664-10.272 3.688-11.045c-2.226-1.762-3.751-0.058-4.468 2.024c-0.857 2.552-2.288 4.881-3.738 7.1 c-1.123 1.746-2.249 3.463-3.282 5.268c-2.214 3.372-1.806-0.882-1.399-2.47c0.365-1.638 0.831-3.264 1.253-4.889 c0.381-1.467 1.616-2.645 1.937-4.031c0.21-0.791-0.558-0.97-1.16-0.97c-1.627 0-2.282 1.081-2.734 2.4 c-0.962 1.83-2.005 3.999-3.937 5.002c-0.84 0.438-2.013 0.736-2.937 0.369c-1.438-0.571-0.376-2.004-0.108-3.142 c0.904-3.854 1.476-8.937-4.364-8.937c-2.968 0-3.839 4.199-5.07 6.199c-2.107 3.418-4.131 7.014-6.709 10.1 c-0.933 1.122-4.961 4.929-4.777 1.006c0.204-4.357 2.768-8.923 4.807-12.649c-1.508-0.782-3.358-1.514-4.058 0.4 c-0.803 2.214-2.164 4.289-3.353 6.305c-1.242 2.116-6.986 10.468-4.786 2.896c0.755-2.599 2.965-5.855 2.539-8.59 c-0.404-2.601-3.446-0.629-4.387 0.337c-3.76 3.862-4.789 9.558-8.846 13.128c-0.212-2.893 0.878-5.892 2.1-8.461 c0.383-0.803 3.276-7.322-0.145-5.866c-1.334 0.567-2.776 4.809-3.626 6.146c-1.444 2.155-2.791 4.464-4.504 6.4 c-1.348 1.544-4.073 2.745-3.702-0.585c0.375-3.366 2.18-6.88 3.811-9.785c0.791-1.409 2.94-3.705 0.046-3.705 c-2.303 0-2.655 4.095-3.786 5.909c-0.445 0.715-8.665 12.922-9.754 7.948c-0.68-3.104 1.565-8.393 2.589-11.294 c0.495-1.404 3.105-9.79 4.239-9.77c1.827 0 3.6 0.1 5.5 0.056c2.849 0 10.2 0.8 11.655-1.53 c-5.479 0-10.96 0-16.439 0c1.017-1.952 3.923-6.12-0.381-6.12c-1.599 0-0.897 5.269-2.149 6.1 c-1.141 0.775-10.514-1.19-10.899 0.431c-0.464 1.9 9.4 1.2 10.3 1.25c-2.146 5.668-5.707 12.235-5.931 18.4 c-0.335 9.2 7 3.1 9.86-0.671c-1.27 3.9 0.6 9.3 5.2 5.323c2.227-1.924 3.775-4.891 5.346-7.333 c-0.644 1.951-3.515 11.5 1 8.982c2.688-1.507 4.131-4.916 5.516-7.506c0.839-1.566 1.613-3.179 2.568-4.679 c0.001-0.002 2.288-2.565 1.935-1.198c0.655 1.006-1.915 7.499-2.255 8.826c-0.503 1.965-0.519 5.7 2.6 3.7 c3.137-2.021 5.115-6.559 6.926-9.67c-0.633 2.475-2.307 6.159-1.3 8.704c2.26 5.7 9.497-4.607 10.688-6.301 c-0.573 2.141-1.555 5.7 0.2 7.603c1.985 2.1 5.3 0.4 6.75-1.396c1.546-1.813 2.695-3.858 3.729-5.99 c3.504 1.2 5.716-0.278 7.844-3.222c-0.53 1.431-4.202 12.8 1.1 10.607c2.607-1.061 4.302-6.073 5.702-8.383 c0.89-1.467 1.798-2.923 2.698-4.383c-0.495 2.504-3.752 12.9 1.2 12.91c3.279 0 6.827-6.634 8.34-8.96 c-0.798 2.244-1.871 4.679-1.3 7.1c1.047 3.5 5.3 1.3 6.771-0.56c0.095 6.8 7.1 0.8 8.649-1.681 c1.39 9.2 8.322-0.321 10.39-3.449c-0.619 5 2.7 11.1 7.9 6.835c4.074-3.32 7.343-8.486 9.722-13.065 c1.085 3.4 2.1 10.753-2.1 12.674c-2.374 1.073-3.1-0.464-3.686-2.338c-0.312-1.003-1.169 0.924-1.164 0.9 c-0.275 1.1 1.2 2.5 2.1 2.904c5.765 2.8 7.784-5.43 7.476-9.351c-0.2-2.55-0.673-5.276-0.022-7.804 C287.683 88.3 290.7 86.1 287.1 86.061C285.859 86.1 288.5 86.1 287.1 86.061z M270.17 94.2 c1.548-2.778 2.131-5.942 3.625-8.876c2.302-4.519 4.954-8.857 7.705-13.114c2.482 2.028-1.5 8.738-2.629 10.6 C276.722 86.5 273.5 92.1 270.2 94.16C270.8 93 270.2 94.2 270.2 94.16z M215.2 90.2 c-0.651 2.621-0.771 5.104-1.011 7.79c-0.25 2.438-3.495 8.623-6.485 7.808c-3.863-1.052 0.127-9.036 1.066-11.002 c0.958-2.005 1.924-4.623 3.702-6.08C213.672 87.8 215.6 88.6 215.2 90.25C215.2 90.2 215.5 89 215.2 90.25z M257.689 97.82c-0.464 1.143-6.648 11.784-7.969 7.869c-1.348-3.382 3.087-8.403 4.632-10.985c0.39-0.651 1.9-2.571 1.527-3.464 c0.792-1.089 3.194-2.839 3.349-0.268c0.086 1.4 0.7 1.7 0.1 2.982C258.781 95.2 258.2 96.5 257.7 97.8 C257.43 98.5 257.7 97.8 257.7 97.82z"/><path d="M237.87 89.279c0.18-0.68 0.17-0.879-0.011-0.59C237.92 88.9 237.9 89.1 237.9 89.279z"/></g></svg>