<svg xmlns="http://www.w3.org/2000/svg" version="1.1" id="Layer_1" x="0" y="0" width="52" height="52" viewBox="0 0 52 52" enable-background="new 0 0 52 52" xml:space="preserve" class="accommodations-icon">
  <path opacity="0.75" fill="#FFFFFF" d="M43.46 35.86V45h4.76V31.35H8.24v-19.77c0-1.33-1.05-2.41-2.37-2.41 -1.31 0-2.37 1.08-2.37 2.41V45h4.74v-9.14H43.46z"/>
  <path fill="#FFFFFF" d="M15.52 21.21c2.37 0 4.28-1.95 4.28-4.36 0-2.39-1.91-4.32-4.28-4.32 -2.37 0-4.3 1.93-4.3 4.32C11.22 19.26 13.16 21.21 15.52 21.21z"/>
  <path fill="#FFFFFF" d="M48.29 27.74l-0.02-5.97c0-1.89-1.59-3.19-3.41-3.42L24.54 14.96c-0.06-0.02-0.12-0.06-0.18-0.06 -1.17 0-2.11 0.98-2.11 2.15v6.43h-8.82c-1.17 0-2.11 0.96-2.11 2.13 0 1.2 0.93 2.13 2.11 2.13H48.29L48.29 27.74z"/>
</svg>
