<svg xmlns="http://www.w3.org/2000/svg" xmlns:xlink="http://www.w3.org/1999/xlink" version="1.1" id="Layer_1" x="0" y="0" width="52" height="52" viewBox="0 0 52 52" enable-background="new 0 0 52 52" xml:space="preserve" class="rentals-icon">
  <path fill="#FFFFFF" d="M47 29.28c0 0.34-0.1 0.64-0.32 0.88l-7 8.34c-0.3 0.34-0.66 0.5-1.08 0.5 -0.42 0-0.78-0.16-1.06-0.5l-7-8.34c-0.24-0.24-0.34-0.54-0.34-0.88 0-0.38 0.14-0.7 0.42-0.98C30.9 28.02 31.22 27.88 31.6 27.88h4.2v-8.32h-12.6c-0.24 0-0.42-0.1-0.54-0.26l-3.5-4.18C19.06 15 19 14.86 19 14.7c0-0.2 0.08-0.36 0.2-0.5C19.34 14.06 19.52 14 19.7 14h18.42c3.26 0 3.28 3.56 3.28 3.56v1.3 9.02h4.2c0.38 0 0.72 0.14 0.98 0.42C46.86 28.58 47 28.9 47 29.28z"/>
  <path opacity="0.75" fill="#FFFFFF" d="M33 38.3c0 0.2-0.06 0.36-0.2 0.5S32.48 39 32.3 39H14.24c-3.62 0-3.64-3.46-3.64-3.46v-1.4V25.1H6.4c-0.38 0-0.7-0.12-0.98-0.4C5.14 24.42 5 24.1 5 23.72c0-0.34 0.1-0.64 0.32-0.88l7-8.34c0.28-0.32 0.64-0.48 1.08-0.48 0.44 0 0.8 0.16 1.08 0.48l7 8.34c0.22 0.24 0.32 0.54 0.32 0.88 0 0.38-0.14 0.7-0.42 0.98C21.1 24.98 20.78 25.1 20.4 25.1h-4.2v8.34h12.6c0.24 0 0.42 0.08 0.54 0.24l3.5 4.16C32.94 38 33 38.16 33 38.3z"/>
</svg>
