<svg xmlns="http://www.w3.org/2000/svg" xmlns:xlink="http://www.w3.org/1999/xlink" version="1.1" id="Layer_1" x="0" y="0" width="52" height="52" viewBox="0 0 52 52" enable-background="new 0 0 52 52" xml:space="preserve" class="tours-icon">
  <path fill="#FFFFFF" d="M19.34 35.59l12.33-6.17V16.41l-12.33 6.15V35.59zM22.43 24.45l6.15 3.07 -6.15 3.09V24.45z"/>
  <path opacity="0.75" fill="#FFFFFF" d="M25.5 7.99c-10.1 0-17.86 7.81-17.86 18.01 0 10.18 7.76 18.01 17.86 18.01 10.68 0 18.85-7.83 18.85-18.01C44.35 15.8 36.19 7.99 25.5 7.99zM25.5 39.07c-7.19 0-12.92-5.86-12.92-13.07s5.73-13.07 12.92-13.07c7.36 0 13.91 5.86 13.91 13.07S32.86 39.07 25.5 39.07z"/>
</svg>
