<svg xmlns="http://www.w3.org/2000/svg" version="1.1" x="0" y="0" width="330" height="144.5" viewBox="0 0 330 144.5" enable-background="new 0 0 330 144.486" xml:space="preserve"><path d="M131.7 49h22.5v2.4h-7.2l15.1 43.2h0.2l8.8-25.7 -5.9-17.6h-6.7v-2.4h27.9v2.4h-10.6l14.8 43.2h0.2l15.3-43.2h-9.2v-2.4h15.1v2.4h-2.5l-19.8 55.2h-5.8l-11.3-33.3h-0.2l-11.7 33.3h-5.6l-19.1-55.2h-4.3V49z"/><path d="M214.4 68.3V50.1c2.9-1.2 5.8-2.2 8.5-2.9 2.8-0.7 5.7-1.1 8.7-1.1 3.5 0 6.6 0.4 9.1 1.3 2.5 0.9 4.7 2 6.4 3.3 1.7 1.4 2.9 2.9 3.7 4.6 0.8 1.7 1.2 3.4 1.2 5.2v42.1h5.4V105h-15.2v-9.9h-0.3c-1.4 3.5-3.5 6.4-6.5 8.5 -3 2.1-6.5 3.2-10.6 3.2 -5.1 0-9.2-1.4-12.4-4.1 -3.2-2.7-4.7-6.6-4.7-11.5 0-3.3 0.6-5.9 1.7-7.9 1.2-2 2.7-3.6 4.7-4.7 2-1.2 4.2-2 6.6-2.6 2.4-0.6 4.9-1.1 7.5-1.5 2.6-0.4 5.1-1 7.5-1.5 2.4-0.6 4.6-1.4 6.5-2.5V58.5c0-3.6-0.9-6.2-2.7-7.7 -1.8-1.5-4.2-2.3-7.2-2.3 -2 0-3.6 0.3-5 0.9 -1.4 0.6-2.6 1.6-3.7 3.1 -1.1 1.5-2.2 3.5-3.2 6.1 -1.1 2.6-2.3 5.8-3.6 9.7H214.4zM242.1 73.3c-3.2 1.5-6.1 2.5-9 3 -2.8 0.5-5.3 1.2-7.4 2.1 -2.1 0.9-3.8 2.2-5 4 -1.2 1.8-1.9 4.7-1.9 8.8 0 4.3 0.8 7.3 2.3 9 1.5 1.7 3.8 2.6 6.8 2.6 4.3-0.2 7.7-2.1 10.2-5.9 2.6-3.8 3.8-8.8 3.8-15V73.3z"/><path d="M251 49h24.1v2.4h-8.4l16.5 39.3 13.5-39.3h-9.8v-2.4h18v2.4h-5.1l-20.6 59.3c-1 3.1-2.1 5.7-3.1 7.6 -1 1.9-2.1 3.5-3.2 4.6 -1.1 1.1-2.3 1.8-3.6 2.2 -1.3 0.4-2.7 0.6-4.3 0.6 -4.1 0-6.9-0.9-8.6-2.7V105.5h2.4l3 10.9c0.8 2.9 1.7 4.8 2.5 5.6 0.9 0.8 1.7 1.2 2.6 1.2 1.1 0 2.2-0.5 3.2-1.3 1-0.9 2-2.1 2.9-3.7 0.9-1.6 1.7-3.4 2.5-5.6 0.8-2.1 1.5-4.4 2.2-6.8l-22.6-54.4h-4.2V49z"/><path fill-rule="evenodd" clip-rule="evenodd" d="M72.9 0C38.6 0 10.8 27.8 10.8 62.1c0 34.3 27.8 62.1 62.1 62.1 34.3 0 62.1-27.8 62.1-62.1C135 27.8 107.2 0 72.9 0z"/><path fill="#FFFFFF" d="M84.4 86.2c-1.9 1.4-4.8 1.7-10 1.7 -7 0-11.2-2.6-14.1-5.7 -3.1-3.3-4.6-5.4-4.7-14.1h60.2c0.1-1.6 0-5.4 0-6.3 0-13.2-4.8-25.5-11.9-32.8 -7.2-7.3-18.8-10.5-30.1-10.5 -11.7 0-24 3.9-31.3 11.4 -7.3 7.4-11.5 19.3-11.5 32.8 0 13 4.7 25.3 11.9 32.5 7.2 7.2 19.3 10.4 31.7 10.4 9.8 0 19.8-2.5 26.1-7s11.8-11.5 14.2-19.7l-24.4-0.3C88.9 82.3 88 83.5 84.4 86.2zM61.6 41.3c3.1-2.8 6.8-4.3 11.6-4.3 5.1 0 10.5 2.4 13.3 5.7 1.4 1.7 4.3 4.3 4.3 10.9h-34.5C56.3 48.1 58.2 44.4 61.6 41.3z"/><path fill-rule="evenodd" clip-rule="evenodd" d="M161.4 116c-65.2 0.6-123.2 10.2-161.3 28.5 0 0 40.2-13.7 161.4-13.7 64.9 0 87.3 0.9 161.3 13.2C323.4 144.1 263.9 115 161.4 116z"/><path d="M311.9 50.9h-3.2V49h8.6v1.9h-3.2v8.6h-2.3V50.9zM318.6 49h3.3l2.5 7.2h0L326.7 49h3.3v10.5h-2.2v-7.5h0l-2.6 7.5h-1.8l-2.6-7.4h0v7.4h-2.2V49z"/></svg>