<svg xmlns:svg="http://www.w3.org/2000/svg" xmlns="http://www.w3.org/2000/svg" version="1.1" width="300" height="79.88"><defs><clipPath><path d="m0 55.44 216 0 0-55.37-216 0 0 55.38z"/></clipPath></defs><g transform="translate(-428.71429,-460.51587)"><g transform="matrix(1.3703704,0,0,-1.3703704,430.71429,538.48235)"><g transform="translate(165.274,21.91)"><path d="m0 0c-0.74-0.46-1.52-0.86-2.33-1.2-1.1-0.44-2.14-0.67-3.1-0.67-1.48 0-2.61 0.21-3.38 0.66-0.77 0.42-1.17 1.16-1.16 2.22 0 1.22 0.28 2.16 0.86 2.9 0.59 0.71 1.46 1.29 2.54 1.72 1.07 0.36 2.4 0.66 3.92 0.88 1.36 0.17 4.04 0.48 4.38 0.48C2.07 6.98 2.29 7.17 2.14 6.25 2.07 5.86 1.3 2.68 0.94 1.23 0.84 0.8 0.26 0.17 0 0zm10.52 22.34c-2.26 1.26-5.79 1.9-10.62 1.9-2.39 0-4.79-0.19-7.2-0.57-1.77-0.27-1.95-0.32-3.05-0.56-2.26-0.49-2.61-2.76-2.61-2.76l-0.73-2.99c-0.41-1.91 0.68-1.83 1.16-1.68 0.99 0.3 1.52 0.59 3.54 1.05 1.93 0.44 3.96 0.76 5.58 0.75 2.38 0 4.19-0.26 5.39-0.76 1.2-0.52 1.8-1.42 1.8-2.7C3.79 13.72 3.8 13.44 3.69 13.19 3.59 12.95 3.4 12.73 2.83 12.65-0.57 12.45-3.01 12.14-5.94 11.71-8.84 11.3-11.38 10.6-13.49 9.63-15.75 8.63-17.44 7.29-18.61 5.59c-1.13-1.71-1.7-3.77-1.71-6.21 0-2.3 0.83-4.18 2.43-5.63 1.62-1.44 3.73-2.15 6.27-2.15 1.59 0.01 2.84 0.13 3.73 0.35 0.88 0.22 1.85 0.54 2.87 0.98 0.76 0.32 1.58 0.78 2.45 1.36 0.87 0.58 1.47 0.99 2.24 1.5l0.03-0.05-0.22-0.96C-0.52-5.24-0.53-5.24-0.53-5.25l0.01-0.02c-0.25-1.15 0.45-2.11 1.59-2.22l0.01-0.02 0.1 0 0 0c0.76 0 3.36 0 4.58 0.01l0.85 0c0.06 0 0.06 0.02 0.08 0.03 1.17 0.14 2.28 1.09 2.55 2.23l4.34 18.75c0.1 0.44 0.18 0.95 0.23 1.54 0.05 0.59 0.12 1.08 0.1 1.43 0.01 2.65-1.13 4.61-3.38 5.88" fill="#369"/></g><g clip-path="url(#clipPath3003)"><g transform="translate(101.082,45.728)"><path d="m0 0c-1.27 0-2.94-1.03-3.74-2.28 0 0-8.52-14.61-9.36-16.07-0.45-0.78-0.92-0.29-0.99 0.01-0.06 0.36-2.64 15.97-2.64 15.97-0.29 1.26-1.6 2.34-3.24 2.33l-5.31-0.01c-1.28 0-2.08-1.03-1.79-2.27 0 0 4.06-23.02 4.85-28.44 0.4-2.99-0.04-3.53-0.04-3.53l-5.27-9.18c-0.77-1.25-0.35-2.26 0.93-2.26l6.16 0.01c1.27 0 2.96 1.01 3.72 2.26l23.69 40.07c0 0 2.27 3.42 0.18 3.39C5.71-0.02 0 0 0 0" fill="#1c3664"/></g><g transform="translate(39.137,49.474)"><path d="m0 0c-0.74 1.44-1.85 2.61-3.26 3.5-1.47 0.91-3.17 1.53-5.16 1.91-2 0.36-4.34 0.54-7.02 0.56L-27.86 5.95c-1.29-0.01-2.55-1.03-2.85-2.27l-8.37-36.39c-0.29-1.25 0.52-2.27 1.8-2.27l5.95 0c1.29 0 2.56 1 2.85 2.27l2.05 8.83c0.27 1.24 1.55 2.26 2.83 2.26l1.7 0c7.27 0.01 12.91 1.5 16.97 4.47 4.05 2.97 6.07 6.91 6.06 11.78C1.14-3.22 0.77-1.43 0 0m-12.84-11.89c-1.79-1.31-4.28-1.97-7.5-1.97l-1.46 0c-1.28 0-2.1 1.02-1.81 2.27l1.79 7.71c0.27 1.24 1.56 2.27 2.84 2.26l1.95 0.01c2.27 0 4-0.39 5.17-1.16 1.15-0.75 1.73-1.94 1.71-3.54 0.03-2.41-0.88-4.27-2.68-5.59" fill="#1c3664"/></g></g><g transform="translate(147.108,49.341)"><path d="m0 0c-0.74 1.44-1.86 2.6-3.27 3.51-1.45 0.9-3.17 1.53-5.17 1.9-1.97 0.35-4.32 0.54-6.99 0.55L-27.88 5.95c-1.28-0.02-2.54-1.03-2.83-2.27l-8.36-36.4c-0.3-1.24 0.53-2.27 1.79-2.26l5.97 0.01c1.27-0.01 2.56 1.01 2.86 2.25l2.02 8.83c0.28 1.24 1.57 2.28 2.86 2.26l1.7 0c7.28 0 12.93 1.5 16.97 4.47 4.03 2.99 6.06 6.92 6.06 11.8C1.12-3.22 0.76-1.42 0 0m-12.84-11.91c-1.78-1.3-4.28-1.95-7.5-1.95l-1.48 0c-1.28-0.01-2.11 1.02-1.8 2.26l1.78 7.73c0.27 1.22 1.57 2.26 2.83 2.25l1.96 0.01c2.28-0.01 3.99-0.39 5.17-1.15 1.16-0.77 1.72-1.96 1.73-3.55 0.01-2.42-0.89-4.28-2.68-5.61" fill="#369"/></g><g transform="translate(57.28,21.938)"><path d="m0 0c-0.74-0.46-1.52-0.86-2.33-1.2-1.1-0.44-2.14-0.67-3.1-0.67-1.47 0-2.61 0.21-3.38 0.66-0.77 0.43-1.17 1.16-1.16 2.22 0 1.22 0.28 2.16 0.87 2.9 0.59 0.71 1.45 1.29 2.53 1.72 1.08 0.37 2.4 0.66 3.92 0.88 1.36 0.17 4.04 0.48 4.38 0.48C2.06 6.98 2.29 7.17 2.14 6.26 2.07 5.86 1.3 2.68 0.94 1.23 0.84 0.8 0.26 0.17 0 0zm10.52 22.34c-2.26 1.26-5.79 1.9-10.62 1.9-2.39 0-4.79-0.19-7.2-0.56-1.77-0.27-1.95-0.31-3.05-0.55-2.26-0.49-2.61-2.76-2.61-2.76l-0.73-2.99c-0.41-1.91 0.68-1.83 1.16-1.68 0.99 0.3 1.52 0.59 3.54 1.05 1.92 0.44 3.96 0.76 5.58 0.75 2.38 0 4.19-0.26 5.39-0.76C3.19 16.2 3.78 15.31 3.78 14.03 3.79 13.72 3.79 13.44 3.69 13.19 3.59 12.95 3.39 12.73 2.83 12.65c-3.39-0.2-5.83-0.51-8.77-0.94-2.9-0.41-5.43-1.11-7.55-2.07-2.26-1-3.95-2.35-5.11-4.04-1.14-1.71-1.71-3.77-1.71-6.21 0-2.3 0.83-4.18 2.43-5.63 1.62-1.44 3.72-2.15 6.27-2.15 1.59 0.01 2.84 0.13 3.73 0.35 0.88 0.23 1.85 0.54 2.86 0.98 0.76 0.32 1.58 0.78 2.45 1.36 0.87 0.58 1.47 0.99 2.24 1.49L-0.3-4.27-0.52-5.23c0-0.01-0.01-0.01-0.01-0.03l0.01-0.01c-0.25-1.16 0.44-2.11 1.59-2.22l0.01-0.02 0.1 0 0-0.01c0.76 0 3.36 0 4.58 0.01l0.85 0c0.06 0 0.07 0.02 0.08 0.03 1.17 0.15 2.28 1.1 2.55 2.23l4.34 18.75c0.1 0.44 0.18 0.95 0.22 1.53 0.06 0.6 0.12 1.08 0.1 1.43 0.01 2.66-1.13 4.62-3.38 5.88" fill="#1c3664"/></g><g transform="translate(196.3,54.997)"><path d="M0 0-5.32 0C-5.32 0-5.33 0-5.33 0L-5.33 0c-1.22 0-2.45-0.93-2.8-2.12-0.01-0.05-0.04-0.09-0.05-0.14 0 0-0.13-0.58-0.35-1.58l-7.31-33.13c-0.17-0.75-0.28-1.24-0.32-1.36l0.01-0.02c-0.25-1.16 0.44-2.12 1.59-2.22l0.02-0.02 5.52 0c1.21 0 2.44 0.92 2.79 2.1 0.02 0.06 0.04 0.11 0.06 0.17L1.81-2.26 1.8-2.26C2.07-1.02 1.27 0 0 0" fill="#369"/></g><g transform="translate(206.375,47.652)"><path d="m0 0c-0.18-0.05-0.38-0.09-0.6-0.12-0.22-0.03-0.41-0.05-0.58-0.05-0.59 0-1.04 0.16-1.35 0.48-0.31 0.32-0.46 0.83-0.46 1.53l0 3.08-0.66 0 0 0.82 0.66 0 0 1.66 0.97 0 0-1.66 2.01 0 0-0.82-2.01 0 0-2.64c0-0.3 0.01-0.54 0.02-0.71 0.02-0.17 0.06-0.33 0.15-0.48 0.08-0.14 0.18-0.24 0.31-0.3 0.13-0.06 0.34-0.1 0.61-0.1 0.16 0 0.32 0.02 0.5 0.07 0.17 0.05 0.3 0.09 0.37 0.12L0 0.88 0 0" fill="#369"/></g><g transform="translate(216,47.601)"><path d="m0 0-0.97 0 0 3.3c0 0.25-0.01 0.49-0.04 0.72-0.02 0.23-0.07 0.42-0.14 0.56-0.08 0.15-0.19 0.26-0.34 0.34-0.15 0.08-0.36 0.11-0.64 0.11-0.27 0-0.55-0.07-0.82-0.2-0.27-0.14-0.55-0.31-0.82-0.52 0.01-0.08 0.02-0.17 0.03-0.28 0.01-0.1 0.01-0.21 0.01-0.31l0-3.7-0.97 0 0 3.3c0 0.26-0.01 0.5-0.04 0.73-0.02 0.23-0.07 0.41-0.14 0.55-0.08 0.15-0.19 0.26-0.34 0.34-0.15 0.07-0.36 0.11-0.64 0.11-0.27 0-0.53-0.07-0.8-0.2C-6.94 4.69-7.21 4.53-7.47 4.32l0-4.32-0.97 0 0 5.79 0.98 0 0-0.64c0.31 0.25 0.61 0.45 0.91 0.59 0.3 0.14 0.62 0.21 0.97 0.21 0.39 0 0.73-0.08 1-0.25 0.27-0.17 0.48-0.4 0.61-0.69 0.39 0.33 0.75 0.57 1.08 0.72 0.32 0.15 0.67 0.22 1.04 0.22 0.64 0 1.11-0.19 1.41-0.58C-0.15 4.99 0 4.45 0 3.76L0 0" fill="#369"/></g></g></g></svg>