<?xml version="1.0" standalone="no"?>
<!DOCTYPE svg PUBLIC "-//W3C//DTD SVG 1.1//EN" "http://www.w3.org/Graphics/SVG/1.1/DTD/svg11.dtd" >
<svg xmlns="http://www.w3.org/2000/svg">
<metadata>
This is a custom SVG webfont generated by Font Squirrel.
Copyright   : Copyright 1997 Bigelow  Holmes Inc US Pat Des 289420 All rights reserved
</metadata>
<defs>
<font id="LucidaGrandeRegular" horiz-adv-x="1269" >
<font-face units-per-em="2048" ascent="1638" descent="-410" />
<missing-glyph horiz-adv-x="634" />
<glyph unicode=" "  horiz-adv-x="634" />
<glyph unicode="&#x09;" horiz-adv-x="634" />
<glyph unicode="&#xa0;" horiz-adv-x="634" />
<glyph unicode="!" horiz-adv-x="635" d="M220 0v193h194v-193h-194zM220 1160v290h194v-290l-24 -773h-145z" />
<glyph unicode="&#x22;" horiz-adv-x="749" d="M109 1547h193l-24 -483h-145zM447 1547h194l-25 -483h-145z" />
<glyph unicode="#" d="M15 435l24 122h299l85 338h-317l24 120h323l110 435h124l-109 -435h258l109 435h125l-109 -435h293l-23 -120h-300l-85 -338h317l-24 -122h-323l-108 -435h-126l109 435h-258l-109 -435h-125l109 435h-293zM464 557h257l86 338h-259z" />
<glyph unicode="$" d="M212 81v167q221 -103 387 -103v520q-199 122 -272 215t-73 222q0 146 94.5 241.5t250.5 106.5v122h96v-122q143 0 314 -65v-158q-188 81 -314 91v-516q53 -33 79 -48q150 -92 205 -165.5t55 -181.5q0 -155 -91 -264.5t-248 -142.5v-121h-96v121q-173 0 -387 81zM423 1106 q0 -74 36.5 -124.5t139.5 -116.5v447q-176 -55 -176 -206zM695 157q169 61 169 220q0 70 -32 114.5t-137 117.5v-452z" />
<glyph unicode="%" horiz-adv-x="1341" d="M12 1089q0 166 83 263.5t225 97.5t225 -97.5t83 -262.5q0 -170 -83 -267.5t-229 -97.5q-139 0 -221.5 99t-82.5 265zM24 -36l1142 1523h151l-1142 -1523h-151zM157 1089q0 -122 44 -194.5t117 -72.5q77 0 121 71.5t44 196.5q0 120 -44 192t-119 72t-119 -72t-44 -193z M713 363q0 166 83.5 264t224.5 98t225 -97.5t84 -262.5q0 -171 -83.5 -268t-229.5 -97q-139 0 -221.5 98.5t-82.5 264.5zM858 363q0 -121 44 -193.5t117 -72.5q78 0 122 71.5t44 196.5q0 120 -44.5 192t-119.5 72q-74 0 -118.5 -72t-44.5 -194z" />
<glyph unicode="&#x26;" horiz-adv-x="1399" d="M73 431q0 335 353 455q-98 177 -98 295q0 128 102.5 217t248.5 89q141 0 233 -83t92 -210q0 -218 -319 -379q146 -258 340 -483q89 130 89 367l-1 72h192q0 -321 -192 -554q88 -112 201 -217h-274l-72 86q-160 -122 -375 -122q-227 0 -373.5 131.5t-146.5 335.5zM266 478 q0 -154 104 -261.5t254 -107.5q136 0 260 89q-206 253 -392 573q-226 -90 -226 -293zM522 1190q0 -100 92 -252q208 95 208 253q0 68 -41.5 109.5t-109.5 41.5q-149 0 -149 -152z" />
<glyph unicode="'" horiz-adv-x="459" d="M109 1547h242l-49 -532h-145z" />
<glyph unicode="(" horiz-adv-x="652" d="M121 629q0 279 123.5 526.5t335.5 391.5v-133q-144 -157 -205 -337t-61 -448t61 -448.5t205 -337.5v-133q-212 144 -335.5 391.5t-123.5 527.5z" />
<glyph unicode=")" horiz-adv-x="652" d="M73 -157q144 157 204.5 337.5t60.5 448.5t-60.5 448.5t-204.5 336.5v133q211 -144 335 -391.5t124 -526.5q0 -280 -124 -527.5t-335 -391.5v133z" />
<glyph unicode="*" horiz-adv-x="967" d="M108 1125l45 138l278 -122q-28 -25 -28 -66q0 -4 2 -15zM207 821l202 227q19 -44 68 -50l-153 -262zM412 1450h145l-31 -301q-17 10 -42 10q-24 0 -42 -10zM490 998q50 6 69 50l202 -227l-117 -85zM537 1141l278 122l44 -138l-296 -65q2 11 2 15q0 40 -28 66z" />
<glyph unicode="+" horiz-adv-x="1595" d="M218 508v145h507v507h145v-507h508v-145h-508v-508h-145v508h-507z" />
<glyph unicode="," horiz-adv-x="635" d="M196 0v242h242v-210q0 -322 -242 -347v73q94 26 94 222v20h-94z" />
<glyph unicode="-" horiz-adv-x="1088" d="M145 508v145h798v-145h-798z" />
<glyph unicode="." horiz-adv-x="635" d="M196 0v242h242v-242h-242z" />
<glyph unicode="/" horiz-adv-x="1052" d="M189 -290l522 1740h152l-522 -1740h-152z" />
<glyph unicode="0" d="M127 726q0 343 140 552t368 209t368 -209t140 -549q0 -349 -140 -557t-374 -208q-224 0 -363 211t-139 551zM333 726q0 -617 298 -617q307 0 307 623q0 610 -303 610q-302 0 -302 -616z" />
<glyph unicode="1" d="M302 0v145h290v1145l-290 -73v149l484 121v-1342h290v-145h-774z" />
<glyph unicode="2" d="M167 0v170q84 197 341 429l110 99q214 193 214 383q0 121 -73 191t-200 70q-151 0 -356 -117v171q193 91 383 91q204 0 327.5 -110t123.5 -291q0 -130 -62.5 -231t-231.5 -245l-75 -64q-232 -197 -268 -376h630v-170h-863z" />
<glyph unicode="3" d="M204 11v180q208 -82 327 -82q138 0 225 80.5t87 209.5q0 306 -428 306h-77v130l68 1q402 0 402 283q0 223 -265 223q-145 0 -320 -82v169q172 58 334 58q214 0 329.5 -87t115.5 -249q0 -256 -303 -365q351 -81 351 -384q0 -205 -135.5 -321.5t-371.5 -116.5 q-134 0 -339 47z" />
<glyph unicode="4" d="M103 411v146l653 893h181v-882h194v-157h-194v-411h-181v411h-653zM292 568h476v645z" />
<glyph unicode="5" d="M244 -6v173q144 -58 274 -58q144 0 225.5 84t81.5 232q0 327 -450 327q-51 0 -106 -7v705h734v-168h-565v-382q279 0 436 -128.5t157 -355.5q0 -212 -142.5 -332t-395.5 -120q-110 0 -249 30z" />
<glyph unicode="6" d="M134 693q0 377 155.5 586t437.5 209q130 0 324 -55v-169q-205 79 -336 79q-370 0 -370 -591q138 179 348 179q190 0 311 -126t121 -323q0 -226 -135.5 -372t-344.5 -146q-240 0 -375.5 193t-135.5 536zM353 512q0 -183 83.5 -293t222.5 -110q124 0 198 89.5t74 240.5 q0 165 -74 259t-205 94q-123 0 -211 -82.5t-88 -197.5z" />
<glyph unicode="7" d="M218 1269v181h931v-181q-558 -822 -625 -1269h-222q28 170 80.5 293t185.5 339l396 637h-746z" />
<glyph unicode="8" d="M173 357q0 260 289 433q-120 83 -166.5 154.5t-46.5 172.5q0 165 120.5 268t314.5 103q179 0 290.5 -87.5t111.5 -226.5q0 -211 -271 -384q329 -161 329 -415q0 -182 -138 -296.5t-355 -114.5q-214 0 -346 108t-132 285zM367 387q0 -124 80 -201t212 -77q126 0 206 65.5 t80 170.5q0 84 -49.5 142.5t-191.5 142.5l-138 81q-116 -90 -157.5 -157t-41.5 -167zM424 1153q0 -81 60.5 -145t223.5 -157q202 133 202 297q0 87 -67.5 140.5t-178.5 53.5q-106 0 -173 -52.5t-67 -136.5z" />
<glyph unicode="9" d="M153 971q0 223 135.5 369.5t341.5 146.5q236 0 372.5 -190t136.5 -519q0 -374 -166 -594t-450 -220q-113 0 -295 45v163q185 -63 314 -63q180 0 281.5 153.5t101.5 426.5q-147 -181 -334 -181q-183 0 -310.5 134.5t-127.5 328.5zM346 1009q0 -168 75 -265t205 -97 q123 0 209.5 83t86.5 201q0 185 -83.5 298.5t-220.5 113.5q-126 0 -199 -90t-73 -244z" />
<glyph unicode=":" horiz-adv-x="635" d="M220 0v193h194v-193h-194zM220 870v194h194v-194h-194z" />
<glyph unicode=";" horiz-adv-x="635" d="M220 0v193h194v-163q0 -297 -194 -345v73q70 36 70 219v23h-70zM220 870v194h194v-194h-194z" />
<glyph unicode="&#x3c;" horiz-adv-x="1595" d="M218 580l1160 580v-161l-834 -418v-2l834 -416v-163z" />
<glyph unicode="=" horiz-adv-x="1595" d="M218 326v145h1160v-145h-1160zM218 689v145h1160v-145h-1160z" />
<glyph unicode="&#x3e;" horiz-adv-x="1595" d="M218 0v163l834 416v2l-834 418v161l1160 -580z" />
<glyph unicode="?" horiz-adv-x="846" d="M36 1269v164q182 55 339 55q200 0 317.5 -90t117.5 -243q0 -86 -33.5 -148t-129.5 -153l-61 -57q-91 -87 -119.5 -145t-28.5 -157v-108h-193v53q0 110 30 182.5t114 169.5l62 71q154 177 154 289q0 88 -68 139t-182 51q-150 0 -319 -73zM245 0v193h193v-193h-193z" />
<glyph unicode="@" horiz-adv-x="1722" d="M91 564q0 333 239 608q128 146 309.5 230.5t367.5 84.5q274 0 458.5 -176.5t184.5 -438.5q0 -243 -148 -412.5t-359 -169.5q-163 0 -163 113q0 41 21 103l39 123h-12q-177 -339 -379 -339q-85 0 -137 60t-52 158q0 139 70.5 295t174.5 248q119 103 269 103q30 0 78 -2 q48 -3 76 -3h134l-123 -624q-6 -31 -6 -60q0 -66 74 -66q131 0 233 139t102 318q0 225 -156 374t-393 149q-311 0 -552 -244.5t-241 -559.5q0 -221 151.5 -361.5t389.5 -140.5q154 0 295 70l35 -100q-176 -79 -346 -79q-275 0 -454.5 170t-179.5 430zM611 549 q0 -138 80 -138q61 0 159 110t202 295l38 191q-90 33 -157 33q-98 0 -161 -55q-67 -58 -114 -185.5t-47 -250.5z" />
<glyph unicode="A" horiz-adv-x="1384" d="M17 0l575 1450h204l566 -1450h-222l-158 402h-614l-160 -402h-191zM427 555h495l-247 625z" />
<glyph unicode="B" horiz-adv-x="1154" d="M187 0v1450h377q217 0 333 -82t116 -237q0 -264 -298 -375q356 -109 356 -393q0 -128 -78 -227q-60 -75 -144.5 -105.5t-234.5 -30.5h-427zM391 154h42q227 0 293 28q128 54 128 200q0 130 -116 215.5t-289 85.5h-58v-529zM391 813h66q164 0 255 71t91 199 q0 214 -332 214h-80v-484z" />
<glyph unicode="C" horiz-adv-x="1388" d="M102 724q0 363 187.5 563t528.5 200q195 0 457 -64v-193q-298 103 -460 103q-236 0 -365.5 -160t-129.5 -451q0 -277 138.5 -437.5t377.5 -160.5q206 0 441 127v-177q-215 -110 -469 -110q-338 0 -522 198.5t-184 561.5z" />
<glyph unicode="D" horiz-adv-x="1503" d="M187 0v1450h482q216 0 349 -48t230 -162q153 -183 153 -480q0 -362 -191 -561t-538 -199h-485zM393 154h264q282 0 399 152q127 161 127 434q0 256 -125 402q-75 89 -180 122t-315 33h-170v-1143z" />
<glyph unicode="E" horiz-adv-x="1087" d="M187 0v1450h811v-153h-605v-466h507v-152h-507v-525h647v-154h-853z" />
<glyph unicode="F" horiz-adv-x="1076" d="M187 0v1450h811v-153h-605v-487h508v-151h-508v-659h-206z" />
<glyph unicode="G" horiz-adv-x="1450" d="M102 725q0 361 187 561.5t525 200.5q222 0 461 -66v-190q-300 102 -460 102q-235 0 -365 -160t-130 -450q0 -287 139.5 -446t390.5 -159q103 0 222 36v472h205v-587q-264 -75 -460 -75q-346 0 -530.5 197t-184.5 564z" />
<glyph unicode="H" horiz-adv-x="1474" d="M187 0v1450h206v-611h690v611h206v-1450h-206v685h-690v-685h-206z" />
<glyph unicode="I" horiz-adv-x="578" d="M186 0v1450h206v-1450h-206z" />
<glyph unicode="J" horiz-adv-x="624" d="M-180 -87q117 -38 207 -38q118 0 164.5 67t46.5 234v1274h206v-1267q0 -473 -448 -473q-69 0 -176 20v183z" />
<glyph unicode="K" horiz-adv-x="1310" d="M187 0v1450h193v-713l587 713h207l-568 -691l669 -759h-261l-634 735v-735h-193z" />
<glyph unicode="L" horiz-adv-x="1070" d="M187 0v1450h206v-1296h653v-154h-859z" />
<glyph unicode="M" horiz-adv-x="1728" d="M187 0v1450h285l402 -1122l414 1122h255v-1450h-193v1180l-399 -1083h-199l-388 1086v-1183h-177z" />
<glyph unicode="N" horiz-adv-x="1482" d="M187 0v1450h202l730 -1120v1120h177v-1450h-201l-731 1120v-1120h-177z" />
<glyph unicode="O" horiz-adv-x="1559" d="M102 726q0 346 184.5 553.5t493.5 207.5q308 0 493 -207t185 -552q0 -352 -185 -558t-502 -206q-302 0 -485.5 209t-183.5 553zM320 727q0 -284 121 -446.5t333 -162.5q223 0 344.5 160t121.5 452q0 283 -122 443t-338 160t-338 -160.5t-122 -445.5z" />
<glyph unicode="P" horiz-adv-x="1109" d="M187 0v1450h395q263 0 377.5 -88.5t114.5 -291.5q0 -231 -157 -362.5t-435 -131.5h-91v-576h-204zM391 732h83q184 0 284 84.5t100 237.5q0 131 -78.5 187t-262.5 56h-126v-565z" />
<glyph unicode="Q" horiz-adv-x="1559" d="M102 725q0 347 184.5 554.5t493.5 207.5q310 0 494 -208t184 -557q0 -500 -371 -692q250 -109 518 -156l-130 -164q-342 111 -573 264q-93 -10 -142 -10q-293 0 -475.5 211.5t-182.5 549.5zM320 727q0 -284 121 -446.5t333 -162.5q223 0 344.5 159.5t121.5 451.5 q0 283 -121.5 443.5t-338.5 160.5q-216 0 -338 -160.5t-122 -445.5z" />
<glyph unicode="R" d="M187 0v1450h439q209 0 320 -92t111 -267q0 -138 -76.5 -246t-216.5 -166l485 -679h-253l-413 613h-192v-613h-204zM391 767h67q388 0 388 305q0 225 -326 225h-129v-530z" />
<glyph unicode="S" horiz-adv-x="1080" d="M98 27v204q245 -113 403 -113q121 0 195 63.5t74 167.5q0 85 -48.5 145t-178.5 133l-100 58q-185 106 -261 199.5t-76 217.5q0 168 121.5 276.5t309.5 108.5q168 0 354 -56v-188q-229 90 -342 90q-107 0 -176.5 -57t-69.5 -143q0 -73 51 -128.5t186 -133.5l104 -59 q188 -106 262.5 -201.5t74.5 -228.5q0 -189 -139.5 -303.5t-370.5 -114.5q-146 0 -373 63z" />
<glyph unicode="T" d="M18 1297v153h1234v-153h-514v-1297h-206v1297h-514z" />
<glyph unicode="U" horiz-adv-x="1390" d="M175 537v913h206v-915q0 -218 81 -317.5t257 -99.5q173 0 245 93.5t72 316.5v922h180v-919q0 -190 -37 -292t-134 -179q-122 -96 -339 -96q-272 0 -401.5 140t-129.5 433z" />
<glyph unicode="V" horiz-adv-x="1312" d="M35 1450h206l449 -1187l433 1187h180l-526 -1450h-194z" />
<glyph unicode="W" horiz-adv-x="1716" d="M2 1450h198l297 -1145l273 1145h198l259 -1130l319 1130h168l-407 -1450h-205l-255 1118l-268 -1118h-204z" />
<glyph unicode="X" horiz-adv-x="1256" d="M16 0l481 728l-458 722h243l349 -546l367 546h194l-464 -700l475 -750h-243l-368 575l-381 -575h-195z" />
<glyph unicode="Y" horiz-adv-x="1250" d="M17 1450h235l376 -654l406 654h191l-518 -840v-610h-206v606z" />
<glyph unicode="Z" horiz-adv-x="1213" d="M93 0v165l779 1132h-731v153h978v-153l-779 -1132h779v-165h-1026z" />
<glyph unicode="[" horiz-adv-x="652" d="M193 -290v1837h387v-145h-217v-1547h217v-145h-387z" />
<glyph unicode="\" horiz-adv-x="1052" d="M189 1450h152l522 -1740h-152z" />
<glyph unicode="]" horiz-adv-x="652" d="M73 -145h217v1547h-217v145h387v-1837h-387v145z" />
<glyph unicode="^" d="M103 387l532 1063l532 -1063h-163l-369 739l-369 -739h-163z" />
<glyph unicode="_" horiz-adv-x="1003" d="M84 0h834v-145h-834v145z" />
<glyph unicode="`" horiz-adv-x="1232" d="M387 1572h224l236 -315h-145z" />
<glyph unicode="a" horiz-adv-x="1108" d="M101 268q0 174 146.5 267.5t420.5 93.5h45v129q0 185 -190 185q-153 0 -330 -94v159q195 80 366 80q178 0 262.5 -80.5t84.5 -249.5v-483q0 -165 102 -165q13 0 38 4l13 -107q-65 -31 -145 -31q-135 0 -172 159q-174 -159 -334 -159q-133 0 -220 82.5t-87 209.5zM294 299 q0 -70 49 -118t120 -48q120 0 250 107v275l-64 2q-159 0 -257 -60t-98 -158z" />
<glyph unicode="b" horiz-adv-x="1263" d="M193 -12v1559h193v-683q119 224 356 224q192 0 302 -140t110 -384q0 -264 -124.5 -426t-328.5 -162q-189 0 -315 145l-23 -133h-170zM386 254q149 -133 284 -133q134 0 206.5 111t72.5 313q0 374 -247 374q-162 0 -316 -175v-490z" />
<glyph unicode="c" horiz-adv-x="1028" d="M109 538q0 260 140.5 405t392.5 145q124 0 278 -34v-162q-163 48 -266 48q-148 0 -238 -111.5t-90 -296.5q0 -179 92.5 -290t241.5 -111q132 0 272 68v-167q-187 -56 -323 -56q-216 0 -358 159.5t-142 402.5z" />
<glyph unicode="d" horiz-adv-x="1263" d="M109 499q0 265 125 427t329 162q189 0 313 -145v604h194v-1547h-194v200q-117 -224 -355 -224q-192 0 -302 140t-110 383zM315 518q0 -373 247 -373q160 0 314 175v490q-150 133 -284 133q-132 0 -204.5 -111t-72.5 -314z" />
<glyph unicode="e" horiz-adv-x="1118" d="M109 537q0 242 130.5 397t334.5 155q193 0 298.5 -137.5t105.5 -389.5l-1 -60h-671q42 -380 371 -380q121 0 296 65v-153q-194 -58 -332 -58q-235 0 -383.5 156t-148.5 405zM315 647h469q0 297 -221 297q-223 0 -248 -297z" />
<glyph unicode="f" horiz-adv-x="737" d="M78 919v145h151v128q0 380 347 380q97 0 221 -32v-153q-131 40 -209 40q-95 0 -130 -45.5t-35 -169.5v-148h266v-145h-266v-919h-194v919h-151z" />
<glyph unicode="g" horiz-adv-x="1251" d="M109 539q0 243 128.5 396t331.5 153q179 0 307 -145v121h194v-774q0 -250 -26 -370t-97 -196q-127 -135 -393 -135q-186 0 -357 57l23 168q167 -80 330 -80q326 0 326 346v168q-107 -224 -351 -224q-191 0 -303.5 139.5t-112.5 375.5zM315 543q0 -350 246 -350 q167 0 315 175v442q-127 133 -277 133q-133 0 -208.5 -107t-75.5 -293z" />
<glyph unicode="h" horiz-adv-x="1245" d="M193 0v1547h193v-683q153 224 374 224q139 0 221 -88t82 -236v-764h-193v702q0 118 -34.5 168.5t-115.5 50.5q-177 0 -334 -232v-689h-193z" />
<glyph unicode="i" horiz-adv-x="580" d="M193 0v1064h193v-1064h-193zM193 1257v193h193v-193h-193z" />
<glyph unicode="j" horiz-adv-x="610" d="M-151 -209q135 -57 206 -57q102 0 135 53t33 213v1064h194v-1064q0 -411 -346 -411q-103 0 -222 49v153zM223 1257v193h194v-193h-194z" />
<glyph unicode="k" horiz-adv-x="1173" d="M193 0v1547h193v-999l451 516h208l-431 -497l520 -567h-247l-501 546v-546h-193z" />
<glyph unicode="l" horiz-adv-x="580" d="M193 0v1547h193v-1547h-193z" />
<glyph unicode="m" horiz-adv-x="1873" d="M193 0v1064h193v-200q141 224 363 224q213 0 291 -224q137 225 356 225q142 0 219 -83t77 -232v-774h-194v744q0 182 -144 182q-150 0 -314 -213v-713h-194v744q0 183 -147 183q-146 0 -313 -214v-713h-193z" />
<glyph unicode="n" horiz-adv-x="1245" d="M193 0v1064h193v-200q153 224 374 224q139 0 221 -88t82 -236v-764h-193v702q0 118 -34.5 168.5t-115.5 50.5q-177 0 -334 -232v-689h-193z" />
<glyph unicode="o" horiz-adv-x="1232" d="M109 532q0 257 136.5 406.5t370.5 149.5q235 0 371.5 -149.5t136.5 -404.5q0 -261 -137 -409.5t-377 -148.5q-229 0 -365 151t-136 405zM315 532q0 -195 78 -303t219 -108q307 0 307 413q0 409 -303 409q-301 0 -301 -411z" />
<glyph unicode="p" horiz-adv-x="1263" d="M193 -387v1451h193v-200q119 224 356 224q192 0 302 -140t110 -384q0 -264 -124.5 -426t-328.5 -162q-189 0 -315 145v-508h-193zM386 254q149 -133 284 -133q134 0 206.5 111t72.5 313q0 374 -247 374q-162 0 -316 -175v-490z" />
<glyph unicode="q" horiz-adv-x="1263" d="M109 499q0 265 125 427t329 162q189 0 313 -145v121h194v-1451h-194v587q-117 -224 -355 -224q-192 0 -302 140t-110 383zM315 518q0 -373 247 -373q160 0 314 175v490q-150 133 -284 133q-132 0 -204.5 -111t-72.5 -314z" />
<glyph unicode="r" horiz-adv-x="821" d="M193 0v1064h193v-200q115 224 333 224q30 0 62 -5v-180q-50 16 -88 16q-183 0 -307 -217v-702h-193z" />
<glyph unicode="s" horiz-adv-x="1023" d="M154 37v178q189 -94 329 -94q83 0 138 45t55 112q0 99 -154 164l-112 48q-250 104 -250 299q0 139 98.5 219t269.5 80q89 0 221 -25l40 -8v-160q-162 48 -257 48q-186 0 -186 -135q0 -88 141 -147l93 -40q158 -66 223.5 -140t65.5 -185q0 -140 -110.5 -230t-283.5 -90 q-132 0 -321 61z" />
<glyph unicode="t" horiz-adv-x="750" d="M68 919v145h133v193l193 19v-212h278v-145h-278v-590q0 -208 180 -208q38 0 93 12v-133q-89 -24 -154 -24q-147 0 -229.5 84t-82.5 234v625h-133z" />
<glyph unicode="u" horiz-adv-x="1245" d="M181 300v764h193v-701q0 -120 35 -170.5t116 -50.5q177 0 333 232v690h194v-1064h-194v200q-153 -224 -373 -224q-139 0 -221.5 87.5t-82.5 236.5z" />
<glyph unicode="v" horiz-adv-x="1038" d="M18 1064h193l309 -828l327 828h180l-420 -1064h-193z" />
<glyph unicode="w" horiz-adv-x="1546" d="M12 1064h189l233 -824l252 824h193l221 -824l267 824h166l-347 -1064h-194l-226 824l-254 -824h-195z" />
<glyph unicode="x" horiz-adv-x="1230" d="M86 0l405 550l-393 514h229l311 -409l281 409h188l-368 -540l401 -524h-230l-320 421l-310 -421h-194z" />
<glyph unicode="y" horiz-adv-x="1048" d="M16 1064h208l305 -801l326 801h182l-581 -1451h-201l172 387z" />
<glyph unicode="z" horiz-adv-x="1150" d="M121 0v145l658 774h-628v145h866v-145l-658 -774h671v-145h-909z" />
<glyph unicode="{" horiz-adv-x="652" d="M24 557v145h49q148 0 148 157q0 67 -14 138l-19 85q-18 84 -18 165q0 130 93.5 210.5t256.5 89.5v-145h-27q-67 0 -111 -34.5t-44 -86.5q0 -24 13 -93l17 -100q10 -65 10 -154q0 -183 -144 -305q144 -122 144 -307q0 -88 -10 -152l-17 -100q-13 -70 -13 -94 q0 -51 44.5 -86t110.5 -35h27v-145q-164 10 -257 90.5t-93 211.5q0 80 18 163l19 86q14 70 14 139q0 157 -148 157h-49z" />
<glyph unicode="|" horiz-adv-x="749" d="M302 -290v1837h145v-1837h-145z" />
<glyph unicode="}" horiz-adv-x="652" d="M133 -145h28q65 0 110 35t45 86q0 24 -13 94l-17 100q-12 62 -12 154q0 182 144 305q-144 122 -144 306q0 90 12 153l17 100q13 69 13 95q0 50 -45 84.5t-110 34.5h-28v145q165 -9 258 -89.5t93 -211.5q0 -80 -18 -164l-19 -85q-16 -71 -16 -139q0 -156 149 -156h49v-145 h-49q-149 0 -149 -159q0 -67 16 -137l19 -86q18 -83 18 -164q0 -131 -93.5 -211t-257.5 -90v145z" />
<glyph unicode="~" d="M103 435q0 142 75.5 232.5t194.5 90.5q79 0 211 -70l105 -55l125 -68q44 -21 90 -21q53 0 85.5 49t32.5 132h145q-20 -326 -263 -326q-85 0 -238 78l-109 57l-117 61q-35 17 -70 17q-53 0 -87.5 -49t-34.5 -128h-145z" />
<glyph horiz-adv-x="635" d="M196 0v242h242v-210q0 -297 -242 -322v72q94 27 94 198v20h-94z" />
<glyph unicode="&#x201a;" horiz-adv-x="635" d="M196 0v242h242v-210q0 -297 -242 -322v72q94 27 94 198v20h-94z" />
<glyph d="M232 -290l197 992h-162v145h192l20 104q107 536 486 536q107 0 224 -29l-30 -153q-103 38 -195 38q-210 0 -270 -304l-38 -192h185v-145h-214l-198 -992h-197z" />
<glyph unicode="&#x192;" d="M232 -290l197 992h-162v145h192l20 104q107 536 486 536q107 0 224 -29l-30 -153q-103 38 -195 38q-210 0 -270 -304l-38 -192h185v-145h-214l-198 -992h-197z" />
<glyph horiz-adv-x="749" d="M109 0v193h193v-163q0 -297 -193 -345v73q69 36 69 219v23h-69zM447 0v193h194v-163q0 -297 -194 -345v73q69 36 69 219v23h-69z" />
<glyph unicode="&#x201e;" horiz-adv-x="749" d="M109 0v193h193v-163q0 -297 -193 -345v73q69 36 69 219v23h-69zM447 0v193h194v-163q0 -297 -194 -345v73q69 36 69 219v23h-69z" />
<glyph unicode="&#x85;" horiz-adv-x="2007" d="M238 0v193h193v-193h-193zM907 0v193h194v-193h-194zM1576 0v193h194v-193h-194z" />
<glyph unicode="&#x2026;" horiz-adv-x="2007" d="M238 0v193h193v-193h-193zM907 0v193h194v-193h-194zM1576 0v193h194v-193h-194z" />
<glyph d="M223 798v145l339 -24l-24 531h193l-24 -531l339 24v-145l-339 24l24 -1112h-193l24 1112z" />
<glyph unicode="&#x2020;" d="M223 798v145l339 -24l-24 531h193l-24 -531l339 24v-145l-339 24l24 -1112h-193l24 1112z" />
<glyph d="M223 218v145l339 -25v484l-339 -24v145l339 -24l-24 531h193l-24 -531l339 24v-145l-339 24v-484l339 25v-145l-339 24l24 -532h-193l24 532z" />
<glyph unicode="&#x2021;" d="M223 218v145l339 -25v484l-339 -24v145l339 -24l-24 531h193l-24 -531l339 24v-145l-339 24v-484l339 25v-145l-339 24l24 -532h-193l24 532z" />
<glyph horiz-adv-x="1232" d="M273 1257l237 315h213l236 -315h-145l-197 198h-2l-197 -198h-145z" />
<glyph unicode="&#x2c6;" horiz-adv-x="1232" d="M273 1257l237 315h213l236 -315h-145l-197 198h-2l-197 -198h-145z" />
<glyph horiz-adv-x="2031" d="M12 1089q0 166 83 263.5t225 97.5t225 -97.5t83 -262.5q0 -170 -83 -267.5t-229 -97.5q-139 0 -221.5 99t-82.5 265zM24 -36l1142 1523h151l-1142 -1523h-151zM157 1089q0 -122 44 -194.5t117 -72.5q77 0 121 71.5t44 196.5q0 120 -44 192t-119 72t-119 -72t-44 -193z M713 363q0 166 83.5 264t224.5 98t225 -97.5t84 -262.5q0 -171 -83.5 -268t-229.5 -97q-139 0 -221.5 98.5t-82.5 264.5zM858 363q0 -121 44 -193.5t117 -72.5q78 0 122 71.5t44 196.5q0 120 -44.5 192t-119.5 72q-74 0 -118.5 -72t-44.5 -194zM1402 363q0 166 83.5 264 t224.5 98q142 0 225.5 -97.5t83.5 -262.5q0 -171 -83.5 -268t-229.5 -97q-138 0 -221 98.5t-83 264.5zM1547 363q0 -121 44.5 -193.5t116.5 -72.5q78 0 122 71.5t44 196.5q0 120 -44.5 192t-119.5 72q-74 0 -118.5 -72t-44.5 -194z" />
<glyph unicode="&#x2030;" horiz-adv-x="2031" d="M12 1089q0 166 83 263.5t225 97.5t225 -97.5t83 -262.5q0 -170 -83 -267.5t-229 -97.5q-139 0 -221.5 99t-82.5 265zM24 -36l1142 1523h151l-1142 -1523h-151zM157 1089q0 -122 44 -194.5t117 -72.5q77 0 121 71.5t44 196.5q0 120 -44 192t-119 72t-119 -72t-44 -193z M713 363q0 166 83.5 264t224.5 98t225 -97.5t84 -262.5q0 -171 -83.5 -268t-229.5 -97q-139 0 -221.5 98.5t-82.5 264.5zM858 363q0 -121 44 -193.5t117 -72.5q78 0 122 71.5t44 196.5q0 120 -44.5 192t-119.5 72q-74 0 -118.5 -72t-44.5 -194zM1402 363q0 166 83.5 264 t224.5 98q142 0 225.5 -97.5t83.5 -262.5q0 -171 -83.5 -268t-229.5 -97q-138 0 -221 98.5t-83 264.5zM1547 363q0 -121 44.5 -193.5t116.5 -72.5q78 0 122 71.5t44 196.5q0 120 -44.5 192t-119.5 72q-74 0 -118.5 -72t-44.5 -194z" />
<glyph horiz-adv-x="1080" d="M98 27v204q245 -113 403 -113q121 0 195 63.5t74 167.5q0 85 -48.5 145t-178.5 133l-100 58q-185 106 -261 199.5t-76 217.5q0 168 121.5 276.5t309.5 108.5q168 0 354 -56v-188q-229 90 -342 90q-107 0 -176.5 -57t-69.5 -143q0 -73 51 -128.5t186 -133.5l104 -59 q188 -106 262.5 -201.5t74.5 -228.5q0 -189 -139.5 -303.5t-370.5 -114.5q-146 0 -373 63zM220 1888h145l197 -198h2l197 198h145l-236 -315h-213z" />
<glyph unicode="&#x160;" horiz-adv-x="1080" d="M98 27v204q245 -113 403 -113q121 0 195 63.5t74 167.5q0 85 -48.5 145t-178.5 133l-100 58q-185 106 -261 199.5t-76 217.5q0 168 121.5 276.5t309.5 108.5q168 0 354 -56v-188q-229 90 -342 90q-107 0 -176.5 -57t-69.5 -143q0 -73 51 -128.5t186 -133.5l104 -59 q188 -106 262.5 -201.5t74.5 -228.5q0 -189 -139.5 -303.5t-370.5 -114.5q-146 0 -373 63zM220 1888h145l197 -198h2l197 198h145l-236 -315h-213z" />
<glyph horiz-adv-x="665" d="M109 532l387 435l96 -72l-290 -363l290 -362l-96 -73z" />
<glyph unicode="&#x2039;" horiz-adv-x="665" d="M109 532l387 435l96 -72l-290 -363l290 -362l-96 -73z" />
<glyph horiz-adv-x="2007" d="M102 725q0 346 184 554t491 208q178 0 329 -92v55h811v-153h-605v-466h507v-152l-507 6v-531h647v-154h-853v57q-152 -93 -340 -93q-298 0 -481 210t-183 551zM320 725q0 -286 122 -446.5t338 -160.5q170 0 248 105.5t78 334.5v335q0 229 -78.5 334.5t-250.5 105.5 q-214 0 -335.5 -161.5t-121.5 -446.5z" />
<glyph unicode="&#x152;" horiz-adv-x="2007" d="M102 725q0 346 184 554t491 208q178 0 329 -92v55h811v-153h-605v-466h507v-152l-507 6v-531h647v-154h-853v57q-152 -93 -340 -93q-298 0 -481 210t-183 551zM320 725q0 -286 122 -446.5t338 -160.5q170 0 248 105.5t78 334.5v335q0 229 -78.5 334.5t-250.5 105.5 q-214 0 -335.5 -161.5t-121.5 -446.5z" />
<glyph horiz-adv-x="635" d="M196 992v209q0 321 242 346v-72q-94 -27 -94 -222v-20h94v-241h-242z" />
<glyph unicode="&#x2018;" horiz-adv-x="635" d="M196 992v209q0 321 242 346v-72q-94 -27 -94 -222v-20h94v-241h-242z" />
<glyph horiz-adv-x="635" d="M196 992v72q94 27 94 222v19h-94v242h242v-209q0 -323 -242 -346z" />
<glyph unicode="&#x2019;" horiz-adv-x="635" d="M196 992v72q94 27 94 222v19h-94v242h242v-209q0 -323 -242 -346z" />
<glyph horiz-adv-x="749" d="M109 1040v162q0 297 193 345v-72q-69 -36 -69 -220v-22h69v-193h-193zM447 1040v162q0 297 194 345v-72q-70 -36 -70 -220v-22h70v-193h-194z" />
<glyph unicode="&#x201c;" horiz-adv-x="749" d="M109 1040v162q0 297 193 345v-72q-69 -36 -69 -220v-22h69v-193h-193zM447 1040v162q0 297 194 345v-72q-70 -36 -70 -220v-22h70v-193h-194z" />
<glyph horiz-adv-x="749" d="M109 1040v72q69 37 69 220v22h-69v193h193v-162q0 -297 -193 -345zM447 1040v72q69 37 69 220v22h-69v193h194v-162q0 -297 -194 -345z" />
<glyph unicode="&#x201d;" horiz-adv-x="749" d="M109 1040v72q69 37 69 220v22h-69v193h193v-162q0 -297 -193 -345zM447 1040v72q69 37 69 220v22h-69v193h194v-162q0 -297 -194 -345z" />
<glyph horiz-adv-x="1125" d="M218 585q0 139 101.5 239.5t243.5 100.5q143 0 243.5 -101t100.5 -244q0 -142 -100.5 -243.5t-242.5 -101.5q-146 0 -246 101.5t-100 248.5z" />
<glyph unicode="&#x2022;" horiz-adv-x="1125" d="M218 585q0 139 101.5 239.5t243.5 100.5q143 0 243.5 -101t100.5 -244q0 -142 -100.5 -243.5t-242.5 -101.5q-146 0 -246 101.5t-100 248.5z" />
<glyph horiz-adv-x="1003" d="M121 508v145h761v-145h-761z" />
<glyph unicode="&#x2013;" horiz-adv-x="1003" d="M121 508v145h761v-145h-761z" />
<glyph horiz-adv-x="2007" d="M218 508v145h1571v-145h-1571z" />
<glyph unicode="&#x2014;" horiz-adv-x="2007" d="M218 508v145h1571v-145h-1571z" />
<glyph horiz-adv-x="1232" d="M290 1257q11 230 181 230q72 0 133 -38l58 -36q55 -34 85 -34q67 0 75 108h121q-11 -230 -182 -230q-71 0 -132 39l-59 36q-55 33 -84 33q-67 0 -75 -108h-121z" />
<glyph unicode="&#x2dc;" horiz-adv-x="1232" d="M290 1257q11 230 181 230q72 0 133 -38l58 -36q55 -34 85 -34q67 0 75 108h121q-11 -230 -182 -230q-71 0 -132 39l-59 36q-55 33 -84 33q-67 0 -75 -108h-121z" />
<glyph horiz-adv-x="1619" d="M0 1330v120h653v-120h-242v-605h-169v605h-242zM774 725v725h229l152 -418l147 418h209v-725h-169v526l-160 -465h-116l-160 423v-484h-132z" />
<glyph unicode="&#x2122;" horiz-adv-x="1619" d="M0 1330v120h653v-120h-242v-605h-169v605h-242zM774 725v725h229l152 -418l147 418h209v-725h-169v526l-160 -465h-116l-160 423v-484h-132z" />
<glyph horiz-adv-x="1023" d="M154 37v178q189 -94 329 -94q83 0 138 45t55 112q0 99 -154 164l-112 48q-250 104 -250 299q0 139 98.5 219t269.5 80q89 0 221 -25l40 -8v-160q-162 48 -257 48q-186 0 -186 -135q0 -88 141 -147l93 -40q158 -66 223.5 -140t65.5 -185q0 -140 -110.5 -230t-283.5 -90 q-132 0 -321 61zM167 1572h145l197 -198h2l197 198h145l-236 -315h-213z" />
<glyph unicode="&#x161;" horiz-adv-x="1023" d="M154 37v178q189 -94 329 -94q83 0 138 45t55 112q0 99 -154 164l-112 48q-250 104 -250 299q0 139 98.5 219t269.5 80q89 0 221 -25l40 -8v-160q-162 48 -257 48q-186 0 -186 -135q0 -88 141 -147l93 -40q158 -66 223.5 -140t65.5 -185q0 -140 -110.5 -230t-283.5 -90 q-132 0 -321 61zM167 1572h145l197 -198h2l197 198h145l-236 -315h-213z" />
<glyph horiz-adv-x="665" d="M73 170l290 362l-290 363l97 72l386 -435l-386 -435z" />
<glyph unicode="&#x203a;" horiz-adv-x="665" d="M73 170l290 362l-290 363l97 72l386 -435l-386 -435z" />
<glyph horiz-adv-x="1862" d="M109 532q0 254 135.5 405t365.5 151q213 0 345 -196q119 196 357 196q409 0 409 -586h-660q29 -381 358 -381q137 0 302 69v-154q-189 -60 -343 -60q-276 0 -419 195q-127 -195 -351 -195q-228 0 -363.5 151.5t-135.5 404.5zM315 532q0 -192 77.5 -301.5t214.5 -109.5 q257 0 257 407q0 415 -252 415q-141 0 -219 -108.5t-78 -302.5zM1068 635h447q0 309 -210 309q-212 0 -237 -309z" />
<glyph unicode="&#x153;" horiz-adv-x="1862" d="M109 532q0 254 135.5 405t365.5 151q213 0 345 -196q119 196 357 196q409 0 409 -586h-660q29 -381 358 -381q137 0 302 69v-154q-189 -60 -343 -60q-276 0 -419 195q-127 -195 -351 -195q-228 0 -363.5 151.5t-135.5 404.5zM315 532q0 -192 77.5 -301.5t214.5 -109.5 q257 0 257 407q0 415 -252 415q-141 0 -219 -108.5t-78 -302.5zM1068 635h447q0 309 -210 309q-212 0 -237 -309z" />
<glyph horiz-adv-x="1250" d="M17 1450h235l376 -654l406 654h191l-518 -840v-610h-206v606zM342 1573v170h170v-170h-170zM729 1573v170h170v-170h-170z" />
<glyph unicode="&#x178;" horiz-adv-x="1250" d="M17 1450h235l376 -654l406 654h191l-518 -840v-610h-206v606zM342 1573v170h170v-170h-170zM729 1573v170h170v-170h-170z" />
<glyph unicode="&#xa1;" horiz-adv-x="635" d="M220 -97l25 774h145l24 -774v-290h-194v290zM220 870v194h194v-194h-194z" />
<glyph unicode="&#xa2;" d="M201 723q0 232 117.5 375t331.5 171v181h97v-181q130 -6 278 -45v-163q-173 59 -278 69v-823q133 0 278 66v-147q-146 -56 -278 -56v-170h-97v170q-199 19 -324 173t-125 380zM413 717q0 -323 237 -399v803q-237 -22 -237 -404z" />
<glyph unicode="&#xa3;" d="M242 0v170q206 65 206 309v223h-176v145h176v210q0 209 99.5 319.5t285.5 110.5q102 0 222 -30v-163q-121 48 -234 48q-180 0 -180 -226v-269h212v-145h-212v-125q0 -155 -35.5 -240t-134.5 -167h599v-170h-828z" />
<glyph unicode="&#xa4;" horiz-adv-x="1270" d="M96 272l191 192q-88 116 -88 261t88 262l-191 192l85 85l191 -191q123 87 262 87t262 -87l191 191l86 -85l-191 -192q87 -117 87 -262t-87 -261l191 -192l-86 -85l-191 191q-123 -88 -262 -88t-262 88l-191 -191zM344 725q0 -120 83.5 -205t202.5 -85q126 0 210 83.5 t84 207.5q0 122 -83.5 205.5t-206.5 83.5q-122 0 -206 -83.5t-84 -206.5z" />
<glyph unicode="&#xa5;" d="M78 1450h229l353 -563l380 563h175l-490 -725h290v-120h-290v-145h290v-122h-290v-338h-193v338h-290v122h290v145h-290v120h290z" />
<glyph unicode="&#xa6;" horiz-adv-x="749" d="M302 -290v725h145v-725h-145zM302 822v725h145v-725h-145z" />
<glyph unicode="&#xa7;" d="M217 -78q237 -103 400 -103q129 0 208 48.5t79 127.5q0 66 -42.5 104t-183.5 99l-173 73q-284 122 -284 330q0 148 144 293q-139 92 -139 236q0 161 126.5 259t334.5 98q147 0 338 -46v-157q-198 58 -339 58q-127 0 -205.5 -50t-78.5 -132q0 -58 38 -97t133 -77l134 -54 q202 -81 280 -159t78 -200q0 -139 -146 -302q161 -93 161 -262q0 -154 -131 -245t-352 -91q-151 0 -380 72v177zM390 648q0 -132 224 -226l209 -88q73 97 73 190q0 71 -46.5 116.5t-169.5 97.5l-217 91q-73 -88 -73 -181z" />
<glyph unicode="&#xa8;" horiz-adv-x="1232" d="M338 1257v170h170v-170h-170zM725 1257v170h170v-170h-170z" />
<glyph unicode="&#xa9;" horiz-adv-x="1716" d="M97 725q0 316 223.5 539t537.5 223q315 0 538.5 -223t223.5 -537q0 -319 -224 -541t-546 -222q-309 0 -531 225t-222 536zM206 725q0 -266 190.5 -459t453.5 -193q319 0 507 234q154 191 154 419q0 227 -154 418q-188 234 -499 234q-310 0 -498 -234q-154 -191 -154 -419 zM466 720q0 198 115 316t307 118q92 0 223 -25l26 -5v-120q-133 54 -239 54q-130 0 -208.5 -92t-78.5 -243q0 -150 82 -237t222 -87q111 0 222 61v-122q-138 -48 -250 -48q-185 0 -303 120.5t-118 309.5z" />
<glyph unicode="&#xaa;" horiz-adv-x="846" d="M121 1071q0 104 85.5 162.5t240.5 58.5h46v67q0 106 -115 106q-98 0 -202 -57v108q117 46 228 46q230 0 230 -200v-288q0 -87 55 -87q9 0 22 3l7 -82q-48 -17 -92 -17q-97 0 -120 90h-4q-96 -90 -194 -90q-83 0 -135 51t-52 129zM262 1090q0 -92 93 -92q66 0 138 61v148 h-38q-193 0 -193 -117z" />
<glyph unicode="&#xab;" horiz-adv-x="1051" d="M109 532l387 435l96 -72l-290 -363l290 -362l-96 -73zM496 532l387 435l96 -72l-290 -363l290 -362l-96 -73z" />
<glyph unicode="&#xac;" horiz-adv-x="1596" d="M218 725v145h1160v-580h-145v435h-1015z" />
<glyph unicode="&#xad;" horiz-adv-x="1088" d="M145 508v145h798v-145h-798z" />
<glyph unicode="&#xae;" horiz-adv-x="1716" d="M97 725q0 316 223.5 539t537.5 223q315 0 538.5 -223t223.5 -537q0 -319 -224 -541t-546 -222q-309 0 -531 225t-222 536zM206 725q0 -266 190.5 -459t453.5 -193q319 0 507 234q154 191 154 419q0 227 -154 418q-188 234 -499 234q-310 0 -498 -234q-154 -191 -154 -419 zM608 311v823h259q249 0 249 -202q0 -149 -144 -238l248 -383h-154l-222 343h-104v-343h-132zM731 757h38q218 0 218 162q0 130 -182 130h-74v-292z" />
<glyph unicode="&#xaf;" horiz-adv-x="634" d="M-314 119v145h629v-145h-629z" />
<glyph unicode="&#xb0;" horiz-adv-x="555" d="M63 1270q0 91 63 154t154 63t154.5 -63t63.5 -154q0 -92 -64 -155t-157 -63q-88 0 -151 64t-63 154zM160 1269q0 -48 35.5 -84t83.5 -36q50 0 86 35.5t36 84.5t-36 85.5t-85 36.5q-48 0 -84 -36.5t-36 -85.5z" />
<glyph unicode="&#xb1;" horiz-adv-x="1596" d="M218 0v145h1160v-145h-1160zM218 653v145h507v362h145v-362h508v-145h-508v-363h-145v363h-507z" />
<glyph unicode="&#xb2;" horiz-adv-x="846" d="M146 580v120q65 112 178 214l69 61q153 135 153 252q0 146 -160 146q-94 0 -218 -68v115q124 53 247 53q128 0 206.5 -66.5t78.5 -174.5q0 -137 -181 -284l-52 -43q-130 -107 -152 -205h381v-120h-550z" />
<glyph unicode="&#xb3;" horiz-adv-x="846" d="M155 587v120q127 -50 205 -50q80 0 130 44t50 115q0 179 -255 179h-50v91h43q239 0 239 163q0 126 -152 126q-92 0 -198 -49v110q107 37 221 37q276 0 276 -205q0 -154 -187 -218q216 -49 216 -234q0 -119 -85 -188t-232 -69q-105 0 -221 28z" />
<glyph unicode="&#xb4;" horiz-adv-x="1232" d="M387 1257l236 315h224l-315 -315h-145z" />
<glyph unicode="&#xb5;" horiz-adv-x="1257" d="M193 -387v1451h193v-701q0 -206 178 -206q162 0 306 217v690h193v-740q0 -181 58 -324h-212q-20 74 -39 200q-137 -224 -309 -224q-100 0 -175 48v-411h-193z" />
<glyph unicode="&#xb6;" d="M212 1131q0 173 94 246t316 73h387v-1740h-120v1620h-145v-1620h-122v1015q-193 14 -301.5 121.5t-108.5 284.5z" />
<glyph unicode="&#xb8;" horiz-adv-x="1232" d="M500 -323q45 -15 103 -15q101 0 101 72q0 94 -184 94l93 172h96l-59 -107q76 0 133 -46.5t57 -109.5q0 -67 -57.5 -113.5t-139.5 -46.5q-71 0 -143 20v80z" />
<glyph unicode="&#xb9;" horiz-adv-x="846" d="M181 580v109h218v635l-193 -48v112l338 85v-784h217v-109h-580z" />
<glyph unicode="&#xba;" horiz-adv-x="846" d="M121 1227q0 155 85.5 245t233.5 90q147 0 233 -90t86 -244q0 -158 -86 -247.5t-238 -89.5q-144 0 -229 91t-85 245zM274 1227q0 -238 164 -238q167 0 167 239q0 236 -165 236q-166 0 -166 -237z" />
<glyph unicode="&#xbb;" horiz-adv-x="1051" d="M73 170l290 362l-290 363l97 72l386 -435l-386 -435zM460 170l290 362l-290 363l96 72l387 -435l-387 -435z" />
<glyph unicode="&#xbc;" horiz-adv-x="1608" d="M75 1276v112l338 85v-893h-145v744zM147 -36l1067 1523h132l-1065 -1523h-134zM860 238v112l394 521h138v-518h120v-115h-120v-237h-134v237h-398zM986 353h272v357z" />
<glyph unicode="&#xbd;" horiz-adv-x="1608" d="M75 1276v112l338 85v-893h-145v744zM97 -36l1067 1523h132l-1065 -1523h-134zM958 1v120q65 112 178 214l69 61q153 135 153 252q0 146 -160 146q-94 0 -218 -68v115q124 53 247 53q128 0 206.5 -66.5t78.5 -174.5q0 -137 -181 -284l-52 -43q-130 -107 -152 -205h381 v-120h-550z" />
<glyph unicode="&#xbe;" horiz-adv-x="1608" d="M98 587v120q127 -50 205 -50q80 0 130 44t50 115q0 179 -255 179h-50v91h43q239 0 239 163q0 126 -152 126q-92 0 -198 -49v110q107 37 221 37q276 0 276 -205q0 -154 -187 -218q216 -49 216 -234q0 -119 -85 -188t-232 -69q-105 0 -221 28zM243 -36l1067 1523h132 l-1065 -1523h-134zM860 238v112l394 521h138v-518h120v-115h-120v-237h-134v237h-398zM986 353h272v357z" />
<glyph unicode="&#xbf;" horiz-adv-x="846" d="M36 -92q0 87 33.5 149t130.5 153l60 58q91 87 119.5 144t28.5 156v109h194v-54q0 -109 -30 -182t-114 -170l-63 -70q-153 -176 -153 -289q0 -87 67.5 -138.5t182.5 -51.5q148 0 318 73v-163q-182 -55 -340 -55q-200 0 -317 89.5t-117 241.5zM408 870v194h194v-194h-194z " />
<glyph unicode="&#xc0;" horiz-adv-x="1384" d="M17 0l575 1450h204l566 -1450h-222l-158 402h-614l-160 -402h-191zM427 555h495l-247 625zM380 1888h224l236 -315h-145z" />
<glyph unicode="&#xc1;" horiz-adv-x="1384" d="M17 0l575 1450h204l566 -1450h-222l-158 402h-614l-160 -402h-191zM427 555h495l-247 625zM550 1573l236 315h224l-315 -315h-145z" />
<glyph unicode="&#xc2;" horiz-adv-x="1384" d="M17 0l575 1450h204l566 -1450h-222l-158 402h-614l-160 -402h-191zM427 555h495l-247 625zM351 1573l237 315h213l236 -315h-145l-197 198h-2l-197 -198h-145z" />
<glyph unicode="&#xc3;" horiz-adv-x="1384" d="M17 0l575 1450h204l566 -1450h-222l-158 402h-614l-160 -402h-191zM427 555h495l-247 625zM363 1573q11 230 181 230q72 0 133 -38l58 -36q55 -34 85 -34q67 0 75 108h121q-11 -230 -182 -230q-71 0 -132 39l-59 36q-55 33 -84 33q-67 0 -75 -108h-121z" />
<glyph unicode="&#xc4;" horiz-adv-x="1384" d="M17 0l575 1450h204l566 -1450h-222l-158 402h-614l-160 -402h-191zM427 555h495l-247 625zM412 1573v170h170v-170h-170zM799 1573v170h170v-170h-170z" />
<glyph unicode="&#xc5;" horiz-adv-x="1384" d="M17 0l575 1450h204l566 -1450h-222l-158 402h-614l-160 -402h-191zM427 555h495l-247 625zM472 1675q0 92 64.5 157t157.5 65t158 -64.5t65 -157.5q0 -94 -65 -158.5t-161 -64.5q-91 0 -155 65.5t-64 157.5zM556 1675q0 -57 40.5 -97.5t95.5 -40.5q59 0 100 40t41 99 q0 57 -41 97t-98 40t-97.5 -40t-40.5 -98z" />
<glyph unicode="&#xc6;" horiz-adv-x="1819" d="M18 0l843 1450h866v-153h-606v-466h508v-152h-508v-525h651v-154h-857v406h-473l-236 -406h-188zM529 558h386v657z" />
<glyph unicode="&#xc7;" horiz-adv-x="1388" d="M102 724q0 363 187.5 563t528.5 200q195 0 457 -64v-193q-298 103 -460 103q-236 0 -365.5 -160t-129.5 -451q0 -277 138.5 -437.5t377.5 -160.5q206 0 441 127v-177q-215 -110 -469 -110q-338 0 -522 198.5t-184 561.5zM640 -323q45 -15 103 -15q101 0 101 72 q0 94 -184 94l93 172h96l-59 -107q76 0 133 -46.5t57 -109.5q0 -67 -57.5 -113.5t-139.5 -46.5q-71 0 -143 20v80z" />
<glyph unicode="&#xc8;" horiz-adv-x="1087" d="M187 0v1450h811v-153h-605v-466h507v-152h-507v-525h647v-154h-853zM292 1888h224l236 -315h-145z" />
<glyph unicode="&#xc9;" horiz-adv-x="1087" d="M187 0v1450h811v-153h-605v-466h507v-152h-507v-525h647v-154h-853zM447 1573l236 315h224l-315 -315h-145z" />
<glyph unicode="&#xca;" horiz-adv-x="1087" d="M187 0v1450h811v-153h-605v-466h507v-152h-507v-525h647v-154h-853zM260 1573l237 315h213l236 -315h-145l-197 198h-2l-197 -198h-145z" />
<glyph unicode="&#xcb;" horiz-adv-x="1087" d="M187 0v1450h811v-153h-605v-466h507v-152h-507v-525h647v-154h-853zM337 1573v170h170v-170h-170zM724 1573v170h170v-170h-170z" />
<glyph unicode="&#xcc;" horiz-adv-x="578" d="M186 0v1450h206v-1450h-206zM-26 1888h224l236 -315h-145z" />
<glyph unicode="&#xcd;" horiz-adv-x="578" d="M186 0v1450h206v-1450h-206zM145 1573l236 315h224l-315 -315h-145z" />
<glyph unicode="&#xce;" horiz-adv-x="578" d="M186 0v1450h206v-1450h-206zM-53 1573l237 315h213l236 -315h-145l-197 198h-2l-197 -198h-145z" />
<glyph unicode="&#xcf;" horiz-adv-x="578" d="M186 0v1450h206v-1450h-206zM12 1573v170h170v-170h-170zM399 1573v170h170v-170h-170z" />
<glyph unicode="&#xd0;" horiz-adv-x="1521" d="M36 674v145h170v631h482q217 0 349 -48t229 -162q154 -183 154 -480q0 -337 -180 -545q-185 -215 -549 -215h-485v674h-170zM412 154h263q283 0 400 152q126 161 126 434q0 256 -124 402q-75 89 -180 122t-316 33h-169v-478h326v-145h-326v-520z" />
<glyph unicode="&#xd1;" horiz-adv-x="1482" d="M187 0v1450h202l730 -1120v1120h177v-1450h-201l-731 1120v-1120h-177zM439 1573q11 230 181 230q72 0 133 -38l58 -36q55 -34 85 -34q67 0 75 108h121q-11 -230 -182 -230q-71 0 -132 39l-59 36q-55 33 -84 33q-67 0 -75 -108h-121z" />
<glyph unicode="&#xd2;" horiz-adv-x="1559" d="M102 726q0 346 184.5 553.5t493.5 207.5q308 0 493 -207t185 -552q0 -352 -185 -558t-502 -206q-302 0 -485.5 209t-183.5 553zM320 727q0 -284 121 -446.5t333 -162.5q223 0 344.5 160t121.5 452q0 283 -122 443t-338 160t-338 -160.5t-122 -445.5zM465 1888h224 l236 -315h-145z" />
<glyph unicode="&#xd3;" horiz-adv-x="1559" d="M102 726q0 346 184.5 553.5t493.5 207.5q308 0 493 -207t185 -552q0 -352 -185 -558t-502 -206q-302 0 -485.5 209t-183.5 553zM320 727q0 -284 121 -446.5t333 -162.5q223 0 344.5 160t121.5 452q0 283 -122 443t-338 160t-338 -160.5t-122 -445.5zM636 1573l236 315 h224l-315 -315h-145z" />
<glyph unicode="&#xd4;" horiz-adv-x="1559" d="M102 726q0 346 184.5 553.5t493.5 207.5q308 0 493 -207t185 -552q0 -352 -185 -558t-502 -206q-302 0 -485.5 209t-183.5 553zM320 727q0 -284 121 -446.5t333 -162.5q223 0 344.5 160t121.5 452q0 283 -122 443t-338 160t-338 -160.5t-122 -445.5zM438 1573l237 315 h213l236 -315h-145l-197 198h-2l-197 -198h-145z" />
<glyph unicode="&#xd5;" horiz-adv-x="1559" d="M102 726q0 346 184.5 553.5t493.5 207.5q308 0 493 -207t185 -552q0 -352 -185 -558t-502 -206q-302 0 -485.5 209t-183.5 553zM320 727q0 -284 121 -446.5t333 -162.5q223 0 344.5 160t121.5 452q0 283 -122 443t-338 160t-338 -160.5t-122 -445.5zM455 1573 q11 230 181 230q72 0 133 -38l58 -36q55 -34 85 -34q67 0 75 108h121q-11 -230 -182 -230q-71 0 -132 39l-59 36q-55 33 -84 33q-67 0 -75 -108h-121z" />
<glyph unicode="&#xd6;" horiz-adv-x="1559" d="M102 726q0 346 184.5 553.5t493.5 207.5q308 0 493 -207t185 -552q0 -352 -185 -558t-502 -206q-302 0 -485.5 209t-183.5 553zM320 727q0 -284 121 -446.5t333 -162.5q223 0 344.5 160t121.5 452q0 283 -122 443t-338 160t-338 -160.5t-122 -445.5zM503 1573v170h170 v-170h-170zM890 1573v170h170v-170h-170z" />
<glyph unicode="&#xd7;" horiz-adv-x="1595" d="M218 103l477 477l-477 478l102 102l478 -477l478 477l102 -102l-477 -478l477 -477l-102 -103l-478 477l-478 -477z" />
<glyph unicode="&#xd8;" horiz-adv-x="1559" d="M102 726q0 346 184.5 553.5t492.5 207.5q232 0 405 -124l95 124h168l-165 -216q176 -212 176 -548q0 -344 -184.5 -551.5t-490.5 -207.5q-240 0 -407 123l-94 -123h-169l165 216q-176 213 -176 546zM320 727q0 -228 82 -385l673 880q-117 111 -296 111 q-215 0 -337 -160.5t-122 -445.5zM485 229q117 -111 297 -111q215 0 336.5 161t121.5 445q0 231 -82 385z" />
<glyph unicode="&#xd9;" horiz-adv-x="1390" d="M175 537v913h206v-915q0 -218 81 -317.5t257 -99.5q173 0 245 93.5t72 316.5v922h180v-919q0 -190 -37 -292t-134 -179q-122 -96 -339 -96q-272 0 -401.5 140t-129.5 433zM393 1888h224l236 -315h-145z" />
<glyph unicode="&#xda;" horiz-adv-x="1390" d="M175 537v913h206v-915q0 -218 81 -317.5t257 -99.5q173 0 245 93.5t72 316.5v922h180v-919q0 -190 -37 -292t-134 -179q-122 -96 -339 -96q-272 0 -401.5 140t-129.5 433zM563 1573l236 315h224l-315 -315h-145z" />
<glyph unicode="&#xdb;" horiz-adv-x="1390" d="M175 537v913h206v-915q0 -218 81 -317.5t257 -99.5q173 0 245 93.5t72 316.5v922h180v-919q0 -190 -37 -292t-134 -179q-122 -96 -339 -96q-272 0 -401.5 140t-129.5 433zM365 1573l237 315h213l236 -315h-145l-197 198h-2l-197 -198h-145z" />
<glyph unicode="&#xdc;" horiz-adv-x="1390" d="M175 537v913h206v-915q0 -218 81 -317.5t257 -99.5q173 0 245 93.5t72 316.5v922h180v-919q0 -190 -37 -292t-134 -179q-122 -96 -339 -96q-272 0 -401.5 140t-129.5 433zM418 1573v170h170v-170h-170zM805 1573v170h170v-170h-170z" />
<glyph unicode="&#xdd;" horiz-adv-x="1250" d="M17 1450h235l376 -654l406 654h191l-518 -840v-610h-206v606zM483 1573l236 315h224l-315 -315h-145z" />
<glyph unicode="&#xde;" horiz-adv-x="1109" d="M187 0v1450h204v-287h191q263 0 377.5 -89t114.5 -291q0 -232 -157 -363t-435 -131h-91v-289h-204zM391 440h107q171 0 265.5 85.5t94.5 240.5q0 131 -78.5 186.5t-262.5 55.5h-126v-568z" />
<glyph unicode="&#xdf;" horiz-adv-x="1200" d="M193 0v1128q0 243 82.5 343.5t280.5 100.5q159 0 256 -71t97 -188q0 -119 -128 -289q-75 -99 -75 -139q0 -59 107 -151l158 -133q170 -143 170 -308q0 -147 -92.5 -232t-250.5 -85q-136 0 -275 56v166q180 -77 278 -77q71 0 114 42t43 112q0 85 -112 181l-187 160 q-123 106 -123 215q0 82 98 233q81 125 81 214q0 149 -166 149q-163 0 -163 -218v-1209h-193z" />
<glyph unicode="&#xe0;" horiz-adv-x="1108" d="M101 268q0 174 146.5 267.5t420.5 93.5h45v129q0 185 -190 185q-153 0 -330 -94v159q195 80 366 80q178 0 262.5 -80.5t84.5 -249.5v-483q0 -165 102 -165q13 0 38 4l13 -107q-65 -31 -145 -31q-135 0 -172 159q-174 -159 -334 -159q-133 0 -220 82.5t-87 209.5zM294 299 q0 -70 49 -118t120 -48q120 0 250 107v275l-64 2q-159 0 -257 -60t-98 -158zM250 1572h224l236 -315h-145z" />
<glyph unicode="&#xe1;" horiz-adv-x="1108" d="M101 268q0 174 146.5 267.5t420.5 93.5h45v129q0 185 -190 185q-153 0 -330 -94v159q195 80 366 80q178 0 262.5 -80.5t84.5 -249.5v-483q0 -165 102 -165q13 0 38 4l13 -107q-65 -31 -145 -31q-135 0 -172 159q-174 -159 -334 -159q-133 0 -220 82.5t-87 209.5zM294 299 q0 -70 49 -118t120 -48q120 0 250 107v275l-64 2q-159 0 -257 -60t-98 -158zM417 1257l236 315h224l-315 -315h-145z" />
<glyph unicode="&#xe2;" horiz-adv-x="1108" d="M101 268q0 174 146.5 267.5t420.5 93.5h45v129q0 185 -190 185q-153 0 -330 -94v159q195 80 366 80q178 0 262.5 -80.5t84.5 -249.5v-483q0 -165 102 -165q13 0 38 4l13 -107q-65 -31 -145 -31q-135 0 -172 159q-174 -159 -334 -159q-133 0 -220 82.5t-87 209.5zM294 299 q0 -70 49 -118t120 -48q120 0 250 107v275l-64 2q-159 0 -257 -60t-98 -158zM216 1257l237 315h213l236 -315h-145l-197 198h-2l-197 -198h-145z" />
<glyph unicode="&#xe3;" horiz-adv-x="1108" d="M101 268q0 174 146.5 267.5t420.5 93.5h45v129q0 185 -190 185q-153 0 -330 -94v159q195 80 366 80q178 0 262.5 -80.5t84.5 -249.5v-483q0 -165 102 -165q13 0 38 4l13 -107q-65 -31 -145 -31q-135 0 -172 159q-174 -159 -334 -159q-133 0 -220 82.5t-87 209.5zM294 299 q0 -70 49 -118t120 -48q120 0 250 107v275l-64 2q-159 0 -257 -60t-98 -158zM231 1257q11 230 181 230q72 0 133 -38l58 -36q55 -34 85 -34q67 0 75 108h121q-11 -230 -182 -230q-71 0 -132 39l-59 36q-55 33 -84 33q-67 0 -75 -108h-121z" />
<glyph unicode="&#xe4;" horiz-adv-x="1108" d="M101 268q0 174 146.5 267.5t420.5 93.5h45v129q0 185 -190 185q-153 0 -330 -94v159q195 80 366 80q178 0 262.5 -80.5t84.5 -249.5v-483q0 -165 102 -165q13 0 38 4l13 -107q-65 -31 -145 -31q-135 0 -172 159q-174 -159 -334 -159q-133 0 -220 82.5t-87 209.5zM294 299 q0 -70 49 -118t120 -48q120 0 250 107v275l-64 2q-159 0 -257 -60t-98 -158zM279 1257v170h170v-170h-170zM666 1257v170h170v-170h-170z" />
<glyph unicode="&#xe5;" horiz-adv-x="1108" d="M101 268q0 174 146.5 267.5t420.5 93.5h45v129q0 185 -190 185q-153 0 -330 -94v159q195 80 366 80q178 0 262.5 -80.5t84.5 -249.5v-483q0 -165 102 -165q13 0 38 4l13 -107q-65 -31 -145 -31q-135 0 -172 159q-174 -159 -334 -159q-133 0 -220 82.5t-87 209.5zM294 299 q0 -70 49 -118t120 -48q120 0 250 107v275l-64 2q-159 0 -257 -60t-98 -158zM335 1480q0 92 64.5 157t157.5 65t158 -64.5t65 -157.5q0 -94 -65 -158.5t-161 -64.5q-91 0 -155 65.5t-64 157.5zM419 1480q0 -57 40.5 -97.5t95.5 -40.5q59 0 100 40t41 99q0 57 -41 97t-98 40 t-97.5 -40t-40.5 -98z" />
<glyph unicode="&#xe6;" horiz-adv-x="1708" d="M101 268q0 174 146.5 267.5t420.5 93.5h45v129q0 185 -190 185q-153 0 -330 -94v159q195 80 366 80q191 0 300 -119q121 119 297 119q410 0 410 -586h-659q28 -381 358 -381q137 0 301 69v-154q-189 -60 -352 -60q-279 0 -421 213q-186 -213 -385 -213q-133 0 -220 82.5 t-87 209.5zM294 299q0 -70 49 -118t120 -48q120 0 250 107v275l-64 2q-159 0 -257 -60t-98 -158zM913 635h447q0 309 -209 309q-213 0 -238 -309z" />
<glyph unicode="&#xe7;" horiz-adv-x="1028" d="M109 538q0 260 140.5 405t392.5 145q124 0 278 -34v-162q-163 48 -266 48q-148 0 -238 -111.5t-90 -296.5q0 -179 92.5 -290t241.5 -111q132 0 272 68v-167q-187 -56 -323 -56q-216 0 -358 159.5t-142 402.5zM469 -323q45 -15 103 -15q101 0 101 72q0 94 -184 94l93 172 h96l-59 -107q76 0 133 -46.5t57 -109.5q0 -67 -57.5 -113.5t-139.5 -46.5q-71 0 -143 20v80z" />
<glyph unicode="&#xe8;" horiz-adv-x="1118" d="M109 537q0 242 130.5 397t334.5 155q193 0 298.5 -137.5t105.5 -389.5l-1 -60h-671q42 -380 371 -380q121 0 296 65v-153q-194 -58 -332 -58q-235 0 -383.5 156t-148.5 405zM315 647h469q0 297 -221 297q-223 0 -248 -297zM244 1572h224l236 -315h-145z" />
<glyph unicode="&#xe9;" horiz-adv-x="1118" d="M109 537q0 242 130.5 397t334.5 155q193 0 298.5 -137.5t105.5 -389.5l-1 -60h-671q42 -380 371 -380q121 0 296 65v-153q-194 -58 -332 -58q-235 0 -383.5 156t-148.5 405zM315 647h469q0 297 -221 297q-223 0 -248 -297zM413 1257l236 315h224l-315 -315h-145z" />
<glyph unicode="&#xea;" horiz-adv-x="1118" d="M109 537q0 242 130.5 397t334.5 155q193 0 298.5 -137.5t105.5 -389.5l-1 -60h-671q42 -380 371 -380q121 0 296 65v-153q-194 -58 -332 -58q-235 0 -383.5 156t-148.5 405zM315 647h469q0 297 -221 297q-223 0 -248 -297zM232 1257l237 315h213l236 -315h-145l-197 198 h-2l-197 -198h-145z" />
<glyph unicode="&#xeb;" horiz-adv-x="1118" d="M109 537q0 242 130.5 397t334.5 155q193 0 298.5 -137.5t105.5 -389.5l-1 -60h-671q42 -380 371 -380q121 0 296 65v-153q-194 -58 -332 -58q-235 0 -383.5 156t-148.5 405zM315 647h469q0 297 -221 297q-223 0 -248 -297zM303 1257v170h170v-170h-170zM690 1257v170h170 v-170h-170z" />
<glyph unicode="&#xec;" horiz-adv-x="580" d="M193 0v1064h193v-1064h-193zM-24 1572h224l236 -315h-145z" />
<glyph unicode="&#xed;" horiz-adv-x="580" d="M193 0v1064h193v-1064h-193zM145 1257l236 315h224l-315 -315h-145z" />
<glyph unicode="&#xee;" horiz-adv-x="580" d="M193 0v1064h193v-1064h-193zM-53 1257l237 315h213l236 -315h-145l-197 198h-2l-197 -198h-145z" />
<glyph unicode="&#xef;" horiz-adv-x="580" d="M193 0v1064h193v-1064h-193zM12 1257v170h170v-170h-170zM399 1257v170h170v-170h-170z" />
<glyph unicode="&#xf0;" horiz-adv-x="1209" d="M107 527q0 239 135 389t351 150q61 0 134 -20q-78 142 -242 245l-165 -165l-85 85l141 141q-114 50 -268 50v145q216 0 389 -74l165 166l86 -86l-140 -140q235 -156 363.5 -377t128.5 -472q0 -265 -136.5 -426.5t-360.5 -161.5q-223 0 -359.5 151.5t-136.5 399.5z M313 526q0 -185 78.5 -295t212.5 -110q141 0 221 110.5t80 305.5q0 387 -293 387q-141 0 -220 -106t-79 -292z" />
<glyph unicode="&#xf1;" horiz-adv-x="1245" d="M193 0v1064h193v-200q153 224 374 224q139 0 221 -88t82 -236v-764h-193v702q0 118 -34.5 168.5t-115.5 50.5q-177 0 -334 -232v-689h-193zM326 1257q11 230 181 230q72 0 133 -38l58 -36q55 -34 85 -34q67 0 75 108h121q-11 -230 -182 -230q-71 0 -132 39l-59 36 q-55 33 -84 33q-67 0 -75 -108h-121z" />
<glyph unicode="&#xf2;" horiz-adv-x="1232" d="M109 532q0 257 136.5 406.5t370.5 149.5q235 0 371.5 -149.5t136.5 -404.5q0 -261 -137 -409.5t-377 -148.5q-229 0 -365 151t-136 405zM315 532q0 -195 78 -303t219 -108q307 0 307 413q0 409 -303 409q-301 0 -301 -411zM304 1572h224l236 -315h-145z" />
<glyph unicode="&#xf3;" horiz-adv-x="1232" d="M109 532q0 257 136.5 406.5t370.5 149.5q235 0 371.5 -149.5t136.5 -404.5q0 -261 -137 -409.5t-377 -148.5q-229 0 -365 151t-136 405zM315 532q0 -195 78 -303t219 -108q307 0 307 413q0 409 -303 409q-301 0 -301 -411zM471 1257l236 315h224l-315 -315h-145z" />
<glyph unicode="&#xf4;" horiz-adv-x="1232" d="M109 532q0 257 136.5 406.5t370.5 149.5q235 0 371.5 -149.5t136.5 -404.5q0 -261 -137 -409.5t-377 -148.5q-229 0 -365 151t-136 405zM315 532q0 -195 78 -303t219 -108q307 0 307 413q0 409 -303 409q-301 0 -301 -411zM273 1257l237 315h213l236 -315h-145l-197 198 h-2l-197 -198h-145z" />
<glyph unicode="&#xf5;" horiz-adv-x="1232" d="M109 532q0 257 136.5 406.5t370.5 149.5q235 0 371.5 -149.5t136.5 -404.5q0 -261 -137 -409.5t-377 -148.5q-229 0 -365 151t-136 405zM315 532q0 -195 78 -303t219 -108q307 0 307 413q0 409 -303 409q-301 0 -301 -411zM290 1257q11 230 181 230q72 0 133 -38l58 -36 q55 -34 85 -34q67 0 75 108h121q-11 -230 -182 -230q-71 0 -132 39l-59 36q-55 33 -84 33q-67 0 -75 -108h-121z" />
<glyph unicode="&#xf6;" horiz-adv-x="1232" d="M109 532q0 257 136.5 406.5t370.5 149.5q235 0 371.5 -149.5t136.5 -404.5q0 -261 -137 -409.5t-377 -148.5q-229 0 -365 151t-136 405zM315 532q0 -195 78 -303t219 -108q307 0 307 413q0 409 -303 409q-301 0 -301 -411zM338 1257v170h170v-170h-170zM725 1257v170h170 v-170h-170z" />
<glyph unicode="&#xf7;" horiz-adv-x="1596" d="M218 508v145h1160v-145h-1160zM677 0v242h242v-242h-242zM677 919v241h242v-241h-242z" />
<glyph unicode="&#xf8;" horiz-adv-x="1232" d="M109 -24l127 162l-3 3q-124 143 -124 388q0 259 136 409t371 150q175 0 298 -84l67 84h143l-126 -162l2 -4q124 -156 124 -389q0 -257 -136 -407t-371 -150q-170 0 -298 83l-65 -83h-145zM315 536q0 -142 42 -244l453 578q-79 73 -192 73q-144 0 -223.5 -107.5 t-79.5 -299.5zM423 192q76 -71 191 -71q145 0 225 107t80 299q0 134 -42 244z" />
<glyph unicode="&#xf9;" horiz-adv-x="1245" d="M181 300v764h193v-701q0 -120 35 -170.5t116 -50.5q177 0 333 232v690h194v-1064h-194v200q-153 -224 -373 -224q-139 0 -221.5 87.5t-82.5 236.5zM304 1572h224l236 -315h-145z" />
<glyph unicode="&#xfa;" horiz-adv-x="1245" d="M181 300v764h193v-701q0 -120 35 -170.5t116 -50.5q177 0 333 232v690h194v-1064h-194v200q-153 -224 -373 -224q-139 0 -221.5 87.5t-82.5 236.5zM471 1257l236 315h224l-315 -315h-145z" />
<glyph unicode="&#xfb;" horiz-adv-x="1245" d="M181 300v764h193v-701q0 -120 35 -170.5t116 -50.5q177 0 333 232v690h194v-1064h-194v200q-153 -224 -373 -224q-139 0 -221.5 87.5t-82.5 236.5zM273 1257l237 315h213l236 -315h-145l-197 198h-2l-197 -198h-145z" />
<glyph unicode="&#xfc;" horiz-adv-x="1245" d="M181 300v764h193v-701q0 -120 35 -170.5t116 -50.5q177 0 333 232v690h194v-1064h-194v200q-153 -224 -373 -224q-139 0 -221.5 87.5t-82.5 236.5zM338 1257v170h170v-170h-170zM725 1257v170h170v-170h-170z" />
<glyph unicode="&#xfd;" horiz-adv-x="1048" d="M16 1064h208l305 -801l326 801h182l-581 -1451h-201l172 387zM386 1257l236 315h224l-315 -315h-145z" />
<glyph unicode="&#xfe;" horiz-adv-x="1263" d="M193 -387v1934h193v-683q119 224 356 224q192 0 302 -140t110 -384q0 -264 -124.5 -426t-328.5 -162q-189 0 -315 145v-508h-193zM386 254q149 -133 284 -133q134 0 206.5 111t72.5 313q0 374 -247 374q-162 0 -316 -175v-490z" />
<glyph unicode="&#xff;" horiz-adv-x="1048" d="M16 1064h208l305 -801l326 801h182l-581 -1451h-201l172 387zM261 1257v170h170v-170h-170zM648 1257v170h170v-170h-170z" />
<glyph unicode="&#x131;" horiz-adv-x="580" d="M193 0v1064h193v-1064h-193z" />
<glyph unicode="&#x2c7;" horiz-adv-x="1232" d="M273 1572h145l197 -198h2l197 198h145l-236 -315h-213z" />
<glyph unicode="&#x2c9;" horiz-adv-x="1232" d="M302 1257v145h629v-145h-629z" />
<glyph unicode="&#x2da;" horiz-adv-x="1232" d="M394 1480q0 92 64.5 157t157.5 65t158 -64.5t65 -157.5q0 -94 -65 -158.5t-161 -64.5q-91 0 -155 65.5t-64 157.5zM478 1480q0 -57 40.5 -97.5t95.5 -40.5q59 0 100 40t41 99q0 57 -41 97t-98 40t-97.5 -40t-40.5 -98z" />
<glyph unicode="&#x2071;" horiz-adv-x="846" d="M218 1276v112l338 85v-893h-145v744z" />
<glyph unicode="&#x2074;" horiz-adv-x="846" d="M121 817v112l394 521h138v-518h120v-115h-120v-237h-134v237h-398zM247 932h272v357z" />
<glyph unicode="&#x2215;" horiz-adv-x="0" d="M-606 -36l1067 1523h132l-1065 -1523h-134z" />
<glyph unicode="&#xe000;" horiz-adv-x="1065" d="M0 1065h1065v-1065h-1065v1065z" />
<glyph unicode="&#xfb01;" horiz-adv-x="1318" d="M931 0v1064h193v-1064h-193zM931 1257v193h193v-193h-193zM78 919v145h151v128q0 380 347 380q97 0 221 -32v-153q-131 40 -209 40q-95 0 -130 -45.5t-35 -169.5v-148h266v-145h-266v-919h-194v919h-151z" />
<glyph unicode="&#xfb02;" horiz-adv-x="1318" d="M931 0v1547h193v-1547h-193zM78 919v145h151v128q0 380 347 380q97 0 221 -32v-153q-131 40 -209 40q-95 0 -130 -45.5t-35 -169.5v-148h266v-145h-266v-919h-194v919h-151z" />
<glyph unicode="&#xfb03;" horiz-adv-x="2056" d="M1669 0v1064h193v-1064h-193zM1669 1257v193h193v-193h-193zM816 919v145h151v128q0 380 347 380q97 0 221 -32v-153q-131 40 -209 40q-95 0 -130 -45.5t-35 -169.5v-148h266v-145h-266v-919h-194v919h-151zM78 919v145h151v128q0 380 347 380q97 0 221 -32v-153 q-131 40 -209 40q-95 0 -130 -45.5t-35 -169.5v-148h266v-145h-266v-919h-194v919h-151z" />
<glyph unicode="&#xfb04;" horiz-adv-x="2056" d="M1669 0v1547h193v-1547h-193zM816 919v145h151v128q0 380 347 380q97 0 221 -32v-153q-131 40 -209 40q-95 0 -130 -45.5t-35 -169.5v-148h266v-145h-266v-919h-194v919h-151zM78 919v145h151v128q0 380 347 380q97 0 221 -32v-153q-131 40 -209 40q-95 0 -130 -45.5 t-35 -169.5v-148h266v-145h-266v-919h-194v919h-151z" />
</font>
</defs>
</svg>
